<svg width="378.000000" height="314.000000" viewBox="0 0 378 314" fill="none" xmlns="http://www.w3.org/2000/svg" xmlns:xlink="http://www.w3.org/1999/xlink">
	<desc>
			Created with Pixso.
	</desc>
	<defs>
		<filter id="filter_14_3609_dd" x="51.451172" y="38.966125" width="273.912109" height="273.612488" filterUnits="userSpaceOnUse" color-interpolation-filters="sRGB">
			<feFlood flood-opacity="0" result="BackgroundImageFix"/>
			<feColorMatrix in="SourceAlpha" type="matrix" values="0 0 0 0 0 0 0 0 0 0 0 0 0 0 0 0 0 0 127 0" result="hardAlpha"/>
			<feMorphology radius="-11.3536" in="" result="BackgroundImageFix"/>
			<feOffset dx="0" dy="18.9227"/>
			<feGaussianBlur stdDeviation="21.1304"/>
			<feComposite in2="hardAlpha" operator="out" k2="-1" k3="1"/>
			<feColorMatrix type="matrix" values="0 0 0 0 0 0 0 0 0 0 0 0 0 0 0 0 0 0 0.3 0"/>
			<feBlend mode="normal" in2="BackgroundImageFix" result="effect_dropShadow_1"/>
			<feBlend mode="normal" in="SourceGraphic" in2="effect_dropShadow_1" result="shape"/>
		</filter>
		<clipPath id="clip13_2814">
			<rect id="Обложка карточки" rx="29.684692" width="377.369385" height="313.369385" transform="translate(0.315307 0.315307)" fill="white" fill-opacity="0"/>
		</clipPath>
	</defs>
	<rect id="Обложка карточки" rx="29.684692" width="377.369385" height="313.369385" transform="translate(0.315307 0.315307)" fill="#AD61FF" fill-opacity="1.000000"/>
	<g clip-path="url(#clip13_2814)">
		<rect id="Frame 2043683072" rx="18.775000" width="100.966660" height="100.966667" transform="translate(-29.672852 -154.736328) rotate(10.000000)" fill="#D9B6FF" fill-opacity="1.000000"/>
		<path id="44" d="M5.21 -88.08L9.37 -87.35L10.48 -93.62L6.32 -94.35L7.17 -99.1L-0.31 -100.42L-1.15 -95.67L-6.83 -96.67L7.45 -111.01L-0.73 -112.45L-16.38 -97.2L-17.29 -92.05L-2.51 -89.44L-3.45 -84.08L4.26 -82.72L5.21 -88.08ZM33.19 -83.15L37.35 -82.41L38.46 -88.69L34.3 -89.42L35.15 -94.17L27.67 -95.49L26.83 -90.74L21.15 -91.74L35.43 -106.07L27.24 -107.52L11.6 -92.27L10.69 -87.11L25.47 -84.51L24.52 -79.15L32.24 -77.79L33.19 -83.15Z" fill="#FFFFFF" fill-opacity="1.000000" fill-rule="evenodd"/>
		<path id="44" d="M9.37 -87.35L5.21 -88.08L4.26 -82.72L-3.45 -84.08L-2.51 -89.44L-17.29 -92.05L-16.38 -97.2L-0.73 -112.45L7.45 -111.01L-6.83 -96.67L-1.15 -95.67L-0.31 -100.42L7.17 -99.1L6.32 -94.35L10.48 -93.62L9.37 -87.35ZM37.35 -82.41L33.19 -83.15L32.24 -77.79L24.52 -79.15L25.47 -84.51L10.69 -87.11L11.6 -92.27L27.24 -107.52L35.43 -106.07L21.15 -91.74L26.83 -90.74L27.67 -95.49L35.15 -94.17L34.3 -89.42L38.46 -88.69L37.35 -82.41Z" stroke="#202027" stroke-opacity="1.000000" stroke-width="0.634167"/>
		<rect id="Frame 2043683072" rx="18.775000" width="100.966660" height="100.966667" transform="translate(-29.672852 -154.736328) rotate(10.000000)" stroke="#202027" stroke-opacity="1.000000" stroke-width="0.500000"/>
		<rect id="Frame 2043683060" rx="18.775000" width="100.966660" height="100.966667" transform="translate(77.824219 -135.781738) rotate(10.000000)" fill="#D9B6FF" fill-opacity="1.000000"/>
		<path id="6" d="M125.91 -78.89Q124.18 -79.96 122.01 -80.34Q118.49 -80.97 115.89 -79.69Q115.6 -79.55 115.32 -79.38Q116.07 -82.15 117.88 -83.52Q118.1 -83.68 118.34 -83.83Q118.68 -84.04 119.04 -84.2Q120.99 -85.09 123.55 -84.64Q126.67 -84.09 128.46 -82.3L132.34 -87.47Q131 -88.73 128.93 -89.63Q126.87 -90.53 124.47 -90.96Q120.03 -91.74 116.35 -90.53Q114.87 -90.04 113.59 -89.25Q111.68 -88.06 110.2 -86.19Q107.73 -83.06 106.89 -78.27Q105.76 -71.9 108.3 -67.81Q108.42 -67.61 108.55 -67.42Q109.13 -66.57 109.85 -65.85Q112.63 -63.04 117.39 -62.2Q120.48 -61.66 123.18 -62.39Q125.05 -62.9 126.5 -63.97Q127.16 -64.45 127.73 -65.05Q128.24 -65.58 128.65 -66.19Q129.72 -67.76 130.08 -69.81Q130.42 -71.74 129.99 -73.47Q129.84 -74.08 129.6 -74.66Q129.21 -75.59 128.64 -76.38Q127.83 -77.52 126.65 -78.39Q126.29 -78.66 125.91 -78.89ZM120.31 -68.13Q119.26 -67.68 117.91 -67.92Q116.33 -68.2 115.45 -69.14Q115.33 -69.26 115.23 -69.4Q114.89 -69.84 114.73 -70.33Q114.45 -71.16 114.62 -72.13Q114.8 -73.14 115.38 -73.83Q115.7 -74.22 116.15 -74.5Q116.41 -74.67 116.69 -74.79Q117.76 -75.24 119.13 -75Q120.57 -74.74 121.43 -73.89Q121.59 -73.73 121.73 -73.55Q122.03 -73.17 122.19 -72.74Q122.53 -71.87 122.34 -70.81Q122.14 -69.67 121.48 -68.94Q121.19 -68.63 120.81 -68.39Q120.57 -68.24 120.31 -68.13Z" fill="#FFFFFF" fill-opacity="1.000000" fill-rule="evenodd"/>
		<path id="6" d="M122.01 -80.34Q124.65 -79.88 126.65 -78.39Q128.66 -76.91 129.6 -74.66Q130.54 -72.41 130.08 -69.81Q129.58 -66.98 127.73 -65.05Q125.89 -63.13 123.18 -62.39Q120.48 -61.66 117.39 -62.2Q111.4 -63.26 108.55 -67.42Q105.7 -71.6 106.89 -78.27Q107.73 -83.06 110.2 -86.19Q112.68 -89.32 116.35 -90.53Q120.03 -91.74 124.47 -90.96Q126.87 -90.53 128.93 -89.63Q131 -88.73 132.34 -87.47L128.46 -82.3Q126.67 -84.09 123.55 -84.64Q120.52 -85.18 118.34 -83.83Q116.16 -82.48 115.32 -79.38Q118.09 -81.03 122.01 -80.34ZM117.91 -67.92Q119.59 -67.62 120.81 -68.39Q122.05 -69.17 122.34 -70.81Q122.62 -72.41 121.73 -73.55Q120.84 -74.69 119.13 -75Q117.41 -75.3 116.15 -74.5Q114.9 -73.72 114.62 -72.13Q114.35 -70.57 115.23 -69.4Q116.12 -68.23 117.91 -67.92Z" stroke="#202027" stroke-opacity="1.000000" stroke-width="0.634167"/>
		<rect id="Frame 2043683060" rx="18.775000" width="100.966660" height="100.966667" transform="translate(77.824219 -135.781738) rotate(10.000000)" stroke="#202027" stroke-opacity="1.000000" stroke-width="0.500000"/>
		<rect id="Frame 2043683061" rx="18.775000" width="100.966660" height="100.966667" transform="translate(185.321289 -116.827148) rotate(10.000000)" fill="#D9B6FF" fill-opacity="1.000000"/>
		<path id="11" d="M220.81 -44.54L225.77 -72.51L212.66 -74.82L211.58 -68.72L216.77 -67.8L212.9 -45.93L220.81 -44.54ZM237 -41.69L241.96 -69.66L228.85 -71.97L227.77 -65.86L232.96 -64.95L229.09 -43.08L237 -41.69Z" fill="#FFFFFF" fill-opacity="1.000000" fill-rule="evenodd"/>
		<path id="11" d="M225.77 -72.51L220.81 -44.54L212.9 -45.93L216.77 -67.8L211.58 -68.72L212.66 -74.82L225.77 -72.51ZM241.96 -69.66L237 -41.69L229.09 -43.08L232.96 -64.95L227.77 -65.86L228.85 -71.97L241.96 -69.66Z" stroke="#202027" stroke-opacity="1.000000" stroke-width="0.634167"/>
		<rect id="Frame 2043683061" rx="18.775000" width="100.966660" height="100.966667" transform="translate(185.321289 -116.827148) rotate(10.000000)" stroke="#202027" stroke-opacity="1.000000" stroke-width="0.500000"/>
		<rect id="Frame 2043683123" rx="18.775000" width="100.966660" height="100.966667" transform="translate(292.818359 -97.872437) rotate(10.000000)" fill="#D9B6FF" fill-opacity="1.000000"/>
		<path id="48" d="M358.55 -32.62Q357.8 -34.44 356.09 -35.89Q357.42 -36.51 358.36 -37.51Q358.56 -37.72 358.73 -37.94Q358.97 -38.23 359.16 -38.55Q359.84 -39.64 360.08 -41Q360.35 -42.5 360.04 -43.88Q359.85 -44.74 359.44 -45.54Q359.42 -45.57 359.41 -45.59Q358.34 -47.67 356.01 -49.09Q353.65 -50.55 350.37 -51.13Q347.09 -51.7 344.38 -51.15Q341.7 -50.61 339.98 -49.03Q339.95 -49 339.93 -48.98Q339.28 -48.38 338.82 -47.65Q338.04 -46.46 337.77 -44.93Q337.53 -43.57 337.79 -42.31Q337.87 -41.95 337.99 -41.6Q338.08 -41.33 338.19 -41.06Q338.73 -39.81 339.77 -38.77Q337.66 -37.99 336.33 -36.54Q336.04 -36.22 335.79 -35.86Q334.92 -34.61 334.63 -32.96Q334.33 -31.3 334.68 -29.78Q334.89 -28.89 335.32 -28.05Q336.49 -25.79 339.05 -24.22Q341.62 -22.66 345.22 -22.03Q348.82 -21.39 351.76 -21.98Q354.72 -22.58 356.58 -24.3Q357.29 -24.95 357.79 -25.74Q358.63 -27.03 358.93 -28.68Q359.21 -30.3 358.84 -31.76Q358.72 -32.2 358.55 -32.62ZM328.12 -31.14L332.28 -30.41L333.39 -36.68L329.24 -37.42L330.08 -42.17L322.6 -43.48L321.76 -38.73L316.08 -39.73L330.36 -54.07L322.18 -55.51L306.53 -40.26L305.62 -35.11L320.41 -32.5L319.46 -27.15L327.18 -25.78L328.12 -31.14ZM347.1 -45.33Q348.08 -45.79 349.39 -45.56Q350.83 -45.31 351.6 -44.46Q351.65 -44.41 351.69 -44.35Q351.92 -44.07 352.06 -43.75Q352.39 -43 352.22 -42.02Q352.06 -41.11 351.54 -40.54Q351.28 -40.25 350.93 -40.04Q350.87 -40.01 350.81 -39.97Q349.78 -39.44 348.35 -39.69Q346.9 -39.95 346.14 -40.81Q346.1 -40.85 346.07 -40.9Q345.83 -41.19 345.69 -41.53Q345.38 -42.26 345.55 -43.19Q345.72 -44.17 346.29 -44.77Q346.54 -45.02 346.85 -45.21Q346.97 -45.28 347.1 -45.33ZM349.42 -27.98Q348.13 -27.24 346.2 -27.58Q344.28 -27.92 343.3 -29.06Q342.92 -29.51 342.74 -30.04Q342.45 -30.83 342.62 -31.79Q342.8 -32.78 343.36 -33.44Q343.71 -33.85 344.2 -34.13L344.21 -34.14Q345.52 -34.88 347.43 -34.54Q349.36 -34.2 350.32 -33.06L350.32 -33.05Q350.7 -32.61 350.89 -32.09Q351.19 -31.29 351.01 -30.32Q350.85 -29.37 350.31 -28.72Q349.95 -28.28 349.42 -27.98Z" fill="#FFFFFF" fill-opacity="1.000000" fill-rule="evenodd"/>
		<path id="48" d="M332.28 -30.41L328.12 -31.14L327.18 -25.78L319.46 -27.15L320.41 -32.5L305.62 -35.11L306.53 -40.26L322.18 -55.51L330.36 -54.07L316.08 -39.73L321.76 -38.73L322.6 -43.48L330.08 -42.17L329.24 -37.42L333.39 -36.68L332.28 -30.41ZM356.09 -35.89Q357.8 -34.44 358.55 -32.62Q359.3 -30.8 358.93 -28.68Q358.46 -26.03 356.58 -24.3Q354.72 -22.58 351.76 -21.98Q348.82 -21.39 345.22 -22.03Q341.62 -22.66 339.05 -24.22Q336.49 -25.79 335.32 -28.05Q334.16 -30.32 334.63 -32.96Q335 -35.08 336.33 -36.54Q337.66 -37.99 339.77 -38.77Q338.51 -40.03 337.99 -41.6Q337.46 -43.18 337.77 -44.93Q338.21 -47.37 339.93 -48.98Q341.67 -50.6 344.38 -51.15Q347.09 -51.7 350.37 -51.13Q353.65 -50.55 356.01 -49.09Q358.37 -47.65 359.44 -45.54Q360.51 -43.44 360.08 -41Q359.77 -39.25 358.73 -37.94Q357.7 -36.64 356.09 -35.89ZM349.39 -45.56Q347.91 -45.82 346.85 -45.21Q345.79 -44.59 345.55 -43.19Q345.31 -41.84 346.07 -40.9Q346.83 -39.96 348.35 -39.69Q349.87 -39.42 350.93 -40.04Q351.98 -40.66 352.22 -42.02Q352.47 -43.41 351.69 -44.35Q350.91 -45.3 349.39 -45.56ZM346.2 -27.58Q348.13 -27.24 349.42 -27.98Q350.73 -28.72 351.01 -30.32Q351.3 -31.92 350.32 -33.05Q349.36 -34.2 347.43 -34.54Q345.51 -34.88 344.2 -34.13Q342.91 -33.39 342.62 -31.79Q342.34 -30.2 343.3 -29.06Q344.28 -27.92 346.2 -27.58Z" stroke="#202027" stroke-opacity="1.000000" stroke-width="0.634167"/>
		<rect id="Frame 2043683123" rx="18.775000" width="100.966660" height="100.966667" transform="translate(292.818359 -97.872437) rotate(10.000000)" stroke="#202027" stroke-opacity="1.000000" stroke-width="0.500000"/>
		<rect id="Frame 2043683063" rx="18.775000" width="100.966660" height="100.966667" transform="translate(400.314453 -78.917969) rotate(10.000000)" fill="#D9B6FF" fill-opacity="1.000000"/>
		<path id="48" d="M466.04 -13.66Q465.3 -15.49 463.58 -16.94Q464.92 -17.56 465.86 -18.55Q466.05 -18.76 466.23 -18.98Q466.46 -19.28 466.66 -19.59Q467.34 -20.68 467.58 -22.05Q467.84 -23.55 467.54 -24.93Q467.35 -25.78 466.93 -26.59Q466.92 -26.61 466.91 -26.64Q465.84 -28.72 463.51 -30.14Q461.15 -31.59 457.87 -32.17Q454.59 -32.75 451.88 -32.19Q449.2 -31.65 447.47 -30.07Q447.45 -30.05 447.43 -30.03Q446.78 -29.42 446.31 -28.7Q445.54 -27.5 445.27 -25.98Q445.03 -24.62 445.29 -23.36Q445.37 -23 445.48 -22.64Q445.58 -22.37 445.69 -22.11Q446.23 -20.85 447.27 -19.81Q445.16 -19.04 443.82 -17.58Q443.53 -17.26 443.29 -16.91Q442.42 -15.66 442.12 -14.01Q441.83 -12.34 442.18 -10.83Q442.39 -9.94 442.81 -9.1Q443.98 -6.84 446.54 -5.27Q449.11 -3.71 452.72 -3.08Q456.32 -2.44 459.26 -3.03Q462.21 -3.62 464.08 -5.35Q464.78 -6 465.29 -6.78Q466.13 -8.08 466.42 -9.72Q466.71 -11.35 466.33 -12.8Q466.22 -13.24 466.04 -13.66ZM435.62 -12.19L439.78 -11.45L440.89 -17.73L436.73 -18.46L437.57 -23.21L430.1 -24.53L429.26 -19.78L423.58 -20.78L437.86 -35.11L429.67 -36.56L414.03 -21.31L413.12 -16.15L427.9 -13.55L426.95 -8.19L434.67 -6.83L435.62 -12.19ZM454.59 -26.38Q455.58 -26.84 456.88 -26.61Q458.32 -26.36 459.1 -25.5Q459.14 -25.45 459.19 -25.4Q459.42 -25.12 459.56 -24.8Q459.89 -24.04 459.72 -23.06Q459.56 -22.16 459.04 -21.58Q458.77 -21.29 458.42 -21.09Q458.36 -21.05 458.3 -21.02Q457.28 -20.48 455.84 -20.74Q454.4 -20.99 453.64 -21.85Q453.6 -21.9 453.56 -21.94Q453.32 -22.24 453.18 -22.57Q452.88 -23.31 453.04 -24.24Q453.22 -25.22 453.79 -25.82Q454.03 -26.07 454.35 -26.25Q454.47 -26.32 454.59 -26.38ZM456.92 -9.02Q455.62 -8.29 453.7 -8.63Q451.78 -8.97 450.8 -10.1Q450.42 -10.56 450.23 -11.08Q449.95 -11.88 450.12 -12.84Q450.29 -13.83 450.85 -14.49Q451.2 -14.89 451.7 -15.18L451.71 -15.18Q453.01 -15.92 454.93 -15.58Q456.85 -15.24 457.82 -14.1L457.82 -14.1Q458.2 -13.65 458.39 -13.14Q458.68 -12.33 458.51 -11.36Q458.34 -10.41 457.81 -9.76Q457.45 -9.33 456.92 -9.02Z" fill="#FFFFFF" fill-opacity="1.000000" fill-rule="evenodd"/>
		<path id="48" d="M439.78 -11.45L435.62 -12.19L434.67 -6.83L426.95 -8.19L427.9 -13.55L413.12 -16.15L414.03 -21.31L429.67 -36.56L437.86 -35.11L423.58 -20.78L429.26 -19.78L430.1 -24.53L437.57 -23.21L436.73 -18.46L440.89 -17.73L439.78 -11.45ZM463.58 -16.94Q465.3 -15.49 466.04 -13.66Q466.8 -11.84 466.42 -9.72Q465.95 -7.08 464.08 -5.35Q462.21 -3.62 459.26 -3.03Q456.32 -2.44 452.72 -3.08Q449.11 -3.71 446.54 -5.27Q443.98 -6.84 442.81 -9.1Q441.66 -11.36 442.12 -14.01Q442.5 -16.13 443.82 -17.58Q445.16 -19.04 447.27 -19.81Q446.01 -21.07 445.48 -22.64Q444.96 -24.22 445.27 -25.98Q445.7 -28.42 447.43 -30.03Q449.16 -31.64 451.88 -32.19Q454.59 -32.75 457.87 -32.17Q461.15 -31.59 463.51 -30.14Q465.87 -28.7 466.93 -26.59Q468.01 -24.49 467.58 -22.05Q467.27 -20.29 466.23 -18.98Q465.2 -17.69 463.58 -16.94ZM456.88 -26.61Q455.41 -26.87 454.35 -26.25Q453.29 -25.63 453.04 -24.24Q452.8 -22.88 453.56 -21.94Q454.32 -21 455.84 -20.74Q457.37 -20.47 458.42 -21.09Q459.48 -21.7 459.72 -23.06Q459.96 -24.46 459.19 -25.4Q458.41 -26.34 456.88 -26.61ZM453.7 -8.63Q455.62 -8.29 456.92 -9.02Q458.23 -9.77 458.51 -11.36Q458.79 -12.96 457.82 -14.1Q456.85 -15.24 454.93 -15.58Q453.01 -15.92 451.7 -15.18Q450.4 -14.44 450.12 -12.84Q449.84 -11.25 450.8 -10.1Q451.78 -8.97 453.7 -8.63Z" stroke="#202027" stroke-opacity="1.000000" stroke-width="0.634167"/>
		<rect id="Frame 2043683063" rx="18.775000" width="100.966660" height="100.966667" transform="translate(400.314453 -78.917969) rotate(10.000000)" stroke="#202027" stroke-opacity="1.000000" stroke-width="0.500000"/>
		<rect id="Frame 2043683124" rx="18.775000" width="100.966660" height="100.966667" transform="translate(-48.613281 -47.316772) rotate(10.000000)" fill="#D9B6FF" fill-opacity="1.000000"/>
		<path id="44" d="M-13.73 19.34L-9.57 20.07L-8.46 13.8L-12.62 13.07L-11.78 8.31L-19.25 7L-20.09 11.75L-25.77 10.75L-11.49 -3.59L-19.68 -5.03L-35.32 10.22L-36.23 15.37L-21.45 17.98L-22.4 23.34L-14.68 24.7L-13.73 19.34ZM14.25 24.27L18.41 25.01L19.52 18.73L15.36 18L16.2 13.25L8.73 11.93L7.89 16.68L2.21 15.68L16.49 1.35L8.3 -0.1L-7.34 15.15L-8.25 20.31L6.53 22.91L5.58 28.27L13.3 29.63L14.25 24.27Z" fill="#FFFFFF" fill-opacity="1.000000" fill-rule="evenodd"/>
		<path id="44" d="M-9.57 20.07L-13.73 19.34L-14.68 24.7L-22.4 23.34L-21.45 17.98L-36.23 15.37L-35.32 10.22L-19.68 -5.03L-11.49 -3.59L-25.77 10.75L-20.09 11.75L-19.25 7L-11.78 8.31L-12.62 13.07L-8.46 13.8L-9.57 20.07ZM18.41 25.01L14.25 24.27L13.3 29.63L5.58 28.27L6.53 22.91L-8.25 20.31L-7.34 15.15L8.3 -0.1L16.49 1.35L2.21 15.68L7.89 16.68L8.73 11.93L16.2 13.25L15.36 18L19.52 18.73L18.41 25.01Z" stroke="#202027" stroke-opacity="1.000000" stroke-width="0.634167"/>
		<rect id="Frame 2043683124" rx="18.775000" width="100.966660" height="100.966667" transform="translate(-48.613281 -47.316772) rotate(10.000000)" stroke="#202027" stroke-opacity="1.000000" stroke-width="0.500000"/>
		<rect id="Frame 2043683125" rx="18.775000" width="100.966660" height="100.966667" transform="translate(58.883789 -28.362183) rotate(10.000000)" fill="#D9B6FF" fill-opacity="1.000000"/>
		<path id="6" d="M106.97 28.53Q105.24 27.46 103.07 27.08Q99.54 26.45 96.95 27.73Q96.66 27.87 96.38 28.04Q97.13 25.27 98.94 23.9Q99.16 23.74 99.39 23.59Q99.73 23.38 100.1 23.21Q102.05 22.33 104.61 22.78Q107.73 23.33 109.52 25.12L113.4 19.95Q112.06 18.69 109.99 17.79Q107.93 16.88 105.53 16.46Q101.09 15.68 97.41 16.89Q95.93 17.38 94.65 18.17Q92.74 19.36 91.26 21.23Q88.79 24.36 87.94 29.15Q86.81 35.52 89.36 39.61Q89.48 39.81 89.6 40Q90.19 40.85 90.91 41.57Q93.69 44.38 98.45 45.22Q101.53 45.76 104.24 45.03Q106.1 44.52 107.56 43.45Q108.21 42.97 108.79 42.37Q109.3 41.84 109.71 41.23Q110.78 39.66 111.14 37.6Q111.48 35.68 111.05 33.95Q110.9 33.34 110.66 32.76Q110.27 31.83 109.7 31.04Q108.89 29.9 107.71 29.03Q107.35 28.76 106.97 28.53ZM101.37 39.29Q100.32 39.74 98.97 39.5Q97.38 39.22 96.5 38.28Q96.39 38.16 96.28 38.02Q95.95 37.58 95.78 37.09Q95.51 36.26 95.68 35.29Q95.86 34.27 96.43 33.59Q96.76 33.2 97.21 32.91Q97.47 32.75 97.75 32.63Q98.82 32.18 100.18 32.42Q101.63 32.68 102.48 33.53Q102.65 33.69 102.79 33.87Q103.08 34.25 103.25 34.68Q103.59 35.54 103.4 36.61Q103.19 37.75 102.53 38.48Q102.25 38.79 101.87 39.03Q101.63 39.18 101.37 39.29Z" fill="#FFFFFF" fill-opacity="1.000000" fill-rule="evenodd"/>
		<path id="6" d="M103.07 27.08Q105.71 27.54 107.71 29.03Q109.72 30.51 110.66 32.76Q111.6 35.01 111.14 37.6Q110.64 40.44 108.79 42.37Q106.95 44.29 104.24 45.03Q101.53 45.76 98.45 45.22Q92.46 44.16 89.6 40Q86.76 35.82 87.94 29.15Q88.79 24.36 91.26 21.23Q93.74 18.09 97.41 16.89Q101.09 15.68 105.53 16.46Q107.93 16.88 109.99 17.79Q112.06 18.69 113.4 19.95L109.52 25.12Q107.73 23.33 104.61 22.78Q101.57 22.24 99.39 23.59Q97.22 24.94 96.38 28.04Q99.15 26.38 103.07 27.08ZM98.97 39.5Q100.65 39.8 101.87 39.03Q103.11 38.25 103.4 36.61Q103.68 35.01 102.79 33.87Q101.9 32.73 100.18 32.42Q98.47 32.12 97.21 32.91Q95.96 33.7 95.68 35.29Q95.4 36.85 96.28 38.02Q97.17 39.19 98.97 39.5Z" stroke="#202027" stroke-opacity="1.000000" stroke-width="0.634167"/>
		<rect id="Frame 2043683125" rx="18.775000" width="100.966660" height="100.966667" transform="translate(58.883789 -28.362183) rotate(10.000000)" stroke="#202027" stroke-opacity="1.000000" stroke-width="0.500000"/>
		<rect id="Frame 2043683126" rx="18.775000" width="100.966660" height="100.966667" transform="translate(166.379883 -9.407593) rotate(10.000000)" fill="#D9B6FF" fill-opacity="1.000000"/>
		<path id="11" d="M201.87 62.88L206.83 34.91L193.72 32.6L192.64 38.7L197.83 39.62L193.96 61.48L201.87 62.88ZM218.06 65.73L223.01 37.76L209.91 35.45L208.83 41.56L214.02 42.47L210.15 64.34L218.06 65.73Z" fill="#FFFFFF" fill-opacity="1.000000" fill-rule="evenodd"/>
		<path id="11" d="M206.83 34.91L201.87 62.88L193.96 61.48L197.83 39.62L192.64 38.7L193.72 32.6L206.83 34.91ZM223.01 37.76L218.06 65.73L210.15 64.34L214.02 42.47L208.83 41.56L209.91 35.45L223.01 37.76Z" stroke="#202027" stroke-opacity="1.000000" stroke-width="0.634167"/>
		<rect id="Frame 2043683126" rx="18.775000" width="100.966660" height="100.966667" transform="translate(166.379883 -9.407593) rotate(10.000000)" stroke="#202027" stroke-opacity="1.000000" stroke-width="0.500000"/>
		<rect id="Frame 2043683127" rx="18.775000" width="100.966660" height="100.966667" transform="translate(273.876953 9.546997) rotate(10.000000)" fill="#D9B6FF" fill-opacity="1.000000"/>
		<path id="48" d="M339.61 74.8Q338.86 72.98 337.15 71.53Q338.48 70.91 339.42 69.91Q339.61 69.7 339.79 69.48Q340.03 69.19 340.22 68.87Q340.9 67.78 341.14 66.42Q341.41 64.91 341.1 63.54Q340.91 62.68 340.5 61.88Q340.48 61.85 340.47 61.82Q339.4 59.75 337.07 58.32Q334.71 56.87 331.43 56.29Q328.15 55.72 325.44 56.27Q322.76 56.81 321.04 58.39Q321.01 58.42 320.99 58.44Q320.34 59.04 319.87 59.77Q319.1 60.96 318.83 62.48Q318.59 63.85 318.85 65.1Q318.93 65.47 319.05 65.82Q319.14 66.09 319.25 66.36Q319.79 67.61 320.83 68.65Q318.72 69.43 317.39 70.88Q317.09 71.2 316.85 71.56Q315.98 72.81 315.69 74.46Q315.39 76.12 315.74 77.64Q315.95 78.53 316.38 79.37Q317.54 81.63 320.1 83.19Q322.68 84.75 326.28 85.39Q329.88 86.02 332.82 85.44Q335.77 84.84 337.64 83.12Q338.35 82.46 338.85 81.68Q339.69 80.39 339.98 78.74Q340.27 77.12 339.89 75.66Q339.78 75.22 339.61 74.8ZM309.18 76.28L313.34 77.01L314.45 70.74L310.29 70L311.14 65.25L303.66 63.93L302.82 68.69L297.14 67.68L311.42 53.35L303.24 51.91L287.59 67.16L286.68 72.31L301.46 74.92L300.51 80.27L308.23 81.63L309.18 76.28ZM328.15 62.08Q329.14 61.63 330.45 61.86Q331.88 62.11 332.66 62.96Q332.7 63.01 332.75 63.07Q332.98 63.35 333.12 63.67Q333.45 64.42 333.28 65.4Q333.12 66.31 332.6 66.88Q332.34 67.17 331.98 67.38Q331.92 67.41 331.86 67.45Q330.84 67.98 329.41 67.73Q327.96 67.47 327.2 66.61Q327.16 66.57 327.12 66.52Q326.89 66.23 326.75 65.89Q326.44 65.16 326.6 64.23Q326.78 63.25 327.35 62.65Q327.59 62.4 327.91 62.21Q328.03 62.14 328.15 62.08ZM330.48 79.44Q329.18 80.18 327.26 79.84Q325.34 79.5 324.36 78.36Q323.98 77.91 323.79 77.38Q323.51 76.59 323.68 75.62Q323.85 74.64 324.42 73.98Q324.76 73.57 325.26 73.29L325.27 73.28Q326.58 72.54 328.49 72.88Q330.41 73.22 331.38 74.36L331.38 74.37Q331.76 74.81 331.95 75.33Q332.25 76.13 332.07 77.1Q331.9 78.05 331.37 78.7Q331.01 79.14 330.48 79.44Z" fill="#FFFFFF" fill-opacity="1.000000" fill-rule="evenodd"/>
		<path id="48" d="M313.34 77.01L309.18 76.28L308.23 81.63L300.51 80.27L301.46 74.92L286.68 72.31L287.59 67.16L303.24 51.91L311.42 53.35L297.14 67.68L302.82 68.69L303.66 63.93L311.14 65.25L310.29 70L314.45 70.74L313.34 77.01ZM337.15 71.53Q338.86 72.98 339.61 74.8Q340.36 76.62 339.98 78.74Q339.52 81.39 337.64 83.12Q335.77 84.84 332.82 85.44Q329.88 86.02 326.28 85.39Q322.68 84.75 320.1 83.19Q317.54 81.63 316.38 79.37Q315.22 77.1 315.69 74.46Q316.06 72.34 317.39 70.88Q318.72 69.43 320.83 68.65Q319.57 67.39 319.05 65.82Q318.52 64.24 318.83 62.48Q319.26 60.05 320.99 58.44Q322.72 56.82 325.44 56.27Q328.15 55.72 331.43 56.29Q334.71 56.87 337.07 58.32Q339.43 59.77 340.5 61.88Q341.57 63.98 341.14 66.42Q340.83 68.17 339.79 69.48Q338.76 70.78 337.15 71.53ZM330.45 61.86Q328.97 61.6 327.91 62.21Q326.85 62.83 326.6 64.23Q326.36 65.58 327.12 66.52Q327.88 67.46 329.41 67.73Q330.93 68 331.98 67.38Q333.04 66.76 333.28 65.4Q333.53 64.01 332.75 63.07Q331.97 62.12 330.45 61.86ZM327.26 79.84Q329.18 80.18 330.48 79.44Q331.79 78.69 332.07 77.1Q332.36 75.5 331.38 74.37Q330.42 73.22 328.49 72.88Q326.57 72.54 325.26 73.29Q323.96 74.02 323.68 75.62Q323.4 77.22 324.36 78.36Q325.34 79.5 327.26 79.84Z" stroke="#202027" stroke-opacity="1.000000" stroke-width="0.634167"/>
		<rect id="Frame 2043683127" rx="18.775000" width="100.966660" height="100.966667" transform="translate(273.876953 9.546997) rotate(10.000000)" stroke="#202027" stroke-opacity="1.000000" stroke-width="0.500000"/>
		<rect id="Frame 2043683128" rx="18.775000" width="100.966660" height="100.966667" transform="translate(381.374023 28.501587) rotate(10.000000)" fill="#D9B6FF" fill-opacity="1.000000"/>
		<path id="48" d="M447.1 93.75Q446.36 91.93 444.64 90.48Q445.98 89.86 446.92 88.87Q447.11 88.66 447.29 88.44Q447.52 88.14 447.72 87.83Q448.4 86.74 448.64 85.37Q448.9 83.87 448.6 82.49Q448.41 81.64 447.99 80.83Q447.98 80.81 447.97 80.78Q446.9 78.7 444.57 77.28Q442.21 75.83 438.93 75.25Q435.65 74.67 432.93 75.23Q430.26 75.77 428.53 77.35Q428.51 77.37 428.49 77.39Q427.84 78 427.37 78.72Q426.6 79.92 426.33 81.44Q426.09 82.8 426.35 84.06Q426.43 84.42 426.54 84.78Q426.63 85.05 426.75 85.31Q427.29 86.57 428.33 87.61Q426.22 88.38 424.88 89.84Q424.59 90.16 424.35 90.51Q423.48 91.76 423.18 93.41Q422.89 95.08 423.24 96.59Q423.44 97.48 423.87 98.32Q425.04 100.58 427.6 102.15Q430.17 103.71 433.78 104.34Q437.38 104.98 440.32 104.39Q443.27 103.8 445.14 102.07Q445.84 101.42 446.35 100.64Q447.19 99.34 447.48 97.7Q447.77 96.07 447.39 94.62Q447.28 94.18 447.1 93.75ZM416.68 95.23L420.84 95.97L421.95 89.69L417.79 88.96L418.63 84.21L411.16 82.89L410.32 87.64L404.64 86.64L418.92 72.3L410.73 70.86L395.09 86.11L394.18 91.26L408.96 93.87L408.01 99.23L415.73 100.59L416.68 95.23ZM435.65 81.04Q436.64 80.58 437.94 80.81Q439.38 81.06 440.16 81.92Q440.2 81.97 440.24 82.02Q440.48 82.3 440.62 82.62Q440.95 83.38 440.78 84.36Q440.62 85.26 440.1 85.84Q439.83 86.13 439.48 86.33Q439.42 86.37 439.36 86.4Q438.34 86.94 436.9 86.68Q435.46 86.43 434.7 85.57Q434.66 85.52 434.62 85.48Q434.38 85.18 434.24 84.85Q433.94 84.11 434.1 83.18Q434.28 82.2 434.85 81.6Q435.09 81.35 435.4 81.17Q435.53 81.1 435.65 81.04ZM437.98 98.39Q436.68 99.13 434.76 98.79Q432.84 98.45 431.86 97.32Q431.48 96.86 431.29 96.34Q431.01 95.54 431.18 94.58Q431.35 93.59 431.91 92.93Q432.26 92.52 432.76 92.24L432.77 92.24Q434.07 91.5 435.99 91.84Q437.91 92.17 438.88 93.32L438.88 93.32Q439.26 93.77 439.45 94.28Q439.74 95.08 439.57 96.06Q439.4 97.01 438.87 97.65Q438.51 98.09 437.98 98.39Z" fill="#FFFFFF" fill-opacity="1.000000" fill-rule="evenodd"/>
		<path id="48" d="M420.84 95.97L416.68 95.23L415.73 100.59L408.01 99.23L408.96 93.87L394.18 91.26L395.09 86.11L410.73 70.86L418.92 72.3L404.64 86.64L410.32 87.64L411.16 82.89L418.63 84.21L417.79 88.96L421.95 89.69L420.84 95.97ZM444.64 90.48Q446.36 91.93 447.1 93.75Q447.86 95.58 447.48 97.7Q447.01 100.34 445.14 102.07Q443.27 103.8 440.32 104.39Q437.38 104.98 433.78 104.34Q430.17 103.71 427.6 102.15Q425.04 100.58 423.87 98.32Q422.71 96.06 423.18 93.41Q423.56 91.29 424.88 89.84Q426.22 88.38 428.33 87.61Q427.07 86.35 426.54 84.78Q426.02 83.2 426.33 81.44Q426.76 79 428.49 77.39Q430.22 75.78 432.93 75.23Q435.65 74.67 438.93 75.25Q442.21 75.83 444.57 77.28Q446.93 78.72 447.99 80.83Q449.07 82.93 448.64 85.37Q448.33 87.13 447.29 88.44Q446.26 89.73 444.64 90.48ZM437.94 80.81Q436.47 80.55 435.4 81.17Q434.35 81.79 434.1 83.18Q433.86 84.54 434.62 85.48Q435.38 86.42 436.9 86.68Q438.43 86.95 439.48 86.33Q440.54 85.71 440.78 84.36Q441.02 82.96 440.24 82.02Q439.47 81.08 437.94 80.81ZM434.76 98.79Q436.68 99.13 437.98 98.39Q439.29 97.65 439.57 96.06Q439.85 94.46 438.88 93.32Q437.91 92.17 435.99 91.84Q434.07 91.5 432.76 92.24Q431.46 92.98 431.18 94.58Q430.9 96.17 431.86 97.32Q432.84 98.45 434.76 98.79Z" stroke="#202027" stroke-opacity="1.000000" stroke-width="0.634167"/>
		<rect id="Frame 2043683128" rx="18.775000" width="100.966660" height="100.966667" transform="translate(381.374023 28.501587) rotate(10.000000)" stroke="#202027" stroke-opacity="1.000000" stroke-width="0.500000"/>
		<rect id="Frame 2043683073" rx="18.775000" width="100.966660" height="100.966667" transform="translate(-67.554688 60.102661) rotate(10.000000)" fill="#D9B6FF" fill-opacity="1.000000"/>
		<path id="66" d="M-32.44 114.71Q-34.17 113.64 -36.34 113.25Q-39.86 112.63 -42.46 113.91Q-42.75 114.05 -43.03 114.22Q-42.28 111.45 -40.47 110.08Q-40.25 109.91 -40.01 109.77Q-39.67 109.56 -39.31 109.39Q-37.36 108.51 -34.8 108.96Q-31.68 109.51 -29.89 111.3L-26.01 106.13Q-27.35 104.87 -29.42 103.97Q-31.48 103.06 -33.88 102.64Q-38.32 101.86 -42 103.07Q-43.48 103.55 -44.76 104.35Q-46.67 105.53 -48.15 107.41Q-50.62 110.54 -51.46 115.33Q-52.59 121.7 -50.05 125.79Q-49.93 125.99 -49.8 126.17Q-49.22 127.03 -48.5 127.75Q-45.72 130.56 -40.96 131.4Q-37.87 131.94 -35.17 131.21Q-33.3 130.7 -31.85 129.63Q-31.19 129.15 -30.62 128.55Q-30.11 128.01 -29.7 127.41Q-28.63 125.83 -28.27 123.78Q-27.93 121.86 -28.36 120.13Q-28.51 119.52 -28.75 118.94Q-29.14 118.01 -29.71 117.21Q-30.52 116.08 -31.7 115.21Q-32.06 114.94 -32.44 114.71ZM-6.49 119.28Q-8.23 118.21 -10.39 117.83Q-13.92 117.21 -16.52 118.48Q-16.81 118.63 -17.09 118.79Q-16.34 116.02 -14.53 114.65Q-14.31 114.49 -14.07 114.34Q-13.73 114.13 -13.37 113.97Q-11.42 113.08 -8.86 113.53Q-5.74 114.08 -3.95 115.88L-0.07 110.71Q-1.41 109.44 -3.48 108.54Q-5.54 107.64 -7.94 107.21Q-12.38 106.43 -16.06 107.64Q-17.54 108.13 -18.82 108.92Q-20.73 110.11 -22.21 111.98Q-24.68 115.11 -25.52 119.9Q-26.65 126.27 -24.11 130.37Q-23.99 130.56 -23.86 130.75Q-23.28 131.6 -22.56 132.33Q-19.78 135.13 -15.02 135.97Q-11.93 136.51 -9.23 135.78Q-7.36 135.27 -5.91 134.2Q-5.25 133.72 -4.68 133.12Q-4.17 132.59 -3.76 131.98Q-2.69 130.41 -2.33 128.36Q-1.99 126.43 -2.42 124.7Q-2.56 124.09 -2.81 123.51Q-3.2 122.59 -3.77 121.79Q-4.58 120.65 -5.76 119.78Q-6.12 119.52 -6.49 119.28ZM-38.04 125.47Q-39.09 125.92 -40.44 125.68Q-42.02 125.4 -42.9 124.46Q-43.02 124.34 -43.12 124.2Q-43.46 123.76 -43.62 123.26Q-43.9 122.44 -43.73 121.47Q-43.55 120.45 -42.97 119.77Q-42.65 119.38 -42.2 119.09Q-41.94 118.93 -41.66 118.81Q-40.59 118.36 -39.22 118.6Q-37.78 118.86 -36.92 119.7Q-36.76 119.86 -36.62 120.05Q-36.32 120.43 -36.16 120.86Q-35.82 121.72 -36.01 122.79Q-36.21 123.93 -36.87 124.66Q-37.16 124.97 -37.54 125.21Q-37.78 125.36 -38.04 125.47ZM-12.09 130.04Q-13.15 130.49 -14.5 130.25Q-16.08 129.98 -16.96 129.04Q-17.08 128.91 -17.18 128.78Q-17.52 128.33 -17.68 127.84Q-17.96 127.02 -17.79 126.04Q-17.61 125.03 -17.03 124.34Q-16.71 123.95 -16.26 123.67Q-16 123.5 -15.72 123.39Q-14.65 122.94 -13.28 123.18Q-11.84 123.43 -10.98 124.28Q-10.82 124.44 -10.68 124.62Q-10.38 125 -10.22 125.43Q-9.88 126.3 -10.07 127.36Q-10.27 128.5 -10.93 129.23Q-11.22 129.55 -11.6 129.78Q-11.84 129.93 -12.09 130.04Z" fill="#FFFFFF" fill-opacity="1.000000" fill-rule="evenodd"/>
		<path id="66" d="M-36.34 113.25Q-33.7 113.72 -31.7 115.21Q-29.69 116.69 -28.75 118.94Q-27.81 121.19 -28.27 123.78Q-28.77 126.62 -30.62 128.55Q-32.46 130.47 -35.17 131.21Q-37.87 131.94 -40.96 131.4Q-46.95 130.34 -49.8 126.17Q-52.65 122 -51.46 115.33Q-50.62 110.54 -48.15 107.41Q-45.67 104.27 -42 103.07Q-38.32 101.86 -33.88 102.64Q-31.48 103.06 -29.42 103.97Q-27.35 104.87 -26.01 106.13L-29.89 111.3Q-31.68 109.51 -34.8 108.96Q-37.83 108.42 -40.01 109.77Q-42.19 111.12 -43.03 114.22Q-40.26 112.56 -36.34 113.25ZM-40.44 125.68Q-38.76 125.98 -37.54 125.21Q-36.3 124.43 -36.01 122.79Q-35.73 121.19 -36.62 120.05Q-37.51 118.9 -39.22 118.6Q-40.94 118.3 -42.2 119.09Q-43.45 119.88 -43.73 121.47Q-44 123.03 -43.12 124.2Q-42.23 125.37 -40.44 125.68ZM-10.39 117.83Q-7.76 118.29 -5.76 119.78Q-3.75 121.26 -2.81 123.51Q-1.87 125.76 -2.33 128.36Q-2.83 131.2 -4.68 133.12Q-6.52 135.04 -9.23 135.78Q-11.93 136.51 -15.02 135.97Q-21.01 134.91 -23.86 130.75Q-26.71 126.57 -25.52 119.9Q-24.68 115.11 -22.21 111.98Q-19.73 108.85 -16.06 107.64Q-12.38 106.43 -7.94 107.21Q-5.54 107.64 -3.48 108.54Q-1.41 109.44 -0.07 110.71L-3.95 115.88Q-5.74 114.08 -8.86 113.53Q-11.89 113 -14.07 114.34Q-16.25 115.69 -17.09 118.79Q-14.32 117.14 -10.39 117.83ZM-14.5 130.25Q-12.82 130.55 -11.6 129.78Q-10.36 129 -10.07 127.36Q-9.79 125.76 -10.68 124.62Q-11.57 123.48 -13.28 123.18Q-15 122.87 -16.26 123.67Q-17.51 124.45 -17.79 126.04Q-18.06 127.6 -17.18 128.78Q-16.29 129.94 -14.5 130.25Z" stroke="#202027" stroke-opacity="1.000000" stroke-width="0.634167"/>
		<rect id="Frame 2043683073" rx="18.775000" width="100.966660" height="100.966667" transform="translate(-67.554688 60.102661) rotate(10.000000)" stroke="#202027" stroke-opacity="1.000000" stroke-width="0.500000"/>
		<rect id="Frame 2043683064" rx="18.775000" width="100.966660" height="100.966667" transform="translate(39.942383 79.057373) rotate(10.000000)" fill="#D9B6FF" fill-opacity="1.000000"/>
		<path id="2" d="M89.28 153.79L90.39 147.51L79.6 145.61L85.74 141.66Q89 139.6 90.33 137.75Q90.91 136.95 91.31 136.07Q91.84 134.92 92.07 133.63Q92.38 131.86 91.98 130.27Q91.81 129.56 91.49 128.89Q91.35 128.59 91.18 128.31Q90.15 126.51 88.18 125.24Q85.91 123.76 82.71 123.2Q78.68 122.49 75.43 123.52Q73.22 124.24 71.52 125.6Q70.75 126.22 70.08 126.99L75.38 131.3Q76.17 130.45 77.13 129.97Q77.49 129.8 77.88 129.67Q78.26 129.54 78.65 129.47Q79.72 129.27 80.86 129.47Q82.62 129.78 83.4 130.7Q83.64 130.99 83.79 131.32Q84.11 132.04 83.94 132.98Q83.93 133.02 83.93 133.06Q83.73 134.05 83.06 134.95Q82.36 135.87 80.58 137.05L68.38 144.99L67.5 149.95L89.28 153.79Z" fill="#FFFFFF" fill-opacity="1.000000" fill-rule="evenodd"/>
		<path id="2" d="M90.39 147.51L89.28 153.79L67.5 149.95L68.38 144.99L80.58 137.05Q82.36 135.87 83.06 134.95Q83.76 134.02 83.94 132.98Q84.18 131.62 83.4 130.7Q82.62 129.78 80.86 129.47Q79.3 129.2 77.88 129.67Q76.46 130.13 75.38 131.3L70.08 126.99Q72.2 124.56 75.43 123.52Q78.68 122.49 82.71 123.2Q85.91 123.76 88.18 125.24Q90.46 126.71 91.49 128.89Q92.52 131.08 92.07 133.63Q91.67 135.91 90.33 137.75Q89 139.6 85.74 141.66L79.6 145.61L90.39 147.51Z" stroke="#202027" stroke-opacity="1.000000" stroke-width="0.634167"/>
		<rect id="Frame 2043683064" rx="18.775000" width="100.966660" height="100.966667" transform="translate(39.942383 79.057373) rotate(10.000000)" stroke="#202027" stroke-opacity="1.000000" stroke-width="0.500000"/>
		<rect id="Frame 2043683075" rx="18.775000" width="100.966660" height="100.966667" transform="translate(147.439453 98.011963) rotate(10.000000)" fill="#D9B6FF" fill-opacity="1.000000"/>
		<path id="11" d="M182.93 170.3L187.89 142.33L174.78 140.02L173.7 146.12L178.89 147.04L175.02 168.9L182.93 170.3ZM199.12 173.15L204.07 145.18L190.97 142.87L189.89 148.98L195.08 149.89L191.21 171.76L199.12 173.15Z" fill="#FFFFFF" fill-opacity="1.000000" fill-rule="evenodd"/>
		<path id="11" d="M187.89 142.33L182.93 170.3L175.02 168.9L178.89 147.04L173.7 146.12L174.78 140.02L187.89 142.33ZM204.07 145.18L199.12 173.15L191.21 171.76L195.08 149.89L189.89 148.98L190.97 142.87L204.07 145.18Z" stroke="#202027" stroke-opacity="1.000000" stroke-width="0.634167"/>
		<rect id="Frame 2043683075" rx="18.775000" width="100.966660" height="100.966667" transform="translate(147.439453 98.011963) rotate(10.000000)" stroke="#202027" stroke-opacity="1.000000" stroke-width="0.500000"/>
		<rect id="Frame 2043683066" rx="18.775000" width="100.966660" height="100.966667" transform="translate(254.936523 116.966553) rotate(10.000000)" fill="#D9B6FF" fill-opacity="1.000000"/>
		<path id="8" d="M306.48 179.72Q305.73 177.9 304.01 176.45Q305.35 175.82 306.29 174.83Q306.48 174.62 306.66 174.4Q306.9 174.11 307.09 173.79Q307.77 172.7 308.01 171.34Q308.28 169.83 307.97 168.46Q307.78 167.6 307.37 166.8Q307.35 166.77 307.34 166.74Q306.27 164.67 303.94 163.24Q301.58 161.79 298.3 161.21Q295.02 160.63 292.31 161.19Q289.63 161.73 287.91 163.31Q287.88 163.33 287.86 163.36Q287.21 163.96 286.74 164.68Q285.97 165.88 285.7 167.4Q285.46 168.77 285.72 170.02Q285.8 170.39 285.92 170.74Q286.01 171.01 286.12 171.27Q286.66 172.53 287.7 173.57Q285.59 174.35 284.26 175.8Q283.96 176.12 283.72 176.47Q282.85 177.72 282.56 179.37Q282.26 181.04 282.61 182.56Q282.82 183.45 283.25 184.29Q284.42 186.54 286.98 188.11Q289.55 189.67 293.15 190.31Q296.75 190.94 299.69 190.35Q302.64 189.76 304.51 188.03Q305.22 187.38 305.72 186.6Q306.56 185.31 306.85 183.66Q307.14 182.03 306.76 180.58Q306.65 180.14 306.48 179.72ZM295.02 167Q296.01 166.54 297.32 166.77Q298.75 167.03 299.53 167.88Q299.57 167.93 299.62 167.98Q299.85 168.26 299.99 168.58Q300.32 169.34 300.15 170.32Q299.99 171.23 299.47 171.8Q299.21 172.09 298.85 172.3Q298.79 172.33 298.73 172.36Q297.71 172.9 296.28 172.65Q294.83 172.39 294.07 171.53Q294.03 171.49 293.99 171.44Q293.76 171.15 293.62 170.81Q293.31 170.08 293.47 169.15Q293.65 168.16 294.22 167.57Q294.46 167.31 294.78 167.13Q294.9 167.06 295.02 167ZM297.35 184.36Q296.05 185.09 294.13 184.76Q292.21 184.42 291.23 183.28Q290.85 182.83 290.66 182.3Q290.38 181.5 290.55 180.54Q290.73 179.56 291.29 178.9Q291.63 178.49 292.13 178.21Q292.14 178.2 292.14 178.2Q293.45 177.46 295.36 177.8Q297.28 178.14 298.25 179.28L298.25 179.28Q298.63 179.73 298.82 180.24Q299.12 181.05 298.94 182.02Q298.77 182.97 298.24 183.62Q297.88 184.06 297.35 184.36Z" fill="#FFFFFF" fill-opacity="1.000000" fill-rule="evenodd"/>
		<path id="8" d="M304.01 176.45Q305.73 177.9 306.48 179.72Q307.23 181.54 306.85 183.66Q306.39 186.3 304.51 188.03Q302.64 189.76 299.69 190.35Q296.75 190.94 293.15 190.31Q289.55 189.67 286.98 188.11Q284.42 186.54 283.25 184.29Q282.09 182.02 282.56 179.37Q282.93 177.26 284.26 175.8Q285.59 174.35 287.7 173.57Q286.44 172.31 285.92 170.74Q285.39 169.16 285.7 167.4Q286.14 164.96 287.86 163.36Q289.59 161.74 292.31 161.19Q295.02 160.63 298.3 161.21Q301.58 161.79 303.94 163.24Q306.3 164.69 307.37 166.8Q308.44 168.9 308.01 171.34Q307.7 173.09 306.66 174.4Q305.63 175.7 304.01 176.45ZM297.32 166.77Q295.84 166.51 294.78 167.13Q293.72 167.75 293.47 169.15Q293.23 170.5 293.99 171.44Q294.75 172.38 296.28 172.65Q297.8 172.92 298.85 172.3Q299.91 171.68 300.15 170.32Q300.4 168.93 299.62 167.98Q298.84 167.04 297.32 166.77ZM294.13 184.76Q296.05 185.09 297.35 184.36Q298.66 183.61 298.94 182.02Q299.23 180.42 298.25 179.28Q297.29 178.14 295.36 177.8Q293.44 177.46 292.13 178.21Q290.83 178.94 290.55 180.54Q290.27 182.13 291.23 183.28Q292.21 184.42 294.13 184.76Z" stroke="#202027" stroke-opacity="1.000000" stroke-width="0.634167"/>
		<rect id="Frame 2043683066" rx="18.775000" width="100.966660" height="100.966667" transform="translate(254.936523 116.966553) rotate(10.000000)" stroke="#202027" stroke-opacity="1.000000" stroke-width="0.500000"/>
		<rect id="Frame 2043683067" rx="18.775000" width="100.966660" height="100.966667" transform="translate(362.432617 135.921143) rotate(10.000000)" fill="#D9B6FF" fill-opacity="1.000000"/>
		<path id="36" d="M422.57 194.94Q420.84 193.87 418.67 193.49Q415.14 192.86 412.55 194.14Q412.26 194.28 411.98 194.45Q412.73 191.68 414.54 190.31Q414.76 190.14 414.99 190Q415.34 189.79 415.7 189.62Q417.65 188.74 420.21 189.19Q423.33 189.74 425.12 191.53L429 186.36Q427.66 185.1 425.59 184.2Q423.53 183.29 421.13 182.87Q416.69 182.09 413.01 183.3Q411.53 183.78 410.25 184.58Q408.34 185.76 406.86 187.64Q404.39 190.77 403.54 195.56Q402.42 201.93 404.96 206.02Q405.08 206.22 405.2 206.4Q405.79 207.26 406.51 207.98Q409.29 210.79 414.05 211.63Q417.13 212.17 419.84 211.44Q421.7 210.93 423.16 209.86Q423.81 209.38 424.39 208.78Q424.9 208.25 425.31 207.64Q426.38 206.06 426.74 204.01Q427.08 202.09 426.65 200.36Q426.5 199.75 426.26 199.17Q425.87 198.24 425.3 197.44Q424.49 196.31 423.31 195.44Q422.95 195.17 422.57 194.94ZM399.2 194Q397.72 191.59 394.43 190.29L401.33 185.07L402.2 180.12L381.98 176.55L380.89 182.66L391.93 184.6L385.98 189.12L385.09 194.11L388.41 194.7Q391.45 195.24 392.09 196.77Q392.34 197.39 392.2 198.18Q392.08 198.85 391.71 199.32Q391.31 199.83 390.62 200.12Q389.29 200.67 387.25 200.31Q385.25 199.96 383.29 199Q381.34 198.03 379.91 196.62L375.97 202.08Q377.86 203.77 380.63 205Q382.46 205.81 384.38 206.31Q385.36 206.57 386.36 206.74Q390.39 207.45 393.36 206.64Q396.33 205.83 398.04 203.94Q398.96 202.94 399.51 201.77Q399.99 200.74 400.2 199.58Q400.54 197.65 400.06 195.95Q399.79 194.98 399.25 194.08Q399.22 194.04 399.2 194ZM416.97 205.7Q415.92 206.15 414.57 205.91Q412.98 205.63 412.1 204.69Q411.99 204.57 411.88 204.43Q411.55 203.99 411.39 203.49Q411.11 202.67 411.28 201.7Q411.46 200.68 412.03 200Q412.36 199.61 412.81 199.32Q413.07 199.16 413.35 199.04Q414.42 198.59 415.78 198.83Q417.23 199.09 418.08 199.93Q418.25 200.1 418.39 200.28Q418.68 200.66 418.85 201.09Q419.19 201.95 419 203.02Q418.79 204.16 418.13 204.89Q417.85 205.2 417.47 205.44Q417.23 205.59 416.97 205.7Z" fill="#FFFFFF" fill-opacity="1.000000" fill-rule="evenodd"/>
		<path id="36" d="M394.43 190.29Q397.77 191.61 399.25 194.08Q400.73 196.55 400.2 199.58Q399.76 202.06 398.04 203.94Q396.33 205.83 393.36 206.64Q390.39 207.45 386.36 206.74Q383.4 206.22 380.63 205Q377.86 203.77 375.97 202.08L379.91 196.62Q381.34 198.03 383.29 199Q385.25 199.96 387.25 200.31Q389.29 200.67 390.62 200.12Q391.96 199.57 392.2 198.18Q392.69 195.45 388.41 194.7L385.09 194.11L385.98 189.12L391.93 184.6L380.89 182.66L381.98 176.55L402.2 180.12L401.33 185.07L394.43 190.29ZM418.67 193.49Q421.31 193.95 423.31 195.44Q425.32 196.92 426.26 199.17Q427.2 201.42 426.74 204.01Q426.24 206.85 424.39 208.78Q422.55 210.7 419.84 211.44Q417.13 212.17 414.05 211.63Q408.06 210.57 405.2 206.4Q402.36 202.23 403.54 195.56Q404.39 190.77 406.86 187.64Q409.34 184.5 413.01 183.3Q416.69 182.09 421.13 182.87Q423.53 183.29 425.59 184.2Q427.66 185.1 429 186.36L425.12 191.53Q423.33 189.74 420.21 189.19Q417.17 188.65 414.99 190Q412.82 191.35 411.98 194.45Q414.75 192.79 418.67 193.49ZM414.57 205.91Q416.25 206.21 417.47 205.44Q418.71 204.66 419 203.02Q419.28 201.42 418.39 200.28Q417.5 199.13 415.78 198.83Q414.07 198.53 412.81 199.32Q411.56 200.11 411.28 201.7Q411 203.26 411.88 204.43Q412.77 205.6 414.57 205.91Z" stroke="#202027" stroke-opacity="1.000000" stroke-width="0.634167"/>
		<rect id="Frame 2043683067" rx="18.775000" width="100.966660" height="100.966667" transform="translate(362.432617 135.921143) rotate(10.000000)" stroke="#202027" stroke-opacity="1.000000" stroke-width="0.500000"/>
		<rect id="Frame 2043683074" rx="18.775000" width="100.966660" height="100.966667" transform="translate(-86.495117 167.522217) rotate(10.000000)" fill="#D9B6FF" fill-opacity="1.000000"/>
		<path id="9" d="M-36.86 215.24Q-39.65 212.38 -44.49 211.53Q-47.43 211.01 -50.06 211.69Q-50.14 211.71 -50.23 211.73Q-52.05 212.23 -53.48 213.26Q-54.18 213.77 -54.79 214.4Q-55.29 214.92 -55.69 215.51Q-56.76 217.09 -57.13 219.15Q-57.48 221.11 -57.03 222.87Q-56.88 223.45 -56.65 224Q-56.27 224.91 -55.71 225.69Q-54.9 226.85 -53.71 227.73Q-53.38 227.97 -53.04 228.19Q-51.28 229.3 -49.06 229.69Q-45.57 230.3 -42.98 229.05Q-42.7 228.91 -42.43 228.76Q-43.23 231.58 -45.1 232.94Q-45.28 233.07 -45.46 233.18Q-45.8 233.39 -46.16 233.55Q-48.08 234.43 -50.61 233.98Q-53.73 233.43 -55.52 231.64L-59.39 236.8Q-58.05 238.04 -55.99 238.95Q-53.92 239.87 -51.56 240.29Q-47.12 241.07 -43.43 239.87Q-41.85 239.36 -40.5 238.49Q-38.68 237.34 -37.27 235.54Q-34.79 232.41 -33.94 227.62Q-32.82 221.26 -35.35 217.17Q-35.48 216.97 -35.61 216.77Q-36.18 215.94 -36.86 215.24ZM-43.71 224.12Q-44.79 224.59 -46.18 224.34Q-47.62 224.09 -48.48 223.24Q-48.65 223.08 -48.79 222.89Q-49.09 222.5 -49.26 222.06Q-49.58 221.2 -49.4 220.15Q-49.19 218.99 -48.51 218.26Q-48.24 217.97 -47.88 217.74Q-47.62 217.58 -47.34 217.46Q-46.29 217.03 -44.97 217.26Q-43.4 217.54 -42.53 218.47Q-42.4 218.6 -42.29 218.75Q-41.95 219.2 -41.78 219.71Q-41.51 220.51 -41.68 221.46Q-41.86 222.48 -42.43 223.17Q-42.76 223.57 -43.22 223.86Q-43.46 224.01 -43.71 224.12Z" fill="#FFFFFF" fill-opacity="1.000000" fill-rule="evenodd"/>
		<path id="9" d="M-44.49 211.53Q-38.46 212.59 -35.61 216.77Q-32.76 220.94 -33.94 227.62Q-34.79 232.41 -37.27 235.54Q-39.73 238.67 -43.43 239.87Q-47.12 241.07 -51.56 240.29Q-53.92 239.87 -55.99 238.95Q-58.05 238.04 -59.39 236.8L-55.52 231.64Q-53.73 233.43 -50.61 233.98Q-47.61 234.51 -45.46 233.18Q-43.31 231.85 -42.43 228.76Q-45.19 230.37 -49.06 229.69Q-51.71 229.22 -53.71 227.73Q-55.71 226.24 -56.65 224Q-57.59 221.76 -57.13 219.15Q-56.63 216.32 -54.79 214.4Q-52.94 212.47 -50.23 211.73Q-47.52 210.99 -44.49 211.53ZM-46.18 224.34Q-44.47 224.64 -43.22 223.86Q-41.96 223.06 -41.68 221.46Q-41.4 219.91 -42.29 218.75Q-43.17 217.58 -44.97 217.26Q-46.65 216.96 -47.88 217.74Q-49.11 218.51 -49.4 220.15Q-49.68 221.74 -48.79 222.89Q-47.9 224.04 -46.18 224.34Z" stroke="#202027" stroke-opacity="1.000000" stroke-width="0.634167"/>
		<rect id="Frame 2043683074" rx="18.775000" width="100.966660" height="100.966667" transform="translate(-86.495117 167.522217) rotate(10.000000)" stroke="#202027" stroke-opacity="1.000000" stroke-width="0.500000"/>
		<rect id="Frame 2043683068" rx="18.775000" width="100.966660" height="100.966667" transform="translate(21.000977 186.476807) rotate(10.000000)" fill="#D9B6FF" fill-opacity="1.000000"/>
		<path id="4" d="M69.88 255.6L74.03 256.33L75.14 250.06L70.99 249.33L71.83 244.58L64.35 243.26L63.51 248.01L57.83 247.01L72.12 232.67L63.93 231.23L48.29 246.48L47.37 251.63L62.16 254.24L61.21 259.6L68.93 260.96L69.88 255.6Z" fill="#FFFFFF" fill-opacity="1.000000" fill-rule="evenodd"/>
		<path id="4" d="M74.03 256.33L69.88 255.6L68.93 260.96L61.21 259.6L62.16 254.24L47.37 251.63L48.29 246.48L63.93 231.23L72.12 232.67L57.83 247.01L63.51 248.01L64.35 243.26L71.83 244.58L70.99 249.33L75.14 250.06L74.03 256.33Z" stroke="#202027" stroke-opacity="1.000000" stroke-width="0.634167"/>
		<rect id="Frame 2043683068" rx="18.775000" width="100.966660" height="100.966667" transform="translate(21.000977 186.476807) rotate(10.000000)" stroke="#202027" stroke-opacity="1.000000" stroke-width="0.500000"/>
		<rect id="Frame 2043683069" rx="18.775000" width="100.966660" height="100.966667" transform="translate(128.498047 205.431396) rotate(10.000000)" fill="#D9B6FF" fill-opacity="1.000000"/>
		<path id="92" d="M166.32 251.06Q163.53 248.21 158.7 247.36Q155.76 246.84 153.13 247.51Q153.04 247.54 152.95 247.56Q151.13 248.06 149.7 249.09Q149 249.6 148.39 250.23Q147.89 250.75 147.49 251.34Q146.42 252.92 146.05 254.98Q145.71 256.94 146.15 258.7Q146.3 259.27 146.53 259.83Q146.91 260.74 147.47 261.52Q148.28 262.67 149.48 263.56Q149.8 263.8 150.14 264.02Q151.91 265.12 154.12 265.51Q157.61 266.13 160.2 264.88Q160.48 264.74 160.75 264.58Q159.95 267.41 158.08 268.76Q157.9 268.89 157.72 269.01Q157.38 269.22 157.02 269.38Q155.1 270.26 152.57 269.81Q149.45 269.26 147.67 267.47L143.79 272.63Q145.13 273.86 147.2 274.78Q149.27 275.7 151.62 276.11Q156.06 276.89 159.75 275.69Q161.33 275.18 162.68 274.32Q164.5 273.16 165.91 271.37Q168.39 268.23 169.24 263.44Q170.37 257.09 167.83 253Q167.71 252.79 167.57 252.59Q167.01 251.77 166.32 251.06ZM190.65 282.42L191.76 276.15L180.97 274.24L187.11 270.29Q190.36 268.23 191.7 266.39Q192.27 265.59 192.68 264.71Q193.21 263.55 193.43 262.26Q193.75 260.5 193.35 258.9Q193.17 258.2 192.85 257.52Q192.71 257.23 192.55 256.94Q191.51 255.14 189.55 253.87Q187.27 252.39 184.07 251.83Q180.04 251.12 176.8 252.16Q174.58 252.87 172.89 254.23Q172.11 254.86 171.45 255.62L176.75 259.94Q177.53 259.08 178.5 258.61Q178.86 258.43 179.24 258.3Q179.63 258.18 180.02 258.1Q181.09 257.9 182.23 258.1Q183.98 258.41 184.76 259.34Q185.01 259.62 185.15 259.95Q185.47 260.68 185.31 261.62Q185.3 261.66 185.29 261.69Q185.1 262.69 184.43 263.58Q183.73 264.51 181.95 265.68L169.75 273.62L168.87 278.58L190.65 282.42ZM159.47 259.94Q158.39 260.41 157 260.17Q155.56 259.91 154.7 259.07Q154.53 258.91 154.39 258.72Q154.09 258.33 153.92 257.89Q153.6 257.03 153.79 255.98Q153.99 254.81 154.67 254.09Q154.95 253.79 155.3 253.57Q155.56 253.4 155.85 253.29Q156.89 252.85 158.21 253.09Q159.78 253.36 160.65 254.3Q160.78 254.43 160.89 254.57Q161.24 255.03 161.41 255.54Q161.67 256.34 161.5 257.29Q161.32 258.3 160.75 258.99Q160.42 259.39 159.96 259.68Q159.73 259.83 159.47 259.94Z" fill="#FFFFFF" fill-opacity="1.000000" fill-rule="evenodd"/>
		<path id="92" d="M158.7 247.36Q164.73 248.42 167.57 252.59Q170.42 256.77 169.24 263.44Q168.39 268.23 165.91 271.37Q163.45 274.49 159.75 275.69Q156.06 276.89 151.62 276.11Q149.27 275.7 147.2 274.78Q145.13 273.86 143.79 272.63L147.67 267.47Q149.45 269.26 152.57 269.81Q155.57 270.34 157.72 269.01Q159.88 267.68 160.75 264.58Q157.99 266.2 154.12 265.51Q151.48 265.05 149.48 263.56Q147.47 262.07 146.53 259.83Q145.59 257.58 146.05 254.98Q146.56 252.15 148.39 250.23Q150.25 248.3 152.95 247.56Q155.66 246.82 158.7 247.36ZM157 260.17Q158.72 260.47 159.96 259.68Q161.22 258.89 161.5 257.29Q161.78 255.74 160.89 254.57Q160.01 253.4 158.21 253.09Q156.53 252.79 155.3 253.57Q154.08 254.34 153.79 255.98Q153.5 257.57 154.39 258.72Q155.28 259.86 157 260.17ZM191.76 276.15L190.65 282.42L168.87 278.58L169.75 273.62L181.95 265.68Q183.73 264.51 184.43 263.58Q185.12 262.65 185.31 261.62Q185.55 260.25 184.76 259.34Q183.98 258.41 182.23 258.1Q180.66 257.83 179.24 258.3Q177.82 258.77 176.75 259.94L171.45 255.62Q173.57 253.2 176.8 252.16Q180.04 251.12 184.07 251.83Q187.27 252.39 189.55 253.87Q191.82 255.34 192.85 257.52Q193.89 259.71 193.43 262.26Q193.03 264.54 191.7 266.39Q190.36 268.23 187.11 270.29L180.97 274.24L191.76 276.15Z" stroke="#202027" stroke-opacity="1.000000" stroke-width="0.634167"/>
		<rect id="Frame 2043683069" rx="18.775000" width="100.966660" height="100.966667" transform="translate(128.498047 205.431396) rotate(10.000000)" stroke="#202027" stroke-opacity="1.000000" stroke-width="0.500000"/>
		<rect id="Frame 2043683070" rx="18.775000" width="100.966660" height="100.966667" transform="translate(235.995117 224.385986) rotate(10.000000)" fill="#D9B6FF" fill-opacity="1.000000"/>
		<path id="10" d="M277.27 297.13Q279.45 298.65 282.34 299.16Q285.04 299.64 287.48 299.05Q288.25 298.86 289 298.56Q289.56 298.34 290.09 298.06Q292.49 296.79 294.26 294.32Q296.42 291.3 297.22 286.78Q298.02 282.28 297.03 278.7Q296.22 275.77 294.4 273.76Q294 273.32 293.54 272.91Q292.92 272.36 292.24 271.91Q290.17 270.54 287.5 270.07Q284.63 269.56 282.08 270.24Q281.42 270.41 280.79 270.66Q280.27 270.87 279.78 271.12Q277.33 272.39 275.53 274.91Q273.36 277.93 272.56 282.44Q271.76 286.95 272.76 290.53Q273.59 293.51 275.46 295.54Q275.83 295.95 276.24 296.32Q276.74 296.75 277.27 297.13ZM265.89 295.69L270.85 267.71L257.74 265.4L256.66 271.51L261.85 272.43L257.98 294.29L265.89 295.69ZM284.91 292.67Q284.23 292.82 283.49 292.69Q282.7 292.55 282.08 292.14Q281.12 291.5 280.61 290.18Q279.77 288.03 280.52 283.84Q281.26 279.64 282.78 277.92Q283.72 276.86 284.84 276.58Q285.56 276.41 286.35 276.54Q287.09 276.68 287.67 277.06Q288.66 277.7 289.18 279.04Q290.01 281.19 289.27 285.38Q288.53 289.58 287 291.31Q286.05 292.4 284.91 292.67Z" fill="#FFFFFF" fill-opacity="1.000000" fill-rule="evenodd"/>
		<path id="10" d="M270.85 267.71L265.89 295.69L257.98 294.29L261.85 272.43L256.66 271.51L257.74 265.4L270.85 267.71ZM282.34 299.16Q278.74 298.53 276.24 296.32Q273.76 294.11 272.76 290.53Q271.76 286.95 272.56 282.44Q273.36 277.93 275.53 274.91Q277.69 271.89 280.79 270.66Q283.89 269.43 287.5 270.07Q291.05 270.69 293.54 272.91Q296.04 275.12 297.03 278.7Q298.02 282.28 297.22 286.78Q296.42 291.3 294.26 294.32Q292.1 297.34 289 298.56Q285.89 299.79 282.34 299.16ZM283.49 292.69Q285.49 293.04 287 291.31Q288.53 289.58 289.27 285.38Q290.01 281.19 289.18 279.04Q288.35 276.9 286.35 276.54Q284.31 276.19 282.78 277.92Q281.26 279.64 280.52 283.84Q279.77 288.03 280.61 290.18Q281.45 292.33 283.49 292.69Z" stroke="#202027" stroke-opacity="1.000000" stroke-width="0.634167"/>
		<rect id="Frame 2043683070" rx="18.775000" width="100.966660" height="100.966667" transform="translate(235.995117 224.385986) rotate(10.000000)" stroke="#202027" stroke-opacity="1.000000" stroke-width="0.500000"/>
		<rect id="Frame 2043683071" rx="18.775000" width="100.966660" height="100.966667" transform="translate(343.492188 243.340576) rotate(10.000000)" fill="#D9B6FF" fill-opacity="1.000000"/>
		<path id="7" d="M397.37 295.14L398.25 290.18L375.06 286.09L373.19 296.68L379.94 297.87L380.71 293.56L388.06 294.85L374.78 314.89L383.42 316.41L397.37 295.14Z" fill="#FFFFFF" fill-opacity="1.000000" fill-rule="evenodd"/>
		<path id="7" d="M398.25 290.18L397.37 295.14L383.42 316.41L374.78 314.89L388.06 294.85L380.71 293.56L379.94 297.87L373.19 296.68L375.06 286.09L398.25 290.18Z" stroke="#202027" stroke-opacity="1.000000" stroke-width="0.634167"/>
		<rect id="Frame 2043683071" rx="18.775000" width="100.966660" height="100.966667" transform="translate(343.492188 243.340576) rotate(10.000000)" stroke="#202027" stroke-opacity="1.000000" stroke-width="0.500000"/>
		<rect id="Frame 2043683129" rx="18.775000" width="100.966660" height="100.966667" transform="translate(-105.436523 274.941772) rotate(10.000000)" fill="#D9B6FF" fill-opacity="1.000000"/>
		<path id="9" d="M-55.81 322.66Q-58.59 319.8 -63.43 318.95Q-66.37 318.43 -69 319.11Q-69.09 319.13 -69.17 319.15Q-70.99 319.65 -72.42 320.68Q-73.12 321.19 -73.73 321.82Q-74.23 322.34 -74.63 322.93Q-75.7 324.51 -76.07 326.57Q-76.42 328.53 -75.97 330.29Q-75.82 330.87 -75.59 331.42Q-75.21 332.33 -74.66 333.11Q-73.84 334.27 -72.65 335.15Q-72.32 335.39 -71.98 335.61Q-70.22 336.72 -68 337.11Q-64.51 337.72 -61.92 336.47Q-61.64 336.33 -61.37 336.18Q-62.17 339 -64.04 340.36Q-64.22 340.49 -64.41 340.6Q-64.74 340.81 -65.1 340.97Q-67.02 341.85 -69.55 341.4Q-72.67 340.85 -74.46 339.06L-78.33 344.22Q-76.99 345.45 -74.93 346.37Q-72.86 347.29 -70.5 347.7Q-66.06 348.49 -62.37 347.29Q-60.8 346.78 -59.44 345.91Q-57.62 344.75 -56.21 342.96Q-53.73 339.83 -52.88 335.04Q-51.76 328.68 -54.29 324.59Q-54.42 324.39 -54.56 324.19Q-55.12 323.36 -55.81 322.66ZM-62.65 331.54Q-63.73 332 -65.12 331.76Q-66.56 331.51 -67.42 330.66Q-67.59 330.5 -67.74 330.31Q-68.03 329.92 -68.2 329.48Q-68.52 328.62 -68.34 327.57Q-68.13 326.41 -67.45 325.68Q-67.18 325.39 -66.82 325.16Q-66.56 325 -66.28 324.88Q-65.23 324.45 -63.91 324.68Q-62.34 324.96 -61.47 325.89Q-61.35 326.02 -61.24 326.17Q-60.89 326.62 -60.72 327.13Q-60.45 327.93 -60.62 328.88Q-60.8 329.9 -61.37 330.59Q-61.7 330.99 -62.16 331.28Q-62.4 331.43 -62.65 331.54Z" fill="#FFFFFF" fill-opacity="1.000000" fill-rule="evenodd"/>
		<path id="9" d="M-63.43 318.95Q-57.4 320.01 -54.56 324.19Q-51.7 328.36 -52.88 335.04Q-53.73 339.83 -56.21 342.96Q-58.68 346.09 -62.37 347.29Q-66.06 348.49 -70.5 347.7Q-72.86 347.29 -74.93 346.37Q-76.99 345.45 -78.33 344.22L-74.46 339.06Q-72.67 340.85 -69.55 341.4Q-66.55 341.93 -64.41 340.6Q-62.25 339.27 -61.37 336.18Q-64.13 337.79 -68 337.11Q-70.65 336.64 -72.65 335.15Q-74.65 333.66 -75.59 331.42Q-76.53 329.18 -76.07 326.57Q-75.57 323.74 -73.73 321.82Q-71.88 319.89 -69.17 319.15Q-66.46 318.41 -63.43 318.95ZM-65.12 331.76Q-63.41 332.06 -62.16 331.28Q-60.9 330.48 -60.62 328.88Q-60.34 327.33 -61.24 326.17Q-62.12 325 -63.91 324.68Q-65.59 324.38 -66.82 325.16Q-68.05 325.93 -68.34 327.57Q-68.62 329.16 -67.74 330.31Q-66.84 331.46 -65.12 331.76Z" stroke="#202027" stroke-opacity="1.000000" stroke-width="0.634167"/>
		<rect id="Frame 2043683129" rx="18.775000" width="100.966660" height="100.966667" transform="translate(-105.436523 274.941772) rotate(10.000000)" stroke="#202027" stroke-opacity="1.000000" stroke-width="0.500000"/>
		<rect id="Frame 2043683130" rx="18.775000" width="100.966660" height="100.966667" transform="translate(2.060547 293.896362) rotate(10.000000)" fill="#D9B6FF" fill-opacity="1.000000"/>
		<path id="4" d="M50.94 363.02L55.09 363.75L56.2 357.48L52.05 356.75L52.89 352L45.41 350.68L44.57 355.43L38.89 354.43L53.18 340.09L44.99 338.65L29.35 353.9L28.43 359.05L43.22 361.66L42.27 367.02L49.99 368.38L50.94 363.02Z" fill="#FFFFFF" fill-opacity="1.000000" fill-rule="evenodd"/>
		<path id="4" d="M55.09 363.75L50.94 363.02L49.99 368.38L42.27 367.02L43.22 361.66L28.43 359.05L29.35 353.9L44.99 338.65L53.18 340.09L38.89 354.43L44.57 355.43L45.41 350.68L52.89 352L52.05 356.75L56.2 357.48L55.09 363.75Z" stroke="#202027" stroke-opacity="1.000000" stroke-width="0.634167"/>
		<rect id="Frame 2043683130" rx="18.775000" width="100.966660" height="100.966667" transform="translate(2.060547 293.896362) rotate(10.000000)" stroke="#202027" stroke-opacity="1.000000" stroke-width="0.500000"/>
		<rect id="Frame 2043683131" rx="18.775000" width="100.966660" height="100.966667" transform="translate(109.557617 312.850830) rotate(10.000000)" fill="#D9B6FF" fill-opacity="1.000000"/>
		<path id="92" d="M147.38 358.48Q144.59 355.63 139.75 354.77Q136.82 354.26 134.18 354.93Q134.1 354.96 134.01 354.98Q132.19 355.48 130.76 356.51Q130.06 357.01 129.45 357.65Q128.95 358.17 128.55 358.76Q127.48 360.34 127.11 362.4Q126.77 364.36 127.21 366.12Q127.36 366.69 127.59 367.25Q127.97 368.16 128.53 368.94Q129.34 370.09 130.53 370.98Q130.86 371.22 131.2 371.44Q132.96 372.54 135.18 372.93Q138.67 373.55 141.26 372.3Q141.54 372.16 141.82 372Q141.01 374.83 139.14 376.18Q138.96 376.31 138.78 376.43Q138.44 376.64 138.08 376.8Q136.16 377.68 133.63 377.23Q130.51 376.68 128.73 374.89L124.85 380.05Q126.19 381.28 128.25 382.2Q130.33 383.12 132.68 383.53Q137.12 384.31 140.81 383.11Q142.39 382.6 143.74 381.74Q145.56 380.58 146.97 378.79Q149.45 375.65 150.3 370.86Q151.42 364.51 148.89 360.42Q148.77 360.21 148.63 360.01Q148.07 359.19 147.38 358.48ZM171.71 389.84L172.82 383.57L162.03 381.66L168.17 377.72Q171.42 375.65 172.76 373.81Q173.33 373.01 173.74 372.13Q174.27 370.97 174.49 369.68Q174.81 367.92 174.41 366.32Q174.23 365.62 173.91 364.94Q173.77 364.65 173.61 364.36Q172.57 362.56 170.61 361.29Q168.33 359.81 165.13 359.25Q161.1 358.54 157.86 359.58Q155.64 360.29 153.95 361.65Q153.17 362.28 152.5 363.04L157.81 367.36Q158.59 366.5 159.56 366.03Q159.92 365.85 160.3 365.72Q160.69 365.6 161.08 365.52Q162.14 365.32 163.28 365.52Q165.04 365.83 165.82 366.76Q166.07 367.04 166.21 367.37Q166.53 368.1 166.37 369.04Q166.36 369.08 166.35 369.11Q166.16 370.11 165.48 371Q164.79 371.93 163.01 373.1L150.81 381.04L149.93 386L171.71 389.84ZM140.53 367.36Q139.45 367.83 138.06 367.59Q136.62 367.33 135.76 366.49Q135.59 366.33 135.45 366.14Q135.15 365.75 134.98 365.31Q134.66 364.45 134.85 363.4Q135.05 362.23 135.73 361.51Q136 361.21 136.36 360.99Q136.62 360.82 136.91 360.71Q137.95 360.27 139.27 360.51Q140.84 360.78 141.71 361.71Q141.84 361.85 141.95 361.99Q142.29 362.45 142.46 362.96Q142.73 363.76 142.56 364.71Q142.38 365.72 141.81 366.41Q141.48 366.81 141.02 367.1Q140.78 367.25 140.53 367.36Z" fill="#FFFFFF" fill-opacity="1.000000" fill-rule="evenodd"/>
		<path id="92" d="M139.75 354.77Q145.78 355.84 148.63 360.01Q151.48 364.19 150.3 370.86Q149.45 375.65 146.97 378.79Q144.51 381.91 140.81 383.11Q137.12 384.31 132.68 383.53Q130.33 383.12 128.25 382.2Q126.19 381.28 124.85 380.05L128.73 374.89Q130.51 376.68 133.63 377.23Q136.63 377.76 138.78 376.43Q140.94 375.1 141.82 372Q139.05 373.62 135.18 372.93Q132.53 372.47 130.53 370.98Q128.53 369.49 127.59 367.25Q126.65 365 127.11 362.4Q127.62 359.57 129.45 357.65Q131.31 355.72 134.01 354.98Q136.72 354.24 139.75 354.77ZM138.06 367.59Q139.78 367.89 141.02 367.1Q142.28 366.31 142.56 364.71Q142.84 363.16 141.95 361.99Q141.07 360.82 139.27 360.51Q137.59 360.21 136.36 360.99Q135.14 361.76 134.85 363.4Q134.56 364.99 135.45 366.14Q136.34 367.28 138.06 367.59ZM172.82 383.57L171.71 389.84L149.93 386L150.81 381.04L163.01 373.1Q164.79 371.93 165.48 371Q166.18 370.07 166.37 369.04Q166.61 367.67 165.82 366.76Q165.04 365.83 163.28 365.52Q161.72 365.25 160.3 365.72Q158.88 366.19 157.81 367.36L152.5 363.04Q154.63 360.62 157.86 359.58Q161.1 358.54 165.13 359.25Q168.33 359.81 170.61 361.29Q172.88 362.76 173.91 364.94Q174.95 367.13 174.49 369.68Q174.09 371.96 172.76 373.81Q171.42 375.65 168.17 377.72L162.03 381.66L172.82 383.57Z" stroke="#202027" stroke-opacity="1.000000" stroke-width="0.634167"/>
		<rect id="Frame 2043683131" rx="18.775000" width="100.966660" height="100.966667" transform="translate(109.557617 312.850830) rotate(10.000000)" stroke="#202027" stroke-opacity="1.000000" stroke-width="0.500000"/>
		<rect id="Frame 2043683132" rx="18.775000" width="100.966660" height="100.966667" transform="translate(217.054688 331.805664) rotate(10.000000)" fill="#D9B6FF" fill-opacity="1.000000"/>
		<path id="10" d="M258.33 404.55Q260.51 406.07 263.4 406.58Q266.1 407.06 268.54 406.47Q269.31 406.28 270.06 405.98Q270.62 405.76 271.15 405.48Q273.55 404.21 275.32 401.74Q277.48 398.72 278.28 394.2Q279.08 389.7 278.08 386.12Q277.28 383.19 275.46 381.18Q275.05 380.73 274.6 380.33Q273.98 379.78 273.3 379.33Q271.23 377.96 268.55 377.49Q265.69 376.98 263.14 377.66Q262.48 377.83 261.85 378.08Q261.33 378.29 260.84 378.54Q258.39 379.81 256.59 382.33Q254.42 385.35 253.62 389.86Q252.82 394.37 253.82 397.95Q254.65 400.93 256.51 402.96Q256.89 403.37 257.3 403.74Q257.8 404.17 258.33 404.55ZM246.95 403.11L251.91 375.13L238.8 372.82L237.72 378.93L242.91 379.85L239.04 401.71L246.95 403.11ZM265.97 400.09Q265.29 400.24 264.55 400.11Q263.75 399.97 263.14 399.56Q262.18 398.92 261.67 397.6Q260.83 395.45 261.58 391.26Q262.32 387.06 263.84 385.34Q264.78 384.28 265.9 384Q266.61 383.82 267.41 383.96Q268.15 384.1 268.73 384.48Q269.72 385.12 270.23 386.47Q271.07 388.61 270.33 392.8Q269.59 397 268.06 398.73Q267.11 399.82 265.97 400.09Z" fill="#FFFFFF" fill-opacity="1.000000" fill-rule="evenodd"/>
		<path id="10" d="M251.91 375.13L246.95 403.11L239.04 401.71L242.91 379.85L237.72 378.93L238.8 372.82L251.91 375.13ZM263.4 406.58Q259.8 405.95 257.3 403.74Q254.82 401.53 253.82 397.95Q252.82 394.37 253.62 389.86Q254.42 385.35 256.59 382.33Q258.75 379.31 261.85 378.08Q264.95 376.85 268.55 377.49Q272.11 378.11 274.6 380.33Q277.1 382.54 278.08 386.12Q279.08 389.7 278.28 394.2Q277.48 398.72 275.32 401.74Q273.16 404.76 270.06 405.98Q266.95 407.21 263.4 406.58ZM264.55 400.11Q266.55 400.47 268.06 398.73Q269.59 397 270.33 392.8Q271.07 388.61 270.23 386.47Q269.41 384.32 267.41 383.96Q265.37 383.6 263.84 385.34Q262.32 387.06 261.58 391.26Q260.83 395.45 261.67 397.6Q262.51 399.75 264.55 400.11Z" stroke="#202027" stroke-opacity="1.000000" stroke-width="0.634167"/>
		<rect id="Frame 2043683132" rx="18.775000" width="100.966660" height="100.966667" transform="translate(217.054688 331.805664) rotate(10.000000)" stroke="#202027" stroke-opacity="1.000000" stroke-width="0.500000"/>
		<rect id="Frame 2043683133" rx="18.775000" width="100.966660" height="100.966667" transform="translate(324.550781 350.760254) rotate(10.000000)" fill="#D9B6FF" fill-opacity="1.000000"/>
		<path id="7" d="M378.43 402.56L379.31 397.6L356.12 393.51L354.25 404.1L361 405.29L361.76 400.97L369.12 402.27L355.84 422.31L364.48 423.83L378.43 402.56Z" fill="#FFFFFF" fill-opacity="1.000000" fill-rule="evenodd"/>
		<path id="7" d="M379.31 397.6L378.43 402.56L364.48 423.83L355.84 422.31L369.12 402.27L361.76 400.97L361 405.29L354.25 404.1L356.12 393.51L379.31 397.6Z" stroke="#202027" stroke-opacity="1.000000" stroke-width="0.634167"/>
		<rect id="Frame 2043683133" rx="18.775000" width="100.966660" height="100.966667" transform="translate(324.550781 350.760254) rotate(10.000000)" stroke="#202027" stroke-opacity="1.000000" stroke-width="0.500000"/>
		<g filter="url(#filter_14_3609_dd)">
			<rect id="Frame 2043683065" rx="18.775000" width="151.261551" height="151.029739" transform="translate(127.143555 69.319458) rotate(10.000001)" fill="#E9D4FF" fill-opacity="1.000000"/>
			<path id="?" d="M182.87 158.01Q180.65 160.3 179.94 164.3L194.17 166.81Q194.4 165.53 195.04 164.52Q195.49 163.81 196.13 163.23Q197.71 161.82 200.84 159.97Q203.7 158.27 205.54 156.82Q207.41 155.36 208.97 153.04Q210.55 150.72 211.12 147.46Q211.78 143.78 210.73 140.67Q209.75 137.76 207.29 135.35Q202.2 130.37 192.69 128.7Q184.22 127.2 177.66 129.26Q173.53 130.57 170.31 133.04Q168.42 134.5 166.84 136.35L177.64 144.84Q179.05 143.18 180.83 142.16Q181.66 141.68 182.58 141.34Q183.38 141.05 184.2 140.88Q186.34 140.43 188.65 140.84Q191.75 141.39 193.45 143.14Q194.4 144.1 194.7 145.23Q194.95 146.17 194.77 147.21Q194.69 147.63 194.55 148.02Q194.12 149.21 193.07 150.17Q191.7 151.44 189.02 153.2Q185.11 155.71 182.87 158.01ZM178.8 184.67Q180.64 186.18 183.33 186.65Q186.21 187.16 188.56 186.27Q189.48 185.93 190.32 185.37Q191.84 184.35 192.75 182.95Q193.63 181.59 193.93 179.87Q194.3 177.8 193.75 176.01Q193.34 174.68 192.42 173.5Q191.94 172.87 191.35 172.35Q189.37 170.57 186.28 170.02Q183.15 169.47 180.68 170.5Q179.99 170.79 179.35 171.2Q178.14 171.97 177.32 173.03Q176.16 174.55 175.78 176.67Q175.48 178.39 175.83 179.96Q176.2 181.6 177.28 183.07Q177.95 183.98 178.8 184.67Z" fill="#FFFFFF" fill-opacity="1.000000" fill-rule="evenodd"/>
			<path id="?" d="M179.94 164.3Q180.65 160.3 182.87 158.01Q185.11 155.71 189.02 153.2Q191.7 151.44 193.07 150.17Q194.47 148.89 194.77 147.21Q195.18 144.89 193.45 143.14Q191.75 141.39 188.65 140.84Q185.45 140.28 182.58 141.34Q179.72 142.41 177.64 144.84L166.84 136.35Q171.11 131.33 177.66 129.26Q184.22 127.2 192.69 128.7Q202.2 130.37 207.29 135.35Q212.39 140.34 211.12 147.46Q210.55 150.72 208.97 153.04Q207.41 155.36 205.54 156.82Q203.7 158.27 200.84 159.97Q197.71 161.82 196.13 163.23Q194.56 164.64 194.17 166.81L179.94 164.3ZM183.33 186.65Q179.41 185.96 177.28 183.07Q175.16 180.18 175.78 176.67Q176.42 173.06 179.35 171.2Q182.28 169.32 186.28 170.02Q190.28 170.73 192.42 173.5Q194.57 176.26 193.93 179.87Q193.31 183.38 190.32 185.37Q187.33 187.36 183.33 186.65Z" stroke="#202027" stroke-opacity="1.000000" stroke-width="0.634167"/>
			<rect id="Frame 2043683065" rx="18.775000" width="151.261551" height="151.029739" transform="translate(127.143555 69.319458) rotate(10.000001)" stroke="#202027" stroke-opacity="1.000000" stroke-width="0.500000"/>
		</g>
	</g>
</svg>
