<svg width="378.000000" height="314.000000" viewBox="0 0 378 314" fill="none" xmlns="http://www.w3.org/2000/svg" xmlns:xlink="http://www.w3.org/1999/xlink">
	<desc>
			Created with Pixso.
	</desc>
	<defs>
		<clipPath id="clip14_3612">
			<rect id="Обложка карточки" rx="29.684692" width="377.369385" height="313.369385" transform="translate(0.315307 0.315307)" fill="white" fill-opacity="0"/>
		</clipPath>
	</defs>
	<rect id="Обложка карточки" rx="29.684692" width="377.369385" height="313.369385" transform="translate(0.315307 0.315307)" fill="#FDAD00" fill-opacity="1.000000"/>
	<g clip-path="url(#clip14_3612)">
		<rect id="Frame 2043683076" rx="18.775000" width="244.160004" height="80.013336" transform="translate(16.080078 -99.739136) rotate(10.000001)" fill="#FFC700" fill-opacity="1.000000"/>
		<path id="36 − 6 = ?" d="M76.49 -53.89Q74.76 -54.96 72.59 -55.34Q69.06 -55.96 66.47 -54.69Q66.18 -54.54 65.9 -54.38Q66.65 -57.15 68.46 -58.52Q68.68 -58.68 68.91 -58.83Q69.25 -59.04 69.62 -59.2Q71.57 -60.09 74.13 -59.64Q77.25 -59.09 79.04 -57.29L82.92 -62.47Q81.58 -63.73 79.51 -64.63Q77.45 -65.53 75.05 -65.96Q70.61 -66.74 66.93 -65.53Q65.45 -65.04 64.17 -64.25Q62.26 -63.06 60.78 -61.19Q58.31 -58.06 57.46 -53.27Q56.33 -46.9 58.88 -42.8Q59 -42.61 59.12 -42.42Q59.71 -41.57 60.43 -40.84Q63.21 -38.04 67.97 -37.2Q71.05 -36.66 73.76 -37.39Q75.62 -37.9 77.08 -38.97Q77.73 -39.45 78.31 -40.05Q78.82 -40.58 79.23 -41.19Q80.3 -42.76 80.66 -44.81Q81 -46.74 80.57 -48.47Q80.42 -49.08 80.18 -49.66Q79.79 -50.59 79.22 -51.38Q78.41 -52.52 77.23 -53.39Q76.87 -53.65 76.49 -53.89ZM150.04 -40.92Q148.3 -41.99 146.14 -42.37Q142.61 -43 140.01 -41.72Q139.72 -41.58 139.45 -41.41Q140.2 -44.18 142 -45.55Q142.22 -45.71 142.46 -45.86Q142.8 -46.07 143.16 -46.23Q145.11 -47.12 147.67 -46.67Q150.8 -46.12 152.58 -44.33L156.47 -49.5Q155.12 -50.76 153.06 -51.66Q150.99 -52.57 148.59 -52.99Q144.15 -53.77 140.48 -52.56Q139 -52.07 137.71 -51.28Q135.8 -50.09 134.32 -48.22Q131.86 -45.09 131.01 -40.3Q129.88 -33.93 132.42 -29.84Q132.54 -29.64 132.67 -29.45Q133.25 -28.6 133.97 -27.88Q136.75 -25.07 141.52 -24.23Q144.6 -23.69 147.31 -24.42Q149.17 -24.93 150.62 -26Q151.28 -26.48 151.85 -27.08Q152.37 -27.61 152.78 -28.22Q153.84 -29.79 154.21 -31.85Q154.55 -33.77 154.12 -35.5Q153.97 -36.11 153.73 -36.69Q153.34 -37.62 152.77 -38.41Q151.95 -39.55 150.77 -40.42Q150.42 -40.69 150.04 -40.92ZM212.59 -26.18Q211.48 -25.04 211.13 -23.04L218.24 -21.78Q218.36 -22.42 218.68 -22.93Q218.9 -23.28 219.22 -23.57Q220.01 -24.28 221.57 -25.2Q223 -26.05 223.93 -26.78Q224.86 -27.51 225.64 -28.67Q226.43 -29.83 226.72 -31.46Q227.04 -33.3 226.52 -34.85Q226.03 -36.3 224.8 -37.51Q222.25 -40 217.5 -40.84Q213.27 -41.58 209.98 -40.55Q207.92 -39.9 206.31 -38.66Q205.37 -37.94 204.58 -37.01L209.97 -32.77Q210.68 -33.59 211.57 -34.1Q211.99 -34.34 212.45 -34.51Q212.85 -34.66 213.26 -34.75Q214.33 -34.97 215.48 -34.76Q217.03 -34.49 217.88 -33.62Q218.36 -33.14 218.51 -32.57Q218.63 -32.1 218.54 -31.58Q218.5 -31.37 218.43 -31.17Q218.22 -30.58 217.69 -30.1Q217.01 -29.46 215.66 -28.58Q213.71 -27.33 212.59 -26.18ZM53.12 -54.82Q51.64 -57.24 48.34 -58.54L55.25 -63.75L56.12 -68.71L35.89 -72.28L34.81 -66.17L45.85 -64.22L39.9 -59.71L39.01 -54.71L42.33 -54.13Q45.37 -53.59 46 -52.06Q46.26 -51.44 46.12 -50.65Q46 -49.98 45.63 -49.51Q45.23 -48.99 44.54 -48.71Q43.21 -48.16 41.17 -48.52Q39.17 -48.87 37.21 -49.83Q35.26 -50.8 33.83 -52.21L29.89 -46.75Q31.78 -45.06 34.55 -43.83Q36.38 -43.02 38.29 -42.52Q39.28 -42.26 40.28 -42.08Q44.31 -41.37 47.28 -42.19Q50.25 -43 51.96 -44.88Q52.88 -45.89 53.43 -47.06Q53.91 -48.09 54.11 -49.24Q54.46 -51.17 53.98 -52.88Q53.71 -53.85 53.17 -54.74Q53.14 -54.78 53.12 -54.82ZM190.79 -38.75L171.09 -42.22L170.06 -36.42L189.77 -32.95L190.79 -38.75ZM116.36 -46.68L96.65 -50.15L95.62 -44.32L115.32 -40.84L116.36 -46.68ZM70.89 -43.13Q69.84 -42.68 68.49 -42.91Q66.9 -43.19 66.02 -44.13Q65.91 -44.26 65.8 -44.39Q65.47 -44.84 65.3 -45.33Q65.03 -46.15 65.2 -47.13Q65.38 -48.14 65.95 -48.83Q66.28 -49.22 66.73 -49.5Q66.99 -49.67 67.27 -49.79Q68.34 -50.24 69.7 -49.99Q71.15 -49.74 72 -48.89Q72.17 -48.73 72.31 -48.55Q72.6 -48.17 72.77 -47.74Q73.11 -46.87 72.92 -45.81Q72.71 -44.66 72.05 -43.94Q71.77 -43.62 71.39 -43.39Q71.15 -43.24 70.89 -43.13ZM144.44 -30.16Q143.38 -29.71 142.03 -29.95Q140.45 -30.23 139.57 -31.17Q139.45 -31.29 139.35 -31.43Q139.02 -31.87 138.85 -32.36Q138.57 -33.19 138.75 -34.16Q138.92 -35.17 139.5 -35.86Q139.82 -36.25 140.27 -36.54Q140.53 -36.7 140.81 -36.82Q141.89 -37.27 143.25 -37.03Q144.69 -36.77 145.55 -35.92Q145.71 -35.76 145.85 -35.58Q146.15 -35.2 146.32 -34.77Q146.65 -33.91 146.46 -32.84Q146.26 -31.7 145.6 -30.97Q145.31 -30.66 144.94 -30.42Q144.7 -30.27 144.44 -30.16ZM189 -28.63L169.3 -32.1L168.27 -26.31L187.97 -22.83L189 -28.63ZM210.56 -12.85Q211.48 -12.1 212.82 -11.86Q214.26 -11.61 215.44 -12.05Q215.9 -12.22 216.32 -12.5Q217.08 -13.01 217.53 -13.71Q217.97 -14.39 218.12 -15.25Q218.31 -16.29 218.03 -17.18Q217.83 -17.85 217.37 -18.43Q217.12 -18.75 216.83 -19.01Q215.84 -19.9 214.29 -20.17Q212.73 -20.45 211.49 -19.94Q211.15 -19.79 210.83 -19.59Q210.22 -19.2 209.82 -18.67Q209.23 -17.91 209.05 -16.85Q208.89 -15.99 209.07 -15.2Q209.26 -14.39 209.8 -13.65Q210.13 -13.2 210.56 -12.85Z" fill="#FFFFFF" fill-opacity="1.000000" fill-rule="evenodd"/>
		<path id="36 − 6 = ?" d="M48.34 -58.54Q51.69 -57.22 53.17 -54.74Q54.65 -52.28 54.11 -49.24Q53.68 -46.76 51.96 -44.88Q50.25 -43 47.28 -42.19Q44.31 -41.37 40.28 -42.08Q37.32 -42.6 34.55 -43.83Q31.78 -45.06 29.89 -46.75L33.83 -52.21Q35.26 -50.8 37.21 -49.83Q39.17 -48.87 41.17 -48.52Q43.21 -48.16 44.54 -48.71Q45.88 -49.26 46.12 -50.65Q46.6 -53.37 42.33 -54.13L39.01 -54.71L39.9 -59.71L45.85 -64.22L34.81 -66.17L35.89 -72.28L56.12 -68.71L55.25 -63.75L48.34 -58.54ZM72.59 -55.34Q75.23 -54.88 77.23 -53.39Q79.24 -51.91 80.18 -49.66Q81.12 -47.41 80.66 -44.81Q80.16 -41.97 78.31 -40.05Q76.47 -38.13 73.76 -37.39Q71.05 -36.66 67.97 -37.2Q61.98 -38.26 59.12 -42.42Q56.28 -46.6 57.46 -53.27Q58.31 -58.06 60.78 -61.19Q63.26 -64.32 66.93 -65.53Q70.61 -66.74 75.05 -65.96Q77.45 -65.53 79.51 -64.63Q81.58 -63.73 82.92 -62.47L79.04 -57.29Q77.25 -59.09 74.13 -59.64Q71.09 -60.17 68.91 -58.83Q66.74 -57.48 65.9 -54.38Q68.67 -56.03 72.59 -55.34ZM68.49 -42.91Q70.17 -42.62 71.39 -43.39Q72.63 -44.17 72.92 -45.81Q73.2 -47.41 72.31 -48.55Q71.42 -49.69 69.7 -49.99Q67.99 -50.3 66.73 -49.5Q65.48 -48.72 65.2 -47.13Q64.92 -45.57 65.8 -44.39Q66.69 -43.23 68.49 -42.91ZM96.65 -50.15L116.36 -46.68L115.32 -40.84L95.62 -44.32L96.65 -50.15ZM146.14 -42.37Q148.77 -41.91 150.77 -40.42Q152.78 -38.94 153.73 -36.69Q154.67 -34.44 154.21 -31.85Q153.7 -29.01 151.85 -27.08Q150.01 -25.16 147.31 -24.42Q144.6 -23.69 141.52 -24.23Q135.52 -25.29 132.67 -29.45Q129.83 -33.63 131.01 -40.3Q131.86 -45.09 134.32 -48.22Q136.8 -51.35 140.48 -52.56Q144.15 -53.77 148.59 -52.99Q150.99 -52.57 153.06 -51.66Q155.12 -50.76 156.47 -49.5L152.58 -44.33Q150.8 -46.12 147.67 -46.67Q144.64 -47.21 142.46 -45.86Q140.29 -44.51 139.45 -41.41Q142.22 -43.07 146.14 -42.37ZM142.03 -29.95Q143.71 -29.65 144.94 -30.42Q146.17 -31.2 146.46 -32.84Q146.75 -34.44 145.85 -35.58Q144.97 -36.72 143.25 -37.03Q141.53 -37.33 140.27 -36.54Q139.03 -35.75 138.75 -34.16Q138.47 -32.6 139.35 -31.43Q140.24 -30.26 142.03 -29.95ZM171.09 -42.22L190.79 -38.75L189.77 -32.95L170.06 -36.42L171.09 -42.22ZM169.3 -32.1L189 -28.63L187.97 -22.83L168.27 -26.31L169.3 -32.1ZM211.13 -23.04Q211.48 -25.04 212.59 -26.18Q213.71 -27.33 215.66 -28.58Q217.01 -29.46 217.69 -30.1Q218.39 -30.74 218.54 -31.58Q218.74 -32.74 217.88 -33.62Q217.03 -34.49 215.48 -34.76Q213.88 -35.05 212.45 -34.51Q211.01 -33.98 209.97 -32.77L204.58 -37.01Q206.71 -39.52 209.98 -40.55Q213.27 -41.58 217.5 -40.84Q222.25 -40 224.8 -37.51Q227.35 -35.02 226.72 -31.46Q226.43 -29.83 225.64 -28.67Q224.86 -27.51 223.93 -26.78Q223 -26.05 221.57 -25.2Q220.01 -24.28 219.22 -23.57Q218.43 -22.86 218.24 -21.78L211.13 -23.04ZM212.82 -11.86Q210.86 -12.21 209.8 -13.65Q208.74 -15.1 209.05 -16.85Q209.37 -18.66 210.83 -19.59Q212.29 -20.53 214.29 -20.17Q216.29 -19.82 217.37 -18.43Q218.44 -17.06 218.12 -15.25Q217.81 -13.5 216.32 -12.5Q214.82 -11.51 212.82 -11.86Z" stroke="#202027" stroke-opacity="1.000000" stroke-width="0.634167"/>
		<rect id="Frame 2043683076" rx="18.775000" width="244.160004" height="80.013336" transform="translate(16.080078 -99.739136) rotate(10.000001)" stroke="#202027" stroke-opacity="1.000000" stroke-width="0.500000"/>
		<rect id="Frame 2043683094" rx="18.775000" width="219.160004" height="80.013336" transform="translate(264.579102 -55.922119) rotate(10.000001)" fill="#FFC700" fill-opacity="1.000000"/>
		<path id="4 ÷ 2 = ?" d="M376.45 16.62L377.56 10.34L366.76 8.44L372.91 4.49Q376.16 2.43 377.49 0.58Q378.07 -0.22 378.47 -1.09Q379 -2.25 379.23 -3.54Q379.54 -5.31 379.15 -6.9Q378.97 -7.6 378.65 -8.28Q378.51 -8.57 378.35 -8.86Q377.31 -10.66 375.34 -11.93Q373.07 -13.41 369.87 -13.97Q365.84 -14.68 362.6 -13.64Q360.38 -12.93 358.69 -11.57Q357.91 -10.94 357.24 -10.18L362.55 -5.87Q363.33 -6.72 364.3 -7.2Q364.65 -7.37 365.04 -7.5Q365.42 -7.63 365.82 -7.7Q366.88 -7.9 368.02 -7.7Q369.78 -7.39 370.56 -6.46Q370.81 -6.18 370.95 -5.85Q371.27 -5.13 371.1 -4.19Q371.1 -4.15 371.09 -4.11Q370.89 -3.12 370.22 -2.22Q369.53 -1.29 367.75 -0.12L355.54 7.82L354.67 12.78L376.45 16.62ZM436.75 13.35Q435.64 14.49 435.29 16.49L442.4 17.74Q442.51 17.11 442.83 16.6Q443.06 16.24 443.38 15.95Q444.17 15.25 445.73 14.33Q447.16 13.47 448.08 12.75Q449.02 12.02 449.8 10.86Q450.59 9.7 450.88 8.07Q451.2 6.23 450.68 4.68Q450.19 3.22 448.96 2.02Q446.41 -0.48 441.66 -1.31Q437.42 -2.06 434.14 -1.03Q432.08 -0.38 430.47 0.86Q429.52 1.59 428.73 2.52L434.13 6.76Q434.84 5.93 435.73 5.42Q436.15 5.18 436.6 5.01Q437 4.86 437.42 4.78Q438.48 4.56 439.64 4.76Q441.19 5.03 442.04 5.91Q442.51 6.39 442.67 6.96Q442.79 7.42 442.7 7.95Q442.66 8.15 442.59 8.35Q442.37 8.94 441.85 9.43Q441.16 10.06 439.82 10.94Q437.87 12.2 436.75 13.35ZM302.42 -1.96L306.57 -1.23L307.68 -7.5L303.53 -8.23L304.37 -12.98L296.89 -14.3L296.05 -9.55L290.37 -10.55L304.66 -24.89L296.47 -26.33L280.83 -11.08L279.91 -5.93L294.7 -3.32L293.75 2.04L301.47 3.4L302.42 -1.96ZM331.14 -11.17Q331.91 -10.56 333 -10.37Q333.98 -10.2 334.84 -10.44Q335.42 -10.6 335.95 -10.96Q336.45 -11.29 336.81 -11.75Q337.38 -12.48 337.56 -13.52Q337.75 -14.59 337.44 -15.48Q337.27 -15.99 336.92 -16.45Q336.56 -16.95 336.08 -17.29Q335.35 -17.83 334.35 -18Q333.24 -18.2 332.3 -17.88Q331.82 -17.72 331.38 -17.43Q330.95 -17.14 330.63 -16.75Q330 -16 329.81 -14.89Q329.61 -13.81 329.92 -12.89Q330.09 -12.39 330.41 -11.93Q330.73 -11.49 331.14 -11.17ZM414.95 0.78L395.25 -2.69L394.22 3.1L413.92 6.57L414.95 0.78ZM342.51 -6.8L322.81 -10.28L321.78 -4.44L341.48 -0.97L342.51 -6.8ZM413.16 10.9L393.46 7.42L392.43 13.22L412.13 16.69L413.16 10.9ZM328.15 6Q328.9 6.59 329.96 6.77Q330.91 6.94 331.76 6.71Q332.37 6.54 332.92 6.17Q333.44 5.81 333.8 5.34Q334.35 4.6 334.53 3.58Q334.71 2.6 334.44 1.76Q334.26 1.19 333.89 0.69Q333.52 0.2 333.04 -0.15Q332.31 -0.68 331.32 -0.86Q330.17 -1.06 329.21 -0.73Q328.76 -0.58 328.35 -0.3Q327.93 -0.03 327.62 0.34Q326.98 1.09 326.78 2.22Q326.59 3.28 326.88 4.19Q327.05 4.71 327.38 5.19Q327.71 5.66 328.15 6ZM434.71 26.67Q435.64 27.43 436.98 27.66Q438.42 27.92 439.59 27.48Q440.05 27.3 440.47 27.02Q441.24 26.52 441.69 25.81Q442.13 25.13 442.28 24.27Q442.46 23.24 442.19 22.35Q441.98 21.68 441.53 21.09Q441.28 20.78 440.99 20.51Q440 19.62 438.45 19.35Q436.89 19.08 435.65 19.59Q435.31 19.73 434.99 19.94Q434.38 20.32 433.97 20.86Q433.39 21.61 433.2 22.67Q433.05 23.53 433.23 24.32Q433.41 25.14 433.96 25.87Q434.29 26.33 434.71 26.67Z" fill="#FFFFFF" fill-opacity="1.000000" fill-rule="evenodd"/>
		<path id="4 ÷ 2 = ?" d="M306.57 -1.23L302.42 -1.96L301.47 3.4L293.75 2.04L294.7 -3.32L279.91 -5.93L280.83 -11.08L296.47 -26.33L304.66 -24.89L290.37 -10.55L296.05 -9.55L296.89 -14.3L304.37 -12.98L303.53 -8.23L307.68 -7.5L306.57 -1.23ZM333 -10.37Q331.32 -10.67 330.41 -11.93Q329.51 -13.21 329.81 -14.89Q330.1 -16.57 331.38 -17.43Q332.67 -18.3 334.35 -18Q335.99 -17.71 336.92 -16.45Q337.86 -15.2 337.56 -13.52Q337.27 -11.84 335.95 -10.96Q334.64 -10.08 333 -10.37ZM322.81 -10.28L342.51 -6.8L341.48 -0.97L321.78 -4.44L322.81 -10.28ZM329.96 6.77Q328.29 6.48 327.38 5.19Q326.48 3.89 326.78 2.22Q327.07 0.54 328.35 -0.3Q329.64 -1.15 331.32 -0.86Q332.95 -0.57 333.89 0.69Q334.82 1.94 334.53 3.58Q334.24 5.26 332.92 6.17Q331.6 7.06 329.96 6.77ZM377.56 10.34L376.45 16.62L354.67 12.78L355.54 7.82L367.75 -0.12Q369.53 -1.29 370.22 -2.22Q370.92 -3.15 371.1 -4.19Q371.35 -5.55 370.56 -6.46Q369.78 -7.39 368.02 -7.7Q366.46 -7.97 365.04 -7.5Q363.62 -7.03 362.55 -5.87L357.24 -10.18Q359.36 -12.6 362.6 -13.64Q365.84 -14.68 369.87 -13.97Q373.07 -13.41 375.34 -11.93Q377.62 -10.46 378.65 -8.28Q379.68 -6.09 379.23 -3.54Q378.83 -1.26 377.49 0.58Q376.16 2.43 372.91 4.49L366.76 8.44L377.56 10.34ZM395.25 -2.69L414.95 0.78L413.92 6.57L394.22 3.1L395.25 -2.69ZM393.46 7.42L413.16 10.9L412.13 16.69L392.43 13.22L393.46 7.42ZM435.29 16.49Q435.64 14.49 436.75 13.35Q437.87 12.2 439.82 10.94Q441.16 10.06 441.85 9.43Q442.55 8.78 442.7 7.95Q442.9 6.78 442.04 5.91Q441.19 5.03 439.64 4.76Q438.04 4.48 436.6 5.01Q435.17 5.54 434.13 6.76L428.73 2.52Q430.87 0 434.14 -1.03Q437.42 -2.06 441.66 -1.31Q446.41 -0.48 448.96 2.02Q451.51 4.51 450.88 8.07Q450.59 9.7 449.8 10.86Q449.02 12.02 448.08 12.75Q447.16 13.47 445.73 14.33Q444.17 15.25 443.38 15.95Q442.59 16.66 442.4 17.74L435.29 16.49ZM436.98 27.66Q435.02 27.32 433.96 25.87Q432.89 24.43 433.2 22.67Q433.52 20.87 434.99 19.94Q436.45 19 438.45 19.35Q440.45 19.7 441.53 21.09Q442.6 22.47 442.28 24.27Q441.97 26.03 440.47 27.02Q438.98 28.02 436.98 27.66Z" stroke="#202027" stroke-opacity="1.000000" stroke-width="0.634167"/>
		<rect id="Frame 2043683094" rx="18.775000" width="219.160004" height="80.013336" transform="translate(264.579102 -55.922119) rotate(10.000001)" stroke="#202027" stroke-opacity="1.000000" stroke-width="0.500000"/>
		<rect id="Frame 2043683071" rx="18.775000" width="267.160004" height="80.013336" transform="translate(0.884766 -13.553711) rotate(10.000001)" fill="#FFC700" fill-opacity="1.000000"/>
		<path id="100 ÷ 4 = ?" d="M39.14 45.44Q41.32 46.97 44.21 47.48Q46.91 47.95 49.35 47.36Q50.12 47.17 50.87 46.88Q51.43 46.66 51.97 46.37Q54.37 45.11 56.13 42.63Q58.29 39.62 59.1 35.1Q59.89 30.59 58.9 27.01Q58.09 24.09 56.27 22.08Q55.87 21.63 55.41 21.23Q54.8 20.68 54.11 20.22Q52.04 18.85 49.37 18.38Q46.5 17.88 43.95 18.55Q43.3 18.73 42.66 18.98Q42.14 19.18 41.65 19.44Q39.2 20.71 37.4 23.22Q35.23 26.24 34.44 30.75Q33.64 35.27 34.63 38.84Q35.46 41.82 37.33 43.85Q37.7 44.26 38.12 44.63Q38.61 45.07 39.14 45.44ZM66.52 50.27Q68.7 51.79 71.59 52.3Q74.29 52.78 76.73 52.19Q77.5 52 78.25 51.71Q78.81 51.48 79.35 51.2Q81.75 49.93 83.51 47.46Q85.67 44.44 86.47 39.93Q87.27 35.42 86.28 31.84Q85.47 28.92 83.65 26.9Q83.25 26.46 82.79 26.06Q82.17 25.5 81.49 25.05Q79.42 23.68 76.75 23.21Q73.88 22.7 71.33 23.38Q70.68 23.55 70.04 23.81Q69.52 24.01 69.03 24.27Q66.58 25.54 64.78 28.05Q62.61 31.07 61.82 35.58Q61.02 40.09 62.01 43.67Q62.84 46.65 64.71 48.68Q65.08 49.09 65.5 49.46Q65.99 49.89 66.52 50.27ZM220.29 64.04Q219.18 65.19 218.82 67.19L225.94 68.44Q226.05 67.8 226.37 67.29Q226.59 66.94 226.92 66.65Q227.71 65.95 229.27 65.02Q230.7 64.17 231.62 63.45Q232.56 62.72 233.33 61.55Q234.12 60.4 234.41 58.77Q234.74 56.93 234.22 55.37Q233.73 53.92 232.5 52.71Q229.95 50.22 225.2 49.38Q220.96 48.64 217.68 49.67Q215.62 50.32 214 51.56Q213.06 52.28 212.27 53.21L217.67 57.45Q218.38 56.63 219.26 56.12Q219.68 55.88 220.14 55.71Q220.54 55.56 220.95 55.47Q222.02 55.25 223.17 55.46Q224.73 55.73 225.58 56.6Q226.05 57.09 226.2 57.65Q226.33 58.12 226.23 58.64Q226.2 58.85 226.13 59.05Q225.91 59.64 225.39 60.12Q224.7 60.76 223.36 61.64Q221.4 62.89 220.29 64.04ZM27.76 44L32.72 16.03L19.61 13.72L18.53 19.83L23.72 20.74L19.85 42.61L27.76 44ZM157.5 61.35L161.66 62.09L162.77 55.81L158.61 55.08L159.45 50.33L151.98 49.01L151.14 53.76L145.46 52.76L159.74 38.43L151.55 36.98L135.91 52.23L135 57.39L149.78 59.99L148.83 65.35L156.55 66.71L157.5 61.35ZM110.64 38.82Q111.41 39.42 112.5 39.61Q113.48 39.79 114.34 39.54Q114.92 39.38 115.45 39.03Q115.95 38.69 116.31 38.24Q116.88 37.5 117.06 36.46Q117.25 35.4 116.94 34.5Q116.77 33.99 116.42 33.53Q116.06 33.04 115.58 32.69Q114.85 32.16 113.85 31.98Q112.74 31.79 111.8 32.1Q111.32 32.26 110.88 32.56Q110.45 32.85 110.13 33.23Q109.5 33.99 109.31 35.1Q109.11 36.18 109.42 37.09Q109.59 37.6 109.91 38.05Q110.23 38.49 110.64 38.82ZM46.78 40.98Q46.1 41.14 45.36 41.01Q44.57 40.87 43.96 40.46Q42.99 39.81 42.48 38.5Q41.65 36.35 42.39 32.15Q43.13 27.96 44.65 26.23Q45.59 25.17 46.71 24.9Q47.43 24.72 48.22 24.86Q48.96 24.99 49.55 25.37Q50.53 26.01 51.05 27.36Q51.89 29.5 51.14 33.7Q50.4 37.89 48.87 39.62Q47.92 40.71 46.78 40.98ZM74.16 45.81Q73.48 45.97 72.74 45.83Q71.95 45.69 71.34 45.28Q70.37 44.64 69.86 43.32Q69.03 41.18 69.77 36.98Q70.51 32.78 72.03 31.06Q72.97 30 74.09 29.72Q74.81 29.55 75.6 29.69Q76.34 29.82 76.92 30.2Q77.91 30.84 78.43 32.19Q79.26 34.33 78.52 38.52Q77.78 42.72 76.25 44.45Q75.3 45.54 74.16 45.81ZM198.49 51.48L178.78 48L177.76 53.8L197.46 57.27L198.49 51.48ZM122.01 43.18L102.31 39.71L101.28 45.54L120.98 49.02L122.01 43.18ZM196.69 61.59L176.99 58.12L175.97 63.92L195.67 67.39L196.69 61.59ZM107.65 55.98Q108.4 56.57 109.46 56.76Q110.41 56.92 111.26 56.69Q111.87 56.53 112.42 56.15Q112.94 55.8 113.3 55.32Q113.85 54.59 114.03 53.57Q114.21 52.59 113.94 51.74Q113.76 51.18 113.39 50.68Q113.02 50.18 112.54 49.83Q111.81 49.3 110.81 49.13Q109.67 48.93 108.71 49.25Q108.26 49.41 107.85 49.68Q107.43 49.96 107.12 50.32Q106.48 51.07 106.28 52.2Q106.09 53.26 106.38 54.17Q106.55 54.7 106.88 55.17Q107.21 55.65 107.65 55.98ZM218.25 77.37Q219.17 78.12 220.52 78.36Q221.95 78.61 223.13 78.17Q223.59 78 224.01 77.72Q224.77 77.21 225.23 76.51Q225.66 75.83 225.82 74.97Q226 73.94 225.73 73.04Q225.52 72.38 225.06 71.79Q224.82 71.47 224.53 71.21Q223.53 70.32 221.99 70.05Q220.43 69.77 219.19 70.29Q218.84 70.43 218.52 70.63Q217.92 71.02 217.51 71.55Q216.93 72.31 216.74 73.37Q216.59 74.23 216.77 75.02Q216.95 75.83 217.49 76.57Q217.83 77.02 218.25 77.37Z" fill="#FFFFFF" fill-opacity="1.000000" fill-rule="evenodd"/>
		<path id="100 ÷ 4 = ?" d="M32.72 16.03L27.76 44L19.85 42.61L23.72 20.74L18.53 19.83L19.61 13.72L32.72 16.03ZM44.21 47.48Q40.61 46.84 38.12 44.63Q35.63 42.42 34.63 38.84Q33.64 35.27 34.44 30.75Q35.23 26.24 37.4 23.22Q39.56 20.2 42.66 18.98Q45.77 17.75 49.37 18.38Q52.92 19.01 55.41 21.23Q57.91 23.44 58.9 27.01Q59.89 30.59 59.1 35.1Q58.29 39.62 56.13 42.63Q53.97 45.65 50.87 46.88Q47.77 48.1 44.21 47.48ZM45.36 41.01Q47.36 41.36 48.87 39.62Q50.4 37.89 51.14 33.7Q51.89 29.5 51.05 27.36Q50.22 25.21 48.22 24.86Q46.18 24.5 44.65 26.23Q43.13 27.96 42.39 32.15Q41.65 36.35 42.48 38.5Q43.32 40.65 45.36 41.01ZM71.59 52.3Q67.99 51.67 65.5 49.46Q63.01 47.25 62.01 43.67Q61.02 40.09 61.82 35.58Q62.61 31.07 64.78 28.05Q66.94 25.03 70.04 23.81Q73.15 22.57 76.75 23.21Q80.3 23.83 82.79 26.06Q85.29 28.27 86.28 31.84Q87.27 35.42 86.47 39.93Q85.67 44.44 83.51 47.46Q81.35 50.48 78.25 51.71Q75.14 52.93 71.59 52.3ZM72.74 45.83Q74.74 46.19 76.25 44.45Q77.78 42.72 78.52 38.52Q79.26 34.33 78.43 32.19Q77.6 30.04 75.6 29.69Q73.56 29.33 72.03 31.06Q70.51 32.78 69.77 36.98Q69.03 41.18 69.86 43.32Q70.7 45.47 72.74 45.83ZM112.5 39.61Q110.82 39.32 109.91 38.05Q109.01 36.77 109.31 35.1Q109.6 33.42 110.88 32.56Q112.17 31.69 113.85 31.98Q115.49 32.27 116.42 33.53Q117.36 34.79 117.06 36.46Q116.77 38.14 115.45 39.03Q114.14 39.9 112.5 39.61ZM102.31 39.71L122.01 43.18L120.98 49.02L101.28 45.54L102.31 39.71ZM109.46 56.76Q107.78 56.46 106.88 55.17Q105.98 53.88 106.28 52.2Q106.57 50.52 107.85 49.68Q109.14 48.83 110.81 49.13Q112.45 49.42 113.39 50.68Q114.32 51.93 114.03 53.57Q113.74 55.25 112.42 56.15Q111.1 57.05 109.46 56.76ZM161.66 62.09L157.5 61.35L156.55 66.71L148.83 65.35L149.78 59.99L135 57.39L135.91 52.23L151.55 36.98L159.74 38.43L145.46 52.76L151.14 53.76L151.98 49.01L159.45 50.33L158.61 55.08L162.77 55.81L161.66 62.09ZM178.78 48L198.49 51.48L197.46 57.27L177.76 53.8L178.78 48ZM176.99 58.12L196.69 61.59L195.67 67.39L175.97 63.92L176.99 58.12ZM218.82 67.19Q219.18 65.19 220.29 64.04Q221.4 62.89 223.36 61.64Q224.7 60.76 225.39 60.12Q226.08 59.48 226.23 58.64Q226.44 57.48 225.58 56.6Q224.73 55.73 223.17 55.46Q221.57 55.17 220.14 55.71Q218.71 56.24 217.67 57.45L212.27 53.21Q214.41 50.7 217.68 49.67Q220.96 48.64 225.2 49.38Q229.95 50.22 232.5 52.71Q235.04 55.2 234.41 58.77Q234.12 60.4 233.33 61.55Q232.56 62.72 231.62 63.45Q230.7 64.17 229.27 65.02Q227.71 65.95 226.92 66.65Q226.13 67.36 225.94 68.44L218.82 67.19ZM220.52 78.36Q218.55 78.02 217.49 76.57Q216.43 75.13 216.74 73.37Q217.06 71.56 218.52 70.63Q219.99 69.7 221.99 70.05Q223.99 70.4 225.06 71.79Q226.14 73.16 225.82 74.97Q225.51 76.73 224.01 77.72Q222.52 78.71 220.52 78.36Z" stroke="#202027" stroke-opacity="1.000000" stroke-width="0.634167"/>
		<rect id="Frame 2043683071" rx="18.775000" width="267.160004" height="80.013336" transform="translate(0.884766 -13.553711) rotate(10.000001)" stroke="#202027" stroke-opacity="1.000000" stroke-width="0.500000"/>
		<rect id="Frame 2043683075" rx="18.775000" width="207.160004" height="80.013336" transform="translate(272.034180 34.257324) rotate(10.000001)" fill="#FFEC8F" fill-opacity="1.000000"/>
		<path id="1 + 3 = ?" d="M432.48 101.46Q431.37 102.6 431.02 104.6L438.13 105.86Q438.24 105.22 438.56 104.71Q438.79 104.36 439.11 104.07Q439.9 103.36 441.46 102.44Q442.89 101.58 443.82 100.86Q444.75 100.13 445.53 98.97Q446.32 97.81 446.61 96.18Q446.93 94.34 446.41 92.79Q445.92 91.33 444.69 90.13Q442.14 87.64 437.39 86.8Q433.16 86.05 429.87 87.08Q427.81 87.73 426.2 88.97Q425.25 89.7 424.47 90.63L429.86 94.87Q430.57 94.04 431.46 93.53Q431.88 93.29 432.34 93.12Q432.73 92.97 433.15 92.89Q434.21 92.67 435.37 92.87Q436.92 93.15 437.77 94.02Q438.24 94.5 438.4 95.07Q438.52 95.53 438.43 96.06Q438.39 96.27 438.32 96.46Q438.11 97.06 437.58 97.54Q436.9 98.17 435.55 99.05Q433.6 100.31 432.48 101.46ZM298.59 91.76L303.55 63.78L290.44 61.47L289.36 67.58L294.55 68.5L290.68 90.36L298.59 91.76ZM372.49 90.36Q371.01 87.94 367.72 86.64L374.62 81.43L375.5 76.47L355.27 72.9L354.19 79.01L365.22 80.96L359.27 85.47L358.39 90.47L361.7 91.05Q364.75 91.59 365.38 93.12Q365.64 93.74 365.5 94.53Q365.38 95.2 365.01 95.67Q364.61 96.19 363.91 96.47Q362.58 97.02 360.54 96.66Q358.54 96.31 356.59 95.35Q354.63 94.38 353.2 92.97L349.27 98.43Q351.15 100.12 353.92 101.35Q355.76 102.16 357.67 102.66Q358.65 102.92 359.65 103.1Q363.68 103.81 366.65 102.99Q369.63 102.18 371.34 100.3Q372.25 99.29 372.8 98.12Q373.28 97.09 373.49 95.94Q373.83 94.01 373.35 92.3Q373.08 91.33 372.54 90.44Q372.52 90.4 372.49 90.36ZM330.3 85.93L337.05 87.12L338.08 81.28L331.33 80.09L332.5 73.51L326.34 72.42L325.17 79.01L318.38 77.81L317.35 83.64L324.14 84.84L322.97 91.44L329.13 92.52L330.3 85.93ZM410.68 88.89L390.98 85.42L389.95 91.21L409.65 94.69L410.68 88.89ZM408.89 99.01L389.19 95.54L388.16 101.33L407.86 104.81L408.89 99.01ZM430.44 114.79Q431.37 115.54 432.71 115.78Q434.15 116.03 435.33 115.59Q435.79 115.42 436.21 115.14Q436.97 114.63 437.42 113.92Q437.86 113.25 438.01 112.39Q438.19 111.35 437.92 110.46Q437.72 109.79 437.26 109.2Q437.01 108.89 436.72 108.63Q435.73 107.74 434.18 107.46Q432.62 107.19 431.38 107.7Q431.04 107.85 430.72 108.05Q430.11 108.43 429.7 108.97Q429.12 109.73 428.94 110.79Q428.78 111.65 428.96 112.43Q429.15 113.25 429.69 113.99Q430.02 114.44 430.44 114.79Z" fill="#FFFFFF" fill-opacity="1.000000" fill-rule="evenodd"/>
		<path id="1 + 3 = ?" d="M303.55 63.78L298.59 91.76L290.68 90.36L294.55 68.5L289.36 67.58L290.44 61.47L303.55 63.78ZM337.05 87.12L330.3 85.93L329.13 92.52L322.97 91.44L324.14 84.84L317.35 83.64L318.38 77.81L325.17 79.01L326.34 72.42L332.5 73.51L331.33 80.09L338.08 81.28L337.05 87.12ZM367.72 86.64Q371.07 87.96 372.54 90.44Q374.03 92.9 373.49 95.94Q373.05 98.42 371.34 100.3Q369.63 102.18 366.65 102.99Q363.68 103.81 359.65 103.1Q356.7 102.57 353.92 101.35Q351.15 100.12 349.27 98.43L353.2 92.97Q354.63 94.38 356.59 95.35Q358.54 96.31 360.54 96.66Q362.58 97.02 363.91 96.47Q365.25 95.92 365.5 94.53Q365.98 91.81 361.7 91.05L358.39 90.47L359.27 85.47L365.22 80.96L354.19 79.01L355.27 72.9L375.5 76.47L374.62 81.43L367.72 86.64ZM390.98 85.42L410.68 88.89L409.65 94.69L389.95 91.21L390.98 85.42ZM389.19 95.54L408.89 99.01L407.86 104.81L388.16 101.33L389.19 95.54ZM431.02 104.6Q431.37 102.6 432.48 101.46Q433.6 100.31 435.55 99.05Q436.9 98.17 437.58 97.54Q438.28 96.9 438.43 96.06Q438.63 94.9 437.77 94.02Q436.92 93.15 435.37 92.87Q433.77 92.59 432.34 93.12Q430.9 93.65 429.86 94.87L424.47 90.63Q426.6 88.12 429.87 87.08Q433.16 86.05 437.39 86.8Q442.14 87.64 444.69 90.13Q447.24 92.62 446.61 96.18Q446.32 97.81 445.53 98.97Q444.75 100.13 443.82 100.86Q442.89 101.58 441.46 102.44Q439.9 103.36 439.11 104.07Q438.32 104.77 438.13 105.86L431.02 104.6ZM432.71 115.78Q430.75 115.43 429.69 113.99Q428.62 112.54 428.94 110.79Q429.26 108.98 430.72 108.05Q432.18 107.11 434.18 107.46Q436.18 107.82 437.26 109.2Q438.33 110.58 438.01 112.39Q437.7 114.14 436.21 115.14Q434.71 116.13 432.71 115.78Z" stroke="#202027" stroke-opacity="1.000000" stroke-width="0.634167"/>
		<rect id="Frame 2043683075" rx="18.775000" width="207.160004" height="80.013336" transform="translate(272.034180 34.257324) rotate(10.000001)" stroke="#202027" stroke-opacity="1.000000" stroke-width="0.500000"/>
		<rect id="Frame 2043683074" rx="18.775000" width="209.160004" height="80.013336" transform="translate(-14.312500 72.631836) rotate(10.000001)" fill="#FFEC8F" fill-opacity="1.000000"/>
		<path id="9 + 1 = ?" d="M23.23 105Q20.45 102.15 15.61 101.29Q12.67 100.78 10.04 101.45Q9.95 101.48 9.87 101.5Q8.05 102 6.62 103.03Q5.92 103.53 5.31 104.17Q4.81 104.69 4.41 105.28Q3.33 106.86 2.97 108.92Q2.62 110.88 3.07 112.63Q3.22 113.21 3.45 113.77Q3.83 114.67 4.38 115.46Q5.2 116.61 6.39 117.5Q6.72 117.74 7.06 117.95Q8.82 119.06 11.03 119.45Q14.53 120.07 17.12 118.82Q17.4 118.68 17.67 118.52Q16.87 121.35 15 122.7Q14.82 122.83 14.63 122.95Q14.3 123.15 13.94 123.32Q12.02 124.19 9.49 123.75Q6.37 123.2 4.58 121.4L0.71 126.57Q2.05 127.8 4.11 128.72Q6.18 129.64 8.53 130.05Q12.97 130.83 16.67 129.63Q18.24 129.12 19.6 128.26Q21.41 127.1 22.83 125.31Q25.31 122.17 26.15 117.38Q27.28 111.03 24.75 106.94Q24.62 106.73 24.48 106.53Q23.92 105.7 23.23 105ZM148.04 140.17Q146.93 141.31 146.57 143.31L153.69 144.57Q153.8 143.93 154.12 143.42Q154.34 143.07 154.67 142.78Q155.46 142.07 157.02 141.15Q158.45 140.29 159.37 139.57Q160.31 138.84 161.09 137.68Q161.88 136.52 162.16 134.89Q162.49 133.05 161.97 131.5Q161.48 130.04 160.25 128.84Q157.7 126.35 152.95 125.51Q148.71 124.76 145.43 125.79Q143.37 126.45 141.75 127.68Q140.81 128.41 140.02 129.34L145.42 133.58Q146.13 132.75 147.02 132.24Q147.43 132 147.89 131.83Q148.29 131.68 148.7 131.6Q149.77 131.38 150.92 131.58Q152.48 131.86 153.33 132.73Q153.8 133.21 153.95 133.78Q154.08 134.25 153.98 134.77Q153.95 134.98 153.88 135.17Q153.66 135.77 153.14 136.25Q152.45 136.88 151.11 137.76Q149.16 139.02 148.04 140.17ZM85.86 143.11L90.81 115.14L77.71 112.83L76.62 118.93L81.82 119.85L77.94 141.72L85.86 143.11ZM53.77 126.03L60.52 127.22L61.55 121.39L54.8 120.2L55.97 113.61L49.81 112.53L48.64 119.11L41.85 117.91L40.82 123.75L47.61 124.95L46.44 131.54L52.6 132.63L53.77 126.03ZM16.39 113.88Q15.3 114.35 13.91 114.11Q12.48 113.85 11.62 113.01Q11.45 112.85 11.3 112.66Q11 112.27 10.84 111.83Q10.52 110.97 10.7 109.92Q10.91 108.75 11.58 108.03Q11.86 107.73 12.22 107.51Q12.48 107.34 12.76 107.22Q13.81 106.79 15.13 107.02Q16.7 107.3 17.57 108.23Q17.69 108.37 17.8 108.51Q18.15 108.97 18.32 109.48Q18.59 110.28 18.42 111.23Q18.24 112.24 17.67 112.93Q17.34 113.33 16.88 113.62Q16.64 113.77 16.39 113.88ZM126.24 127.6L106.54 124.13L105.51 129.92L125.21 133.4L126.24 127.6ZM124.45 137.72L104.74 134.25L103.72 140.04L123.42 143.52L124.45 137.72ZM146 153.5Q146.92 154.25 148.27 154.49Q149.71 154.74 150.88 154.3Q151.34 154.13 151.76 153.85Q152.52 153.34 152.98 152.63Q153.42 151.96 153.57 151.1Q153.75 150.06 153.48 149.17Q153.27 148.5 152.81 147.91Q152.57 147.6 152.28 147.34Q151.28 146.45 149.74 146.17Q148.18 145.9 146.94 146.41Q146.6 146.56 146.28 146.76Q145.67 147.14 145.26 147.68Q144.68 148.44 144.49 149.5Q144.34 150.36 144.52 151.14Q144.7 151.96 145.24 152.7Q145.58 153.15 146 153.5Z" fill="#FFFFFF" fill-opacity="1.000000" fill-rule="evenodd"/>
		<path id="9 + 1 = ?" d="M15.61 101.29Q21.64 102.36 24.48 106.53Q27.34 110.71 26.15 117.38Q25.31 122.17 22.83 125.31Q20.36 128.43 16.67 129.63Q12.97 130.83 8.53 130.05Q6.18 129.64 4.11 128.72Q2.05 127.8 0.71 126.57L4.58 121.4Q6.37 123.2 9.49 123.75Q12.48 124.28 14.63 122.95Q16.79 121.62 17.67 118.52Q14.91 120.14 11.03 119.45Q8.39 118.99 6.39 117.5Q4.39 116.01 3.45 113.77Q2.51 111.52 2.97 108.92Q3.47 106.09 5.31 104.17Q7.16 102.24 9.87 101.5Q12.58 100.76 15.61 101.29ZM13.91 114.11Q15.63 114.41 16.88 113.62Q18.14 112.83 18.42 111.23Q18.69 109.68 17.8 108.51Q16.92 107.34 15.13 107.02Q13.45 106.73 12.22 107.51Q10.99 108.28 10.7 109.92Q10.42 111.51 11.3 112.66Q12.2 113.8 13.91 114.11ZM60.52 127.22L53.77 126.03L52.6 132.63L46.44 131.54L47.61 124.95L40.82 123.75L41.85 117.91L48.64 119.11L49.81 112.53L55.97 113.61L54.8 120.2L61.55 121.39L60.52 127.22ZM90.81 115.14L85.86 143.11L77.94 141.72L81.82 119.85L76.62 118.93L77.71 112.83L90.81 115.14ZM106.54 124.13L126.24 127.6L125.21 133.4L105.51 129.92L106.54 124.13ZM104.74 134.25L124.45 137.72L123.42 143.52L103.72 140.04L104.74 134.25ZM146.57 143.31Q146.93 141.31 148.04 140.17Q149.16 139.02 151.11 137.76Q152.45 136.88 153.14 136.25Q153.84 135.61 153.98 134.77Q154.19 133.61 153.33 132.73Q152.48 131.86 150.92 131.58Q149.33 131.3 147.89 131.83Q146.46 132.37 145.42 133.58L140.02 129.34Q142.16 126.83 145.43 125.79Q148.71 124.76 152.95 125.51Q157.7 126.35 160.25 128.84Q162.79 131.33 162.16 134.89Q161.88 136.52 161.09 137.68Q160.31 138.84 159.37 139.57Q158.45 140.29 157.02 141.15Q155.46 142.07 154.67 142.78Q153.88 143.48 153.69 144.57L146.57 143.31ZM148.27 154.49Q146.31 154.14 145.24 152.7Q144.18 151.25 144.49 149.5Q144.81 147.69 146.28 146.76Q147.74 145.82 149.74 146.17Q151.74 146.53 152.81 147.91Q153.89 149.29 153.57 151.1Q153.26 152.85 151.76 153.85Q150.27 154.84 148.27 154.49Z" stroke="#202027" stroke-opacity="1.000000" stroke-width="0.634167"/>
		<rect id="Frame 2043683074" rx="18.775000" width="209.160004" height="80.013336" transform="translate(-14.312500 72.631836) rotate(10.000001)" stroke="#202027" stroke-opacity="1.000000" stroke-width="0.500000"/>
		<rect id="Frame 2043683073" rx="18.775000" width="215.160004" height="80.013336" transform="translate(199.717773 110.371216) rotate(10.000001)" fill="#FFC700" fill-opacity="1.000000"/>
		<path id="3 × 2 = ?" d="M307.68 182.22L308.79 175.95L298 174.05L304.14 170.1Q307.39 168.04 308.73 166.19Q309.3 165.39 309.71 164.51Q310.23 163.36 310.46 162.07Q310.78 160.3 310.38 158.71Q310.2 158 309.88 157.33Q309.74 157.03 309.58 156.75Q308.54 154.94 306.57 153.67Q304.3 152.2 301.1 151.63Q297.07 150.92 293.83 151.96Q291.61 152.67 289.92 154.03Q289.14 154.66 288.47 155.42L293.78 159.74Q294.56 158.89 295.53 158.41Q295.89 158.23 296.27 158.11Q296.65 157.98 297.05 157.91Q298.11 157.71 299.25 157.91Q301.01 158.22 301.79 159.14Q302.04 159.42 302.18 159.75Q302.5 160.48 302.34 161.42Q302.33 161.46 302.32 161.5Q302.13 162.49 301.45 163.39Q300.76 164.31 298.98 165.49L286.77 173.43L285.9 178.38L307.68 182.22ZM367.98 178.95Q366.87 180.09 366.52 182.09L373.63 183.35Q373.74 182.71 374.06 182.2Q374.29 181.85 374.61 181.56Q375.4 180.85 376.96 179.93Q378.39 179.08 379.32 178.35Q380.25 177.62 381.03 176.46Q381.82 175.3 382.11 173.67Q382.43 171.83 381.91 170.28Q381.42 168.83 380.19 167.62Q377.64 165.13 372.89 164.29Q368.66 163.54 365.37 164.58Q363.31 165.23 361.7 166.47Q360.76 167.19 359.97 168.12L365.36 172.36Q366.07 171.54 366.96 171.03Q367.38 170.79 367.84 170.61Q368.24 170.47 368.65 170.38Q369.71 170.16 370.87 170.36Q372.42 170.64 373.27 171.51Q373.75 171.99 373.9 172.56Q374.02 173.03 373.93 173.55Q373.89 173.76 373.82 173.95Q373.61 174.55 373.08 175.03Q372.4 175.66 371.05 176.54Q369.1 177.8 367.98 178.95ZM236.45 155.23Q234.97 152.82 231.67 151.52L238.57 146.3L239.45 141.35L219.22 137.78L218.14 143.89L229.18 145.83L223.23 150.35L222.34 155.34L225.66 155.93Q228.7 156.46 229.33 158Q229.59 158.62 229.45 159.4Q229.33 160.07 228.96 160.55Q228.56 161.06 227.87 161.35Q226.53 161.9 224.49 161.54Q222.49 161.19 220.54 160.23Q218.59 159.26 217.16 157.85L213.22 163.3Q215.11 165 217.88 166.23Q219.71 167.04 221.62 167.54Q222.6 167.8 223.61 167.97Q227.64 168.68 230.61 167.87Q233.58 167.06 235.29 165.17Q236.21 164.17 236.76 163Q237.24 161.97 237.44 160.81Q237.79 158.88 237.31 157.18Q237.04 156.21 236.5 155.31Q236.47 155.27 236.45 155.23ZM271.52 166.49L267.47 160.71L273.26 156.66L269.91 151.83L264.12 155.88L260.07 150.09L255.27 153.49L259.31 159.27L253.53 163.32L256.87 168.15L262.66 164.1L266.71 169.89L271.52 166.49ZM346.18 166.38L326.48 162.91L325.45 168.71L345.15 172.18L346.18 166.38ZM344.39 176.5L324.69 173.03L323.66 178.82L343.36 182.3L344.39 176.5ZM365.94 192.28Q366.87 193.03 368.21 193.27Q369.65 193.52 370.83 193.08Q371.29 192.91 371.71 192.63Q372.47 192.12 372.92 191.42Q373.36 190.74 373.51 189.88Q373.69 188.84 373.42 187.95Q373.22 187.28 372.76 186.7Q372.51 186.38 372.22 186.12Q371.23 185.23 369.68 184.96Q368.12 184.68 366.88 185.19Q366.54 185.34 366.22 185.54Q365.61 185.93 365.2 186.46Q364.62 187.22 364.44 188.28Q364.28 189.14 364.46 189.93Q364.65 190.74 365.19 191.48Q365.52 191.93 365.94 192.28Z" fill="#FFFFFF" fill-opacity="1.000000" fill-rule="evenodd"/>
		<path id="3 × 2 = ?" d="M231.67 151.52Q235.02 152.84 236.5 155.31Q237.98 157.78 237.44 160.81Q237 163.29 235.29 165.17Q233.58 167.06 230.61 167.87Q227.64 168.68 223.61 167.97Q220.65 167.45 217.88 166.23Q215.11 165 213.22 163.3L217.16 157.85Q218.59 159.26 220.54 160.23Q222.49 161.19 224.49 161.54Q226.53 161.9 227.87 161.35Q229.2 160.8 229.45 159.4Q229.93 156.68 225.66 155.93L222.34 155.34L223.23 150.35L229.18 145.83L218.14 143.89L219.22 137.78L239.45 141.35L238.57 146.3L231.67 151.52ZM267.47 160.71L271.52 166.49L266.71 169.89L262.66 164.1L256.87 168.15L253.53 163.32L259.31 159.27L255.27 153.49L260.07 150.09L264.12 155.88L269.91 151.83L273.26 156.66L267.47 160.71ZM308.79 175.95L307.68 182.22L285.9 178.38L286.77 173.43L298.98 165.49Q300.76 164.31 301.45 163.39Q302.15 162.45 302.34 161.42Q302.58 160.05 301.79 159.14Q301.01 158.22 299.25 157.91Q297.69 157.63 296.27 158.11Q294.85 158.57 293.78 159.74L288.47 155.42Q290.59 153 293.83 151.96Q297.07 150.92 301.1 151.63Q304.3 152.2 306.57 153.67Q308.85 155.14 309.88 157.33Q310.92 159.51 310.46 162.07Q310.06 164.34 308.73 166.19Q307.39 168.04 304.14 170.1L298 174.05L308.79 175.95ZM326.48 162.91L346.18 166.38L345.15 172.18L325.45 168.71L326.48 162.91ZM324.69 173.03L344.39 176.5L343.36 182.3L323.66 178.82L324.69 173.03ZM366.52 182.09Q366.87 180.09 367.98 178.95Q369.1 177.8 371.05 176.54Q372.4 175.66 373.08 175.03Q373.78 174.39 373.93 173.55Q374.13 172.39 373.27 171.51Q372.42 170.64 370.87 170.36Q369.27 170.08 367.84 170.61Q366.4 171.15 365.36 172.36L359.97 168.12Q362.1 165.61 365.37 164.58Q368.66 163.54 372.89 164.29Q377.64 165.13 380.19 167.62Q382.74 170.11 382.11 173.67Q381.82 175.3 381.03 176.46Q380.25 177.62 379.32 178.35Q378.39 179.08 376.96 179.93Q375.4 180.85 374.61 181.56Q373.82 182.27 373.63 183.35L366.52 182.09ZM368.21 193.27Q366.25 192.92 365.19 191.48Q364.13 190.03 364.44 188.28Q364.76 186.47 366.22 185.54Q367.68 184.6 369.68 184.96Q371.68 185.31 372.76 186.7Q373.83 188.07 373.51 189.88Q373.2 191.63 371.71 192.63Q370.21 193.62 368.21 193.27Z" stroke="#202027" stroke-opacity="1.000000" stroke-width="0.634167"/>
		<rect id="Frame 2043683073" rx="18.775000" width="215.160004" height="80.013336" transform="translate(199.717773 110.371216) rotate(10.000001)" stroke="#202027" stroke-opacity="1.000000" stroke-width="0.500000"/>
		<rect id="Frame 2043683072" rx="18.775000" width="244.160004" height="80.013336" transform="translate(-29.509766 158.817139) rotate(10.000001)" fill="#FFC700" fill-opacity="1.000000"/>
		<path id="36 − 6 = ?" d="M30.9 204.67Q29.17 203.6 27 203.22Q23.47 202.59 20.88 203.87Q20.59 204.01 20.31 204.18Q21.06 201.41 22.87 200.04Q23.09 199.87 23.32 199.73Q23.66 199.52 24.03 199.35Q25.98 198.47 28.54 198.92Q31.66 199.47 33.45 201.26L37.33 196.09Q35.99 194.83 33.92 193.93Q31.86 193.02 29.46 192.6Q25.02 191.82 21.34 193.03Q19.86 193.51 18.58 194.31Q16.67 195.49 15.19 197.37Q12.72 200.5 11.87 205.29Q10.74 211.66 13.29 215.75Q13.41 215.95 13.53 216.13Q14.12 216.99 14.84 217.71Q17.62 220.52 22.38 221.36Q25.46 221.9 28.17 221.17Q30.03 220.66 31.49 219.59Q32.14 219.11 32.72 218.51Q33.23 217.98 33.64 217.37Q34.71 215.79 35.07 213.74Q35.41 211.82 34.98 210.09Q34.83 209.48 34.59 208.9Q34.2 207.97 33.63 207.17Q32.82 206.04 31.64 205.17Q31.28 204.9 30.9 204.67ZM104.45 217.64Q102.71 216.56 100.55 216.18Q97.02 215.56 94.42 216.84Q94.13 216.98 93.86 217.15Q94.61 214.38 96.42 213.01Q96.63 212.84 96.87 212.7Q97.21 212.49 97.57 212.32Q99.52 211.43 102.08 211.89Q105.21 212.44 106.99 214.23L110.88 209.06Q109.53 207.8 107.47 206.9Q105.4 205.99 103 205.57Q98.56 204.79 94.88 206Q93.41 206.48 92.12 207.28Q90.21 208.46 88.73 210.34Q86.27 213.46 85.42 218.25Q84.29 224.63 86.83 228.72Q86.95 228.91 87.08 229.1Q87.67 229.96 88.38 230.68Q91.16 233.48 95.93 234.32Q99.01 234.87 101.72 234.14Q103.58 233.63 105.03 232.56Q105.69 232.08 106.26 231.48Q106.78 230.94 107.19 230.34Q108.25 228.76 108.62 226.71Q108.96 224.79 108.53 223.05Q108.38 222.45 108.14 221.87Q107.75 220.94 107.18 220.14Q106.36 219.01 105.18 218.14Q104.83 217.87 104.45 217.64ZM167 232.38Q165.89 233.52 165.54 235.52L172.65 236.78Q172.77 236.14 173.09 235.63Q173.31 235.28 173.63 234.99Q174.42 234.28 175.98 233.36Q177.41 232.5 178.34 231.78Q179.27 231.05 180.05 229.89Q180.84 228.73 181.13 227.1Q181.45 225.26 180.93 223.71Q180.44 222.25 179.21 221.05Q176.66 218.56 171.91 217.72Q167.68 216.97 164.39 218Q162.33 218.65 160.72 219.89Q159.78 220.62 158.99 221.55L164.38 225.79Q165.09 224.96 165.98 224.45Q166.4 224.21 166.86 224.04Q167.26 223.89 167.67 223.81Q168.74 223.59 169.89 223.79Q171.44 224.07 172.29 224.94Q172.77 225.42 172.92 225.99Q173.04 226.45 172.95 226.98Q172.91 227.19 172.84 227.38Q172.63 227.98 172.1 228.46Q171.42 229.09 170.07 229.97Q168.12 231.23 167 232.38ZM7.53 203.73Q6.05 201.32 2.75 200.02L9.66 194.8L10.53 189.85L-9.7 186.28L-10.78 192.39L0.26 194.33L-5.69 198.85L-6.58 203.84L-3.26 204.43Q-0.22 204.97 0.41 206.5Q0.67 207.12 0.53 207.91Q0.41 208.58 0.04 209.05Q-0.36 209.56 -1.05 209.85Q-2.38 210.4 -4.42 210.04Q-6.42 209.69 -8.38 208.73Q-10.33 207.76 -11.76 206.35L-15.7 211.81Q-13.81 213.5 -11.04 214.73Q-9.21 215.54 -7.29 216.04Q-6.31 216.3 -5.31 216.47Q-1.28 217.18 1.69 216.37Q4.66 215.56 6.37 213.67Q7.29 212.67 7.84 211.5Q8.32 210.47 8.52 209.31Q8.87 207.38 8.39 205.68Q8.12 204.71 7.58 203.81Q7.55 203.77 7.53 203.73ZM145.2 219.81L125.5 216.34L124.47 222.13L144.17 225.61L145.2 219.81ZM70.76 211.88L51.06 208.4L50.03 214.24L69.73 217.71L70.76 211.88ZM25.3 215.43Q24.25 215.88 22.9 215.64Q21.31 215.36 20.43 214.42Q20.32 214.3 20.21 214.16Q19.88 213.72 19.71 213.22Q19.44 212.4 19.61 211.43Q19.79 210.41 20.36 209.73Q20.69 209.34 21.14 209.05Q21.4 208.89 21.68 208.77Q22.75 208.32 24.11 208.56Q25.56 208.82 26.41 209.66Q26.58 209.83 26.72 210.01Q27.01 210.39 27.18 210.82Q27.52 211.68 27.33 212.75Q27.12 213.89 26.46 214.62Q26.18 214.93 25.8 215.17Q25.56 215.32 25.3 215.43ZM98.85 228.4Q97.79 228.85 96.44 228.61Q94.86 228.33 93.98 227.39Q93.86 227.27 93.76 227.13Q93.43 226.69 93.26 226.19Q92.98 225.37 93.16 224.4Q93.34 223.38 93.91 222.69Q94.23 222.31 94.68 222.02Q94.94 221.86 95.22 221.74Q96.3 221.29 97.66 221.53Q99.1 221.78 99.96 222.63Q100.12 222.79 100.26 222.97Q100.56 223.36 100.73 223.79Q101.06 224.65 100.87 225.72Q100.67 226.86 100.01 227.58Q99.72 227.9 99.35 228.14Q99.11 228.29 98.85 228.4ZM143.41 229.93L123.71 226.45L122.68 232.25L142.38 235.72L143.41 229.93ZM164.97 245.71Q165.89 246.46 167.23 246.7Q168.67 246.95 169.85 246.51Q170.31 246.33 170.73 246.05Q171.49 245.55 171.94 244.84Q172.38 244.17 172.53 243.3Q172.72 242.27 172.44 241.38Q172.24 240.71 171.78 240.12Q171.53 239.81 171.24 239.55Q170.25 238.66 168.7 238.38Q167.14 238.11 165.91 238.62Q165.56 238.76 165.24 238.97Q164.63 239.35 164.23 239.89Q163.64 240.65 163.46 241.7Q163.3 242.57 163.48 243.35Q163.67 244.17 164.21 244.91Q164.54 245.36 164.97 245.71Z" fill="#FFFFFF" fill-opacity="1.000000" fill-rule="evenodd"/>
		<path id="36 − 6 = ?" d="M2.75 200.02Q6.1 201.34 7.58 203.81Q9.06 206.28 8.52 209.31Q8.09 211.79 6.37 213.67Q4.66 215.56 1.69 216.37Q-1.28 217.18 -5.31 216.47Q-8.27 215.95 -11.04 214.73Q-13.81 213.5 -15.7 211.81L-11.76 206.35Q-10.33 207.76 -8.38 208.73Q-6.42 209.69 -4.42 210.04Q-2.38 210.4 -1.05 209.85Q0.29 209.3 0.53 207.91Q1.01 205.18 -3.26 204.43L-6.58 203.84L-5.69 198.85L0.26 194.33L-10.78 192.39L-9.7 186.28L10.53 189.85L9.66 194.8L2.75 200.02ZM27 203.22Q29.64 203.68 31.64 205.17Q33.65 206.65 34.59 208.9Q35.53 211.15 35.07 213.74Q34.57 216.58 32.72 218.51Q30.88 220.43 28.17 221.17Q25.46 221.9 22.38 221.36Q16.39 220.3 13.53 216.13Q10.69 211.96 11.87 205.29Q12.72 200.5 15.19 197.37Q17.67 194.23 21.34 193.03Q25.02 191.82 29.46 192.6Q31.86 193.02 33.92 193.93Q35.99 194.83 37.33 196.09L33.45 201.26Q31.66 199.47 28.54 198.92Q25.5 198.38 23.32 199.73Q21.15 201.08 20.31 204.18Q23.08 202.52 27 203.22ZM22.9 215.64Q24.58 215.94 25.8 215.17Q27.04 214.39 27.33 212.75Q27.61 211.15 26.72 210.01Q25.83 208.86 24.11 208.56Q22.4 208.26 21.14 209.05Q19.89 209.84 19.61 211.43Q19.33 212.99 20.21 214.16Q21.1 215.33 22.9 215.64ZM51.06 208.4L70.76 211.88L69.73 217.71L50.03 214.24L51.06 208.4ZM100.55 216.18Q103.18 216.65 105.18 218.14Q107.2 219.62 108.14 221.87Q109.08 224.12 108.62 226.71Q108.11 229.55 106.26 231.48Q104.42 233.4 101.72 234.14Q99.01 234.87 95.93 234.32Q89.93 233.27 87.08 229.1Q84.24 224.93 85.42 218.25Q86.27 213.46 88.73 210.34Q91.21 207.2 94.88 206Q98.56 204.79 103 205.57Q105.4 205.99 107.47 206.9Q109.53 207.8 110.88 209.06L106.99 214.23Q105.21 212.44 102.08 211.89Q99.05 211.35 96.87 212.7Q94.7 214.04 93.86 217.15Q96.62 215.49 100.55 216.18ZM96.44 228.61Q98.12 228.91 99.35 228.14Q100.58 227.36 100.87 225.72Q101.16 224.12 100.26 222.97Q99.38 221.83 97.66 221.53Q95.94 221.23 94.68 222.02Q93.44 222.81 93.16 224.4Q92.88 225.96 93.76 227.13Q94.65 228.29 96.44 228.61ZM125.5 216.34L145.2 219.81L144.17 225.61L124.47 222.13L125.5 216.34ZM123.71 226.45L143.41 229.93L142.38 235.72L122.68 232.25L123.71 226.45ZM165.54 235.52Q165.89 233.52 167 232.38Q168.12 231.23 170.07 229.97Q171.42 229.09 172.1 228.46Q172.8 227.82 172.95 226.98Q173.15 225.82 172.29 224.94Q171.44 224.07 169.89 223.79Q168.29 223.51 166.86 224.04Q165.42 224.57 164.38 225.79L158.99 221.55Q161.12 219.04 164.39 218Q167.68 216.97 171.91 217.72Q176.66 218.56 179.21 221.05Q181.76 223.54 181.13 227.1Q180.84 228.73 180.05 229.89Q179.27 231.05 178.34 231.78Q177.41 232.5 175.98 233.36Q174.42 234.28 173.63 234.99Q172.84 235.69 172.65 236.78L165.54 235.52ZM167.23 246.7Q165.27 246.35 164.21 244.91Q163.14 243.46 163.46 241.7Q163.78 239.9 165.24 238.97Q166.7 238.03 168.7 238.38Q170.7 238.74 171.78 240.12Q172.85 241.5 172.53 243.3Q172.22 245.06 170.73 246.05Q169.23 247.05 167.23 246.7Z" stroke="#202027" stroke-opacity="1.000000" stroke-width="0.634167"/>
		<rect id="Frame 2043683072" rx="18.775000" width="244.160004" height="80.013336" transform="translate(-29.509766 158.817139) rotate(10.000001)" stroke="#202027" stroke-opacity="1.000000" stroke-width="0.500000"/>
		<rect id="Frame 2043683094" rx="18.775000" width="219.160004" height="80.013336" transform="translate(218.988281 202.634277) rotate(10.000001)" fill="#FFEC8F" fill-opacity="1.000000"/>
		<path id="4 ÷ 2 = ?" d="M330.86 275.18L331.97 268.9L321.17 267L327.32 263.05Q330.57 260.99 331.91 259.14Q332.48 258.34 332.88 257.46Q333.41 256.31 333.64 255.02Q333.95 253.25 333.56 251.66Q333.38 250.95 333.06 250.28Q332.92 249.98 332.76 249.7Q331.72 247.9 329.75 246.63Q327.48 245.15 324.28 244.59Q320.25 243.87 317.01 244.91Q314.79 245.62 313.1 246.99Q312.32 247.61 311.65 248.38L316.96 252.69Q317.74 251.84 318.71 251.36Q319.07 251.18 319.45 251.06Q319.83 250.93 320.23 250.86Q321.29 250.66 322.43 250.86Q324.19 251.17 324.97 252.09Q325.22 252.38 325.36 252.7Q325.68 253.43 325.51 254.37Q325.51 254.41 325.5 254.45Q325.3 255.44 324.63 256.34Q323.94 257.26 322.16 258.44L309.95 266.38L309.07 271.33L330.86 275.18ZM391.16 271.9Q390.05 273.04 389.7 275.05L396.81 276.3Q396.92 275.66 397.24 275.15Q397.47 274.8 397.79 274.51Q398.58 273.81 400.14 272.88Q401.57 272.03 402.49 271.31Q403.43 270.57 404.21 269.41Q405 268.26 405.29 266.63Q405.61 264.79 405.09 263.23Q404.6 261.78 403.37 260.57Q400.82 258.08 396.07 257.24Q391.83 256.5 388.55 257.53Q386.49 258.18 384.88 259.42Q383.93 260.14 383.14 261.07L388.54 265.31Q389.25 264.49 390.14 263.98Q390.56 263.74 391.02 263.57Q391.41 263.42 391.83 263.33Q392.89 263.11 394.05 263.32Q395.6 263.59 396.45 264.46Q396.92 264.95 397.08 265.51Q397.2 265.98 397.11 266.5Q397.07 266.71 397 266.91Q396.78 267.5 396.26 267.98Q395.57 268.62 394.23 269.5Q392.28 270.75 391.16 271.9ZM256.83 256.6L260.98 257.33L262.09 251.06L257.94 250.32L258.78 245.57L251.3 244.25L250.46 249.01L244.78 248L259.07 233.67L250.88 232.23L235.24 247.48L234.32 252.63L249.11 255.24L248.16 260.59L255.88 261.95L256.83 256.6ZM285.55 247.39Q286.32 247.99 287.41 248.19Q288.39 248.36 289.25 248.12Q289.83 247.95 290.36 247.6Q290.86 247.26 291.22 246.81Q291.79 246.08 291.97 245.04Q292.16 243.97 291.85 243.08Q291.68 242.56 291.34 242.11Q290.97 241.61 290.49 241.26Q289.76 240.73 288.76 240.56Q287.65 240.36 286.71 240.67Q286.23 240.83 285.79 241.13Q285.36 241.42 285.04 241.81Q284.41 242.56 284.22 243.67Q284.02 244.75 284.33 245.67Q284.5 246.17 284.82 246.62Q285.14 247.06 285.55 247.39ZM369.36 259.34L349.66 255.86L348.63 261.66L368.33 265.13L369.36 259.34ZM296.92 251.75L277.22 248.28L276.19 254.12L295.89 257.59L296.92 251.75ZM367.57 269.45L347.87 265.98L346.84 271.78L366.54 275.25L367.57 269.45ZM282.56 264.56Q283.31 265.14 284.37 265.33Q285.32 265.5 286.17 265.27Q286.78 265.1 287.33 264.72Q287.85 264.37 288.21 263.89Q288.76 263.16 288.94 262.14Q289.12 261.16 288.85 260.32Q288.67 259.75 288.3 259.25Q287.93 258.75 287.45 258.41Q286.72 257.87 285.73 257.7Q284.58 257.5 283.62 257.83Q283.17 257.98 282.76 258.25Q282.34 258.53 282.03 258.9Q281.39 259.65 281.19 260.77Q281 261.84 281.29 262.74Q281.46 263.27 281.79 263.75Q282.12 264.22 282.56 264.56ZM389.12 285.23Q390.05 285.98 391.39 286.22Q392.83 286.47 394 286.03Q394.46 285.86 394.88 285.58Q395.65 285.07 396.1 284.37Q396.54 283.69 396.69 282.83Q396.87 281.8 396.6 280.9Q396.39 280.24 395.94 279.65Q395.69 279.33 395.4 279.07Q394.41 278.18 392.86 277.91Q391.3 277.63 390.06 278.15Q389.72 278.29 389.4 278.49Q388.79 278.88 388.38 279.41Q387.8 280.17 387.61 281.23Q387.46 282.09 387.64 282.88Q387.82 283.69 388.37 284.43Q388.7 284.88 389.12 285.23Z" fill="#FFFFFF" fill-opacity="1.000000" fill-rule="evenodd"/>
		<path id="4 ÷ 2 = ?" d="M260.98 257.33L256.83 256.6L255.88 261.95L248.16 260.59L249.11 255.24L234.32 252.63L235.24 247.48L250.88 232.23L259.07 233.67L244.78 248L250.46 249.01L251.3 244.25L258.78 245.57L257.94 250.32L262.09 251.06L260.98 257.33ZM287.41 248.19Q285.73 247.89 284.82 246.62Q283.92 245.35 284.22 243.67Q284.51 241.99 285.79 241.13Q287.08 240.26 288.76 240.56Q290.4 240.85 291.34 242.11Q292.27 243.36 291.97 245.04Q291.68 246.71 290.36 247.6Q289.05 248.48 287.41 248.19ZM277.22 248.28L296.92 251.75L295.89 257.59L276.19 254.12L277.22 248.28ZM284.37 265.33Q282.7 265.03 281.79 263.75Q280.89 262.45 281.19 260.77Q281.48 259.09 282.76 258.25Q284.05 257.4 285.73 257.7Q287.36 257.99 288.3 259.25Q289.23 260.5 288.94 262.14Q288.65 263.82 287.33 264.72Q286.01 265.62 284.37 265.33ZM331.97 268.9L330.86 275.18L309.07 271.33L309.95 266.38L322.16 258.44Q323.94 257.26 324.63 256.34Q325.33 255.41 325.51 254.37Q325.76 253.01 324.97 252.09Q324.19 251.17 322.43 250.86Q320.87 250.58 319.45 251.06Q318.03 251.52 316.96 252.69L311.65 248.38Q313.77 245.95 317.01 244.91Q320.25 243.87 324.28 244.59Q327.48 245.15 329.75 246.63Q332.03 248.1 333.06 250.28Q334.09 252.46 333.64 255.02Q333.24 257.29 331.91 259.14Q330.57 260.99 327.32 263.05L321.17 267L331.97 268.9ZM349.66 255.86L369.36 259.34L368.33 265.13L348.63 261.66L349.66 255.86ZM347.87 265.98L367.57 269.45L366.54 275.25L346.84 271.78L347.87 265.98ZM389.7 275.05Q390.05 273.04 391.16 271.9Q392.28 270.75 394.23 269.5Q395.57 268.62 396.26 267.98Q396.96 267.34 397.11 266.5Q397.31 265.34 396.45 264.46Q395.6 263.59 394.05 263.32Q392.45 263.03 391.02 263.57Q389.58 264.1 388.54 265.31L383.14 261.07Q385.28 258.56 388.55 257.53Q391.83 256.5 396.07 257.24Q400.82 258.08 403.37 260.57Q405.92 263.07 405.29 266.63Q405 268.26 404.21 269.41Q403.43 270.57 402.49 271.31Q401.57 272.03 400.14 272.88Q398.58 273.81 397.79 274.51Q397 275.22 396.81 276.3L389.7 275.05ZM391.39 286.22Q389.43 285.88 388.37 284.43Q387.3 282.99 387.61 281.23Q387.93 279.42 389.4 278.49Q390.86 277.56 392.86 277.91Q394.86 278.26 395.94 279.65Q397.01 281.02 396.69 282.83Q396.38 284.59 394.88 285.58Q393.39 286.57 391.39 286.22Z" stroke="#202027" stroke-opacity="1.000000" stroke-width="0.634167"/>
		<rect id="Frame 2043683094" rx="18.775000" width="219.160004" height="80.013336" transform="translate(218.988281 202.634277) rotate(10.000001)" stroke="#202027" stroke-opacity="1.000000" stroke-width="0.500000"/>
		<rect id="Frame 2043683093" rx="18.775000" width="268.160004" height="80.013336" transform="translate(-44.708008 245.002686) rotate(10.000001)" fill="#FFEC8F" fill-opacity="1.000000"/>
		<path id="78 + 57 = ?" d="M19.66 296.8Q18.92 294.98 17.2 293.53Q18.54 292.91 19.47 291.91Q19.67 291.71 19.85 291.48Q20.08 291.19 20.28 290.87Q20.95 289.78 21.2 288.42Q21.46 286.92 21.16 285.54Q20.96 284.69 20.55 283.88Q20.54 283.85 20.52 283.83Q19.46 281.75 17.13 280.33Q14.77 278.88 11.49 278.3Q8.21 277.72 5.49 278.28Q2.82 278.82 1.09 280.4Q1.07 280.42 1.04 280.44Q0.4 281.04 -0.07 281.77Q-0.84 282.97 -1.11 284.49Q-1.35 285.85 -1.09 287.11Q-1.02 287.47 -0.9 287.82Q-0.81 288.1 -0.69 288.36Q-0.15 289.61 0.89 290.65Q-1.22 291.43 -2.56 292.88Q-2.85 293.21 -3.1 293.56Q-3.97 294.81 -4.26 296.46Q-4.55 298.13 -4.2 299.64Q-4 300.53 -3.57 301.37Q-2.4 303.63 0.16 305.2Q2.73 306.76 6.33 307.39Q9.93 308.03 12.88 307.44Q15.83 306.84 17.69 305.12Q18.4 304.47 18.91 303.69Q19.75 302.39 20.04 300.74Q20.33 299.12 19.95 297.67Q19.84 297.23 19.66 296.8ZM175.85 322.8Q174.74 323.95 174.39 325.95L181.5 327.2Q181.62 326.56 181.94 326.06Q182.16 325.7 182.48 325.41Q183.27 324.71 184.84 323.78Q186.27 322.93 187.19 322.21Q188.12 321.48 188.9 320.32Q189.69 319.16 189.98 317.53Q190.31 315.69 189.78 314.13Q189.29 312.68 188.06 311.47Q185.52 308.98 180.76 308.14Q176.53 307.4 173.25 308.43Q171.18 309.08 169.57 310.32Q168.63 311.04 167.84 311.97L173.24 316.22Q173.94 315.39 174.83 314.88Q175.25 314.64 175.71 314.47Q176.11 314.32 176.52 314.23Q177.59 314.01 178.74 314.22Q180.29 314.49 181.14 315.37Q181.62 315.85 181.77 316.41Q181.89 316.88 181.8 317.4Q181.76 317.61 181.69 317.81Q181.48 318.4 180.95 318.88Q180.27 319.52 178.92 320.4Q176.97 321.65 175.85 322.8ZM-3.36 281.37L-2.48 276.42L-25.67 272.33L-27.54 282.92L-20.79 284.11L-20.03 279.79L-12.67 281.09L-25.95 301.13L-17.31 302.65L-3.36 281.37ZM90.67 305.82Q88.29 302.93 82.4 301.89L80.53 301.56L81.61 297.54L92.89 299.53L93.97 293.42L76.14 290.28L71.85 306.38L79.44 307.72Q82.48 308.25 83.55 309.18Q84.09 309.66 84.29 310.24Q84.5 310.82 84.37 311.51Q84.26 312.16 83.91 312.62Q83.5 313.17 82.77 313.47Q81.41 314.04 79.37 313.68Q79.14 313.64 78.91 313.59Q77.12 313.21 75.42 312.37Q73.63 311.47 72.22 310.17Q72.13 310.08 72.03 309.99L68.14 315.45Q69.98 317.14 72.75 318.37Q74.59 319.18 76.5 319.68Q77.48 319.94 78.48 320.11Q82.51 320.82 85.48 320.01Q88.42 319.21 90.14 317.3Q90.16 317.28 90.18 317.26Q90.92 316.42 91.43 315.45Q92.1 314.19 92.36 312.71Q92.79 310.29 92.08 308.28Q91.62 306.97 90.67 305.82ZM119.43 303.02L120.31 298.07L97.12 293.98L95.25 304.57L102 305.76L102.76 301.44L110.12 302.74L96.84 322.78L105.48 324.3L119.43 303.02ZM48.69 302.87L55.44 304.06L56.47 298.22L49.72 297.03L50.89 290.45L44.73 289.36L43.56 295.95L36.77 294.75L35.74 300.58L42.53 301.78L41.36 308.38L47.52 309.46L48.69 302.87ZM8.21 284.09Q9.2 283.63 10.5 283.86Q11.94 284.11 12.71 284.97Q12.76 285.02 12.8 285.07Q13.03 285.35 13.18 285.67Q13.51 286.43 13.34 287.41Q13.18 288.31 12.65 288.89Q12.39 289.17 12.04 289.38Q11.98 289.42 11.92 289.45Q10.9 289.99 9.46 289.73Q8.01 289.48 7.26 288.61Q7.22 288.57 7.18 288.52Q6.94 288.23 6.8 287.9Q6.5 287.16 6.66 286.23Q6.83 285.25 7.41 284.65Q7.65 284.4 7.96 284.22Q8.08 284.15 8.21 284.09ZM154.05 310.24L134.35 306.76L133.32 312.56L153.03 316.03L154.05 310.24ZM10.54 301.44Q9.24 302.18 7.32 301.84Q5.39 301.5 4.42 300.36Q4.04 299.91 3.85 299.39Q3.57 298.59 3.74 297.63Q3.91 296.64 4.47 295.98Q4.82 295.57 5.32 295.29Q5.32 295.29 5.33 295.29Q6.63 294.54 8.55 294.88Q10.47 295.22 11.43 296.37L11.44 296.37Q11.82 296.81 12.01 297.33Q12.3 298.13 12.13 299.11Q11.96 300.06 11.43 300.7Q11.07 301.14 10.54 301.44ZM152.26 320.35L132.56 316.88L131.53 322.68L151.23 326.15L152.26 320.35ZM173.82 336.13Q174.74 336.89 176.08 337.12Q177.52 337.38 178.7 336.93Q179.16 336.76 179.58 336.48Q180.34 335.97 180.79 335.27Q181.23 334.59 181.38 333.73Q181.57 332.7 181.29 331.8Q181.09 331.14 180.63 330.55Q180.38 330.23 180.09 329.97Q179.1 329.08 177.56 328.81Q175.99 328.53 174.76 329.05Q174.41 329.19 174.09 329.4Q173.49 329.78 173.08 330.31Q172.5 331.07 172.31 332.13Q172.16 332.99 172.33 333.78Q172.52 334.6 173.06 335.33Q173.39 335.79 173.82 336.13Z" fill="#FFFFFF" fill-opacity="1.000000" fill-rule="evenodd"/>
		<path id="78 + 57 = ?" d="M-2.48 276.42L-3.36 281.37L-17.31 302.65L-25.95 301.13L-12.67 281.09L-20.03 279.79L-20.79 284.11L-27.54 282.92L-25.67 272.33L-2.48 276.42ZM17.2 293.53Q18.92 294.98 19.66 296.8Q20.41 298.63 20.04 300.74Q19.57 303.39 17.69 305.12Q15.83 306.84 12.88 307.44Q9.93 308.03 6.33 307.39Q2.73 306.76 0.16 305.2Q-2.4 303.63 -3.57 301.37Q-4.73 299.1 -4.26 296.46Q-3.88 294.34 -2.56 292.88Q-1.22 291.43 0.89 290.65Q-0.37 289.4 -0.9 287.82Q-1.42 286.24 -1.11 284.49Q-0.68 282.05 1.04 280.44Q2.78 278.82 5.49 278.28Q8.21 277.72 11.49 278.3Q14.77 278.88 17.13 280.33Q19.49 281.77 20.55 283.88Q21.63 285.98 21.2 288.42Q20.89 290.18 19.85 291.48Q18.81 292.78 17.2 293.53ZM10.5 283.86Q9.03 283.6 7.96 284.22Q6.91 284.83 6.66 286.23Q6.42 287.59 7.18 288.52Q7.94 289.46 9.46 289.73Q10.98 290 12.04 289.38Q13.1 288.76 13.34 287.41Q13.58 286.01 12.8 285.07Q12.02 284.13 10.5 283.86ZM7.32 301.84Q9.24 302.18 10.54 301.44Q11.85 300.7 12.13 299.11Q12.41 297.51 11.44 296.37Q10.47 295.22 8.55 294.88Q6.63 294.54 5.32 295.29Q4.02 296.03 3.74 297.63Q3.45 299.22 4.42 300.36Q5.39 301.5 7.32 301.84ZM55.44 304.06L48.69 302.87L47.52 309.46L41.36 308.38L42.53 301.78L35.74 300.58L36.77 294.75L43.56 295.95L44.73 289.36L50.89 290.45L49.72 297.03L56.47 298.22L55.44 304.06ZM82.4 301.89Q88.29 302.93 90.67 305.82Q93.07 308.72 92.36 312.71Q91.9 315.32 90.18 317.26Q88.46 319.2 85.48 320.01Q82.51 320.82 78.48 320.11Q75.53 319.59 72.75 318.37Q69.98 317.14 68.14 315.45L72.03 309.99Q73.51 311.41 75.42 312.37Q77.33 313.32 79.37 313.68Q81.41 314.04 82.77 313.47Q84.13 312.91 84.37 311.51Q84.62 310.12 83.55 309.18Q82.48 308.25 79.44 307.72L71.85 306.38L76.14 290.28L93.97 293.42L92.89 299.53L81.61 297.54L80.53 301.56L82.4 301.89ZM120.31 298.07L119.43 303.02L105.48 324.3L96.84 322.78L110.12 302.74L102.76 301.44L102 305.76L95.25 304.57L97.12 293.98L120.31 298.07ZM134.35 306.76L154.05 310.24L153.03 316.03L133.32 312.56L134.35 306.76ZM132.56 316.88L152.26 320.35L151.23 326.15L131.53 322.68L132.56 316.88ZM174.39 325.95Q174.74 323.95 175.85 322.8Q176.97 321.65 178.92 320.4Q180.27 319.52 180.95 318.88Q181.65 318.24 181.8 317.4Q182.01 316.24 181.14 315.37Q180.29 314.49 178.74 314.22Q177.14 313.94 175.71 314.47Q174.28 315 173.24 316.22L167.84 311.97Q169.97 309.46 173.25 308.43Q176.53 307.4 180.76 308.14Q185.52 308.98 188.06 311.47Q190.61 313.97 189.98 317.53Q189.69 319.16 188.9 320.32Q188.12 321.48 187.19 322.21Q186.27 322.93 184.84 323.78Q183.27 324.71 182.48 325.41Q181.7 326.12 181.5 327.2L174.39 325.95ZM176.08 337.12Q174.12 336.78 173.06 335.33Q172 333.89 172.31 332.13Q172.63 330.33 174.09 329.4Q175.56 328.46 177.56 328.81Q179.56 329.16 180.63 330.55Q181.7 331.93 181.38 333.73Q181.07 335.49 179.58 336.48Q178.08 337.48 176.08 337.12Z" stroke="#202027" stroke-opacity="1.000000" stroke-width="0.634167"/>
		<rect id="Frame 2043683093" rx="18.775000" width="268.160004" height="80.013336" transform="translate(-44.708008 245.002686) rotate(10.000001)" stroke="#202027" stroke-opacity="1.000000" stroke-width="0.500000"/>
		<rect id="Frame 2043683095" rx="18.775000" width="239.160004" height="80.013336" transform="translate(227.426758 292.987305) rotate(10.000001)" fill="#FFEC8F" fill-opacity="1.000000"/>
		<path id="10 − 4 = ?" d="M265.5 351.95Q267.67 353.47 270.56 353.98Q273.26 354.46 275.7 353.87Q276.47 353.68 277.22 353.39Q277.79 353.16 278.32 352.88Q280.72 351.61 282.48 349.14Q284.65 346.12 285.45 341.61Q286.25 337.1 285.25 333.52Q284.44 330.6 282.62 328.58Q282.22 328.14 281.76 327.74Q281.15 327.18 280.46 326.73Q278.39 325.36 275.72 324.89Q272.85 324.38 270.3 325.06Q269.65 325.23 269.01 325.49Q268.49 325.69 268 325.95Q265.55 327.22 263.75 329.73Q261.59 332.75 260.79 337.26Q259.99 341.77 260.98 345.35Q261.81 348.33 263.68 350.36Q264.05 350.77 264.47 351.14Q264.96 351.57 265.5 351.95ZM419.26 365.72Q418.15 366.87 417.79 368.87L424.91 370.12Q425.02 369.48 425.34 368.97Q425.57 368.62 425.89 368.33Q426.68 367.63 428.24 366.7Q429.67 365.85 430.59 365.13Q431.53 364.4 432.31 363.23Q433.1 362.08 433.38 360.45Q433.71 358.61 433.19 357.05Q432.7 355.6 431.47 354.39Q428.92 351.9 424.17 351.06Q419.93 350.32 416.65 351.35Q414.59 352 412.98 353.24Q412.03 353.96 411.24 354.89L416.64 359.13Q417.35 358.31 418.24 357.8Q418.65 357.56 419.11 357.39Q419.51 357.24 419.92 357.15Q420.99 356.93 422.15 357.14Q423.7 357.41 424.55 358.28Q425.02 358.77 425.17 359.33Q425.3 359.8 425.2 360.32Q425.17 360.53 425.1 360.73Q424.88 361.32 424.36 361.8Q423.67 362.44 422.33 363.32Q420.38 364.57 419.26 365.72ZM254.11 350.51L259.07 322.54L245.96 320.23L244.88 326.33L250.07 327.25L246.2 349.11L254.11 350.51ZM356.47 363.03L360.63 363.77L361.74 357.49L357.58 356.76L358.42 352.01L350.95 350.69L350.11 355.44L344.43 354.44L358.71 340.11L350.52 338.66L334.88 353.91L333.97 359.07L348.75 361.67L347.8 367.03L355.52 368.39L356.47 363.03ZM273.13 347.49Q272.45 347.65 271.71 347.51Q270.92 347.37 270.31 346.96Q269.35 346.32 268.83 345Q268 342.86 268.74 338.66Q269.48 334.46 271.01 332.74Q271.94 331.68 273.06 331.4Q273.78 331.23 274.57 331.37Q275.32 331.5 275.9 331.88Q276.88 332.52 277.4 333.87Q278.24 336.01 277.49 340.2Q276.75 344.4 275.23 346.13Q274.27 347.22 273.13 347.49ZM397.46 353.16L377.76 349.68L376.73 355.48L396.43 358.95L397.46 353.16ZM320.98 344.86L301.28 341.39L300.25 347.22L319.95 350.7L320.98 344.86ZM395.67 363.27L375.96 359.8L374.94 365.6L394.64 369.07L395.67 363.27ZM417.22 379.05Q418.14 379.8 419.49 380.04Q420.93 380.29 422.1 379.85Q422.56 379.68 422.98 379.4Q423.74 378.89 424.2 378.19Q424.64 377.51 424.79 376.65Q424.97 375.62 424.7 374.72Q424.49 374.06 424.03 373.47Q423.79 373.15 423.5 372.89Q422.51 372 420.96 371.73Q419.4 371.45 418.16 371.97Q417.82 372.11 417.5 372.31Q416.89 372.7 416.48 373.23Q415.9 373.99 415.71 375.05Q415.56 375.91 415.74 376.7Q415.92 377.51 416.46 378.25Q416.8 378.7 417.22 379.05Z" fill="#FFFFFF" fill-opacity="1.000000" fill-rule="evenodd"/>
		<path id="10 − 4 = ?" d="M259.07 322.54L254.11 350.51L246.2 349.11L250.07 327.25L244.88 326.33L245.96 320.23L259.07 322.54ZM270.56 353.98Q266.96 353.35 264.47 351.14Q261.98 348.93 260.98 345.35Q259.99 341.77 260.79 337.26Q261.59 332.75 263.75 329.73Q265.92 326.71 269.01 325.49Q272.12 324.25 275.72 324.89Q279.27 325.51 281.76 327.74Q284.26 329.95 285.25 333.52Q286.25 337.1 285.45 341.61Q284.65 346.12 282.48 349.14Q280.33 352.16 277.22 353.39Q274.12 354.61 270.56 353.98ZM271.71 347.51Q273.71 347.87 275.23 346.13Q276.75 344.4 277.49 340.2Q278.24 336.01 277.4 333.87Q276.57 331.72 274.57 331.37Q272.53 331.01 271.01 332.74Q269.48 334.46 268.74 338.66Q268 342.86 268.83 345Q269.67 347.15 271.71 347.51ZM301.28 341.39L320.98 344.86L319.95 350.7L300.25 347.22L301.28 341.39ZM360.63 363.77L356.47 363.03L355.52 368.39L347.8 367.03L348.75 361.67L333.97 359.07L334.88 353.91L350.52 338.66L358.71 340.11L344.43 354.44L350.11 355.44L350.95 350.69L358.42 352.01L357.58 356.76L361.74 357.49L360.63 363.77ZM377.76 349.68L397.46 353.16L396.43 358.95L376.73 355.48L377.76 349.68ZM375.96 359.8L395.67 363.27L394.64 369.07L374.94 365.6L375.96 359.8ZM417.79 368.87Q418.15 366.87 419.26 365.72Q420.38 364.57 422.33 363.32Q423.67 362.44 424.36 361.8Q425.06 361.16 425.2 360.32Q425.41 359.16 424.55 358.28Q423.7 357.41 422.15 357.14Q420.55 356.85 419.11 357.39Q417.68 357.92 416.64 359.13L411.24 354.89Q413.38 352.38 416.65 351.35Q419.93 350.32 424.17 351.06Q428.92 351.9 431.47 354.39Q434.02 356.89 433.38 360.45Q433.1 362.08 432.31 363.23Q431.53 364.4 430.59 365.13Q429.67 365.85 428.24 366.7Q426.68 367.63 425.89 368.33Q425.1 369.04 424.91 370.12L417.79 368.87ZM419.49 380.04Q417.53 379.7 416.46 378.25Q415.4 376.81 415.71 375.05Q416.03 373.24 417.5 372.31Q418.96 371.38 420.96 371.73Q422.96 372.08 424.03 373.47Q425.11 374.84 424.79 376.65Q424.48 378.41 422.98 379.4Q421.49 380.39 419.49 380.04Z" stroke="#202027" stroke-opacity="1.000000" stroke-width="0.634167"/>
		<rect id="Frame 2043683095" rx="18.775000" width="239.160004" height="80.013336" transform="translate(227.426758 292.987305) rotate(10.000001)" stroke="#202027" stroke-opacity="1.000000" stroke-width="0.500000"/>
	</g>
</svg>
