<svg width="378.000000" height="314.000000" viewBox="0 0 378 314" fill="none" xmlns="http://www.w3.org/2000/svg" xmlns:xlink="http://www.w3.org/1999/xlink">
	<desc>
			Created with Pixso.
	</desc>
	<defs>
		<clipPath id="clip14_3952">
			<rect id="Обложка карточки" rx="29.684692" width="377.369385" height="313.369385" transform="translate(0.315307 0.315307)" fill="white" fill-opacity="0"/>
		</clipPath>
	</defs>
	<rect id="Обложка карточки" rx="29.684692" width="377.369385" height="313.369385" transform="translate(0.315307 0.315307)" fill="#271A58" fill-opacity="1.000000"/>
	<g clip-path="url(#clip14_3952)">
		<rect id="Frame 2043683080" rx="18.775000" width="100.966667" height="100.966667" transform="translate(13.769531 -95.736328) rotate(10.000000)" fill="#D9B6FF" fill-opacity="1.000000"/>
		<rect id="Frame 2043683080" rx="18.775000" width="100.966667" height="100.966667" transform="translate(13.769531 -95.736328) rotate(10.000000)" stroke="#271A58" stroke-opacity="1.000000" stroke-width="0.500000"/>
		<rect id="Frame 2043683097" rx="18.775000" width="100.966667" height="100.966667" transform="translate(121.266602 -76.781738) rotate(10.000000)" fill="#1FA46C" fill-opacity="1.000000"/>
		<rect id="Frame 2043683097" rx="18.775000" width="100.966667" height="100.966667" transform="translate(121.266602 -76.781738) rotate(10.000000)" stroke="#271A58" stroke-opacity="1.000000" stroke-width="0.500000"/>
		<rect id="Frame 2043683096" rx="18.775000" width="100.966667" height="100.966667" transform="translate(228.763672 -57.827148) rotate(10.000000)" fill="#565EEF" fill-opacity="1.000000"/>
		<rect id="Frame 2043683096" rx="18.775000" width="100.966667" height="100.966667" transform="translate(228.763672 -57.827148) rotate(10.000000)" stroke="#271A58" stroke-opacity="1.000000" stroke-width="0.500000"/>
		<rect id="Frame 2043683099" rx="18.775000" width="100.966667" height="100.966667" transform="translate(336.260742 -38.872559) rotate(10.000000)" fill="#00C1FF" fill-opacity="1.000000"/>
		<rect id="Frame 2043683099" rx="18.775000" width="100.966667" height="100.966667" transform="translate(336.260742 -38.872559) rotate(10.000000)" stroke="#271A58" stroke-opacity="1.000000" stroke-width="0.500000"/>
		<rect id="Frame 2043683103" rx="18.775000" width="100.966667" height="100.966667" transform="translate(-5.170898 11.683105) rotate(10.000000)" fill="#F25050" fill-opacity="1.000000"/>
		<rect id="Frame 2043683103" rx="18.775000" width="100.966667" height="100.966667" transform="translate(-5.170898 11.683105) rotate(10.000000)" stroke="#271A58" stroke-opacity="1.000000" stroke-width="0.500000"/>
		<rect id="Frame 2043683102" rx="18.775000" width="100.966667" height="100.966667" transform="translate(102.326172 30.637695) rotate(10.000000)" fill="#FFC700" fill-opacity="1.000000"/>
		<rect id="Frame 2043683102" rx="18.775000" width="100.966667" height="100.966667" transform="translate(102.326172 30.637695) rotate(10.000000)" stroke="#271A58" stroke-opacity="1.000000" stroke-width="0.500000"/>
		<rect id="Frame 2043683105" rx="18.775000" width="100.966667" height="100.966667" transform="translate(209.822266 49.592285) rotate(10.000000)" fill="#99D100" fill-opacity="1.000000"/>
		<rect id="Frame 2043683105" rx="18.775000" width="100.966667" height="100.966667" transform="translate(209.822266 49.592285) rotate(10.000000)" stroke="#271A58" stroke-opacity="1.000000" stroke-width="0.500000"/>
		<rect id="Frame 2043683107" rx="18.775000" width="100.966667" height="100.966667" transform="translate(317.319336 68.546997) rotate(10.000000)" fill="#AD61FF" fill-opacity="1.000000"/>
		<rect id="Frame 2043683107" rx="18.775000" width="100.966667" height="100.966667" transform="translate(317.319336 68.546997) rotate(10.000000)" stroke="#271A58" stroke-opacity="1.000000" stroke-width="0.500000"/>
		<rect id="Frame 2043683108" rx="18.775000" width="100.966667" height="100.966667" transform="translate(-24.112305 119.102783) rotate(10.000000)" fill="#565EEF" fill-opacity="1.000000"/>
		<rect id="Frame 2043683108" rx="18.775000" width="100.966667" height="100.966667" transform="translate(-24.112305 119.102783) rotate(10.000000)" stroke="#271A58" stroke-opacity="1.000000" stroke-width="0.500000"/>
		<rect id="Frame 2043683110" rx="18.775000" width="100.966667" height="100.966667" transform="translate(83.384766 138.057373) rotate(10.000000)" fill="#00C1FF" fill-opacity="1.000000"/>
		<rect id="Frame 2043683110" rx="18.775000" width="100.966667" height="100.966667" transform="translate(83.384766 138.057373) rotate(10.000000)" stroke="#271A58" stroke-opacity="1.000000" stroke-width="0.500000"/>
		<rect id="Frame 2043683112" rx="18.775000" width="100.966667" height="100.966667" transform="translate(190.881836 157.011963) rotate(10.000000)" fill="#FF6D00" fill-opacity="1.000000"/>
		<rect id="Frame 2043683112" rx="18.775000" width="100.966667" height="100.966667" transform="translate(190.881836 157.011963) rotate(10.000000)" stroke="#271A58" stroke-opacity="1.000000" stroke-width="0.500000"/>
		<rect id="Frame 2043683111" rx="18.775000" width="100.966667" height="100.966667" transform="translate(298.378906 175.966553) rotate(10.000000)" fill="#1FA46C" fill-opacity="1.000000"/>
		<rect id="Frame 2043683111" rx="18.775000" width="100.966667" height="100.966667" transform="translate(298.378906 175.966553) rotate(10.000000)" stroke="#271A58" stroke-opacity="1.000000" stroke-width="0.500000"/>
		<rect id="Frame 2043683115" rx="18.775000" width="100.966667" height="100.966667" transform="translate(-43.052734 226.522217) rotate(10.000000)" fill="#AD61FF" fill-opacity="1.000000"/>
		<rect id="Frame 2043683115" rx="18.775000" width="100.966667" height="100.966667" transform="translate(-43.052734 226.522217) rotate(10.000000)" stroke="#271A58" stroke-opacity="1.000000" stroke-width="0.500000"/>
		<rect id="Frame 2043683116" rx="18.775000" width="100.966667" height="100.966667" transform="translate(64.444336 245.476807) rotate(10.000000)" fill="#99D100" fill-opacity="1.000000"/>
		<rect id="Frame 2043683116" rx="18.775000" width="100.966667" height="100.966667" transform="translate(64.444336 245.476807) rotate(10.000000)" stroke="#271A58" stroke-opacity="1.000000" stroke-width="0.500000"/>
		<rect id="Frame 2043683117" rx="18.775000" width="100.966667" height="100.966667" transform="translate(171.940430 264.431152) rotate(10.000000)" fill="#FFC700" fill-opacity="1.000000"/>
		<rect id="Frame 2043683117" rx="18.775000" width="100.966667" height="100.966667" transform="translate(171.940430 264.431152) rotate(10.000000)" stroke="#271A58" stroke-opacity="1.000000" stroke-width="0.500000"/>
		<rect id="Frame 2043683118" rx="18.775000" width="100.966667" height="100.966667" transform="translate(279.437500 283.385986) rotate(10.000000)" fill="#D9B6FF" fill-opacity="1.000000"/>
		<rect id="Frame 2043683118" rx="18.775000" width="100.966667" height="100.966667" transform="translate(279.437500 283.385986) rotate(10.000000)" stroke="#271A58" stroke-opacity="1.000000" stroke-width="0.500000"/>
	</g>
</svg>
