<svg width="378.000000" height="314.000000" viewBox="0 0 378 314" fill="none" xmlns="http://www.w3.org/2000/svg" xmlns:xlink="http://www.w3.org/1999/xlink">
	<desc>
			Created with Pixso.
	</desc>
	<defs>
		<filter id="filter_14_3866_dd" x="64.958984" y="30.173889" width="247.074219" height="284.280609" filterUnits="userSpaceOnUse" color-interpolation-filters="sRGB">
			<feFlood flood-opacity="0" result="BackgroundImageFix"/>
			<feColorMatrix in="SourceAlpha" type="matrix" values="0 0 0 0 0 0 0 0 0 0 0 0 0 0 0 0 0 0 127 0" result="hardAlpha"/>
			<feMorphology radius="-9.15954" in="" result="BackgroundImageFix"/>
			<feOffset dx="0" dy="15.2659"/>
			<feGaussianBlur stdDeviation="17.0469"/>
			<feComposite in2="hardAlpha" operator="out" k2="-1" k3="1"/>
			<feColorMatrix type="matrix" values="0 0 0 0 0 0 0 0 0 0 0 0 0 0 0 0 0 0 0.3 0"/>
			<feBlend mode="normal" in2="BackgroundImageFix" result="effect_dropShadow_1"/>
			<feBlend mode="normal" in="SourceGraphic" in2="effect_dropShadow_1" result="shape"/>
		</filter>
		<clipPath id="clip14_3768">
			<rect id="Обложка карточки" rx="29.684692" width="377.369385" height="313.369385" transform="translate(0.315307 0.315307)" fill="white" fill-opacity="0"/>
		</clipPath>
	</defs>
	<rect id="Обложка карточки" rx="29.684692" width="377.369385" height="313.369385" transform="translate(0.315307 0.315307)" fill="#99D100" fill-opacity="1.000000"/>
	<g clip-path="url(#clip14_3768)">
		<rect id="Frame 2043683103" rx="18.775000" width="105.960831" height="141.447784" transform="translate(-47.641602 -106.730957) rotate(10.000001)" fill="#BCEC30" fill-opacity="1.000000"/>
		<path id="?" d="M-11.23 -27Q-12.57 -25.62 -13 -23.2L-4.39 -21.68Q-4.25 -22.45 -3.86 -23.07Q-3.59 -23.49 -3.2 -23.84Q-2.25 -24.7 -0.36 -25.81Q1.37 -26.85 2.49 -27.72Q3.62 -28.61 4.56 -30.01Q5.52 -31.41 5.87 -33.39Q6.26 -35.61 5.63 -37.49Q5.04 -39.25 3.55 -40.71Q0.47 -43.73 -5.29 -44.74Q-10.41 -45.64 -14.38 -44.4Q-16.88 -43.61 -18.83 -42.11Q-19.97 -41.23 -20.93 -40.11L-14.39 -34.97Q-13.54 -35.97 -12.46 -36.59Q-11.96 -36.88 -11.4 -37.09Q-10.92 -37.27 -10.42 -37.37Q-9.13 -37.64 -7.73 -37.39Q-5.85 -37.06 -4.82 -36Q-4.25 -35.42 -4.07 -34.73Q-3.92 -34.17 -4.03 -33.54Q-4.08 -33.28 -4.16 -33.05Q-4.42 -32.33 -5.05 -31.74Q-5.88 -30.98 -7.51 -29.91Q-9.87 -28.39 -11.23 -27ZM-13.69 -10.87Q-12.58 -9.96 -10.95 -9.67Q-9.21 -9.37 -7.78 -9.9Q-7.23 -10.11 -6.72 -10.45Q-5.8 -11.06 -5.25 -11.92Q-4.72 -12.74 -4.53 -13.78Q-4.31 -15.03 -4.64 -16.11Q-4.89 -16.92 -5.45 -17.63Q-5.74 -18.01 -6.1 -18.33Q-7.3 -19.4 -9.17 -19.73Q-11.06 -20.07 -12.55 -19.45Q-12.97 -19.27 -13.36 -19.02Q-14.09 -18.56 -14.59 -17.91Q-15.29 -17 -15.52 -15.72Q-15.7 -14.67 -15.49 -13.72Q-15.26 -12.73 -14.61 -11.84Q-14.2 -11.29 -13.69 -10.87Z" fill="#FFFFFF" fill-opacity="1.000000" fill-rule="evenodd"/>
		<path id="?" d="M-13 -23.2Q-12.57 -25.62 -11.23 -27Q-9.87 -28.39 -7.51 -29.91Q-5.88 -30.98 -5.05 -31.74Q-4.21 -32.52 -4.03 -33.54Q-3.78 -34.94 -4.82 -36Q-5.85 -37.06 -7.73 -37.39Q-9.67 -37.73 -11.4 -37.09Q-13.14 -36.44 -14.39 -34.97L-20.93 -40.11Q-18.34 -43.15 -14.38 -44.4Q-10.41 -45.64 -5.29 -44.74Q0.47 -43.73 3.55 -40.71Q6.63 -37.7 5.87 -33.39Q5.52 -31.41 4.56 -30.01Q3.62 -28.61 2.49 -27.72Q1.37 -26.85 -0.36 -25.81Q-2.25 -24.7 -3.2 -23.84Q-4.16 -22.99 -4.39 -21.68L-13 -23.2ZM-10.95 -9.67Q-13.32 -10.09 -14.61 -11.84Q-15.89 -13.59 -15.52 -15.72Q-15.13 -17.9 -13.36 -19.02Q-11.59 -20.16 -9.17 -19.73Q-6.75 -19.31 -5.45 -17.63Q-4.15 -15.96 -4.53 -13.78Q-4.91 -11.65 -6.72 -10.45Q-8.53 -9.25 -10.95 -9.67Z" stroke="#202027" stroke-opacity="1.000000" stroke-width="0.511614"/>
		<rect id="Frame 2043683103" rx="18.775000" width="105.960831" height="141.447784" transform="translate(-47.641602 -106.730957) rotate(10.000001)" stroke="#202027" stroke-opacity="1.000000" stroke-width="0.500000"/>
		<rect id="Frame 2043683100" rx="18.775000" width="105.960831" height="141.447784" transform="translate(63.356445 -87.159058) rotate(10.000001)" fill="#BCEC30" fill-opacity="1.000000"/>
		<path id="?" d="M99.77 -7.43Q98.43 -6.05 98 -3.63L106.61 -2.11Q106.75 -2.88 107.13 -3.49Q107.4 -3.92 107.8 -4.27Q108.75 -5.13 110.64 -6.24Q112.37 -7.28 113.49 -8.15Q114.62 -9.04 115.56 -10.44Q116.52 -11.84 116.87 -13.81Q117.26 -16.04 116.63 -17.92Q116.04 -19.68 114.55 -21.14Q111.46 -24.15 105.71 -25.17Q100.59 -26.07 96.62 -24.82Q94.12 -24.04 92.17 -22.54Q91.03 -21.66 90.07 -20.54L96.6 -15.4Q97.46 -16.4 98.53 -17.02Q99.04 -17.31 99.6 -17.52Q100.08 -17.7 100.58 -17.8Q101.87 -18.07 103.27 -17.82Q105.14 -17.49 106.17 -16.43Q106.75 -15.85 106.93 -15.16Q107.08 -14.6 106.97 -13.96Q106.92 -13.71 106.84 -13.48Q106.58 -12.76 105.94 -12.17Q105.11 -11.41 103.49 -10.34Q101.12 -8.82 99.77 -7.43ZM97.31 8.7Q98.42 9.61 100.05 9.9Q101.79 10.2 103.21 9.67Q103.77 9.46 104.28 9.12Q105.2 8.51 105.75 7.66Q106.28 6.84 106.46 5.79Q106.69 4.54 106.35 3.46Q106.11 2.66 105.55 1.94Q105.26 1.56 104.9 1.24Q103.7 0.17 101.83 -0.16Q99.94 -0.5 98.44 0.13Q98.03 0.3 97.64 0.55Q96.91 1.01 96.41 1.66Q95.71 2.58 95.48 3.86Q95.3 4.9 95.51 5.85Q95.74 6.84 96.39 7.73Q96.79 8.28 97.31 8.7Z" fill="#FFFFFF" fill-opacity="1.000000" fill-rule="evenodd"/>
		<path id="?" d="M98 -3.63Q98.43 -6.05 99.77 -7.43Q101.12 -8.82 103.49 -10.34Q105.11 -11.41 105.94 -12.17Q106.79 -12.95 106.97 -13.96Q107.22 -15.37 106.17 -16.43Q105.14 -17.49 103.27 -17.82Q101.33 -18.16 99.6 -17.52Q97.86 -16.87 96.6 -15.4L90.07 -20.54Q92.66 -23.57 96.62 -24.82Q100.59 -26.07 105.71 -25.17Q111.46 -24.15 114.55 -21.14Q117.63 -18.12 116.87 -13.81Q116.52 -11.84 115.56 -10.44Q114.62 -9.04 113.49 -8.15Q112.37 -7.28 110.64 -6.24Q108.75 -5.13 107.8 -4.27Q106.84 -3.42 106.61 -2.11L98 -3.63ZM100.05 9.9Q97.68 9.48 96.39 7.73Q95.1 5.98 95.48 3.86Q95.87 1.67 97.64 0.55Q99.41 -0.59 101.83 -0.16Q104.25 0.27 105.55 1.94Q106.85 3.61 106.46 5.79Q106.09 7.92 104.28 9.12Q102.47 10.32 100.05 9.9Z" stroke="#202027" stroke-opacity="1.000000" stroke-width="0.511614"/>
		<rect id="Frame 2043683100" rx="18.775000" width="105.960831" height="141.447784" transform="translate(63.356445 -87.159058) rotate(10.000001)" stroke="#202027" stroke-opacity="1.000000" stroke-width="0.500000"/>
		<rect id="Frame 2043683094" rx="18.775000" width="105.960831" height="141.447784" transform="translate(174.353516 -67.587158) rotate(10.000001)" fill="#BCEC30" fill-opacity="1.000000"/>
		<path id="?" d="M210.1 11.55Q208.44 13.26 207.91 16.26L218.58 18.14Q218.75 17.19 219.23 16.43Q219.56 15.9 220.05 15.46Q221.23 14.4 223.58 13.02Q225.72 11.74 227.11 10.65Q228.51 9.56 229.68 7.82Q230.86 6.08 231.29 3.63Q231.78 0.87 231 -1.46Q230.26 -3.64 228.42 -5.45Q224.6 -9.18 217.47 -10.44Q211.11 -11.56 206.19 -10.01Q203.1 -9.04 200.68 -7.18Q199.26 -6.09 198.08 -4.7L206.18 1.67Q207.24 0.43 208.57 -0.34Q209.2 -0.7 209.89 -0.96Q210.48 -1.18 211.1 -1.31Q212.7 -1.64 214.44 -1.33Q216.76 -0.92 218.04 0.39Q218.75 1.11 218.98 1.96Q219.16 2.66 219.02 3.45Q218.97 3.76 218.86 4.05Q218.54 4.94 217.75 5.67Q216.73 6.62 214.71 7.94Q211.78 9.82 210.1 11.55ZM207.05 31.54Q208.43 32.67 210.45 33.03Q212.61 33.41 214.37 32.74Q215.06 32.48 215.69 32.06Q216.83 31.3 217.51 30.25Q218.17 29.23 218.4 27.94Q218.67 26.39 218.26 25.05Q217.96 24.05 217.27 23.17Q216.9 22.69 216.46 22.3Q214.97 20.97 212.66 20.56Q210.31 20.14 208.46 20.91Q207.94 21.13 207.46 21.44Q206.55 22.01 205.94 22.81Q205.07 23.95 204.79 25.54Q204.56 26.83 204.82 28.01Q205.1 29.24 205.91 30.34Q206.41 31.02 207.05 31.54Z" fill="#FFFFFF" fill-opacity="1.000000" fill-rule="evenodd"/>
		<path id="?" d="M207.91 16.26Q208.44 13.26 210.1 11.55Q211.78 9.82 214.71 7.94Q216.73 6.62 217.75 5.67Q218.8 4.71 219.02 3.45Q219.33 1.71 218.04 0.39Q216.76 -0.92 214.44 -1.33Q212.03 -1.75 209.89 -0.96Q207.74 -0.16 206.18 1.67L198.08 -4.7Q201.28 -8.46 206.19 -10.01Q211.11 -11.56 217.47 -10.44Q224.6 -9.18 228.42 -5.45Q232.24 -1.71 231.29 3.63Q230.86 6.08 229.68 7.82Q228.51 9.56 227.11 10.65Q225.72 11.74 223.58 13.02Q221.23 14.4 220.05 15.46Q218.87 16.52 218.58 18.14L207.91 16.26ZM210.45 33.03Q207.51 32.51 205.91 30.34Q204.32 28.17 204.79 25.54Q205.26 22.83 207.46 21.44Q209.66 20.03 212.66 20.56Q215.66 21.09 217.27 23.17Q218.88 25.23 218.4 27.94Q217.93 30.57 215.69 32.06Q213.45 33.56 210.45 33.03Z" stroke="#202027" stroke-opacity="1.000000" stroke-width="0.511614"/>
		<rect id="Frame 2043683094" rx="18.775000" width="105.960831" height="141.447784" transform="translate(174.353516 -67.587158) rotate(10.000001)" stroke="#202027" stroke-opacity="1.000000" stroke-width="0.500000"/>
		<rect id="Frame 2043683095" rx="18.775000" width="105.960831" height="141.447784" transform="translate(285.351562 -48.015137) rotate(10.000001)" fill="#BCEC30" fill-opacity="1.000000"/>
		<path id="?" d="M321.1 31.12Q319.44 32.83 318.91 35.84L329.58 37.72Q329.75 36.76 330.23 36Q330.56 35.47 331.05 35.03Q332.23 33.97 334.57 32.59Q336.72 31.31 338.1 30.22Q339.51 29.13 340.67 27.39Q341.86 25.65 342.29 23.21Q342.78 20.45 342 18.11Q341.26 15.93 339.42 14.13Q335.59 10.39 328.47 9.13Q322.11 8.01 317.19 9.56Q314.09 10.54 311.68 12.39Q310.26 13.48 309.08 14.87L317.17 21.24Q318.23 20 319.57 19.23Q320.2 18.87 320.88 18.62Q321.48 18.39 322.1 18.27Q323.7 17.94 325.43 18.24Q327.76 18.65 329.04 19.96Q329.75 20.69 329.97 21.54Q330.16 22.23 330.02 23.02Q329.97 23.33 329.86 23.63Q329.54 24.52 328.75 25.24Q327.72 26.19 325.71 27.51Q322.78 29.39 321.1 31.12ZM318.04 51.11Q319.43 52.24 321.45 52.6Q323.6 52.98 325.37 52.31Q326.06 52.06 326.69 51.64Q327.83 50.88 328.51 49.82Q329.17 48.8 329.4 47.51Q329.67 45.96 329.26 44.62Q328.95 43.62 328.26 42.74Q327.9 42.26 327.46 41.87Q325.97 40.54 323.65 40.13Q321.31 39.72 319.46 40.49Q318.94 40.7 318.46 41.01Q317.55 41.58 316.94 42.39Q316.06 43.52 315.78 45.11Q315.55 46.4 315.82 47.58Q316.1 48.81 316.91 49.91Q317.41 50.59 318.04 51.11Z" fill="#FFFFFF" fill-opacity="1.000000" fill-rule="evenodd"/>
		<path id="?" d="M318.91 35.84Q319.44 32.83 321.1 31.12Q322.78 29.39 325.71 27.51Q327.72 26.19 328.75 25.24Q329.8 24.28 330.02 23.02Q330.33 21.28 329.04 19.96Q327.76 18.65 325.43 18.24Q323.03 17.82 320.88 18.62Q318.73 19.41 317.17 21.24L309.08 14.87Q312.28 11.11 317.19 9.56Q322.11 8.01 328.47 9.13Q335.59 10.39 339.42 14.13Q343.24 17.86 342.29 23.21Q341.86 25.65 340.67 27.39Q339.51 29.13 338.1 30.22Q336.72 31.31 334.57 32.59Q332.23 33.97 331.05 35.03Q329.86 36.09 329.58 37.72L318.91 35.84ZM321.45 52.6Q318.5 52.08 316.91 49.91Q315.32 47.74 315.78 45.11Q316.26 42.4 318.46 41.01Q320.65 39.6 323.65 40.13Q326.66 40.66 328.26 42.74Q329.88 44.8 329.4 47.51Q328.93 50.14 326.69 51.64Q324.45 53.13 321.45 52.6Z" stroke="#202027" stroke-opacity="1.000000" stroke-width="0.511614"/>
		<rect id="Frame 2043683095" rx="18.775000" width="105.960831" height="141.447784" transform="translate(285.351562 -48.015137) rotate(10.000001)" stroke="#202027" stroke-opacity="1.000000" stroke-width="0.500000"/>
		<rect id="Frame 2043683101" rx="18.775000" width="105.960831" height="141.447784" transform="translate(396.349609 -28.443359) rotate(10.000001)" fill="#BCEC30" fill-opacity="1.000000"/>
		<path id="?" d="M432.76 51.29Q431.42 52.67 430.99 55.09L439.6 56.61Q439.74 55.84 440.13 55.22Q440.4 54.79 440.79 54.44Q441.74 53.59 443.63 52.47Q445.36 51.44 446.48 50.56Q447.61 49.68 448.56 48.28Q449.51 46.87 449.86 44.9Q450.25 42.67 449.62 40.79Q449.03 39.03 447.54 37.58Q444.46 34.56 438.71 33.55Q433.58 32.64 429.61 33.89Q427.11 34.68 425.16 36.18Q424.02 37.06 423.07 38.18L429.6 43.31Q430.45 42.31 431.53 41.7Q432.03 41.41 432.59 41.2Q433.07 41.02 433.57 40.92Q434.86 40.65 436.26 40.9Q438.14 41.23 439.17 42.29Q439.74 42.87 439.92 43.55Q440.07 44.12 439.96 44.75Q439.92 45 439.83 45.24Q439.57 45.96 438.94 46.54Q438.11 47.31 436.48 48.37Q434.12 49.89 432.76 51.29ZM430.3 67.41Q431.42 68.33 433.04 68.61Q434.78 68.92 436.21 68.38Q436.76 68.18 437.27 67.84Q438.19 67.22 438.74 66.37Q439.27 65.55 439.46 64.51Q439.68 63.26 439.35 62.18Q439.1 61.37 438.54 60.66Q438.25 60.28 437.9 59.96Q436.69 58.88 434.82 58.55Q432.93 58.22 431.44 58.84Q431.02 59.02 430.63 59.26Q429.9 59.73 429.4 60.37Q428.7 61.29 428.47 62.57Q428.29 63.61 428.51 64.57Q428.73 65.56 429.38 66.45Q429.79 67 430.3 67.41Z" fill="#FFFFFF" fill-opacity="1.000000" fill-rule="evenodd"/>
		<path id="?" d="M430.99 55.09Q431.42 52.67 432.76 51.29Q434.12 49.89 436.48 48.37Q438.11 47.31 438.94 46.54Q439.78 45.77 439.96 44.75Q440.21 43.35 439.17 42.29Q438.14 41.23 436.26 40.9Q434.32 40.55 432.59 41.2Q430.86 41.84 429.6 43.31L423.07 38.18Q425.65 35.14 429.61 33.89Q433.58 32.64 438.71 33.55Q444.46 34.56 447.54 37.58Q450.62 40.59 449.86 44.9Q449.51 46.87 448.56 48.28Q447.61 49.68 446.48 50.56Q445.36 51.44 443.63 52.47Q441.74 53.59 440.79 54.44Q439.83 55.3 439.6 56.61L430.99 55.09ZM433.04 68.61Q430.67 68.2 429.38 66.45Q428.1 64.7 428.47 62.57Q428.86 60.39 430.63 59.26Q432.4 58.13 434.82 58.55Q437.25 58.98 438.54 60.66Q439.84 62.32 439.46 64.51Q439.08 66.63 437.27 67.84Q435.46 69.04 433.04 68.61Z" stroke="#202027" stroke-opacity="1.000000" stroke-width="0.511614"/>
		<rect id="Frame 2043683101" rx="18.775000" width="105.960831" height="141.447784" transform="translate(396.349609 -28.443359) rotate(10.000001)" stroke="#202027" stroke-opacity="1.000000" stroke-width="0.500000"/>
		<rect id="Frame 2043683104" rx="18.775000" width="105.960831" height="141.447784" transform="translate(-73.356445 39.106445) rotate(10.000001)" fill="#BCEC30" fill-opacity="1.000000"/>
		<path id="?" d="M-36.94 118.84Q-38.28 120.22 -38.71 122.64L-30.1 124.16Q-29.97 123.39 -29.58 122.77Q-29.31 122.34 -28.92 121.99Q-27.96 121.14 -26.07 120.02Q-24.34 118.99 -23.23 118.11Q-22.09 117.23 -21.15 115.83Q-20.2 114.42 -19.85 112.45Q-19.45 110.23 -20.09 108.34Q-20.68 106.58 -22.17 105.13Q-25.25 102.11 -31 101.1Q-36.13 100.19 -40.1 101.44Q-42.59 102.23 -44.54 103.73Q-45.69 104.61 -46.64 105.73L-40.11 110.86Q-39.25 109.86 -38.18 109.25Q-37.67 108.96 -37.12 108.75Q-36.63 108.57 -36.14 108.47Q-34.84 108.2 -33.45 108.45Q-31.57 108.78 -30.54 109.84Q-29.97 110.42 -29.78 111.1Q-29.63 111.67 -29.75 112.3Q-29.79 112.55 -29.88 112.79Q-30.13 113.51 -30.77 114.09Q-31.6 114.86 -33.22 115.93Q-35.59 117.44 -36.94 118.84ZM-39.41 134.97Q-38.29 135.88 -36.66 136.16Q-34.92 136.47 -33.5 135.94Q-32.94 135.73 -32.43 135.39Q-31.51 134.77 -30.96 133.92Q-30.43 133.1 -30.25 132.06Q-30.03 130.81 -30.36 129.73Q-30.61 128.92 -31.16 128.21Q-31.46 127.83 -31.81 127.51Q-33.01 126.43 -34.88 126.1Q-36.77 125.77 -38.27 126.39Q-38.69 126.57 -39.07 126.81Q-39.81 127.28 -40.3 127.92Q-41 128.84 -41.23 130.12Q-41.42 131.17 -41.2 132.12Q-40.98 133.11 -40.32 134Q-39.92 134.55 -39.41 134.97Z" fill="#FFFFFF" fill-opacity="1.000000" fill-rule="evenodd"/>
		<path id="?" d="M-38.71 122.64Q-38.28 120.22 -36.94 118.84Q-35.59 117.44 -33.22 115.93Q-31.6 114.86 -30.77 114.09Q-29.93 113.32 -29.75 112.3Q-29.5 110.9 -30.54 109.84Q-31.57 108.78 -33.45 108.45Q-35.38 108.11 -37.12 108.75Q-38.85 109.39 -40.11 110.86L-46.64 105.73Q-44.06 102.69 -40.1 101.44Q-36.13 100.19 -31 101.1Q-25.25 102.11 -22.17 105.13Q-19.08 108.14 -19.85 112.45Q-20.2 114.42 -21.15 115.83Q-22.09 117.23 -23.23 118.11Q-24.34 118.99 -26.07 120.02Q-27.96 121.14 -28.92 121.99Q-29.87 122.85 -30.1 124.16L-38.71 122.64ZM-36.66 136.16Q-39.04 135.75 -40.32 134Q-41.61 132.25 -41.23 130.12Q-40.84 127.94 -39.07 126.81Q-37.3 125.68 -34.88 126.1Q-32.46 126.53 -31.16 128.21Q-29.86 129.87 -30.25 132.06Q-30.63 134.18 -32.43 135.39Q-34.24 136.59 -36.66 136.16Z" stroke="#202027" stroke-opacity="1.000000" stroke-width="0.511614"/>
		<rect id="Frame 2043683104" rx="18.775000" width="105.960831" height="141.447784" transform="translate(-73.356445 39.106445) rotate(10.000001)" stroke="#202027" stroke-opacity="1.000000" stroke-width="0.500000"/>
		<rect id="Frame 2043683096" rx="18.775000" width="105.960831" height="141.447784" transform="translate(37.641602 58.678467) rotate(10.000001)" fill="#BCEC30" fill-opacity="1.000000"/>
		<path id="?" d="M73.39 137.81Q71.73 139.53 71.2 142.53L81.87 144.41Q82.04 143.45 82.52 142.69Q82.85 142.16 83.34 141.73Q84.52 140.67 86.86 139.28Q89.01 138 90.39 136.92Q91.79 135.82 92.96 134.08Q94.15 132.34 94.58 129.9Q95.07 127.14 94.28 124.81Q93.55 122.63 91.7 120.82Q87.88 117.08 80.76 115.83Q74.4 114.71 69.48 116.25Q66.38 117.23 63.97 119.09Q62.55 120.18 61.37 121.57L69.46 127.93Q70.52 126.69 71.86 125.93Q72.48 125.57 73.17 125.31Q73.77 125.09 74.39 124.96Q75.99 124.63 77.72 124.94Q80.05 125.35 81.33 126.66Q82.04 127.38 82.26 128.23Q82.45 128.93 82.31 129.71Q82.26 130.03 82.15 130.32Q81.83 131.21 81.04 131.93Q80.01 132.89 78 134.21Q75.07 136.09 73.39 137.81ZM70.34 157.81Q71.72 158.94 73.74 159.29Q75.89 159.67 77.66 159.01Q78.35 158.75 78.98 158.33Q80.12 157.57 80.8 156.51Q81.46 155.5 81.69 154.2Q81.96 152.65 81.55 151.31Q81.24 150.31 80.55 149.43Q80.19 148.96 79.75 148.57Q78.26 147.23 75.94 146.82Q73.6 146.41 71.75 147.18Q71.23 147.39 70.75 147.7Q69.84 148.28 69.23 149.08Q68.35 150.22 68.07 151.8Q67.84 153.1 68.11 154.28Q68.39 155.5 69.2 156.61Q69.7 157.29 70.34 157.81Z" fill="#FFFFFF" fill-opacity="1.000000" fill-rule="evenodd"/>
		<path id="?" d="M71.2 142.53Q71.73 139.53 73.39 137.81Q75.07 136.09 78 134.21Q80.01 132.89 81.04 131.93Q82.09 130.97 82.31 129.71Q82.62 127.97 81.33 126.66Q80.05 125.35 77.72 124.94Q75.32 124.51 73.17 125.31Q71.02 126.11 69.46 127.93L61.37 121.57Q64.57 117.8 69.48 116.25Q74.4 114.71 80.76 115.83Q87.88 117.08 91.7 120.82Q95.53 124.56 94.58 129.9Q94.15 132.34 92.96 134.08Q91.79 135.82 90.39 136.92Q89.01 138 86.86 139.28Q84.52 140.67 83.34 141.73Q82.15 142.79 81.87 144.41L71.2 142.53ZM73.74 159.29Q70.79 158.77 69.2 156.61Q67.61 154.44 68.07 151.8Q68.55 149.1 70.75 147.7Q72.94 146.29 75.94 146.82Q78.94 147.35 80.55 149.43Q82.17 151.5 81.69 154.2Q81.22 156.84 78.98 158.33Q76.74 159.82 73.74 159.29Z" stroke="#202027" stroke-opacity="1.000000" stroke-width="0.511614"/>
		<rect id="Frame 2043683096" rx="18.775000" width="105.960831" height="141.447784" transform="translate(37.641602 58.678467) rotate(10.000001)" stroke="#202027" stroke-opacity="1.000000" stroke-width="0.500000"/>
		<rect id="Frame 2043683112" rx="18.775000" width="105.960831" height="141.447784" transform="translate(148.638672 78.250366) rotate(10.000001)" fill="#BCEC30" fill-opacity="1.000000"/>
		<path id="?" d="M185.05 157.98Q183.71 159.36 183.28 161.78L191.89 163.3Q192.03 162.53 192.42 161.92Q192.69 161.49 193.08 161.14Q194.03 160.28 195.92 159.17Q197.65 158.13 198.77 157.26Q199.9 156.37 200.85 154.97Q201.8 153.57 202.15 151.6Q202.54 149.37 201.91 147.49Q201.32 145.73 199.83 144.27Q196.75 141.25 191 140.24Q185.87 139.34 181.9 140.59Q179.4 141.37 177.45 142.87Q176.31 143.75 175.36 144.87L181.89 150.01Q182.74 149.01 183.82 148.39Q184.32 148.1 184.88 147.89Q185.36 147.71 185.86 147.61Q187.15 147.34 188.55 147.59Q190.43 147.92 191.46 148.98Q192.03 149.56 192.21 150.25Q192.36 150.81 192.25 151.45Q192.21 151.7 192.12 151.93Q191.86 152.65 191.23 153.24Q190.4 154 188.77 155.07Q186.41 156.59 185.05 157.98ZM182.59 174.11Q183.71 175.02 185.33 175.31Q187.07 175.61 188.5 175.08Q189.05 174.87 189.56 174.53Q190.48 173.92 191.03 173.07Q191.56 172.25 191.75 171.2Q191.97 169.95 191.64 168.87Q191.39 168.06 190.83 167.35Q190.54 166.97 190.19 166.65Q188.99 165.58 187.11 165.25Q185.22 164.91 183.73 165.54Q183.31 165.71 182.92 165.96Q182.19 166.42 181.69 167.07Q180.99 167.99 180.76 169.27Q180.58 170.31 180.8 171.26Q181.02 172.25 181.67 173.14Q182.08 173.69 182.59 174.11Z" fill="#FFFFFF" fill-opacity="1.000000" fill-rule="evenodd"/>
		<path id="?" d="M183.28 161.78Q183.71 159.36 185.05 157.98Q186.41 156.59 188.77 155.07Q190.4 154 191.23 153.24Q192.07 152.46 192.25 151.45Q192.5 150.04 191.46 148.98Q190.43 147.92 188.55 147.59Q186.61 147.25 184.88 147.89Q183.15 148.54 181.89 150.01L175.36 144.87Q177.94 141.84 181.9 140.59Q185.87 139.34 191 140.24Q196.75 141.25 199.83 144.27Q202.91 147.28 202.15 151.6Q201.8 153.57 200.85 154.97Q199.9 156.37 198.77 157.26Q197.65 158.13 195.92 159.17Q194.03 160.28 193.08 161.14Q192.12 161.99 191.89 163.3L183.28 161.78ZM185.33 175.31Q182.96 174.89 181.67 173.14Q180.39 171.39 180.76 169.27Q181.15 167.08 182.92 165.96Q184.69 164.82 187.11 165.25Q189.54 165.67 190.83 167.35Q192.13 169.02 191.75 171.2Q191.37 173.33 189.56 174.53Q187.75 175.73 185.33 175.31Z" stroke="#202027" stroke-opacity="1.000000" stroke-width="0.511614"/>
		<rect id="Frame 2043683112" rx="18.775000" width="105.960831" height="141.447784" transform="translate(148.638672 78.250366) rotate(10.000001)" stroke="#202027" stroke-opacity="1.000000" stroke-width="0.500000"/>
		<rect id="Frame 2043683098" rx="18.775000" width="105.960831" height="141.447784" transform="translate(259.636719 97.822266) rotate(10.000001)" fill="#BCEC30" fill-opacity="1.000000"/>
		<path id="?" d="M295.38 176.96Q293.72 178.67 293.19 181.67L303.86 183.55Q304.03 182.6 304.51 181.84Q304.85 181.31 305.33 180.87Q306.52 179.81 308.86 178.43Q311 177.15 312.39 176.06Q313.79 174.97 314.96 173.23Q316.14 171.49 316.57 169.04Q317.06 166.28 316.28 163.95Q315.55 161.77 313.7 159.96Q309.88 156.23 302.75 154.97Q296.4 153.85 291.48 155.4Q288.38 156.37 285.96 158.23Q284.55 159.32 283.36 160.71L291.46 167.07Q292.52 165.84 293.85 165.07Q294.48 164.71 295.17 164.45Q295.77 164.23 296.38 164.1Q297.99 163.77 299.72 164.08Q302.04 164.49 303.32 165.8Q304.03 166.52 304.26 167.37Q304.45 168.07 304.31 168.86Q304.25 169.17 304.14 169.46Q303.82 170.35 303.04 171.08Q302.01 172.03 299.99 173.35Q297.06 175.23 295.38 176.96ZM292.33 196.95Q293.71 198.08 295.73 198.44Q297.89 198.82 299.65 198.15Q300.34 197.89 300.97 197.47Q302.12 196.71 302.8 195.66Q303.45 194.64 303.68 193.35Q303.96 191.8 303.54 190.46Q303.24 189.46 302.55 188.58Q302.18 188.1 301.75 187.71Q300.26 186.38 297.94 185.97Q295.59 185.55 293.74 186.32Q293.22 186.54 292.74 186.85Q291.84 187.42 291.22 188.22Q290.35 189.36 290.07 190.95Q289.84 192.24 290.11 193.42Q290.38 194.65 291.2 195.75Q291.7 196.43 292.33 196.95Z" fill="#FFFFFF" fill-opacity="1.000000" fill-rule="evenodd"/>
		<path id="?" d="M293.19 181.67Q293.72 178.67 295.38 176.96Q297.06 175.23 299.99 173.35Q302.01 172.03 303.04 171.08Q304.08 170.12 304.31 168.86Q304.61 167.12 303.32 165.8Q302.04 164.49 299.72 164.08Q297.32 163.66 295.17 164.45Q293.02 165.25 291.46 167.07L283.36 160.71Q286.57 156.95 291.48 155.4Q296.4 153.85 302.75 154.97Q309.88 156.23 313.7 159.96Q317.52 163.7 316.57 169.04Q316.14 171.49 314.96 173.23Q313.79 174.97 312.39 176.06Q311 177.15 308.86 178.43Q306.52 179.81 305.33 180.87Q304.15 181.93 303.86 183.55L293.19 181.67ZM295.73 198.44Q292.79 197.92 291.2 195.75Q289.6 193.58 290.07 190.95Q290.55 188.24 292.74 186.85Q294.94 185.44 297.94 185.97Q300.94 186.5 302.55 188.58Q304.16 190.64 303.68 193.35Q303.21 195.98 300.97 197.47Q298.73 198.97 295.73 198.44Z" stroke="#202027" stroke-opacity="1.000000" stroke-width="0.511614"/>
		<rect id="Frame 2043683098" rx="18.775000" width="105.960831" height="141.447784" transform="translate(259.636719 97.822266) rotate(10.000001)" stroke="#202027" stroke-opacity="1.000000" stroke-width="0.500000"/>
		<rect id="Frame 2043683102" rx="18.775000" width="105.960831" height="141.447784" transform="translate(370.633789 117.394287) rotate(10.000001)" fill="#BCEC30" fill-opacity="1.000000"/>
		<path id="?" d="M407.05 197.12Q405.71 198.51 405.28 200.93L413.89 202.45Q414.02 201.67 414.41 201.06Q414.68 200.63 415.07 200.28Q416.03 199.43 417.92 198.31Q419.65 197.28 420.77 196.4Q421.9 195.52 422.84 194.11Q423.79 192.71 424.14 190.74Q424.54 188.51 423.91 186.63Q423.31 184.87 421.82 183.41Q418.74 180.4 412.99 179.39Q407.87 178.48 403.89 179.73Q401.4 180.52 399.45 182.02Q398.31 182.9 397.35 184.02L403.88 189.15Q404.74 188.15 405.81 187.53Q406.32 187.24 406.87 187.04Q407.36 186.86 407.86 186.75Q409.15 186.49 410.54 186.73Q412.42 187.07 413.45 188.12Q414.03 188.71 414.21 189.39Q414.36 189.96 414.25 190.59Q414.2 190.84 414.12 191.08Q413.86 191.8 413.22 192.38Q412.39 193.15 410.77 194.21Q408.4 195.73 407.05 197.12ZM404.59 213.25Q405.7 214.16 407.33 214.45Q409.07 214.76 410.49 214.22Q411.05 214.01 411.56 213.68Q412.48 213.06 413.03 212.21Q413.56 211.39 413.74 210.35Q413.96 209.1 413.63 208.02Q413.38 207.21 412.83 206.5Q412.53 206.11 412.18 205.8Q410.98 204.72 409.11 204.39Q407.22 204.06 405.72 204.68Q405.3 204.85 404.92 205.1Q404.19 205.57 403.69 206.21Q402.99 207.13 402.76 208.41Q402.58 209.45 402.79 210.4Q403.01 211.39 403.67 212.28Q404.07 212.83 404.59 213.25Z" fill="#FFFFFF" fill-opacity="1.000000" fill-rule="evenodd"/>
		<path id="?" d="M405.28 200.93Q405.71 198.51 407.05 197.12Q408.4 195.73 410.77 194.21Q412.39 193.15 413.22 192.38Q414.07 191.6 414.25 190.59Q414.49 189.18 413.45 188.12Q412.42 187.07 410.54 186.73Q408.61 186.39 406.87 187.04Q405.14 187.68 403.88 189.15L397.35 184.02Q399.93 180.98 403.89 179.73Q407.87 178.48 412.99 179.39Q418.74 180.4 421.82 183.41Q424.91 186.43 424.14 190.74Q423.79 192.71 422.84 194.11Q421.9 195.52 420.77 196.4Q419.65 197.28 417.92 198.31Q416.03 199.43 415.07 200.28Q414.12 201.14 413.89 202.45L405.28 200.93ZM407.33 214.45Q404.95 214.03 403.67 212.28Q402.38 210.54 402.76 208.41Q403.15 206.23 404.92 205.1Q406.69 203.97 409.11 204.39Q411.53 204.82 412.83 206.5Q414.13 208.16 413.74 210.35Q413.37 212.47 411.56 213.68Q409.75 214.88 407.33 214.45Z" stroke="#202027" stroke-opacity="1.000000" stroke-width="0.511614"/>
		<rect id="Frame 2043683102" rx="18.775000" width="105.960831" height="141.447784" transform="translate(370.633789 117.394287) rotate(10.000001)" stroke="#202027" stroke-opacity="1.000000" stroke-width="0.500000"/>
		<rect id="Frame 2043683109" rx="18.775000" width="105.960831" height="141.447784" transform="translate(-99.072266 184.943848) rotate(10.000001)" fill="#BCEC30" fill-opacity="1.000000"/>
		<path id="?" d="M-62.66 264.67Q-64 266.06 -64.43 268.48L-55.82 270Q-55.68 269.22 -55.29 268.61Q-55.02 268.18 -54.63 267.83Q-53.68 266.98 -51.79 265.86Q-50.06 264.83 -48.94 263.95Q-47.81 263.07 -46.87 261.66Q-45.91 260.26 -45.56 258.29Q-45.17 256.06 -45.8 254.18Q-46.39 252.42 -47.88 250.96Q-50.96 247.95 -56.72 246.93Q-61.84 246.03 -65.81 247.28Q-68.31 248.07 -70.26 249.57Q-71.4 250.44 -72.36 251.57L-65.82 256.7Q-64.97 255.7 -63.89 255.08Q-63.39 254.79 -62.83 254.59Q-62.35 254.41 -61.85 254.3Q-60.56 254.04 -59.16 254.28Q-57.28 254.61 -56.25 255.67Q-55.68 256.26 -55.5 256.94Q-55.35 257.51 -55.46 258.14Q-55.51 258.39 -55.59 258.63Q-55.85 259.35 -56.48 259.93Q-57.31 260.7 -58.94 261.76Q-61.3 263.28 -62.66 264.67ZM-65.12 280.8Q-64.01 281.71 -62.38 282Q-60.64 282.31 -59.21 281.77Q-58.66 281.56 -58.15 281.22Q-57.23 280.61 -56.68 279.76Q-56.15 278.94 -55.96 277.9Q-55.74 276.65 -56.07 275.57Q-56.32 274.76 -56.88 274.05Q-57.17 273.66 -57.53 273.35Q-58.73 272.27 -60.6 271.94Q-62.49 271.61 -63.98 272.23Q-64.4 272.4 -64.79 272.65Q-65.52 273.12 -66.02 273.76Q-66.72 274.68 -66.95 275.96Q-67.13 277 -66.92 277.95Q-66.69 278.94 -66.04 279.83Q-65.63 280.38 -65.12 280.8Z" fill="#FFFFFF" fill-opacity="1.000000" fill-rule="evenodd"/>
		<path id="?" d="M-64.43 268.48Q-64 266.06 -62.66 264.67Q-61.3 263.28 -58.94 261.76Q-57.31 260.7 -56.48 259.93Q-55.64 259.15 -55.46 258.14Q-55.21 256.73 -56.25 255.67Q-57.28 254.61 -59.16 254.28Q-61.1 253.94 -62.83 254.59Q-64.57 255.23 -65.82 256.7L-72.36 251.57Q-69.77 248.53 -65.81 247.28Q-61.84 246.03 -56.72 246.93Q-50.96 247.95 -47.88 250.96Q-44.8 253.98 -45.56 258.29Q-45.91 260.26 -46.87 261.66Q-47.81 263.07 -48.94 263.95Q-50.06 264.83 -51.79 265.86Q-53.68 266.98 -54.63 267.83Q-55.59 268.69 -55.82 270L-64.43 268.48ZM-62.38 282Q-64.75 281.58 -66.04 279.83Q-67.32 278.09 -66.95 275.96Q-66.56 273.78 -64.79 272.65Q-63.02 271.51 -60.6 271.94Q-58.18 272.37 -56.88 274.05Q-55.58 275.71 -55.96 277.9Q-56.34 280.02 -58.15 281.22Q-59.96 282.43 -62.38 282Z" stroke="#202027" stroke-opacity="1.000000" stroke-width="0.511614"/>
		<rect id="Frame 2043683109" rx="18.775000" width="105.960831" height="141.447784" transform="translate(-99.072266 184.943848) rotate(10.000001)" stroke="#202027" stroke-opacity="1.000000" stroke-width="0.500000"/>
		<rect id="Frame 2043683105" rx="18.775000" width="105.960831" height="141.447784" transform="translate(11.925781 204.515625) rotate(10.000001)" fill="#BCEC30" fill-opacity="1.000000"/>
		<path id="?" d="M47.67 283.65Q46.01 285.37 45.48 288.37L56.15 290.25Q56.32 289.29 56.8 288.53Q57.14 288 57.62 287.56Q58.81 286.51 61.15 285.12Q63.29 283.84 64.68 282.76Q66.08 281.66 67.25 279.92Q68.43 278.18 68.86 275.74Q69.35 272.98 68.57 270.65Q67.84 268.46 65.99 266.66Q62.17 262.92 55.04 261.66Q48.69 260.54 43.76 262.09Q40.67 263.07 38.25 264.92Q36.84 266.01 35.65 267.41L43.75 273.77Q44.81 272.53 46.14 271.76Q46.77 271.4 47.46 271.15Q48.06 270.93 48.67 270.8Q50.27 270.47 52.01 270.77Q54.33 271.18 55.61 272.49Q56.32 273.22 56.55 274.07Q56.73 274.76 56.59 275.55Q56.54 275.86 56.43 276.16Q56.11 277.05 55.33 277.77Q54.3 278.72 52.28 280.04Q49.35 281.93 47.67 283.65ZM44.62 303.64Q46 304.77 48.02 305.13Q50.18 305.51 51.94 304.85Q52.63 304.59 53.26 304.17Q54.4 303.41 55.09 302.35Q55.74 301.33 55.97 300.04Q56.24 298.49 55.83 297.15Q55.53 296.15 54.84 295.27Q54.47 294.79 54.03 294.4Q52.55 293.07 50.23 292.66Q47.88 292.25 46.03 293.02Q45.51 293.23 45.03 293.54Q44.12 294.12 43.51 294.92Q42.64 296.05 42.36 297.64Q42.13 298.93 42.4 300.11Q42.67 301.34 43.48 302.44Q43.99 303.12 44.62 303.64Z" fill="#FFFFFF" fill-opacity="1.000000" fill-rule="evenodd"/>
		<path id="?" d="M45.48 288.37Q46.01 285.37 47.67 283.65Q49.35 281.93 52.28 280.04Q54.3 278.72 55.33 277.77Q56.37 276.81 56.59 275.55Q56.9 273.81 55.61 272.49Q54.33 271.18 52.01 270.77Q49.61 270.35 47.46 271.15Q45.31 271.95 43.75 273.77L35.65 267.41Q38.86 263.64 43.76 262.09Q48.69 260.54 55.04 261.66Q62.17 262.92 65.99 266.66Q69.81 270.39 68.86 275.74Q68.43 278.18 67.25 279.92Q66.08 281.66 64.68 282.76Q63.29 283.84 61.15 285.12Q58.81 286.51 57.62 287.56Q56.44 288.62 56.15 290.25L45.48 288.37ZM48.02 305.13Q45.08 304.61 43.48 302.44Q41.89 300.28 42.36 297.64Q42.84 294.93 45.03 293.54Q47.23 292.13 50.23 292.66Q53.23 293.19 54.84 295.27Q56.45 297.33 55.97 300.04Q55.5 302.68 53.26 304.17Q51.02 305.66 48.02 305.13Z" stroke="#202027" stroke-opacity="1.000000" stroke-width="0.511614"/>
		<rect id="Frame 2043683105" rx="18.775000" width="105.960831" height="141.447784" transform="translate(11.925781 204.515625) rotate(10.000001)" stroke="#202027" stroke-opacity="1.000000" stroke-width="0.500000"/>
		<rect id="Frame 2043683106" rx="18.775000" width="105.960831" height="141.447784" transform="translate(122.923828 224.087646) rotate(10.000001)" fill="#BCEC30" fill-opacity="1.000000"/>
		<path id="?" d="M158.67 303.22Q157.01 304.94 156.48 307.94L167.15 309.82Q167.32 308.86 167.8 308.1Q168.13 307.57 168.62 307.14Q169.8 306.08 172.15 304.69Q174.29 303.41 175.68 302.33Q177.08 301.23 178.25 299.49Q179.43 297.75 179.86 295.31Q180.35 292.55 179.57 290.22Q178.83 288.04 176.99 286.23Q173.17 282.49 166.04 281.23Q159.69 280.11 154.76 281.66Q151.67 282.64 149.25 284.5Q147.83 285.59 146.65 286.98L154.75 293.34Q155.81 292.1 157.14 291.34Q157.77 290.98 158.46 290.72Q159.05 290.5 159.67 290.37Q161.27 290.04 163 290.34Q165.33 290.75 166.61 292.07Q167.32 292.79 167.55 293.64Q167.73 294.34 167.59 295.12Q167.54 295.44 167.43 295.73Q167.11 296.62 166.32 297.34Q165.3 298.29 163.28 299.61Q160.35 301.5 158.67 303.22ZM155.62 323.22Q157 324.35 159.02 324.7Q161.17 325.08 162.94 324.42Q163.63 324.16 164.26 323.74Q165.4 322.98 166.08 321.92Q166.74 320.91 166.97 319.61Q167.24 318.06 166.83 316.72Q166.53 315.72 165.84 314.84Q165.47 314.37 165.03 313.97Q163.54 312.64 161.23 312.23Q158.88 311.82 157.03 312.59Q156.51 312.8 156.03 313.11Q155.12 313.69 154.51 314.49Q153.64 315.62 153.36 317.21Q153.13 318.51 153.39 319.68Q153.67 320.91 154.48 322.01Q154.98 322.7 155.62 323.22Z" fill="#FFFFFF" fill-opacity="1.000000" fill-rule="evenodd"/>
		<path id="?" d="M156.48 307.94Q157.01 304.94 158.67 303.22Q160.35 301.5 163.28 299.61Q165.3 298.29 166.32 297.34Q167.37 296.38 167.59 295.12Q167.9 293.38 166.61 292.07Q165.33 290.75 163 290.34Q160.6 289.92 158.46 290.72Q156.31 291.52 154.75 293.34L146.65 286.98Q149.85 283.21 154.76 281.66Q159.69 280.11 166.04 281.23Q173.17 282.49 176.99 286.23Q180.81 289.97 179.86 295.31Q179.43 297.75 178.25 299.49Q177.08 301.23 175.68 302.33Q174.29 303.41 172.15 304.69Q169.8 306.08 168.62 307.14Q167.44 308.2 167.15 309.82L156.48 307.94ZM159.02 324.7Q156.08 324.18 154.48 322.01Q152.89 319.85 153.36 317.21Q153.84 314.51 156.03 313.11Q158.23 311.7 161.23 312.23Q164.23 312.76 165.84 314.84Q167.45 316.91 166.97 319.61Q166.5 322.25 164.26 323.74Q162.02 325.23 159.02 324.7Z" stroke="#202027" stroke-opacity="1.000000" stroke-width="0.511614"/>
		<rect id="Frame 2043683106" rx="18.775000" width="105.960831" height="141.447784" transform="translate(122.923828 224.087646) rotate(10.000001)" stroke="#202027" stroke-opacity="1.000000" stroke-width="0.500000"/>
		<rect id="Frame 2043683107" rx="18.775000" width="105.960831" height="141.447784" transform="translate(233.921875 243.659424) rotate(10.000001)" fill="#BCEC30" fill-opacity="1.000000"/>
		<path id="?" d="M270.34 323.39Q268.99 324.77 268.57 327.19L277.17 328.71Q277.31 327.94 277.7 327.32Q277.97 326.9 278.36 326.55Q279.32 325.69 281.21 324.58Q282.94 323.54 284.05 322.67Q285.18 321.78 286.13 320.38Q287.08 318.98 287.43 317Q287.82 314.78 287.19 312.9Q286.6 311.14 285.11 309.68Q282.03 306.66 276.28 305.65Q271.15 304.75 267.18 305.99Q264.68 306.78 262.73 308.28Q261.59 309.16 260.64 310.28L267.17 315.42Q268.02 314.42 269.1 313.8Q269.61 313.51 270.16 313.3Q270.64 313.12 271.14 313.02Q272.43 312.75 273.83 313Q275.71 313.33 276.74 314.39Q277.31 314.97 277.5 315.66Q277.65 316.22 277.53 316.85Q277.49 317.11 277.4 317.34Q277.14 318.06 276.51 318.65Q275.68 319.41 274.05 320.48Q271.69 322 270.34 323.39ZM267.87 339.52Q268.99 340.43 270.62 340.72Q272.35 341.02 273.78 340.49Q274.34 340.28 274.84 339.94Q275.76 339.33 276.32 338.48Q276.84 337.65 277.03 336.61Q277.25 335.36 276.92 334.28Q276.67 333.47 276.12 332.76Q275.82 332.38 275.47 332.06Q274.27 330.99 272.4 330.66Q270.51 330.32 269.01 330.94Q268.59 331.12 268.2 331.37Q267.47 331.83 266.98 332.48Q266.27 333.39 266.05 334.68Q265.86 335.72 266.08 336.67Q266.3 337.66 266.96 338.55Q267.36 339.1 267.87 339.52Z" fill="#FFFFFF" fill-opacity="1.000000" fill-rule="evenodd"/>
		<path id="?" d="M268.57 327.19Q268.99 324.77 270.34 323.39Q271.69 322 274.05 320.48Q275.68 319.41 276.51 318.65Q277.35 317.87 277.53 316.85Q277.78 315.45 276.74 314.39Q275.71 313.33 273.83 313Q271.9 312.66 270.16 313.3Q268.43 313.95 267.17 315.42L260.64 310.28Q263.22 307.24 267.18 305.99Q271.15 304.75 276.28 305.65Q282.03 306.66 285.11 309.68Q288.19 312.69 287.43 317Q287.08 318.98 286.13 320.38Q285.18 321.78 284.05 322.67Q282.94 323.54 281.21 324.58Q279.32 325.69 278.36 326.55Q277.41 327.4 277.17 328.71L268.57 327.19ZM270.62 340.72Q268.24 340.3 266.96 338.55Q265.67 336.8 266.05 334.68Q266.43 332.49 268.2 331.37Q269.98 330.23 272.4 330.66Q274.82 331.08 276.12 332.76Q277.42 334.43 277.03 336.61Q276.65 338.74 274.84 339.94Q273.04 341.14 270.62 340.72Z" stroke="#202027" stroke-opacity="1.000000" stroke-width="0.511614"/>
		<rect id="Frame 2043683107" rx="18.775000" width="105.960831" height="141.447784" transform="translate(233.921875 243.659424) rotate(10.000001)" stroke="#202027" stroke-opacity="1.000000" stroke-width="0.500000"/>
		<rect id="Frame 2043683108" rx="18.775000" width="105.960831" height="141.447784" transform="translate(344.918945 263.231323) rotate(10.000001)" fill="#BCEC30" fill-opacity="1.000000"/>
		<path id="?" d="M381.33 342.96Q379.99 344.34 379.56 346.77L388.17 348.28Q388.31 347.51 388.7 346.9Q388.97 346.47 389.36 346.12Q390.31 345.26 392.21 344.15Q393.93 343.11 395.05 342.24Q396.18 341.36 397.13 339.95Q398.08 338.55 398.43 336.58Q398.82 334.35 398.19 332.47Q397.6 330.71 396.11 329.25Q393.03 326.24 387.28 325.22Q382.15 324.32 378.18 325.57Q375.68 326.35 373.73 327.85Q372.59 328.73 371.64 329.86L378.17 334.99Q379.02 333.99 380.1 333.37Q380.6 333.08 381.16 332.87Q381.64 332.69 382.14 332.59Q383.43 332.32 384.83 332.57Q386.71 332.9 387.74 333.96Q388.31 334.54 388.49 335.23Q388.64 335.79 388.53 336.43Q388.49 336.68 388.4 336.92Q388.14 337.63 387.51 338.22Q386.68 338.99 385.05 340.05Q382.69 341.57 381.33 342.96ZM378.87 359.09Q379.99 360 381.61 360.29Q383.35 360.6 384.78 360.06Q385.33 359.85 385.84 359.51Q386.76 358.9 387.31 358.05Q387.84 357.23 388.03 356.18Q388.25 354.93 387.92 353.85Q387.67 353.05 387.11 352.33Q386.82 351.95 386.47 351.64Q385.27 350.56 383.4 350.23Q381.5 349.9 380.01 350.52Q379.59 350.69 379.2 350.94Q378.47 351.4 377.98 352.05Q377.27 352.97 377.05 354.25Q376.86 355.29 377.08 356.24Q377.3 357.23 377.95 358.12Q378.36 358.67 378.87 359.09Z" fill="#FFFFFF" fill-opacity="1.000000" fill-rule="evenodd"/>
		<path id="?" d="M379.56 346.77Q379.99 344.34 381.33 342.96Q382.69 341.57 385.05 340.05Q386.68 338.99 387.51 338.22Q388.35 337.44 388.53 336.43Q388.78 335.02 387.74 333.96Q386.71 332.9 384.83 332.57Q382.89 332.23 381.16 332.87Q379.43 333.52 378.17 334.99L371.64 329.86Q374.22 326.82 378.18 325.57Q382.15 324.32 387.28 325.22Q393.03 326.24 396.11 329.25Q399.19 332.27 398.43 336.58Q398.08 338.55 397.13 339.95Q396.18 341.36 395.05 342.24Q393.93 343.11 392.21 344.15Q390.31 345.26 389.36 346.12Q388.4 346.97 388.17 348.28L379.56 346.77ZM381.61 360.29Q379.24 359.87 377.95 358.12Q376.67 356.37 377.05 354.25Q377.43 352.06 379.2 350.94Q380.97 349.8 383.4 350.23Q385.82 350.66 387.11 352.33Q388.41 354 388.03 356.18Q387.65 358.31 385.84 359.51Q384.03 360.72 381.61 360.29Z" stroke="#202027" stroke-opacity="1.000000" stroke-width="0.511614"/>
		<rect id="Frame 2043683108" rx="18.775000" width="105.960831" height="141.447784" transform="translate(344.918945 263.231323) rotate(10.000001)" stroke="#202027" stroke-opacity="1.000000" stroke-width="0.500000"/>
		<g filter="url(#filter_14_3866_dd)">
			<rect id="Frame 2043683065" rx="19.275000" width="138.632965" height="184.677322" transform="translate(136.290039 54.127808) rotate(10.000000)" fill="#E1FF8F" fill-opacity="1.000000"/>
			<rect id="Frame 2043683065" rx="19.275000" width="138.632965" height="184.677322" transform="translate(136.290039 54.127808) rotate(10.000000)" stroke="#202027" stroke-opacity="1.000000" stroke-width="0.500000"/>
			<rect id="Frame 2043683065" rx="19.275000" width="138.632965" height="184.677322" transform="translate(136.290039 54.127808) rotate(10.000000)" stroke="#000000" stroke-opacity="0.200000" stroke-width="0.500000"/>
		</g>
		<path id="?" d="M183.08 158.02Q180.86 160.31 180.15 164.31L194.38 166.82Q194.61 165.54 195.25 164.53Q195.69 163.82 196.34 163.24Q197.92 161.83 201.05 159.98Q203.9 158.27 205.75 156.83Q207.62 155.37 209.18 153.05Q210.75 150.73 211.33 147.47Q211.98 143.79 210.94 140.68Q209.96 137.77 207.5 135.36Q202.4 130.38 192.9 128.7Q184.43 127.21 177.87 129.27Q173.74 130.57 170.52 133.05Q168.63 134.5 167.05 136.36L177.84 144.84Q179.26 143.19 181.04 142.17Q181.87 141.69 182.79 141.35Q183.59 141.05 184.41 140.88Q186.55 140.44 188.86 140.85Q191.96 141.4 193.66 143.14Q194.61 144.11 194.91 145.24Q195.16 146.17 194.97 147.22Q194.9 147.64 194.76 148.03Q194.33 149.22 193.28 150.18Q191.91 151.45 189.22 153.21Q185.32 155.72 183.08 158.02ZM179.01 184.68Q180.85 186.18 183.54 186.66Q186.42 187.17 188.77 186.28Q189.69 185.93 190.53 185.38Q192.05 184.36 192.96 182.95Q193.84 181.6 194.14 179.87Q194.51 177.81 193.96 176.02Q193.55 174.69 192.63 173.51Q192.14 172.88 191.56 172.36Q189.58 170.58 186.48 170.03Q183.36 169.48 180.89 170.51Q180.19 170.8 179.55 171.21Q178.35 171.97 177.53 173.04Q176.37 174.56 175.99 176.67Q175.68 178.4 176.04 179.97Q176.41 181.6 177.49 183.08Q178.16 183.99 179.01 184.68Z" fill="#FFFFFF" fill-opacity="1.000000" fill-rule="evenodd"/>
		<path id="?" d="M180.15 164.31Q180.86 160.31 183.08 158.02Q185.32 155.72 189.22 153.21Q191.91 151.45 193.28 150.18Q194.68 148.9 194.97 147.22Q195.38 144.9 193.66 143.14Q191.96 141.4 188.86 140.85Q185.66 140.28 182.79 141.35Q179.93 142.41 177.84 144.84L167.05 136.36Q171.32 131.34 177.87 129.27Q184.43 127.21 192.9 128.7Q202.4 130.38 207.5 135.36Q212.59 140.35 211.33 147.47Q210.75 150.73 209.18 153.05Q207.62 155.37 205.75 156.83Q203.9 158.27 201.05 159.98Q197.92 161.83 196.34 163.24Q194.76 164.65 194.38 166.82L180.15 164.31ZM183.54 186.66Q179.62 185.97 177.49 183.08Q175.37 180.19 175.99 176.67Q176.63 173.06 179.55 171.21Q182.48 169.33 186.48 170.03Q190.49 170.74 192.63 173.51Q194.78 176.26 194.14 179.87Q193.52 183.39 190.53 185.38Q187.54 187.36 183.54 186.66Z" stroke="#202027" stroke-opacity="1.000000" stroke-width="0.634167"/>
	</g>
</svg>
