<svg width="378.000000" height="314.000000" viewBox="0 0 378 314" fill="none" xmlns="http://www.w3.org/2000/svg" xmlns:xlink="http://www.w3.org/1999/xlink">
	<desc>
			Created with Pixso.
	</desc>
	<defs>
		<clipPath id="clip14_3701">
			<rect id="Обложка карточки" rx="29.684692" width="377.369385" height="313.369385" transform="translate(0.315307 0.315307)" fill="white" fill-opacity="0"/>
		</clipPath>
	</defs>
	<rect id="Обложка карточки" rx="29.684692" width="377.369385" height="313.369385" transform="translate(0.315307 0.315307)" fill="#565EEF" fill-opacity="1.000000"/>
	<g clip-path="url(#clip14_3701)">
		<rect id="Frame 2043683076" rx="18.775000" width="134.160004" height="80.013336" transform="translate(-130.688477 -71.739136) rotate(10.000001)" fill="#B0AEFF" fill-opacity="1.000000"/>
		<path id="рыс" d="M-93.58 -34.33Q-95.31 -35.39 -97.46 -35.77Q-101.07 -36.41 -103.45 -34.99Q-103.9 -34.73 -104.31 -34.39L-103.93 -36.54L-111.16 -37.82L-116.37 -8.4L-108.78 -7.06L-107.06 -16.74Q-106.66 -16.15 -106.15 -15.65Q-104.39 -13.91 -101.43 -13.39Q-99.25 -13.01 -97.23 -13.42Q-96.51 -13.57 -95.82 -13.82Q-94.86 -14.16 -94.01 -14.68Q-92.48 -15.6 -91.29 -17.07Q-89.41 -19.35 -88.82 -22.71Q-88.22 -26.07 -89.2 -28.85Q-89.82 -30.65 -90.95 -32.04Q-91.57 -32.8 -92.34 -33.44Q-92.93 -33.93 -93.58 -34.33ZM-46.93 -5.26Q-44.35 -3.33 -40.76 -2.69Q-37.08 -2.05 -34.12 -3.15Q-32.39 -3.8 -31.12 -4.95Q-30.22 -5.77 -29.54 -6.85L-34.89 -10.9Q-36.14 -9.23 -37.73 -8.8Q-38.67 -8.55 -39.73 -8.74Q-40.95 -8.96 -41.83 -9.62Q-42.42 -10.07 -42.86 -10.71Q-42.98 -10.89 -43.08 -11.08Q-43.9 -12.59 -43.52 -14.76Q-43.15 -16.85 -41.9 -17.97Q-41.72 -18.14 -41.52 -18.28Q-40.91 -18.72 -40.23 -18.93Q-39.15 -19.26 -37.9 -19.04Q-36.84 -18.86 -36.05 -18.3Q-34.7 -17.36 -34.09 -15.36L-27.69 -17.33Q-27.95 -18.58 -28.52 -19.66Q-29.32 -21.18 -30.72 -22.38Q-33.11 -24.43 -36.79 -25.08Q-40.38 -25.71 -43.47 -24.79Q-45.63 -24.15 -47.27 -22.85Q-47.98 -22.29 -48.59 -21.61Q-49.06 -21.09 -49.45 -20.51Q-50.75 -18.6 -51.19 -16.11Q-51.62 -13.67 -51.09 -11.46Q-50.92 -10.74 -50.64 -10.04Q-50.3 -9.18 -49.83 -8.41Q-48.73 -6.62 -46.93 -5.26ZM-65.97 -20.94Q-67.79 -23.21 -72.06 -24L-76.9 -24.85L-75.71 -31.57L-83.26 -32.9L-87.1 -11.24L-75.66 -9.22Q-71.11 -8.38 -68.25 -9.98Q-67.27 -10.52 -66.55 -11.31Q-65.17 -12.82 -64.75 -15.2Q-64.27 -17.89 -65.25 -19.84Q-65.54 -20.42 -65.97 -20.94ZM-52.88 -27.54L-60.43 -28.87L-64.27 -7.21L-56.72 -5.88L-52.88 -27.54ZM-99.73 -19.83Q-100.76 -19.5 -101.96 -19.71Q-103.15 -19.92 -104 -20.58Q-104.58 -21.02 -104.99 -21.67Q-105.08 -21.8 -105.15 -21.94Q-105.99 -23.47 -105.6 -25.67Q-105.21 -27.87 -103.9 -29.02Q-103.78 -29.12 -103.65 -29.22Q-103.04 -29.68 -102.35 -29.9Q-101.33 -30.23 -100.13 -30.02Q-98.94 -29.81 -98.08 -29.15Q-97.51 -28.71 -97.1 -28.06Q-97.01 -27.93 -96.93 -27.79Q-96.1 -26.26 -96.49 -24.06Q-96.88 -21.86 -98.19 -20.71Q-98.31 -20.61 -98.43 -20.51Q-99.05 -20.05 -99.73 -19.83ZM-73.07 -14.93Q-73.92 -14.27 -75.5 -14.55L-78.61 -15.14L-77.72 -20.22L-74.59 -19.67Q-73.17 -19.38 -72.55 -18.64Q-72.48 -18.56 -72.42 -18.47Q-71.96 -17.77 -72.16 -16.64Q-72.37 -15.47 -73.07 -14.93Z" fill="#FFFFFF" fill-opacity="1.000000" fill-rule="evenodd"/>
		<path id="рыс" d="M-97.46 -35.77Q-94.51 -35.25 -92.34 -33.44Q-90.16 -31.64 -89.2 -28.85Q-88.22 -26.07 -88.82 -22.71Q-89.41 -19.35 -91.29 -17.07Q-93.15 -14.78 -95.82 -13.82Q-98.47 -12.87 -101.43 -13.39Q-105.23 -14.06 -107.06 -16.74L-108.78 -7.06L-116.37 -8.4L-111.16 -37.82L-103.93 -36.54L-104.31 -34.39Q-101.75 -36.53 -97.46 -35.77ZM-101.96 -19.71Q-99.96 -19.36 -98.43 -20.51Q-96.91 -21.66 -96.49 -24.06Q-96.06 -26.46 -97.1 -28.06Q-98.13 -29.66 -100.13 -30.02Q-102.13 -30.37 -103.65 -29.22Q-105.18 -28.07 -105.6 -25.67Q-106.03 -23.27 -104.99 -21.67Q-103.96 -20.07 -101.96 -19.71ZM-72.06 -24Q-67.79 -23.21 -65.97 -20.94Q-64.13 -18.69 -64.75 -15.2Q-65.39 -11.58 -68.25 -9.98Q-71.11 -8.38 -75.66 -9.22L-87.1 -11.24L-83.26 -32.9L-75.71 -31.57L-76.9 -24.85L-72.06 -24ZM-60.43 -28.87L-52.88 -27.54L-56.72 -5.88L-64.27 -7.21L-60.43 -28.87ZM-75.5 -14.55Q-72.62 -14.04 -72.16 -16.64Q-71.93 -17.92 -72.55 -18.64Q-73.17 -19.38 -74.59 -19.67L-77.72 -20.22L-78.61 -15.14L-75.5 -14.55ZM-40.76 -2.69Q-44.35 -3.33 -46.93 -5.26Q-49.52 -7.21 -50.64 -10.04Q-51.76 -12.88 -51.19 -16.11Q-50.62 -19.35 -48.59 -21.61Q-46.56 -23.87 -43.47 -24.79Q-40.38 -25.71 -36.79 -25.08Q-33.11 -24.43 -30.72 -22.38Q-28.31 -20.32 -27.69 -17.33L-34.09 -15.36Q-35.06 -18.54 -37.9 -19.04Q-39.94 -19.4 -41.52 -18.28Q-43.09 -17.16 -43.52 -14.76Q-43.95 -12.32 -42.86 -10.71Q-41.76 -9.1 -39.73 -8.74Q-36.89 -8.24 -34.89 -10.9L-29.54 -6.85Q-31.16 -4.26 -34.12 -3.15Q-37.08 -2.05 -40.76 -2.69Z" stroke="#202027" stroke-opacity="1.000000" stroke-width="0.634167"/>
		<rect id="Frame 2043683076" rx="18.775000" width="134.160004" height="80.013336" transform="translate(-130.688477 -71.739136) rotate(10.000001)" stroke="#202027" stroke-opacity="1.000000" stroke-width="0.500000"/>
		<rect id="Frame 2043683071" rx="18.775000" width="191.160004" height="80.013336" transform="translate(9.481445 -47.023438) rotate(10.000001)" fill="#B0AEFF" fill-opacity="1.000000"/>
		<path id="акшок" d="M45.74 -7.99Q43.33 -10.95 37.94 -11.9Q37.79 -11.93 37.64 -11.95Q35.18 -12.35 32.64 -12.15Q29.94 -11.95 27.94 -11.07L29.58 -5.45Q30.86 -6.14 32.55 -6.36Q34.24 -6.58 35.79 -6.3Q38.55 -5.82 39.42 -4.27Q39.93 -3.35 39.77 -2.06L35.46 -2.82Q30.54 -3.69 27.88 -2.4Q26.75 -1.86 26 -0.98Q25 0.19 24.68 1.96Q24.43 3.4 24.74 4.69Q24.85 5.13 25.01 5.54Q25.07 5.68 25.13 5.81Q25.82 7.31 27.36 8.41Q29.05 9.62 31.57 10.06Q35.16 10.69 37.29 9.22Q37.99 8.74 38.53 8.03L38.04 10.83L45.11 12.07L47.24 0.04Q48.04 -4.47 46.22 -7.32Q46 -7.66 45.74 -7.99ZM120.72 24.5Q123.15 26.21 126.39 26.78Q129.82 27.38 132.81 26.5Q132.88 26.48 132.96 26.46Q135.02 25.81 136.61 24.56Q137.37 23.96 138.02 23.22Q138.5 22.68 138.89 22.08Q140.17 20.17 140.6 17.7Q141.05 15.19 140.48 12.93Q140.31 12.28 140.07 11.65Q139.71 10.75 139.2 9.93Q138.14 8.23 136.41 6.93Q136.38 6.91 136.34 6.88Q133.82 5.01 130.35 4.4Q126.84 3.78 123.81 4.71Q121.9 5.29 120.39 6.4Q119.5 7.06 118.74 7.91Q118.16 8.56 117.71 9.29Q116.56 11.1 116.15 13.39Q115.72 15.83 116.25 18.05Q116.42 18.77 116.69 19.46Q117.07 20.42 117.61 21.27Q118.68 22.95 120.37 24.24Q120.54 24.37 120.72 24.5ZM58.62 6.5L61.19 6.95L64.86 15.56L73.81 17.13L68.06 4.5L77.17 -4.61L69.13 -6.03L62.4 1.03L59.68 0.55L61.09 -7.44L53.5 -8.78L49.67 12.88L57.26 14.22L58.62 6.5ZM110.67 23.63L114.5 1.97L106.99 0.65L104.23 16.23L98.39 15.2L101.15 -0.38L93.59 -1.71L90.83 13.87L84.96 12.83L87.72 -2.75L80.16 -4.08L76.33 17.58L110.67 23.63ZM151.2 22.82L153.76 23.27L157.43 31.88L166.38 33.46L160.63 20.82L169.74 11.71L161.71 10.3L154.97 17.35L152.25 16.87L153.67 8.88L146.07 7.54L142.24 29.2L149.83 30.54L151.2 22.82ZM129.68 20.62Q128.65 20.95 127.46 20.74Q126.26 20.53 125.41 19.87Q124.84 19.43 124.42 18.78Q124.36 18.69 124.3 18.58Q123.41 17.03 123.82 14.74Q124.21 12.54 125.53 11.4Q125.64 11.3 125.76 11.21Q126.35 10.77 127.02 10.56Q128.06 10.22 129.28 10.44Q130.51 10.65 131.37 11.33Q131.92 11.76 132.32 12.37Q132.4 12.5 132.48 12.63Q133.33 14.14 132.93 16.35Q132.53 18.64 131.16 19.79Q131.07 19.87 130.98 19.94Q130.37 20.4 129.68 20.62ZM36.66 5.52Q35.68 5.83 34.54 5.63Q33.22 5.4 32.57 4.67Q32.27 4.33 32.15 3.94Q32 3.48 32.1 2.94Q32.22 2.27 32.61 1.86Q33.5 0.92 35.8 1.33L39.07 1.9L38.74 3.78Q38.25 4.64 37.51 5.12Q37.26 5.29 36.97 5.41Q36.82 5.47 36.66 5.52Z" fill="#FFFFFF" fill-opacity="1.000000" fill-rule="evenodd"/>
		<path id="акшок" d="M37.94 -11.9Q43.33 -10.95 45.74 -7.99Q48.14 -5.03 47.24 0.04L45.11 12.07L38.04 10.83L38.53 8.03Q36.33 10.9 31.57 10.06Q29.05 9.62 27.36 8.41Q25.69 7.21 25.01 5.54Q24.34 3.87 24.68 1.96Q25.23 -1.12 27.88 -2.4Q30.54 -3.69 35.46 -2.82L39.77 -2.06Q40.19 -5.53 35.79 -6.3Q34.24 -6.58 32.55 -6.36Q30.86 -6.14 29.58 -5.45L27.94 -11.07Q29.94 -11.95 32.64 -12.15Q35.34 -12.36 37.94 -11.9ZM34.54 5.63Q35.87 5.87 36.97 5.41Q38.08 4.94 38.74 3.78L39.07 1.9L35.8 1.33Q32.49 0.74 32.1 2.94Q31.92 3.93 32.57 4.67Q33.22 5.4 34.54 5.63ZM61.19 6.95L58.62 6.5L57.26 14.22L49.67 12.88L53.5 -8.78L61.09 -7.44L59.68 0.55L62.4 1.03L69.13 -6.03L77.17 -4.61L68.06 4.5L73.81 17.13L64.86 15.56L61.19 6.95ZM114.5 1.97L110.67 23.63L76.33 17.58L80.16 -4.08L87.72 -2.75L84.96 12.83L90.83 13.87L93.59 -1.71L101.15 -0.38L98.39 15.2L104.23 16.23L106.99 0.65L114.5 1.97ZM126.39 26.78Q122.91 26.17 120.37 24.24Q117.82 22.3 116.69 19.46Q115.58 16.63 116.15 13.39Q116.72 10.19 118.74 7.91Q120.77 5.63 123.81 4.71Q126.84 3.78 130.35 4.4Q133.87 5.01 136.41 6.93Q138.96 8.84 140.07 11.65Q141.18 14.46 140.6 17.7Q140.03 20.94 138.02 23.22Q136.01 25.51 132.96 26.46Q129.9 27.4 126.39 26.78ZM127.46 20.74Q129.46 21.09 130.98 19.94Q132.5 18.79 132.93 16.35Q133.36 13.95 132.32 12.37Q131.28 10.79 129.28 10.44Q127.28 10.08 125.76 11.21Q124.25 12.34 123.82 14.74Q123.39 17.18 124.42 18.78Q125.46 20.39 127.46 20.74ZM153.76 23.27L151.2 22.82L149.83 30.54L142.24 29.2L146.07 7.54L153.67 8.88L152.25 16.87L154.97 17.35L161.71 10.3L169.74 11.71L160.63 20.82L166.38 33.46L157.43 31.88L153.76 23.27Z" stroke="#202027" stroke-opacity="1.000000" stroke-width="0.634167"/>
		<rect id="Frame 2043683071" rx="18.775000" width="191.160004" height="80.013336" transform="translate(9.481445 -47.023438) rotate(10.000001)" stroke="#202027" stroke-opacity="1.000000" stroke-width="0.500000"/>
		<rect id="Frame 2043683075" rx="18.775000" width="199.160004" height="80.013336" transform="translate(205.785156 -12.409668) rotate(10.000001)" fill="#B0AEFF" fill-opacity="1.000000"/>
		<path id="агудар" d="M242.38 26.69Q239.98 23.73 234.58 22.77Q234.43 22.75 234.28 22.72Q231.83 22.33 229.28 22.52Q226.59 22.72 224.58 23.61L226.22 29.22Q227.5 28.53 229.19 28.31Q230.88 28.1 232.43 28.37Q235.2 28.86 236.06 30.41Q236.57 31.33 236.42 32.62L232.11 31.86Q227.19 30.99 224.53 32.27Q223.4 32.82 222.65 33.69Q221.64 34.87 221.33 36.64Q221.07 38.07 221.39 39.37Q221.49 39.8 221.66 40.22Q221.72 40.35 221.78 40.49Q222.47 41.98 224.01 43.09Q225.7 44.29 228.22 44.73Q231.8 45.37 233.94 43.89Q234.63 43.41 235.18 42.7L234.68 45.5L241.76 46.75L243.89 34.72Q244.69 30.2 242.87 27.36Q242.65 27.01 242.38 26.69ZM340.91 44.06Q338.5 41.1 333.11 40.15Q332.96 40.12 332.81 40.1Q330.36 39.7 327.81 39.9Q325.12 40.1 323.11 40.98L324.75 46.59Q326.03 45.9 327.72 45.69Q329.41 45.47 330.96 45.74Q333.72 46.23 334.59 47.78Q335.1 48.7 334.95 49.99L330.63 49.23Q325.72 48.36 323.05 49.64Q321.92 50.19 321.17 51.07Q320.17 52.24 319.85 54.01Q319.6 55.44 319.91 56.74Q320.02 57.17 320.19 57.59Q320.24 57.73 320.3 57.86Q320.99 59.36 322.54 60.46Q324.23 61.66 326.74 62.11Q330.33 62.74 332.46 61.27Q333.16 60.78 333.7 60.07L333.21 62.87L340.28 64.12L342.41 52.09Q343.21 47.57 341.4 44.73Q341.17 44.38 340.91 44.06ZM366.26 46.75Q364.52 45.69 362.37 45.31Q358.77 44.67 356.38 46.09Q355.93 46.36 355.52 46.7L355.91 44.54L348.67 43.26L343.46 72.68L351.06 74.02L352.77 64.34Q353.18 64.93 353.68 65.43Q355.44 67.17 358.41 67.69Q360.59 68.07 362.6 67.66Q363.32 67.51 364.02 67.26Q364.97 66.92 365.82 66.4Q367.35 65.48 368.55 64.01Q370.42 61.73 371.02 58.37Q371.61 55.02 370.63 52.23Q370.01 50.43 368.88 49.04Q368.26 48.28 367.49 47.64Q366.9 47.15 366.26 46.75ZM256.63 33.25L267.23 35.12L268.3 29.09L250.15 25.89L246.31 47.55L253.86 48.88L256.63 33.25ZM281.25 54.62L294.6 33.73L287.36 32.45L279.66 44.74L276.69 30.57L268.9 29.2L274.28 52.78Q273.63 53.65 272.85 53.96Q272.08 54.28 271 54.09Q270.86 54.06 270.72 54.03Q269.95 53.85 269.24 53.43Q268.41 52.93 267.87 52.22L264.29 57.07Q265.21 58.14 266.85 58.98Q268.5 59.83 270.22 60.13Q273.46 60.7 276.01 59.63Q276.14 59.58 276.25 59.52Q278.9 58.33 281.25 54.62ZM316.31 64.51L318.18 53.96L315.17 53.43L317.93 37.84L297.91 34.31L296.3 41.82Q295.46 45.58 294.33 47.55Q293.66 48.72 292.68 49.08Q292.03 49.33 291.24 49.2L290.44 49.06L288.57 59.62L295.64 60.87L296.44 56.39L310.07 58.79L309.27 63.27L316.31 64.51ZM360.1 61.25Q359.07 61.58 357.88 61.37Q356.68 61.16 355.83 60.5Q355.26 60.06 354.84 59.41Q354.75 59.28 354.68 59.14Q353.84 57.61 354.23 55.41Q354.62 53.21 355.93 52.06Q356.05 51.96 356.18 51.86Q356.79 51.4 357.48 51.18Q358.5 50.85 359.7 51.06Q360.9 51.28 361.75 51.93Q362.32 52.37 362.74 53.02Q362.82 53.15 362.9 53.29Q363.73 54.82 363.35 57.02Q362.96 59.22 361.64 60.37Q361.53 60.47 361.4 60.57Q360.79 61.03 360.1 61.25ZM301.76 48.18Q302.4 46.47 303.03 43.58L303.48 41.51L309.27 42.53L307.58 52.09L300.07 50.76Q301.13 49.88 301.76 48.18ZM233.3 40.2Q232.32 40.51 231.18 40.31Q229.87 40.07 229.21 39.34Q228.92 39.01 228.79 38.61Q228.65 38.15 228.74 37.61Q228.86 36.94 229.25 36.53Q230.14 35.59 232.45 36L235.72 36.58L235.39 38.45Q234.9 39.32 234.16 39.8Q233.9 39.96 233.62 40.08Q233.46 40.15 233.3 40.2ZM331.83 57.57Q330.85 57.88 329.71 57.68Q328.39 57.45 327.74 56.72Q327.44 56.38 327.32 55.99Q327.17 55.52 327.27 54.98Q327.39 54.32 327.78 53.91Q328.67 52.97 330.98 53.37L334.25 53.95L333.91 55.82Q333.42 56.69 332.69 57.17Q332.43 57.33 332.15 57.45Q331.99 57.52 331.83 57.57Z" fill="#FFFFFF" fill-opacity="1.000000" fill-rule="evenodd"/>
		<path id="агудар" d="M234.58 22.77Q239.98 23.73 242.38 26.69Q244.79 29.64 243.89 34.72L241.76 46.75L234.68 45.5L235.18 42.7Q232.98 45.57 228.22 44.73Q225.7 44.29 224.01 43.09Q222.33 41.88 221.66 40.22Q220.99 38.55 221.33 36.64Q221.87 33.55 224.53 32.27Q227.19 30.99 232.11 31.86L236.42 32.62Q236.83 29.15 232.43 28.37Q230.88 28.1 229.19 28.31Q227.5 28.53 226.22 29.22L224.58 23.61Q226.59 22.72 229.28 22.52Q231.99 22.32 234.58 22.77ZM231.18 40.31Q232.51 40.54 233.62 40.08Q234.73 39.61 235.39 38.45L235.72 36.58L232.45 36Q229.13 35.42 228.74 37.61Q228.57 38.61 229.21 39.34Q229.87 40.07 231.18 40.31ZM267.23 35.12L256.63 33.25L253.86 48.88L246.31 47.55L250.15 25.89L268.3 29.09L267.23 35.12ZM294.6 33.73L281.25 54.62Q278.9 58.33 276.25 59.52Q273.62 60.73 270.22 60.13Q268.5 59.83 266.85 58.98Q265.21 58.14 264.29 57.07L267.87 52.22Q268.41 52.93 269.24 53.43Q270.08 53.93 271 54.09Q272.08 54.28 272.85 53.96Q273.63 53.65 274.28 52.78L268.9 29.2L276.69 30.57L279.66 44.74L287.36 32.45L294.6 33.73ZM318.18 53.96L316.31 64.51L309.27 63.27L310.07 58.79L296.44 56.39L295.64 60.87L288.57 59.62L290.44 49.06L291.24 49.2Q293.21 49.51 294.33 47.55Q295.46 45.58 296.3 41.82L297.91 34.31L317.93 37.84L315.17 53.43L318.18 53.96ZM303.03 43.58Q302.4 46.47 301.76 48.18Q301.13 49.88 300.07 50.76L307.58 52.09L309.27 42.53L303.48 41.51L303.03 43.58ZM333.11 40.15Q338.5 41.1 340.91 44.06Q343.31 47.02 342.41 52.09L340.28 64.12L333.21 62.87L333.7 60.07Q331.5 62.95 326.74 62.11Q324.23 61.66 322.54 60.46Q320.86 59.26 320.19 57.59Q319.52 55.92 319.85 54.01Q320.4 50.93 323.05 49.64Q325.72 48.36 330.63 49.23L334.95 49.99Q335.36 46.52 330.96 45.74Q329.41 45.47 327.72 45.69Q326.03 45.9 324.75 46.59L323.11 40.98Q325.12 40.1 327.81 39.9Q330.51 39.69 333.11 40.15ZM329.71 57.68Q331.04 57.91 332.15 57.45Q333.25 56.99 333.91 55.82L334.25 53.95L330.98 53.37Q327.66 52.79 327.27 54.98Q327.09 55.98 327.74 56.72Q328.39 57.45 329.71 57.68ZM362.37 45.31Q365.33 45.83 367.49 47.64Q369.67 49.44 370.63 52.23Q371.61 55.02 371.02 58.37Q370.42 61.73 368.55 64.01Q366.68 66.3 364.02 67.26Q361.36 68.21 358.41 67.69Q354.6 67.02 352.77 64.34L351.06 74.02L343.46 72.68L348.67 43.26L355.91 44.54L355.52 46.7Q358.09 44.55 362.37 45.31ZM357.88 61.37Q359.88 61.72 361.4 60.57Q362.92 59.42 363.35 57.02Q363.77 54.62 362.74 53.02Q361.7 51.42 359.7 51.06Q357.7 50.71 356.18 51.86Q354.66 53.01 354.23 55.41Q353.81 57.81 354.84 59.41Q355.88 61.01 357.88 61.37Z" stroke="#202027" stroke-opacity="1.000000" stroke-width="0.634167"/>
		<rect id="Frame 2043683075" rx="18.775000" width="199.160004" height="80.013336" transform="translate(205.785156 -12.409668) rotate(10.000001)" stroke="#202027" stroke-opacity="1.000000" stroke-width="0.500000"/>
		<rect id="Frame 2043683073" rx="18.775000" width="134.160004" height="80.013336" transform="translate(409.967773 23.593140) rotate(10.000001)" fill="#B0AEFF" fill-opacity="1.000000"/>
		<path id="рыс" d="M447.08 61Q445.35 59.94 443.2 59.56Q439.59 58.92 437.21 60.34Q436.76 60.61 436.35 60.95L436.73 58.79L429.5 57.52L424.29 86.93L431.88 88.27L433.6 78.59Q434 79.19 434.5 79.68Q436.27 81.42 439.23 81.94Q441.41 82.33 443.43 81.91Q444.14 81.76 444.84 81.51Q445.8 81.17 446.65 80.65Q448.18 79.73 449.37 78.27Q451.25 75.98 451.84 72.62Q452.43 69.27 451.46 66.48Q450.84 64.68 449.71 63.29Q449.09 62.53 448.32 61.89Q447.73 61.4 447.08 61ZM493.73 90.07Q496.31 92.01 499.9 92.64Q503.58 93.29 506.53 92.18Q508.26 91.53 509.53 90.38Q510.44 89.56 511.11 88.48L505.77 84.44Q504.52 86.1 502.93 86.53Q501.99 86.78 500.93 86.59Q499.71 86.38 498.82 85.71Q498.24 85.27 497.8 84.62Q497.68 84.44 497.58 84.25Q496.75 82.74 497.14 80.57Q497.51 78.48 498.75 77.36Q498.94 77.19 499.14 77.05Q499.75 76.62 500.43 76.41Q501.51 76.07 502.76 76.29Q503.81 76.48 504.61 77.03Q505.96 77.97 506.56 79.97L512.97 78Q512.71 76.75 512.14 75.67Q511.34 74.16 509.94 72.96Q507.55 70.9 503.87 70.26Q500.28 69.62 497.18 70.55Q495.02 71.19 493.38 72.48Q492.67 73.04 492.06 73.72Q491.6 74.24 491.21 74.82Q489.91 76.73 489.47 79.22Q489.04 81.66 489.57 83.87Q489.74 84.59 490.01 85.29Q490.35 86.15 490.83 86.93Q491.92 88.71 493.73 90.07ZM474.69 74.39Q472.87 72.13 468.6 71.33L463.76 70.48L464.95 63.77L457.4 62.43L453.56 84.1L465 86.11Q469.55 86.95 472.41 85.36Q473.38 84.81 474.1 84.03Q475.49 82.52 475.91 80.13Q476.39 77.45 475.41 75.49Q475.11 74.91 474.69 74.39ZM487.78 67.79L480.22 66.46L476.39 88.12L483.94 89.45L487.78 67.79ZM440.92 75.5Q439.9 75.83 438.7 75.62Q437.5 75.41 436.65 74.75Q436.08 74.31 435.67 73.67Q435.58 73.53 435.5 73.39Q434.67 71.86 435.06 69.66Q435.45 67.46 436.76 66.31Q436.88 66.21 437 66.11Q437.61 65.65 438.3 65.43Q439.33 65.1 440.53 65.32Q441.72 65.53 442.57 66.18Q443.14 66.63 443.56 67.27Q443.65 67.4 443.72 67.54Q444.56 69.07 444.17 71.27Q443.78 73.47 442.47 74.62Q442.35 74.73 442.22 74.82Q441.61 75.28 440.92 75.5ZM467.59 80.4Q466.74 81.07 465.16 80.79L462.04 80.19L462.94 75.11L466.06 75.66Q467.49 75.96 468.11 76.69Q468.18 76.77 468.24 76.86Q468.7 77.56 468.5 78.69Q468.29 79.86 467.59 80.4Z" fill="#FFFFFF" fill-opacity="1.000000" fill-rule="evenodd"/>
		<path id="рыс" d="M443.2 59.56Q446.15 60.08 448.32 61.89Q450.49 63.69 451.46 66.48Q452.43 69.27 451.84 72.62Q451.25 75.98 449.37 78.27Q447.51 80.55 444.84 81.51Q442.19 82.46 439.23 81.94Q435.43 81.27 433.6 78.59L431.88 88.27L424.29 86.93L429.5 57.52L436.73 58.79L436.35 60.95Q438.91 58.8 443.2 59.56ZM438.7 75.62Q440.7 75.97 442.22 74.82Q443.74 73.67 444.17 71.27Q444.6 68.87 443.56 67.27Q442.53 65.67 440.53 65.32Q438.52 64.96 437 66.11Q435.48 67.26 435.06 69.66Q434.63 72.06 435.67 73.67Q436.7 75.27 438.7 75.62ZM468.6 71.33Q472.87 72.13 474.69 74.39Q476.53 76.64 475.91 80.13Q475.27 83.76 472.41 85.36Q469.55 86.95 465 86.11L453.56 84.1L457.4 62.43L464.95 63.77L463.76 70.48L468.6 71.33ZM480.22 66.46L487.78 67.79L483.94 89.45L476.39 88.12L480.22 66.46ZM465.16 80.79Q468.04 81.29 468.5 78.69Q468.72 77.41 468.11 76.69Q467.49 75.96 466.06 75.66L462.94 75.11L462.04 80.19L465.16 80.79ZM499.9 92.64Q496.31 92.01 493.73 90.07Q491.14 88.13 490.01 85.29Q488.89 82.46 489.47 79.22Q490.04 75.98 492.06 73.72Q494.09 71.46 497.18 70.55Q500.28 69.62 503.87 70.26Q507.55 70.9 509.94 72.96Q512.34 75.01 512.97 78L506.56 79.97Q505.6 76.79 502.76 76.29Q500.72 75.93 499.14 77.05Q497.56 78.17 497.14 80.57Q496.71 83.01 497.8 84.62Q498.89 86.23 500.93 86.59Q503.77 87.09 505.77 84.44L511.11 88.48Q509.5 91.07 506.53 92.18Q503.58 93.29 499.9 92.64Z" stroke="#202027" stroke-opacity="1.000000" stroke-width="0.634167"/>
		<rect id="Frame 2043683073" rx="18.775000" width="134.160004" height="80.013336" transform="translate(409.967773 23.593140) rotate(10.000001)" stroke="#202027" stroke-opacity="1.000000" stroke-width="0.500000"/>
		<rect id="Frame 2043683076" rx="18.775000" width="124.160004" height="80.013336" transform="translate(-127.607422 17.553955) rotate(10.000001)" fill="#B0AEFF" fill-opacity="1.000000"/>
		<path id="тик" d="M-96.72 59.7L-89.76 60.92L-88.69 54.89L-110.2 51.1L-111.27 57.13L-104.27 58.37L-107.04 74L-99.49 75.33L-96.72 59.7ZM-78.19 56.75L-85.74 55.41L-89.58 77.08L-82.54 78.32L-71.53 68.52L-73.55 79.9L-65.95 81.24L-62.12 59.58L-69.11 58.35L-80.2 68.09L-78.19 56.75ZM-51.88 75.76L-49.31 76.22L-45.65 84.82L-36.7 86.4L-42.45 73.76L-33.34 64.65L-41.37 63.24L-48.1 70.29L-50.83 69.81L-49.41 61.82L-57 60.48L-60.84 82.14L-53.25 83.48L-51.88 75.76Z" fill="#FFFFFF" fill-opacity="1.000000" fill-rule="evenodd"/>
		<path id="тик" d="M-89.76 60.92L-96.72 59.7L-99.49 75.33L-107.04 74L-104.27 58.37L-111.27 57.13L-110.2 51.1L-88.69 54.89L-89.76 60.92ZM-85.74 55.41L-78.19 56.75L-80.2 68.09L-69.11 58.35L-62.12 59.58L-65.95 81.24L-73.55 79.9L-71.53 68.52L-82.54 78.32L-89.58 77.08L-85.74 55.41ZM-49.31 76.22L-51.88 75.76L-53.25 83.48L-60.84 82.14L-57 60.48L-49.41 61.82L-50.83 69.81L-48.1 70.29L-41.37 63.24L-33.34 64.65L-42.45 73.76L-36.7 86.4L-45.65 84.82L-49.31 76.22Z" stroke="#202027" stroke-opacity="1.000000" stroke-width="0.634167"/>
		<rect id="Frame 2043683076" rx="18.775000" width="124.160004" height="80.013336" transform="translate(-127.607422 17.553955) rotate(10.000001)" stroke="#202027" stroke-opacity="1.000000" stroke-width="0.500000"/>
		<rect id="Frame 2043683074" rx="18.775000" width="247.160004" height="80.013336" transform="translate(2.713867 40.533203) rotate(10.000001)" fill="#B0AEFF" fill-opacity="1.000000"/>
		<path id="родимоп" d="M39.99 77.97Q38.26 76.91 36.1 76.53Q32.5 75.89 30.11 77.31Q29.66 77.58 29.26 77.92L29.64 75.76L22.41 74.48L17.2 103.9L24.79 105.24L26.5 95.56Q26.91 96.15 27.41 96.65Q29.18 98.39 32.14 98.91Q34.32 99.29 36.33 98.88Q37.05 98.73 37.75 98.48Q38.71 98.14 39.56 97.62Q41.08 96.7 42.28 95.23Q44.15 92.95 44.75 89.59Q45.34 86.24 44.37 83.45Q43.74 81.65 42.61 80.26Q42 79.5 41.23 78.86Q40.64 78.37 39.99 77.97ZM51.41 101.03Q53.85 102.74 57.08 103.31Q60.51 103.91 63.5 103.03Q63.58 103.01 63.65 102.99Q65.72 102.34 67.3 101.09Q68.06 100.49 68.71 99.75Q69.19 99.21 69.59 98.61Q70.86 96.7 71.3 94.23Q71.74 91.72 71.17 89.46Q71.01 88.81 70.76 88.18Q70.4 87.28 69.9 86.46Q68.84 84.76 67.11 83.46Q67.07 83.44 67.04 83.41Q64.51 81.54 61.05 80.93Q57.53 80.31 54.5 81.24Q52.6 81.82 51.09 82.93Q50.19 83.59 49.43 84.44Q48.86 85.09 48.4 85.82Q47.25 87.63 46.84 89.92Q46.41 92.36 46.94 94.58Q47.11 95.3 47.39 95.99Q47.77 96.95 48.31 97.8Q49.37 99.48 51.06 100.77Q51.24 100.9 51.41 101.03ZM168.09 121.6Q170.52 123.31 173.76 123.88Q177.18 124.48 180.17 123.6Q180.25 123.58 180.32 123.56Q182.39 122.92 183.97 121.67Q184.73 121.07 185.38 120.33Q185.86 119.78 186.26 119.19Q187.53 117.27 187.97 114.81Q188.42 112.29 187.85 110.03Q187.68 109.38 187.43 108.75Q187.08 107.85 186.57 107.04Q185.51 105.33 183.78 104.04Q183.75 104.01 183.71 103.98Q181.18 102.11 177.72 101.5Q174.21 100.88 171.17 101.81Q169.27 102.39 167.76 103.51Q166.87 104.17 166.11 105.01Q165.53 105.66 165.07 106.39Q163.92 108.21 163.52 110.49Q163.08 112.94 163.61 115.15Q163.79 115.87 164.06 116.57Q164.44 117.52 164.98 118.37Q166.05 120.05 167.73 121.34Q167.91 121.47 168.09 121.6ZM97.36 114.66L99.23 104.1L96.23 103.57L98.99 87.99L78.96 84.46L77.35 91.96Q76.51 95.73 75.38 97.69Q74.71 98.87 73.74 99.23Q73.08 99.47 72.29 99.35L71.49 99.21L69.62 109.76L76.69 111.01L77.49 106.53L91.12 108.94L90.33 113.42L97.36 114.66ZM112.82 90.43L105.27 89.09L101.43 110.76L108.47 112L119.48 102.2L117.46 113.58L125.05 114.92L128.89 93.26L121.89 92.03L110.81 101.77L112.82 90.43ZM153.21 108.14L151.2 119.53L158.03 120.74L161.83 99.07L154.67 97.81L146.03 107.94L142 95.57L134 94.16L130.17 115.82L137.01 117.03L139.06 105.48L142.75 116.06L145.98 116.63L153.21 108.14ZM211.99 130.25L215.83 108.59L193.44 104.64L189.6 126.3L197.16 127.63L199.93 112L207.21 113.29L204.44 128.92L211.99 130.25ZM33.83 92.47Q32.81 92.8 31.61 92.59Q30.41 92.38 29.56 91.72Q28.99 91.28 28.57 90.63Q28.49 90.5 28.41 90.36Q27.58 88.83 27.96 86.63Q28.35 84.43 29.67 83.28Q29.78 83.18 29.91 83.08Q30.52 82.62 31.21 82.4Q32.24 82.07 33.43 82.28Q34.63 82.5 35.48 83.15Q36.05 83.6 36.47 84.24Q36.56 84.37 36.63 84.51Q37.47 86.04 37.08 88.24Q36.69 90.44 35.38 91.59Q35.26 91.69 35.13 91.79Q34.52 92.25 33.83 92.47ZM60.37 97.15Q59.35 97.48 58.15 97.27Q56.96 97.06 56.1 96.4Q55.53 95.96 55.12 95.31Q55.05 95.22 54.99 95.11Q54.11 93.56 54.51 91.27Q54.91 89.07 56.22 87.93Q56.34 87.83 56.46 87.74Q57.05 87.3 57.71 87.09Q58.75 86.75 59.98 86.96Q61.2 87.18 62.06 87.86Q62.61 88.29 63.02 88.9Q63.1 89.03 63.17 89.16Q64.02 90.67 63.63 92.88Q63.22 95.17 61.86 96.32Q61.77 96.4 61.67 96.47Q61.06 96.93 60.37 97.15ZM177.05 117.73Q176.02 118.05 174.82 117.84Q173.63 117.63 172.78 116.97Q172.21 116.53 171.79 115.89Q171.73 115.79 171.67 115.69Q170.78 114.14 171.19 111.85Q171.58 109.64 172.9 108.5Q173.01 108.41 173.13 108.32Q173.72 107.88 174.38 107.66Q175.43 107.32 176.65 107.54Q177.87 107.75 178.74 108.43Q179.29 108.86 179.69 109.47Q179.77 109.6 179.85 109.73Q180.69 111.25 180.3 113.45Q179.9 115.74 178.53 116.9Q178.44 116.97 178.35 117.04Q177.74 117.51 177.05 117.73ZM82.82 98.33Q83.45 96.62 84.08 93.72L84.53 91.66L90.33 92.68L88.64 102.23L81.12 100.91Q82.18 100.03 82.82 98.33Z" fill="#FFFFFF" fill-opacity="1.000000" fill-rule="evenodd"/>
		<path id="родимоп" d="M36.1 76.53Q39.06 77.05 41.23 78.86Q43.4 80.66 44.37 83.45Q45.34 86.24 44.75 89.59Q44.15 92.95 42.28 95.23Q40.42 97.52 37.75 98.48Q35.1 99.43 32.14 98.91Q28.33 98.24 26.5 95.56L24.79 105.24L17.2 103.9L22.41 74.48L29.64 75.76L29.26 77.92Q31.82 75.77 36.1 76.53ZM31.61 92.59Q33.61 92.94 35.13 91.79Q36.65 90.64 37.08 88.24Q37.5 85.84 36.47 84.24Q35.43 82.64 33.43 82.28Q31.43 81.93 29.91 83.08Q28.39 84.23 27.96 86.63Q27.54 89.03 28.57 90.63Q29.61 92.24 31.61 92.59ZM57.08 103.31Q53.61 102.7 51.06 100.77Q48.52 98.83 47.39 95.99Q46.27 93.16 46.84 89.92Q47.41 86.72 49.43 84.44Q51.47 82.16 54.5 81.24Q57.53 80.31 61.05 80.93Q64.56 81.54 67.11 83.46Q69.66 85.37 70.76 88.18Q71.87 90.99 71.3 94.23Q70.72 97.47 68.71 99.75Q66.71 102.04 63.65 102.99Q60.6 103.93 57.08 103.31ZM58.15 97.27Q60.15 97.62 61.67 96.47Q63.2 95.32 63.63 92.88Q64.05 90.48 63.02 88.9Q61.98 87.32 59.98 86.96Q57.98 86.61 56.46 87.74Q54.94 88.87 54.51 91.27Q54.08 93.71 55.12 95.31Q56.15 96.92 58.15 97.27ZM99.23 104.1L97.36 114.66L90.33 113.42L91.12 108.94L77.49 106.53L76.69 111.01L69.62 109.76L71.49 99.21L72.29 99.35Q74.26 99.66 75.38 97.69Q76.51 95.73 77.35 91.96L78.96 84.46L98.99 87.99L96.23 103.57L99.23 104.1ZM84.08 93.72Q83.45 96.62 82.82 98.33Q82.18 100.03 81.12 100.91L88.64 102.23L90.33 92.68L84.53 91.66L84.08 93.72ZM105.27 89.09L112.82 90.43L110.81 101.77L121.89 92.03L128.89 93.26L125.05 114.92L117.46 113.58L119.48 102.2L108.47 112L101.43 110.76L105.27 89.09ZM151.2 119.53L153.21 108.14L145.98 116.63L142.75 116.06L139.06 105.48L137.01 117.03L130.17 115.82L134 94.16L142 95.57L146.03 107.94L154.67 97.81L161.83 99.07L158.03 120.74L151.2 119.53ZM173.76 123.88Q170.28 123.27 167.73 121.34Q165.19 119.4 164.06 116.57Q162.94 113.73 163.52 110.49Q164.08 107.29 166.11 105.01Q168.14 102.74 171.17 101.81Q174.21 100.88 177.72 101.5Q181.23 102.12 183.78 104.04Q186.33 105.94 187.43 108.75Q188.55 111.57 187.97 114.81Q187.4 118.05 185.38 120.33Q183.38 122.61 180.32 123.56Q177.27 124.5 173.76 123.88ZM174.82 117.84Q176.83 118.19 178.35 117.04Q179.87 115.89 180.3 113.45Q180.73 111.05 179.69 109.47Q178.65 107.89 176.65 107.54Q174.65 107.18 173.13 108.32Q171.61 109.45 171.19 111.85Q170.76 114.29 171.79 115.89Q172.82 117.49 174.82 117.84ZM215.83 108.59L211.99 130.25L204.44 128.92L207.21 113.29L199.93 112L197.16 127.63L189.6 126.3L193.44 104.64L215.83 108.59Z" stroke="#202027" stroke-opacity="1.000000" stroke-width="0.634167"/>
		<rect id="Frame 2043683074" rx="18.775000" width="247.160004" height="80.013336" transform="translate(2.713867 40.533203) rotate(10.000001)" stroke="#202027" stroke-opacity="1.000000" stroke-width="0.500000"/>
		<rect id="Frame 2043683073" rx="18.775000" width="134.160004" height="80.013336" transform="translate(254.166992 84.871216) rotate(10.000001)" fill="#B0AEFF" fill-opacity="1.000000"/>
		<path id="рыс" d="M291.28 122.28Q289.55 121.22 287.39 120.84Q283.79 120.2 281.4 121.62Q280.95 121.89 280.55 122.23L280.93 120.07L273.7 118.79L268.49 148.21L276.08 149.55L277.79 139.87Q278.2 140.46 278.7 140.96Q280.47 142.7 283.43 143.22Q285.61 143.6 287.63 143.19Q288.34 143.04 289.04 142.79Q290 142.45 290.85 141.93Q292.37 141.01 293.57 139.54Q295.44 137.26 296.04 133.9Q296.63 130.55 295.66 127.76Q295.03 125.96 293.91 124.57Q293.29 123.81 292.52 123.17Q291.93 122.68 291.28 122.28ZM337.92 151.35Q340.51 153.28 344.1 153.92Q347.78 154.57 350.73 153.46Q352.46 152.81 353.73 151.66Q354.64 150.84 355.31 149.76L349.97 145.72Q348.72 147.38 347.13 147.81Q346.19 148.06 345.13 147.87Q343.91 147.65 343.02 146.99Q342.44 146.54 342 145.9Q341.88 145.72 341.78 145.53Q340.95 144.02 341.34 141.85Q341.71 139.76 342.95 138.64Q343.14 138.47 343.34 138.33Q343.95 137.89 344.63 137.68Q345.7 137.35 346.96 137.57Q348.01 137.75 348.81 138.31Q350.16 139.25 350.76 141.25L357.17 139.28Q356.91 138.03 356.34 136.95Q355.54 135.43 354.14 134.24Q351.74 132.18 348.07 131.53Q344.47 130.9 341.38 131.83Q339.22 132.46 337.58 133.76Q336.87 134.32 336.26 135Q335.79 135.52 335.4 136.1Q334.11 138.01 333.67 140.5Q333.24 142.94 333.76 145.15Q333.94 145.87 334.21 146.57Q334.55 147.43 335.03 148.2Q336.12 149.99 337.92 151.35ZM318.89 135.67Q317.07 133.4 312.8 132.61L307.96 131.76L309.15 125.05L301.6 123.71L297.76 145.37L309.2 147.39Q313.75 148.23 316.61 146.63Q317.58 146.09 318.3 145.3Q319.69 143.8 320.11 141.41Q320.58 138.72 319.61 136.77Q319.31 136.19 318.89 135.67ZM331.98 129.07L324.42 127.74L320.59 149.4L328.14 150.73L331.98 129.07ZM285.12 136.78Q284.1 137.11 282.9 136.9Q281.7 136.69 280.85 136.03Q280.28 135.59 279.86 134.94Q279.78 134.81 279.7 134.67Q278.87 133.14 279.26 130.94Q279.64 128.74 280.96 127.59Q281.07 127.49 281.2 127.39Q281.81 126.93 282.5 126.71Q283.53 126.38 284.72 126.59Q285.92 126.81 286.77 127.46Q287.34 127.9 287.76 128.55Q287.85 128.68 287.92 128.82Q288.76 130.35 288.37 132.55Q287.98 134.75 286.67 135.9Q286.55 136 286.42 136.1Q285.81 136.56 285.12 136.78ZM311.79 141.68Q310.94 142.34 309.35 142.07L306.24 141.47L307.14 136.39L310.26 136.94Q311.69 137.24 312.31 137.97Q312.38 138.05 312.44 138.14Q312.9 138.84 312.7 139.97Q312.49 141.14 311.79 141.68Z" fill="#FFFFFF" fill-opacity="1.000000" fill-rule="evenodd"/>
		<path id="рыс" d="M287.39 120.84Q290.35 121.36 292.52 123.17Q294.69 124.97 295.66 127.76Q296.63 130.55 296.04 133.9Q295.44 137.26 293.57 139.54Q291.71 141.83 289.04 142.79Q286.39 143.74 283.43 143.22Q279.62 142.55 277.79 139.87L276.08 149.55L268.49 148.21L273.7 118.79L280.93 120.07L280.55 122.23Q283.11 120.08 287.39 120.84ZM282.9 136.9Q284.9 137.25 286.42 136.1Q287.94 134.95 288.37 132.55Q288.79 130.15 287.76 128.55Q286.73 126.95 284.72 126.59Q282.72 126.24 281.2 127.39Q279.68 128.54 279.26 130.94Q278.83 133.34 279.86 134.94Q280.9 136.54 282.9 136.9ZM312.8 132.61Q317.07 133.4 318.89 135.67Q320.73 137.92 320.11 141.41Q319.47 145.03 316.61 146.63Q313.75 148.23 309.2 147.39L297.76 145.37L301.6 123.71L309.15 125.05L307.96 131.76L312.8 132.61ZM324.42 127.74L331.98 129.07L328.14 150.73L320.59 149.4L324.42 127.74ZM309.35 142.07Q312.23 142.57 312.7 139.97Q312.92 138.69 312.31 137.97Q311.69 137.24 310.26 136.94L307.14 136.39L306.24 141.47L309.35 142.07ZM344.1 153.92Q340.51 153.28 337.92 151.35Q335.34 149.4 334.21 146.57Q333.09 143.74 333.67 140.5Q334.24 137.26 336.26 135Q338.29 132.74 341.38 131.83Q344.47 130.9 348.07 131.53Q351.74 132.18 354.14 134.24Q356.54 136.29 357.17 139.28L350.76 141.25Q349.8 138.07 346.96 137.57Q344.92 137.21 343.34 138.33Q341.76 139.45 341.34 141.85Q340.91 144.29 342 145.9Q343.09 147.51 345.13 147.87Q347.97 148.37 349.97 145.72L355.31 149.76Q353.7 152.35 350.73 153.46Q347.78 154.57 344.1 153.92Z" stroke="#202027" stroke-opacity="1.000000" stroke-width="0.634167"/>
		<rect id="Frame 2043683073" rx="18.775000" width="134.160004" height="80.013336" transform="translate(254.166992 84.871216) rotate(10.000001)" stroke="#202027" stroke-opacity="1.000000" stroke-width="0.500000"/>
		<rect id="Frame 2043683075" rx="18.775000" width="124.160004" height="80.013336" transform="translate(394.337891 109.587036) rotate(10.000001)" fill="#B0AEFF" fill-opacity="1.000000"/>
		<path id="тик" d="M425.23 151.73L432.18 152.96L433.25 146.93L411.74 143.14L410.68 149.17L417.67 150.4L414.9 166.03L422.46 167.36L425.23 151.73ZM443.76 148.78L436.2 147.45L432.37 169.11L439.4 170.35L450.42 160.55L448.4 171.94L455.99 173.27L459.83 151.61L452.83 150.38L441.75 160.13L443.76 148.78ZM470.06 167.8L472.63 168.25L476.3 176.86L485.25 178.43L479.5 165.8L488.61 156.69L480.58 155.27L473.84 162.33L471.12 161.85L472.53 153.85L464.94 152.52L461.11 174.18L468.7 175.51L470.06 167.8Z" fill="#FFFFFF" fill-opacity="1.000000" fill-rule="evenodd"/>
		<path id="тик" d="M432.18 152.96L425.23 151.73L422.46 167.36L414.9 166.03L417.67 150.4L410.68 149.17L411.74 143.14L433.25 146.93L432.18 152.96ZM436.2 147.45L443.76 148.78L441.75 160.13L452.83 150.38L459.83 151.61L455.99 173.27L448.4 171.94L450.42 160.55L439.4 170.35L432.37 169.11L436.2 147.45ZM472.63 168.25L470.06 167.8L468.7 175.51L461.11 174.18L464.94 152.52L472.53 153.85L471.12 161.85L473.84 162.33L480.58 155.27L488.61 156.69L479.5 165.8L485.25 178.43L476.3 176.86L472.63 168.25Z" stroke="#202027" stroke-opacity="1.000000" stroke-width="0.634167"/>
		<rect id="Frame 2043683075" rx="18.775000" width="124.160004" height="80.013336" transform="translate(394.337891 109.587036) rotate(10.000001)" stroke="#202027" stroke-opacity="1.000000" stroke-width="0.500000"/>
		<rect id="Frame 2043683095" rx="18.775000" width="122.160004" height="80.013336" transform="translate(-125.880859 106.936279) rotate(10.000001)" fill="#B0AEFF" fill-opacity="1.000000"/>
		<path id="топ" d="M-83.61 166.29Q-81.18 168.01 -77.94 168.58Q-74.52 169.18 -71.53 168.3Q-71.45 168.28 -71.38 168.26Q-69.31 167.61 -67.72 166.36Q-66.97 165.76 -66.32 165.02Q-65.84 164.48 -65.44 163.88Q-64.17 161.97 -63.73 159.5Q-63.28 156.99 -63.85 154.73Q-64.02 154.08 -64.27 153.45Q-64.62 152.55 -65.13 151.73Q-66.19 150.03 -67.92 148.73Q-67.95 148.71 -67.99 148.68Q-70.51 146.81 -73.98 146.19Q-77.49 145.58 -80.53 146.51Q-82.43 147.09 -83.94 148.2Q-84.83 148.86 -85.59 149.71Q-86.17 150.36 -86.63 151.09Q-87.78 152.9 -88.18 155.19Q-88.61 157.63 -88.09 159.85Q-87.91 160.57 -87.64 161.26Q-87.26 162.22 -86.72 163.07Q-85.65 164.75 -83.96 166.04Q-83.79 166.17 -83.61 166.29ZM-94.86 149.1L-87.9 150.33L-86.83 144.3L-108.34 140.51L-109.41 146.54L-102.41 147.77L-105.18 163.4L-97.63 164.73L-94.86 149.1ZM-39.71 174.95L-35.87 153.28L-58.26 149.34L-62.1 171L-54.54 172.33L-51.77 156.7L-44.49 157.98L-47.26 173.61L-39.71 174.95ZM-74.65 162.42Q-75.68 162.75 -76.87 162.54Q-78.07 162.33 -78.92 161.67Q-79.49 161.23 -79.91 160.58Q-79.97 160.48 -80.03 160.38Q-80.92 158.83 -80.51 156.54Q-80.12 154.33 -78.8 153.2Q-78.69 153.1 -78.57 153.01Q-77.98 152.57 -77.32 152.36Q-76.27 152.02 -75.05 152.23Q-73.83 152.45 -72.96 153.13Q-72.41 153.55 -72.01 154.17Q-71.93 154.29 -71.85 154.43Q-71.01 155.94 -71.4 158.15Q-71.8 160.44 -73.17 161.59Q-73.26 161.67 -73.35 161.74Q-73.96 162.2 -74.65 162.42Z" fill="#FFFFFF" fill-opacity="1.000000" fill-rule="evenodd"/>
		<path id="топ" d="M-87.9 150.33L-94.86 149.1L-97.63 164.73L-105.18 163.4L-102.41 147.77L-109.41 146.54L-108.34 140.51L-86.83 144.3L-87.9 150.33ZM-77.94 168.58Q-81.42 167.96 -83.96 166.04Q-86.51 164.1 -87.64 161.26Q-88.76 158.43 -88.18 155.19Q-87.62 151.99 -85.59 149.71Q-83.56 147.43 -80.53 146.51Q-77.49 145.58 -73.98 146.19Q-70.47 146.81 -67.92 148.73Q-65.37 150.64 -64.27 153.45Q-63.15 156.26 -63.73 159.5Q-64.3 162.74 -66.32 165.02Q-68.32 167.31 -71.38 168.26Q-74.43 169.2 -77.94 168.58ZM-76.87 162.54Q-74.87 162.89 -73.35 161.74Q-71.83 160.59 -71.4 158.15Q-70.97 155.75 -72.01 154.17Q-73.05 152.59 -75.05 152.23Q-77.05 151.88 -78.57 153.01Q-80.09 154.14 -80.51 156.54Q-80.94 158.98 -79.91 160.58Q-78.88 162.18 -76.87 162.54ZM-35.87 153.28L-39.71 174.95L-47.26 173.61L-44.49 157.98L-51.77 156.7L-54.54 172.33L-62.1 171L-58.26 149.34L-35.87 153.28Z" stroke="#202027" stroke-opacity="1.000000" stroke-width="0.634167"/>
		<rect id="Frame 2043683095" rx="18.775000" width="122.160004" height="80.013336" transform="translate(-125.880859 106.936279) rotate(10.000001)" stroke="#202027" stroke-opacity="1.000000" stroke-width="0.500000"/>
		<rect id="Frame 2043683072" rx="18.775000" width="381.160004" height="80.013336" transform="translate(2.471680 129.568237) rotate(10.000001)" fill="#B0AEFF" fill-opacity="1.000000"/>
		<path id="ытсиммаргорп" d="M80.03 194.95Q82.61 196.89 86.2 197.52Q89.88 198.17 92.84 197.06Q94.57 196.41 95.84 195.26Q96.74 194.44 97.42 193.36L92.08 189.32Q90.82 190.99 89.23 191.41Q88.29 191.66 87.24 191.47Q86.01 191.26 85.13 190.59Q84.54 190.15 84.1 189.5Q83.98 189.32 83.88 189.14Q83.06 187.62 83.44 185.45Q83.81 183.36 85.06 182.24Q85.24 182.08 85.44 181.93Q86.05 181.5 86.73 181.29Q87.81 180.95 89.06 181.17Q90.12 181.36 90.91 181.91Q92.26 182.85 92.87 184.85L99.27 182.88Q99.01 181.64 98.44 180.55Q97.64 179.04 96.24 177.84Q93.85 175.79 90.17 175.14Q86.58 174.51 83.49 175.43Q81.33 176.07 79.69 177.36Q78.98 177.92 78.37 178.6Q77.9 179.12 77.51 179.7Q76.21 181.61 75.77 184.1Q75.34 186.54 75.87 188.75Q76.04 189.48 76.32 190.17Q76.66 191.03 77.13 191.81Q78.23 193.6 80.03 194.95ZM214.8 199.65Q212.4 196.69 207 195.74Q206.85 195.71 206.7 195.69Q204.25 195.29 201.7 195.49Q199.01 195.69 197 196.57L198.64 202.18Q199.92 201.49 201.61 201.28Q203.3 201.06 204.85 201.34Q207.62 201.82 208.48 203.37Q208.99 204.29 208.84 205.58L204.53 204.82Q199.61 203.95 196.95 205.24Q195.82 205.78 195.07 206.66Q194.06 207.83 193.75 209.6Q193.49 211.04 193.81 212.33Q193.91 212.76 194.08 213.18Q194.13 213.32 194.2 213.45Q194.89 214.95 196.43 216.05Q198.12 217.25 200.64 217.7Q204.22 218.33 206.35 216.86Q207.05 216.37 207.6 215.67L207.1 218.47L214.18 219.71L216.31 207.68Q217.11 203.17 215.29 200.32Q215.07 199.97 214.8 199.65ZM240.15 202.34Q238.42 201.28 236.26 200.9Q232.66 200.26 230.27 201.68Q229.82 201.95 229.42 202.29L229.8 200.13L222.57 198.86L217.36 228.27L224.95 229.61L226.66 219.93Q227.07 220.53 227.57 221.02Q229.34 222.76 232.3 223.28Q234.48 223.67 236.49 223.25Q237.21 223.1 237.91 222.85Q238.87 222.51 239.72 221.99Q241.24 221.07 242.44 219.61Q244.31 217.32 244.91 213.96Q245.5 210.61 244.53 207.82Q243.9 206.02 242.77 204.63Q242.16 203.87 241.39 203.23Q240.8 202.74 240.15 202.34ZM271.84 228.97Q274.27 230.68 277.51 231.25Q280.93 231.86 283.92 230.98Q284 230.95 284.07 230.93Q286.14 230.29 287.73 229.04Q288.49 228.44 289.14 227.7Q289.61 227.16 290.01 226.56Q291.29 224.65 291.72 222.18Q292.17 219.66 291.6 217.41Q291.43 216.76 291.18 216.13Q290.83 215.22 290.32 214.41Q289.26 212.7 287.53 211.41Q287.5 211.38 287.46 211.36Q284.94 209.48 281.47 208.87Q277.96 208.25 274.92 209.18Q273.02 209.76 271.51 210.88Q270.62 211.54 269.86 212.39Q269.28 213.04 268.82 213.76Q267.67 215.58 267.27 217.87Q266.84 220.31 267.37 222.52Q267.54 223.24 267.81 223.94Q268.19 224.89 268.73 225.74Q269.8 227.43 271.49 228.71Q271.66 228.84 271.84 228.97ZM314.77 215.5Q313.04 214.44 310.89 214.06Q307.28 213.42 304.9 214.84Q304.45 215.11 304.04 215.45L304.42 213.29L297.19 212.01L291.98 241.43L299.57 242.77L301.29 233.09Q301.69 233.68 302.2 234.18Q303.96 235.92 306.92 236.44Q309.1 236.82 311.12 236.41Q311.84 236.26 312.53 236.01Q313.49 235.67 314.34 235.15Q315.87 234.23 317.06 232.76Q318.94 230.48 319.53 227.12Q320.13 223.77 319.15 220.98Q318.53 219.18 317.4 217.79Q316.78 217.03 316.01 216.39Q315.42 215.9 314.77 215.5ZM39.53 175.49Q37.71 173.22 33.44 172.43L28.6 171.58L29.79 164.86L22.24 163.53L18.4 185.19L29.84 187.21Q34.39 188.05 37.25 186.45Q38.22 185.91 38.94 185.12Q40.33 183.61 40.75 181.22Q41.22 178.54 40.25 176.59Q39.95 176.01 39.53 175.49ZM52.62 168.89L45.06 167.56L41.23 189.22L48.78 190.55L52.62 168.89ZM69.1 178.01L76.05 179.24L77.12 173.21L55.61 169.42L54.55 175.45L61.54 176.68L58.77 192.31L66.33 193.64L69.1 178.01ZM110.97 179.18L103.42 177.85L99.58 199.51L106.62 200.75L117.63 190.95L115.61 202.33L123.21 203.67L127.04 182.01L120.05 180.78L108.96 190.53L110.97 179.18ZM151.36 196.9L149.35 208.28L156.18 209.49L159.98 187.82L152.82 186.56L144.18 196.7L140.15 184.32L132.16 182.91L128.32 204.57L135.16 205.78L137.21 194.23L140.9 204.81L144.13 205.38L151.36 196.9ZM184.34 202.71L182.32 214.1L189.15 215.3L192.95 193.63L185.8 192.37L177.16 202.51L173.12 190.14L165.13 188.73L161.29 210.39L168.13 211.59L170.18 200.04L173.87 210.62L177.1 211.19L184.34 202.71ZM256.95 211.14L267.55 213.01L268.62 206.98L250.47 203.78L246.63 225.44L254.18 226.77L256.95 211.14ZM343.64 242.54L347.48 220.88L325.09 216.93L321.25 238.59L328.81 239.93L331.58 224.3L338.86 225.58L336.09 241.21L343.64 242.54ZM233.99 216.84Q232.97 217.17 231.77 216.96Q230.57 216.75 229.72 216.09Q229.15 215.65 228.73 215.01Q228.65 214.87 228.57 214.73Q227.73 213.2 228.12 211Q228.51 208.8 229.82 207.65Q229.94 207.55 230.07 207.45Q230.68 206.99 231.37 206.77Q232.4 206.45 233.59 206.66Q234.79 206.87 235.64 207.52Q236.21 207.97 236.63 208.61Q236.72 208.74 236.79 208.88Q237.63 210.41 237.24 212.61Q236.85 214.81 235.54 215.96Q235.42 216.07 235.29 216.16Q234.68 216.62 233.99 216.84ZM280.8 225.1Q279.77 225.42 278.58 225.21Q277.38 225 276.53 224.34Q275.96 223.9 275.54 223.26Q275.48 223.16 275.42 223.06Q274.53 221.51 274.94 219.22Q275.33 217.01 276.65 215.88Q276.76 215.78 276.88 215.69Q277.47 215.25 278.13 215.03Q279.18 214.69 280.4 214.91Q281.63 215.13 282.49 215.8Q283.04 216.23 283.44 216.84Q283.52 216.97 283.6 217.1Q284.44 218.62 284.05 220.83Q283.65 223.11 282.28 224.27Q282.19 224.34 282.1 224.42Q281.49 224.88 280.8 225.1ZM308.62 230Q307.59 230.33 306.39 230.12Q305.2 229.91 304.35 229.25Q303.77 228.81 303.36 228.16Q303.27 228.03 303.2 227.89Q302.36 226.36 302.75 224.16Q303.14 221.96 304.45 220.81Q304.57 220.71 304.7 220.61Q305.31 220.15 306 219.93Q307.02 219.6 308.22 219.81Q309.41 220.03 310.26 220.68Q310.84 221.12 311.25 221.77Q311.34 221.9 311.42 222.04Q312.25 223.57 311.86 225.77Q311.47 227.97 310.16 229.12Q310.04 229.22 309.92 229.32Q309.3 229.78 308.62 230ZM32.43 181.5Q31.58 182.16 30 181.88L26.88 181.29L27.78 176.21L30.9 176.76Q32.33 177.05 32.95 177.79Q33.02 177.87 33.08 177.96Q33.54 178.66 33.34 179.79Q33.13 180.96 32.43 181.5ZM205.72 213.16Q204.74 213.47 203.6 213.27Q202.29 213.04 201.63 212.31Q201.34 211.97 201.21 211.58Q201.07 211.12 201.16 210.58Q201.28 209.91 201.67 209.5Q202.56 208.56 204.87 208.97L208.14 209.54L207.81 211.42Q207.32 212.28 206.58 212.76Q206.32 212.93 206.04 213.05Q205.88 213.11 205.72 213.16Z" fill="#FFFFFF" fill-opacity="1.000000" fill-rule="evenodd"/>
		<path id="ытсиммаргорп" d="M33.44 172.43Q37.71 173.22 39.53 175.49Q41.37 177.74 40.75 181.22Q40.11 184.85 37.25 186.45Q34.39 188.05 29.84 187.21L18.4 185.19L22.24 163.53L29.79 164.86L28.6 171.58L33.44 172.43ZM45.06 167.56L52.62 168.89L48.78 190.55L41.23 189.22L45.06 167.56ZM30 181.88Q32.87 182.39 33.34 179.79Q33.56 178.51 32.95 177.79Q32.33 177.05 30.9 176.76L27.78 176.21L26.88 181.29L30 181.88ZM76.05 179.24L69.1 178.01L66.33 193.64L58.77 192.31L61.54 176.68L54.55 175.45L55.61 169.42L77.12 173.21L76.05 179.24ZM86.2 197.52Q82.61 196.89 80.03 194.95Q77.44 193.01 76.32 190.17Q75.2 187.34 75.77 184.1Q76.35 180.86 78.37 178.6Q80.4 176.34 83.49 175.43Q86.58 174.51 90.17 175.14Q93.85 175.79 96.24 177.84Q98.65 179.89 99.27 182.88L92.87 184.85Q91.9 181.67 89.06 181.17Q87.02 180.81 85.44 181.93Q83.87 183.05 83.44 185.45Q83.01 187.89 84.1 189.5Q85.2 191.11 87.24 191.47Q90.08 191.98 92.08 189.32L97.42 193.36Q95.8 195.95 92.84 197.06Q89.88 198.17 86.2 197.52ZM103.42 177.85L110.97 179.18L108.96 190.53L120.05 180.78L127.04 182.01L123.21 203.67L115.61 202.33L117.63 190.95L106.62 200.75L99.58 199.51L103.42 177.85ZM149.35 208.28L151.36 196.9L144.13 205.38L140.9 204.81L137.21 194.23L135.16 205.78L128.32 204.57L132.16 182.91L140.15 184.32L144.18 196.7L152.82 186.56L159.98 187.82L156.18 209.49L149.35 208.28ZM182.32 214.1L184.34 202.71L177.1 211.19L173.87 210.62L170.18 200.04L168.13 211.59L161.29 210.39L165.13 188.73L173.12 190.14L177.16 202.51L185.8 192.37L192.95 193.63L189.15 215.3L182.32 214.1ZM207 195.74Q212.4 196.69 214.8 199.65Q217.21 202.61 216.31 207.68L214.18 219.71L207.1 218.47L207.6 215.67Q205.4 218.54 200.64 217.7Q198.12 217.25 196.43 216.05Q194.75 214.85 194.08 213.18Q193.41 211.51 193.75 209.6Q194.29 206.52 196.95 205.24Q199.61 203.95 204.53 204.82L208.84 205.58Q209.25 202.11 204.85 201.34Q203.3 201.06 201.61 201.28Q199.92 201.49 198.64 202.18L197 196.57Q199.01 195.69 201.7 195.49Q204.41 195.28 207 195.74ZM203.6 213.27Q204.93 213.51 206.04 213.05Q207.15 212.58 207.81 211.42L208.14 209.54L204.87 208.97Q201.55 208.38 201.16 210.58Q200.99 211.57 201.63 212.31Q202.29 213.04 203.6 213.27ZM236.26 200.9Q239.22 201.42 241.39 203.23Q243.56 205.03 244.53 207.82Q245.5 210.61 244.91 213.96Q244.31 217.32 242.44 219.61Q240.58 221.89 237.91 222.85Q235.26 223.8 232.3 223.28Q228.49 222.61 226.66 219.93L224.95 229.61L217.36 228.27L222.57 198.86L229.8 200.13L229.42 202.29Q231.98 200.14 236.26 200.9ZM231.77 216.96Q233.77 217.31 235.29 216.16Q236.81 215.01 237.24 212.61Q237.66 210.21 236.63 208.61Q235.59 207.01 233.59 206.66Q231.59 206.3 230.07 207.45Q228.55 208.6 228.12 211Q227.7 213.4 228.73 215.01Q229.77 216.61 231.77 216.96ZM267.55 213.01L256.95 211.14L254.18 226.77L246.63 225.44L250.47 203.78L268.62 206.98L267.55 213.01ZM277.51 231.25Q274.03 230.64 271.49 228.71Q268.94 226.77 267.81 223.94Q266.69 221.11 267.27 217.87Q267.84 214.67 269.86 212.39Q271.89 210.11 274.92 209.18Q277.96 208.25 281.47 208.87Q284.98 209.49 287.53 211.41Q290.08 213.32 291.18 216.13Q292.3 218.94 291.72 222.18Q291.15 225.42 289.14 227.7Q287.13 229.98 284.07 230.93Q281.02 231.87 277.51 231.25ZM278.58 225.21Q280.58 225.57 282.1 224.42Q283.62 223.26 284.05 220.83Q284.48 218.43 283.44 216.84Q282.4 215.26 280.4 214.91Q278.4 214.56 276.88 215.69Q275.36 216.82 274.94 219.22Q274.51 221.66 275.54 223.26Q276.58 224.86 278.58 225.21ZM310.89 214.06Q313.84 214.58 316.01 216.39Q318.19 218.19 319.15 220.98Q320.13 223.77 319.53 227.12Q318.94 230.48 317.06 232.76Q315.2 235.05 312.53 236.01Q309.88 236.96 306.92 236.44Q303.12 235.77 301.29 233.09L299.57 242.77L291.98 241.43L297.19 212.01L304.42 213.29L304.04 215.45Q306.6 213.3 310.89 214.06ZM306.39 230.12Q308.39 230.47 309.92 229.32Q311.44 228.17 311.86 225.77Q312.29 223.37 311.25 221.77Q310.22 220.17 308.22 219.81Q306.22 219.46 304.7 220.61Q303.17 221.76 302.75 224.16Q302.32 226.56 303.36 228.16Q304.39 229.76 306.39 230.12ZM347.48 220.88L343.64 242.54L336.09 241.21L338.86 225.58L331.58 224.3L328.81 239.93L321.25 238.59L325.09 216.93L347.48 220.88Z" stroke="#202027" stroke-opacity="1.000000" stroke-width="0.634167"/>
		<rect id="Frame 2043683072" rx="18.775000" width="381.160004" height="80.013336" transform="translate(2.471680 129.568237) rotate(10.000001)" stroke="#202027" stroke-opacity="1.000000" stroke-width="0.500000"/>
		<rect id="Frame 2043683094" rx="18.775000" width="122.160004" height="80.013336" transform="translate(385.889648 197.175049) rotate(10.000001)" fill="#B0AEFF" fill-opacity="1.000000"/>
		<path id="топ" d="M428.16 256.53Q430.59 258.25 433.83 258.82Q437.25 259.42 440.24 258.54Q440.32 258.52 440.39 258.49Q442.46 257.85 444.05 256.6Q444.8 256 445.45 255.26Q445.93 254.72 446.33 254.12Q447.6 252.21 448.04 249.74Q448.49 247.23 447.92 244.97Q447.75 244.32 447.5 243.69Q447.15 242.78 446.64 241.97Q445.58 240.26 443.85 238.97Q443.82 238.94 443.78 238.92Q441.26 237.04 437.79 236.43Q434.28 235.81 431.24 236.75Q429.34 237.33 427.83 238.44Q426.94 239.1 426.18 239.95Q425.6 240.6 425.14 241.32Q423.99 243.14 423.59 245.43Q423.16 247.87 423.68 250.08Q423.86 250.81 424.13 251.5Q424.51 252.45 425.05 253.31Q426.12 254.99 427.81 256.28Q427.98 256.41 428.16 256.53ZM416.91 239.34L423.87 240.57L424.94 234.54L403.43 230.75L402.36 236.78L409.36 238.01L406.59 253.64L414.14 254.97L416.91 239.34ZM472.06 265.19L475.9 243.52L453.51 239.58L449.67 261.24L457.23 262.57L460 246.94L467.28 248.22L464.51 263.85L472.06 265.19ZM437.12 252.66Q436.09 252.99 434.9 252.78Q433.7 252.57 432.85 251.91Q432.28 251.47 431.86 250.82Q431.8 250.72 431.74 250.62Q430.85 249.07 431.26 246.78Q431.65 244.57 432.97 243.44Q433.08 243.34 433.2 243.25Q433.79 242.81 434.45 242.6Q435.5 242.26 436.72 242.47Q437.94 242.69 438.81 243.36Q439.36 243.79 439.76 244.41Q439.84 244.53 439.92 244.67Q440.76 246.18 440.37 248.39Q439.97 250.68 438.6 251.83Q438.51 251.91 438.42 251.98Q437.81 252.44 437.12 252.66Z" fill="#FFFFFF" fill-opacity="1.000000" fill-rule="evenodd"/>
		<path id="топ" d="M423.87 240.57L416.91 239.34L414.14 254.97L406.59 253.64L409.36 238.01L402.36 236.78L403.43 230.75L424.94 234.54L423.87 240.57ZM433.83 258.82Q430.35 258.2 427.81 256.28Q425.26 254.34 424.13 251.5Q423.01 248.67 423.59 245.43Q424.15 242.23 426.18 239.95Q428.21 237.67 431.24 236.75Q434.28 235.81 437.79 236.43Q441.3 237.05 443.85 238.97Q446.4 240.88 447.5 243.69Q448.62 246.5 448.04 249.74Q447.47 252.98 445.45 255.26Q443.45 257.54 440.39 258.49Q437.34 259.44 433.83 258.82ZM434.9 252.78Q436.9 253.13 438.42 251.98Q439.94 250.83 440.37 248.39Q440.8 245.99 439.76 244.41Q438.72 242.83 436.72 242.47Q434.72 242.12 433.2 243.25Q431.68 244.38 431.26 246.78Q430.83 249.22 431.86 250.82Q432.9 252.42 434.9 252.78ZM475.9 243.52L472.06 265.19L464.51 263.85L467.28 248.22L460 246.94L457.23 262.57L449.67 261.24L453.51 239.58L475.9 243.52Z" stroke="#202027" stroke-opacity="1.000000" stroke-width="0.634167"/>
		<rect id="Frame 2043683094" rx="18.775000" width="122.160004" height="80.013336" transform="translate(385.889648 197.175049) rotate(10.000001)" stroke="#202027" stroke-opacity="1.000000" stroke-width="0.500000"/>
		<rect id="Frame 2043683096" rx="18.775000" width="130.160004" height="80.013336" transform="translate(-92.900391 202.046875) rotate(10.000001)" fill="#B0AEFF" fill-opacity="1.000000"/>
		<path id="гим" d="M-66.46 243.41L-55.86 245.28L-54.79 239.25L-72.94 236.05L-76.78 257.71L-69.23 259.04L-66.46 243.41ZM-44.28 241.1L-51.84 239.77L-55.67 261.43L-48.64 262.67L-37.62 252.87L-39.64 264.25L-32.05 265.59L-28.21 243.93L-35.21 242.7L-46.29 252.45L-44.28 241.1ZM-3.89 258.82L-5.91 270.2L0.92 271.41L4.72 249.74L-2.43 248.48L-11.07 258.62L-15.11 246.24L-23.1 244.83L-26.94 266.49L-20.1 267.7L-18.05 256.15L-14.36 266.73L-11.13 267.3L-3.89 258.82Z" fill="#FFFFFF" fill-opacity="1.000000" fill-rule="evenodd"/>
		<path id="гим" d="M-55.86 245.28L-66.46 243.41L-69.23 259.04L-76.78 257.71L-72.94 236.05L-54.79 239.25L-55.86 245.28ZM-51.84 239.77L-44.28 241.1L-46.29 252.45L-35.21 242.7L-28.21 243.93L-32.05 265.59L-39.64 264.25L-37.62 252.87L-48.64 262.67L-55.67 261.43L-51.84 239.77ZM-5.91 270.2L-3.89 258.82L-11.13 267.3L-14.36 266.73L-18.05 256.15L-20.1 267.7L-26.94 266.49L-23.1 244.83L-15.11 246.24L-11.07 258.62L-2.43 248.48L4.72 249.74L0.92 271.41L-5.91 270.2Z" stroke="#202027" stroke-opacity="1.000000" stroke-width="0.634167"/>
		<rect id="Frame 2043683096" rx="18.775000" width="130.160004" height="80.013336" transform="translate(-92.900391 202.046875) rotate(10.000001)" stroke="#202027" stroke-opacity="1.000000" stroke-width="0.500000"/>
		<rect id="Frame 2043683093" rx="18.775000" width="213.160004" height="80.013336" transform="translate(43.330078 226.068115) rotate(10.000001)" fill="#B0AEFF" fill-opacity="1.000000"/>
		<path id="анидор" d="M80.01 265.18Q77.6 262.22 72.21 261.27Q72.06 261.24 71.91 261.22Q69.45 260.82 66.91 261.01Q64.21 261.22 62.21 262.1L63.85 267.71Q65.13 267.02 66.82 266.81Q68.5 266.59 70.06 266.86Q72.82 267.35 73.68 268.9Q74.2 269.82 74.04 271.11L69.73 270.35Q64.81 269.48 62.15 270.76Q61.02 271.31 60.27 272.18Q59.27 273.36 58.95 275.13Q58.7 276.56 59.01 277.86Q59.12 278.29 59.28 278.71Q59.34 278.84 59.4 278.98Q60.09 280.47 61.63 281.58Q63.32 282.78 65.84 283.23Q69.43 283.86 71.56 282.39Q72.26 281.9 72.8 281.19L72.31 283.99L79.38 285.24L81.51 273.21Q82.31 268.69 80.49 265.85Q80.27 265.5 80.01 265.18ZM174.58 301.11Q177.01 302.83 180.24 303.4Q183.67 304 186.66 303.12Q186.74 303.1 186.81 303.08Q188.88 302.43 190.46 301.18Q191.22 300.58 191.87 299.84Q192.35 299.3 192.75 298.7Q194.02 296.79 194.46 294.32Q194.9 291.81 194.33 289.55Q194.17 288.9 193.92 288.27Q193.57 287.37 193.06 286.55Q192 284.85 190.27 283.55Q190.23 283.53 190.2 283.5Q187.67 281.63 184.21 281.01Q180.69 280.4 177.66 281.33Q175.76 281.91 174.25 283.02Q173.35 283.68 172.6 284.53Q172.02 285.18 171.56 285.91Q170.41 287.72 170 290.01Q169.57 292.45 170.1 294.67Q170.27 295.39 170.55 296.08Q170.93 297.04 171.47 297.89Q172.53 299.57 174.22 300.86Q174.4 300.99 174.58 301.11ZM217.51 287.65Q215.78 286.58 213.62 286.2Q210.02 285.57 207.63 286.98Q207.18 287.25 206.78 287.59L207.16 285.43L199.93 284.16L194.72 313.58L202.31 314.92L204.02 305.24Q204.43 305.83 204.93 306.32Q206.7 308.06 209.66 308.58Q211.84 308.97 213.85 308.55Q214.57 308.41 215.27 308.16Q216.23 307.81 217.08 307.3Q218.6 306.38 219.8 304.91Q221.67 302.62 222.27 299.27Q222.86 295.91 221.89 293.12Q221.26 291.32 220.13 289.93Q219.52 289.17 218.75 288.53Q218.16 288.04 217.51 287.65ZM95.32 265.71L87.77 264.38L83.93 286.04L91.49 287.38L92.83 279.78L100.63 281.16L99.28 288.75L106.88 290.09L110.71 268.43L103.12 267.09L101.7 275.12L93.9 273.74L95.32 265.71ZM123.38 270.66L115.83 269.33L111.99 290.99L119.03 292.23L130.04 282.43L128.03 293.82L135.62 295.16L139.46 273.5L132.46 272.26L121.37 282.01L123.38 270.66ZM165.56 305.06L167.43 294.5L164.43 293.97L167.19 278.39L147.17 274.85L145.55 282.36Q144.72 286.13 143.58 288.09Q142.91 289.26 141.94 289.63Q141.28 289.87 140.49 289.75L139.69 289.61L137.82 300.16L144.9 301.41L145.69 296.93L159.32 299.34L158.53 303.81L165.56 305.06ZM183.53 297.24Q182.51 297.57 181.31 297.36Q180.12 297.15 179.26 296.49Q178.69 296.05 178.28 295.4Q178.21 295.31 178.16 295.2Q177.27 293.65 177.67 291.36Q178.07 289.16 179.38 288.02Q179.5 287.92 179.62 287.83Q180.21 287.39 180.87 287.18Q181.91 286.84 183.14 287.05Q184.36 287.27 185.22 287.95Q185.77 288.37 186.18 288.99Q186.26 289.12 186.33 289.25Q187.18 290.76 186.79 292.97Q186.38 295.26 185.02 296.41Q184.93 296.49 184.84 296.56Q184.22 297.02 183.53 297.24ZM211.35 302.15Q210.33 302.47 209.13 302.26Q207.93 302.05 207.08 301.39Q206.51 300.95 206.09 300.31Q206.01 300.18 205.93 300.04Q205.09 298.51 205.48 296.31Q205.87 294.11 207.18 292.96Q207.3 292.85 207.43 292.76Q208.04 292.29 208.73 292.07Q209.76 291.75 210.95 291.96Q212.15 292.17 213 292.83Q213.57 293.27 213.99 293.91Q214.08 294.05 214.15 294.19Q214.99 295.72 214.6 297.91Q214.21 300.11 212.9 301.26Q212.78 301.37 212.65 301.47Q212.04 301.93 211.35 302.15ZM151.02 288.73Q151.65 287.02 152.29 284.12L152.73 282.06L158.53 283.08L156.84 292.63L149.32 291.3Q150.38 290.43 151.02 288.73ZM70.93 278.69Q69.95 279 68.81 278.8Q67.49 278.57 66.83 277.84Q66.54 277.5 66.42 277.11Q66.27 276.64 66.37 276.1Q66.49 275.44 66.88 275.02Q67.77 274.09 70.07 274.49L73.34 275.07L73.01 276.94Q72.52 277.81 71.78 278.29Q71.53 278.45 71.24 278.57Q71.09 278.64 70.93 278.69Z" fill="#FFFFFF" fill-opacity="1.000000" fill-rule="evenodd"/>
		<path id="анидор" d="M72.21 261.27Q77.6 262.22 80.01 265.18Q82.41 268.14 81.51 273.21L79.38 285.24L72.31 283.99L72.8 281.19Q70.6 284.07 65.84 283.23Q63.32 282.78 61.63 281.58Q59.95 280.38 59.28 278.71Q58.61 277.04 58.95 275.13Q59.5 272.04 62.15 270.76Q64.81 269.48 69.73 270.35L74.04 271.11Q74.46 267.64 70.06 266.86Q68.5 266.59 66.82 266.81Q65.13 267.02 63.85 267.71L62.21 262.1Q64.21 261.22 66.91 261.01Q69.61 260.81 72.21 261.27ZM68.81 278.8Q70.13 279.03 71.24 278.57Q72.35 278.1 73.01 276.94L73.34 275.07L70.07 274.49Q66.76 273.91 66.37 276.1Q66.19 277.1 66.83 277.84Q67.49 278.57 68.81 278.8ZM87.77 264.38L95.32 265.71L93.9 273.74L101.7 275.12L103.12 267.09L110.71 268.43L106.88 290.09L99.28 288.75L100.63 281.16L92.83 279.78L91.49 287.38L83.93 286.04L87.77 264.38ZM115.83 269.33L123.38 270.66L121.37 282.01L132.46 272.26L139.46 273.5L135.62 295.16L128.03 293.82L130.04 282.43L119.03 292.23L111.99 290.99L115.83 269.33ZM167.43 294.5L165.56 305.06L158.53 303.81L159.32 299.34L145.69 296.93L144.9 301.41L137.82 300.16L139.69 289.61L140.49 289.75Q142.46 290.05 143.58 288.09Q144.72 286.13 145.55 282.36L147.17 274.85L167.19 278.39L164.43 293.97L167.43 294.5ZM152.29 284.12Q151.65 287.02 151.02 288.73Q150.38 290.43 149.32 291.3L156.84 292.63L158.53 283.08L152.73 282.06L152.29 284.12ZM180.24 303.4Q176.77 302.79 174.22 300.86Q171.68 298.92 170.55 296.08Q169.43 293.25 170 290.01Q170.57 286.81 172.6 284.53Q174.63 282.25 177.66 281.33Q180.69 280.4 184.21 281.01Q187.72 281.63 190.27 283.55Q192.82 285.46 193.92 288.27Q195.03 291.08 194.46 294.32Q193.89 297.56 191.87 299.84Q189.87 302.13 186.81 303.08Q183.76 304.02 180.24 303.4ZM181.31 297.36Q183.31 297.71 184.84 296.56Q186.36 295.41 186.79 292.97Q187.21 290.57 186.18 288.99Q185.14 287.41 183.14 287.05Q181.14 286.7 179.62 287.83Q178.1 288.96 177.67 291.36Q177.24 293.8 178.28 295.4Q179.31 297.01 181.31 297.36ZM213.62 286.2Q216.58 286.72 218.75 288.53Q220.92 290.34 221.89 293.12Q222.86 295.91 222.27 299.27Q221.67 302.62 219.8 304.91Q217.94 307.2 215.27 308.16Q212.62 309.1 209.66 308.58Q205.85 307.91 204.02 305.24L202.31 314.92L194.72 313.58L199.93 284.16L207.16 285.43L206.78 287.59Q209.34 285.45 213.62 286.2ZM209.13 302.26Q211.13 302.62 212.65 301.47Q214.17 300.31 214.6 297.91Q215.02 295.51 213.99 293.91Q212.95 292.31 210.95 291.96Q208.95 291.61 207.43 292.76Q205.91 293.91 205.48 296.31Q205.06 298.71 206.09 300.31Q207.13 301.91 209.13 302.26Z" stroke="#202027" stroke-opacity="1.000000" stroke-width="0.634167"/>
		<rect id="Frame 2043683093" rx="18.775000" width="213.160004" height="80.013336" transform="translate(43.330078 226.068115) rotate(10.000001)" stroke="#202027" stroke-opacity="1.000000" stroke-width="0.500000"/>
		<rect id="Frame 2043683095" rx="18.775000" width="130.160004" height="80.013336" transform="translate(261.299805 264.502075) rotate(10.000001)" fill="#B0AEFF" fill-opacity="1.000000"/>
		<path id="гим" d="M287.74 305.86L298.34 307.73L299.41 301.7L281.26 298.5L277.42 320.16L284.98 321.49L287.74 305.86ZM309.92 303.55L302.36 302.22L298.53 323.88L305.56 325.12L316.58 315.32L314.56 326.71L322.15 328.05L325.99 306.39L318.99 305.15L307.91 314.9L309.92 303.55ZM350.31 321.27L348.3 332.66L355.13 333.86L358.92 312.19L351.77 310.93L343.13 321.07L339.09 308.7L331.1 307.29L327.26 328.95L334.11 330.16L336.15 318.6L339.84 329.19L343.07 329.75L350.31 321.27Z" fill="#FFFFFF" fill-opacity="1.000000" fill-rule="evenodd"/>
		<path id="гим" d="M298.34 307.73L287.74 305.86L284.98 321.49L277.42 320.16L281.26 298.5L299.41 301.7L298.34 307.73ZM302.36 302.22L309.92 303.55L307.91 314.9L318.99 305.15L325.99 306.39L322.15 328.05L314.56 326.71L316.58 315.32L305.56 325.12L298.53 323.88L302.36 302.22ZM348.3 332.66L350.31 321.27L343.07 329.75L339.84 329.19L336.15 318.6L334.11 330.16L327.26 328.95L331.1 307.29L339.09 308.7L343.13 321.07L351.77 310.93L358.92 312.19L355.13 333.86L348.3 332.66Z" stroke="#202027" stroke-opacity="1.000000" stroke-width="0.634167"/>
		<rect id="Frame 2043683095" rx="18.775000" width="130.160004" height="80.013336" transform="translate(261.299805 264.502075) rotate(10.000001)" stroke="#202027" stroke-opacity="1.000000" stroke-width="0.500000"/>
	</g>
</svg>
