<svg width="600.000000" height="500.000000" viewBox="0 0 600 500" fill="none" xmlns="http://www.w3.org/2000/svg" xmlns:xlink="http://www.w3.org/1999/xlink">
	<desc>
			Created with Pixso.
	</desc>
	<defs>
		<filter id="filter_13_1812_dd" x="83.439453" y="64.859894" width="431.925781" height="431.452057" filterUnits="userSpaceOnUse" color-interpolation-filters="sRGB">
			<feFlood flood-opacity="0" result="BackgroundImageFix"/>
			<feColorMatrix in="SourceAlpha" type="matrix" values="0 0 0 0 0 0 0 0 0 0 0 0 0 0 0 0 0 0 127 0" result="hardAlpha"/>
			<feMorphology radius="-17.9032" in="" result="BackgroundImageFix"/>
			<feOffset dx="0" dy="29.8387"/>
			<feGaussianBlur stdDeviation="33.3199"/>
			<feComposite in2="hardAlpha" operator="out" k2="-1" k3="1"/>
			<feColorMatrix type="matrix" values="0 0 0 0 0 0 0 0 0 0 0 0 0 0 0 0 0 0 0.3 0"/>
			<feBlend mode="normal" in2="BackgroundImageFix" result="effect_dropShadow_1"/>
			<feBlend mode="normal" in="SourceGraphic" in2="effect_dropShadow_1" result="shape"/>
		</filter>
		<clipPath id="clip13_1496">
			<rect id="Обложка карточки" rx="29.500000" width="599.000000" height="499.000000" transform="translate(0.500000 0.500000)" fill="white" fill-opacity="0"/>
		</clipPath>
	</defs>
	<rect id="Обложка карточки" rx="29.500000" width="599.000000" height="499.000000" transform="translate(0.500000 0.500000)" fill="#AD61FF" fill-opacity="1.000000"/>
	<g clip-path="url(#clip13_1496)">
		<rect id="Frame 2043683072" rx="29.500000" width="159.000000" height="158.999985" transform="translate(-44.377930 -240.478516) rotate(10.000000)" fill="#D9B6FF" fill-opacity="1.000000"/>
		<path id="44" d="M10.51 -135.34L17.06 -134.18L18.81 -144.08L12.26 -145.23L13.58 -152.72L1.8 -154.8L0.47 -147.31L-8.48 -148.89L14.04 -171.49L1.13 -173.77L-23.54 -149.72L-24.98 -141.59L-1.67 -137.48L-3.16 -129.04L9.01 -126.89L10.51 -135.34ZM54.62 -127.56L61.18 -126.4L62.93 -136.3L56.38 -137.45L57.7 -144.94L45.92 -147.02L44.59 -139.53L35.63 -141.11L58.16 -163.71L45.25 -165.99L20.58 -141.94L19.14 -133.82L42.45 -129.7L40.96 -121.26L53.13 -119.11L54.62 -127.56Z" fill="#FFFFFF" fill-opacity="1.000000" fill-rule="evenodd"/>
		<path id="44" d="M17.06 -134.18L10.51 -135.34L9.01 -126.89L-3.16 -129.04L-1.67 -137.48L-24.98 -141.59L-23.54 -149.72L1.13 -173.77L14.04 -171.49L-8.48 -148.89L0.47 -147.31L1.8 -154.8L13.58 -152.72L12.26 -145.23L18.81 -144.08L17.06 -134.18ZM61.18 -126.4L54.62 -127.56L53.13 -119.11L40.96 -121.26L42.45 -129.7L19.14 -133.82L20.58 -141.94L45.25 -165.99L58.16 -163.71L35.63 -141.11L44.59 -139.53L45.92 -147.02L57.7 -144.94L56.38 -137.45L62.93 -136.3L61.18 -126.4Z" stroke="#202027" stroke-opacity="1.000000" stroke-width="1.000000"/>
		<rect id="Frame 2043683072" rx="29.500000" width="159.000000" height="158.999985" transform="translate(-44.377930 -240.478516) rotate(10.000000)" stroke="#202027" stroke-opacity="1.000000" stroke-width="1.000000"/>
		<rect id="Frame 2043683060" rx="29.500000" width="159.000000" height="158.999985" transform="translate(125.130859 -210.589600) rotate(10.000000)" fill="#D9B6FF" fill-opacity="1.000000"/>
		<path id="6" d="M200.83 -120.85Q198.1 -122.54 194.69 -123.14Q189.12 -124.12 185.03 -122.11Q184.57 -121.88 184.13 -121.62Q185.32 -125.98 188.17 -128.15Q188.51 -128.41 188.88 -128.64Q189.42 -128.97 189.99 -129.23Q193.07 -130.63 197.11 -129.92Q202.03 -129.05 204.85 -126.22L210.97 -134.37Q208.85 -136.36 205.59 -137.78Q202.34 -139.21 198.55 -139.88Q191.55 -141.11 185.76 -139.2Q183.43 -138.44 181.4 -137.18Q178.39 -135.31 176.05 -132.36Q172.17 -127.43 170.83 -119.87Q169.05 -109.82 173.06 -103.37Q173.25 -103.06 173.45 -102.77Q174.37 -101.42 175.5 -100.28Q179.89 -95.86 187.4 -94.53Q192.26 -93.68 196.53 -94.83Q199.47 -95.63 201.76 -97.32Q202.79 -98.08 203.69 -99.02Q204.51 -99.86 205.15 -100.82Q206.83 -103.3 207.41 -106.54Q207.94 -109.57 207.27 -112.3Q207.03 -113.26 206.65 -114.18Q206.04 -115.64 205.14 -116.9Q203.86 -118.69 201.99 -120.06Q201.43 -120.48 200.83 -120.85ZM192.01 -103.88Q190.34 -103.17 188.22 -103.54Q185.71 -103.98 184.33 -105.47Q184.14 -105.66 183.98 -105.88Q183.46 -106.57 183.19 -107.36Q182.76 -108.65 183.03 -110.19Q183.31 -111.79 184.22 -112.87Q184.73 -113.49 185.44 -113.93Q185.85 -114.19 186.29 -114.38Q187.98 -115.09 190.13 -114.71Q192.41 -114.31 193.76 -112.97Q194.01 -112.72 194.23 -112.43Q194.7 -111.83 194.97 -111.15Q195.49 -109.79 195.2 -108.1Q194.88 -106.3 193.84 -105.16Q193.38 -104.66 192.79 -104.29Q192.41 -104.05 192.01 -103.88Z" fill="#FFFFFF" fill-opacity="1.000000" fill-rule="evenodd"/>
		<path id="6" d="M194.69 -123.14Q198.84 -122.41 201.99 -120.06Q205.17 -117.72 206.65 -114.18Q208.13 -110.63 207.41 -106.54Q206.61 -102.06 203.69 -99.02Q200.79 -95.99 196.53 -94.83Q192.26 -93.68 187.4 -94.53Q177.95 -96.2 173.45 -102.77Q168.96 -109.35 170.83 -119.87Q172.17 -127.43 176.05 -132.36Q179.96 -137.3 185.76 -139.2Q191.55 -141.11 198.55 -139.88Q202.34 -139.21 205.59 -137.78Q208.85 -136.36 210.97 -134.37L204.85 -126.22Q202.03 -129.05 197.11 -129.92Q192.32 -130.76 188.88 -128.64Q185.46 -126.51 184.13 -121.62Q188.5 -124.23 194.69 -123.14ZM188.22 -103.54Q190.86 -103.08 192.79 -104.29Q194.74 -105.52 195.2 -108.1Q195.64 -110.63 194.23 -112.43Q192.84 -114.23 190.13 -114.71Q187.42 -115.19 185.44 -113.93Q183.47 -112.69 183.03 -110.19Q182.59 -107.72 183.98 -105.88Q185.38 -104.04 188.22 -103.54Z" stroke="#202027" stroke-opacity="1.000000" stroke-width="1.000000"/>
		<rect id="Frame 2043683060" rx="29.500000" width="159.000000" height="158.999985" transform="translate(125.130859 -210.589600) rotate(10.000000)" stroke="#202027" stroke-opacity="1.000000" stroke-width="1.000000"/>
		<rect id="Frame 2043683061" rx="29.500000" width="159.000000" height="158.999985" transform="translate(294.639648 -180.700439) rotate(10.000000)" fill="#D9B6FF" fill-opacity="1.000000"/>
		<path id="11" d="M350.48 -66.68L358.29 -110.79L337.63 -114.44L335.92 -104.8L344.11 -103.36L338 -68.88L350.48 -66.68ZM376.01 -62.18L383.82 -106.29L363.15 -109.93L361.45 -100.3L369.63 -98.86L363.53 -64.38L376.01 -62.18Z" fill="#FFFFFF" fill-opacity="1.000000" fill-rule="evenodd"/>
		<path id="11" d="M358.29 -110.79L350.48 -66.68L338 -68.88L344.11 -103.36L335.92 -104.8L337.63 -114.44L358.29 -110.79ZM383.82 -106.29L376.01 -62.18L363.53 -64.38L369.63 -98.86L361.45 -100.3L363.15 -109.93L383.82 -106.29Z" stroke="#202027" stroke-opacity="1.000000" stroke-width="1.000000"/>
		<rect id="Frame 2043683061" rx="29.500000" width="159.000000" height="158.999985" transform="translate(294.639648 -180.700439) rotate(10.000000)" stroke="#202027" stroke-opacity="1.000000" stroke-width="1.000000"/>
		<rect id="Frame 2043683123" rx="29.500000" width="159.000000" height="158.999985" transform="translate(464.148438 -150.811523) rotate(10.000000)" fill="#D9B6FF" fill-opacity="1.000000"/>
		<path id="48" d="M567.67 -47.88Q566.49 -50.76 563.79 -53.04Q565.89 -54.02 567.37 -55.59Q567.68 -55.92 567.96 -56.27Q568.33 -56.74 568.64 -57.23Q569.71 -58.95 570.09 -61.1Q570.51 -63.47 570.02 -65.64Q569.72 -66.99 569.07 -68.26Q569.05 -68.3 569.03 -68.35Q567.34 -71.62 563.67 -73.86Q559.95 -76.15 554.78 -77.07Q549.61 -77.98 545.33 -77.1Q541.11 -76.25 538.39 -73.76Q538.35 -73.72 538.31 -73.69Q537.29 -72.73 536.55 -71.59Q535.34 -69.7 534.91 -67.31Q534.53 -65.16 534.94 -63.17Q535.06 -62.6 535.25 -62.04Q535.39 -61.61 535.57 -61.2Q536.42 -59.22 538.06 -57.58Q534.73 -56.36 532.63 -54.06Q532.17 -53.56 531.78 -53Q530.41 -51.03 529.95 -48.43Q529.48 -45.8 530.04 -43.41Q530.36 -42 531.04 -40.68Q532.88 -37.12 536.92 -34.65Q540.97 -32.19 546.65 -31.19Q552.33 -30.19 556.97 -31.11Q561.63 -32.05 564.57 -34.77Q565.68 -35.8 566.48 -37.03Q567.8 -39.07 568.26 -41.67Q568.72 -44.23 568.12 -46.52Q567.94 -47.22 567.67 -47.88ZM519.69 -45.55L526.25 -44.4L528 -54.29L521.45 -55.45L522.77 -62.94L510.99 -65.02L509.66 -57.53L500.7 -59.11L523.23 -81.71L510.32 -83.99L485.65 -59.94L484.21 -51.81L507.52 -47.7L506.03 -39.25L518.2 -37.11L519.69 -45.55ZM549.61 -67.94Q551.16 -68.66 553.22 -68.3Q555.49 -67.9 556.71 -66.55Q556.78 -66.47 556.85 -66.39Q557.22 -65.95 557.44 -65.44Q557.97 -64.25 557.69 -62.7Q557.44 -61.28 556.62 -60.37Q556.21 -59.91 555.65 -59.59Q555.56 -59.53 555.46 -59.48Q553.85 -58.63 551.58 -59.03Q549.3 -59.44 548.11 -60.8Q548.04 -60.87 547.99 -60.94Q547.61 -61.4 547.39 -61.93Q546.91 -63.09 547.17 -64.56Q547.44 -66.11 548.35 -67.05Q548.73 -67.44 549.22 -67.73Q549.41 -67.84 549.61 -67.94ZM553.28 -40.57Q551.23 -39.41 548.2 -39.94Q545.17 -40.48 543.63 -42.27Q543.03 -42.99 542.74 -43.81Q542.29 -45.07 542.56 -46.59Q542.83 -48.14 543.71 -49.18Q544.26 -49.83 545.05 -50.27Q545.06 -50.27 545.06 -50.28Q547.12 -51.44 550.15 -50.91Q553.17 -50.38 554.69 -48.57L554.7 -48.57Q555.3 -47.87 555.6 -47.05Q556.06 -45.79 555.79 -44.25Q555.52 -42.76 554.68 -41.74Q554.11 -41.04 553.28 -40.57Z" fill="#FFFFFF" fill-opacity="1.000000" fill-rule="evenodd"/>
		<path id="48" d="M526.25 -44.4L519.69 -45.55L518.2 -37.11L506.03 -39.25L507.52 -47.7L484.21 -51.81L485.65 -59.94L510.32 -83.99L523.23 -81.71L500.7 -59.11L509.66 -57.53L510.99 -65.02L522.77 -62.94L521.45 -55.45L528 -54.29L526.25 -44.4ZM563.79 -53.04Q566.49 -50.76 567.67 -47.88Q568.86 -45.01 568.26 -41.67Q567.53 -37.5 564.57 -34.77Q561.63 -32.05 556.97 -31.11Q552.33 -30.19 546.65 -31.19Q540.97 -32.19 536.92 -34.65Q532.88 -37.12 531.04 -40.68Q529.21 -44.26 529.95 -48.43Q530.54 -51.77 532.63 -54.06Q534.73 -56.36 538.06 -57.58Q536.08 -59.56 535.25 -62.04Q534.42 -64.54 534.91 -67.31Q535.59 -71.15 538.31 -73.69Q541.05 -76.23 545.33 -77.1Q549.61 -77.98 554.78 -77.07Q559.95 -76.15 563.67 -73.86Q567.39 -71.59 569.07 -68.26Q570.77 -64.95 570.09 -61.1Q569.6 -58.33 567.96 -56.27Q566.33 -54.23 563.79 -53.04ZM553.22 -68.3Q550.9 -68.71 549.22 -67.73Q547.56 -66.76 547.17 -64.56Q546.79 -62.42 547.99 -60.94Q549.18 -59.46 551.58 -59.03Q553.98 -58.61 555.65 -59.59Q557.31 -60.56 557.69 -62.7Q558.08 -64.9 556.85 -66.39Q555.62 -67.87 553.22 -68.3ZM548.2 -39.94Q551.23 -39.41 553.28 -40.57Q555.34 -41.74 555.79 -44.25Q556.24 -46.77 554.7 -48.57Q553.18 -50.38 550.15 -50.91Q547.11 -51.45 545.05 -50.27Q543 -49.11 542.56 -46.59Q542.11 -44.08 543.63 -42.27Q545.17 -40.48 548.2 -39.94Z" stroke="#202027" stroke-opacity="1.000000" stroke-width="1.000000"/>
		<rect id="Frame 2043683123" rx="29.500000" width="159.000000" height="158.999985" transform="translate(464.148438 -150.811523) rotate(10.000000)" stroke="#202027" stroke-opacity="1.000000" stroke-width="1.000000"/>
		<rect id="Frame 2043683063" rx="29.500000" width="159.000000" height="158.999985" transform="translate(633.657227 -120.922607) rotate(10.000000)" fill="#D9B6FF" fill-opacity="1.000000"/>
		<path id="48" d="M737.18 -18Q736 -20.87 733.3 -23.15Q735.4 -24.14 736.88 -25.7Q737.19 -26.03 737.47 -26.38Q737.84 -26.85 738.15 -27.34Q739.22 -29.07 739.6 -31.21Q740.02 -33.58 739.53 -35.75Q739.23 -37.1 738.58 -38.37Q738.56 -38.42 738.54 -38.46Q736.85 -41.73 733.18 -43.98Q729.46 -46.27 724.29 -47.18Q719.12 -48.09 714.83 -47.21Q710.62 -46.36 707.9 -43.87Q707.86 -43.83 707.82 -43.8Q706.8 -42.84 706.06 -41.7Q704.85 -39.82 704.42 -37.42Q704.04 -35.27 704.45 -33.28Q704.57 -32.71 704.76 -32.15Q704.9 -31.73 705.08 -31.31Q705.93 -29.33 707.57 -27.69Q704.24 -26.47 702.14 -24.17Q701.68 -23.67 701.29 -23.11Q699.92 -21.14 699.46 -18.54Q698.99 -15.91 699.55 -13.52Q699.87 -12.12 700.55 -10.79Q702.39 -7.23 706.43 -4.76Q710.48 -2.3 716.16 -1.3Q721.84 -0.3 726.48 -1.22Q731.13 -2.16 734.08 -4.88Q735.19 -5.91 735.99 -7.14Q737.31 -9.18 737.77 -11.78Q738.23 -14.35 737.63 -16.64Q737.45 -17.33 737.18 -18ZM689.2 -15.67L695.76 -14.51L697.51 -24.4L690.96 -25.56L692.28 -33.05L680.5 -35.13L679.17 -27.64L670.21 -29.22L692.74 -51.82L679.83 -54.1L655.16 -30.05L653.72 -21.92L677.03 -17.81L675.54 -9.37L687.71 -7.22L689.2 -15.67ZM719.12 -38.05Q720.67 -38.77 722.73 -38.41Q725 -38.01 726.22 -36.66Q726.29 -36.58 726.36 -36.5Q726.73 -36.06 726.95 -35.55Q727.48 -34.36 727.2 -32.81Q726.95 -31.39 726.13 -30.48Q725.71 -30.02 725.16 -29.7Q725.06 -29.64 724.97 -29.59Q723.36 -28.75 721.09 -29.15Q718.81 -29.55 717.61 -30.91Q717.55 -30.98 717.49 -31.05Q717.12 -31.51 716.9 -32.04Q716.42 -33.2 716.68 -34.67Q716.95 -36.22 717.86 -37.16Q718.24 -37.56 718.73 -37.84Q718.92 -37.95 719.12 -38.05ZM722.79 -10.68Q720.74 -9.52 717.71 -10.05Q714.68 -10.59 713.14 -12.38Q712.54 -13.1 712.24 -13.92Q711.8 -15.18 712.06 -16.7Q712.34 -18.25 713.22 -19.29Q713.77 -19.94 714.56 -20.38Q714.56 -20.39 714.57 -20.39Q716.63 -21.55 719.65 -21.02Q722.68 -20.49 724.2 -18.68L724.21 -18.68Q724.81 -17.98 725.11 -17.17Q725.57 -15.9 725.3 -14.36Q725.03 -12.87 724.19 -11.85Q723.62 -11.15 722.79 -10.68Z" fill="#FFFFFF" fill-opacity="1.000000" fill-rule="evenodd"/>
		<path id="48" d="M695.76 -14.51L689.2 -15.67L687.71 -7.22L675.54 -9.37L677.03 -17.81L653.72 -21.92L655.16 -30.05L679.83 -54.1L692.74 -51.82L670.21 -29.22L679.17 -27.64L680.5 -35.13L692.28 -33.05L690.96 -25.56L697.51 -24.4L695.76 -14.51ZM733.3 -23.15Q736 -20.87 737.18 -18Q738.36 -15.12 737.77 -11.78Q737.03 -7.61 734.08 -4.88Q731.13 -2.16 726.48 -1.22Q721.84 -0.3 716.16 -1.3Q710.48 -2.3 706.43 -4.76Q702.39 -7.23 700.55 -10.79Q698.72 -14.37 699.46 -18.54Q700.05 -21.88 702.14 -24.17Q704.24 -26.47 707.57 -27.69Q705.59 -29.67 704.76 -32.15Q703.93 -34.65 704.42 -37.42Q705.1 -41.26 707.82 -43.8Q710.56 -46.35 714.83 -47.21Q719.12 -48.09 724.29 -47.18Q729.46 -46.27 733.18 -43.98Q736.9 -41.7 738.58 -38.37Q740.28 -35.06 739.6 -31.21Q739.11 -28.44 737.47 -26.38Q735.84 -24.34 733.3 -23.15ZM722.73 -38.41Q720.41 -38.82 718.73 -37.84Q717.07 -36.87 716.68 -34.67Q716.3 -32.53 717.49 -31.05Q718.69 -29.57 721.09 -29.15Q723.49 -28.72 725.16 -29.7Q726.82 -30.67 727.2 -32.81Q727.59 -35.01 726.36 -36.5Q725.13 -37.98 722.73 -38.41ZM717.71 -10.05Q720.74 -9.52 722.79 -10.68Q724.85 -11.85 725.3 -14.36Q725.74 -16.89 724.21 -18.68Q722.69 -20.49 719.65 -21.02Q716.62 -21.56 714.56 -20.38Q712.51 -19.22 712.06 -16.7Q711.62 -14.19 713.14 -12.38Q714.68 -10.59 717.71 -10.05Z" stroke="#202027" stroke-opacity="1.000000" stroke-width="1.000000"/>
		<rect id="Frame 2043683063" rx="29.500000" width="159.000000" height="158.999985" transform="translate(633.657227 -120.922607) rotate(10.000000)" stroke="#202027" stroke-opacity="1.000000" stroke-width="1.000000"/>
		<rect id="Frame 2043683124" rx="29.500000" width="159.000000" height="158.999985" transform="translate(-74.246094 -71.091553) rotate(10.000000)" fill="#D9B6FF" fill-opacity="1.000000"/>
		<path id="44" d="M-19.36 34.05L-12.81 35.2L-11.05 25.31L-17.61 24.16L-16.28 16.66L-28.07 14.58L-29.4 22.08L-38.35 20.5L-15.83 -2.11L-28.74 -4.38L-53.41 19.67L-54.85 27.79L-31.53 31.9L-33.03 40.35L-20.86 42.5L-19.36 34.05ZM24.76 41.83L31.31 42.98L33.07 33.09L26.51 31.94L27.84 24.44L16.05 22.36L14.72 29.86L5.77 28.28L28.29 5.67L15.38 3.4L-9.29 27.45L-10.73 35.57L12.59 39.68L11.09 48.13L23.26 50.27L24.76 41.83Z" fill="#FFFFFF" fill-opacity="1.000000" fill-rule="evenodd"/>
		<path id="44" d="M-12.81 35.2L-19.36 34.05L-20.86 42.5L-33.03 40.35L-31.53 31.9L-54.85 27.79L-53.41 19.67L-28.74 -4.38L-15.83 -2.11L-38.35 20.5L-29.4 22.08L-28.07 14.58L-16.28 16.66L-17.61 24.16L-11.05 25.31L-12.81 35.2ZM31.31 42.98L24.76 41.83L23.26 50.27L11.09 48.13L12.59 39.68L-10.73 35.57L-9.29 27.45L15.38 3.4L28.29 5.67L5.77 28.28L14.72 29.86L16.05 22.36L27.84 24.44L26.51 31.94L33.07 33.09L31.31 42.98Z" stroke="#202027" stroke-opacity="1.000000" stroke-width="1.000000"/>
		<rect id="Frame 2043683124" rx="29.500000" width="159.000000" height="158.999985" transform="translate(-74.246094 -71.091553) rotate(10.000000)" stroke="#202027" stroke-opacity="1.000000" stroke-width="1.000000"/>
		<rect id="Frame 2043683125" rx="29.500000" width="159.000000" height="158.999985" transform="translate(95.263672 -41.202637) rotate(10.000000)" fill="#D9B6FF" fill-opacity="1.000000"/>
		<path id="6" d="M170.97 48.54Q168.23 46.85 164.82 46.25Q159.25 45.27 155.16 47.28Q154.7 47.5 154.27 47.77Q155.45 43.4 158.3 41.24Q158.65 40.98 159.02 40.75Q159.55 40.42 160.13 40.16Q163.2 38.76 167.24 39.47Q172.16 40.34 174.98 43.17L181.11 35.01Q178.98 33.02 175.73 31.61Q172.47 30.18 168.69 29.51Q161.69 28.27 155.89 30.19Q153.56 30.95 151.53 32.21Q148.52 34.07 146.19 37.03Q142.3 41.96 140.96 49.51Q139.18 59.56 143.19 66.02Q143.38 66.32 143.58 66.62Q144.5 67.97 145.64 69.11Q150.02 73.53 157.53 74.85Q162.39 75.71 166.66 74.56Q169.6 73.76 171.89 72.07Q172.92 71.31 173.83 70.37Q174.64 69.52 175.28 68.57Q176.97 66.08 177.54 62.85Q178.08 59.82 177.4 57.08Q177.17 56.13 176.78 55.21Q176.17 53.75 175.27 52.49Q173.99 50.7 172.13 49.33Q171.56 48.91 170.97 48.54ZM162.14 65.51Q160.47 66.22 158.35 65.84Q155.85 65.4 154.46 63.92Q154.28 63.72 154.11 63.51Q153.59 62.81 153.33 62.03Q152.89 60.74 153.16 59.2Q153.45 57.6 154.35 56.51Q154.86 55.9 155.57 55.45Q155.98 55.19 156.42 55.01Q158.11 54.3 160.26 54.68Q162.54 55.08 163.89 56.42Q164.14 56.67 164.37 56.96Q164.84 57.56 165.1 58.24Q165.63 59.6 165.33 61.28Q165.01 63.08 163.97 64.23Q163.51 64.72 162.92 65.1Q162.54 65.33 162.14 65.51Z" fill="#FFFFFF" fill-opacity="1.000000" fill-rule="evenodd"/>
		<path id="6" d="M164.82 46.25Q168.97 46.98 172.13 49.33Q175.3 51.67 176.78 55.21Q178.26 58.76 177.54 62.85Q176.75 67.33 173.83 70.37Q170.93 73.39 166.66 74.56Q162.39 75.71 157.53 74.85Q148.08 73.19 143.58 66.62Q139.1 60.04 140.96 49.51Q142.3 41.96 146.19 37.03Q150.09 32.08 155.89 30.19Q161.69 28.27 168.69 29.51Q172.47 30.18 175.73 31.61Q178.98 33.02 181.11 35.01L174.98 43.17Q172.16 40.34 167.24 39.47Q162.45 38.63 159.02 40.75Q155.59 42.88 154.27 47.77Q158.63 45.16 164.82 46.25ZM158.35 65.84Q160.99 66.31 162.92 65.1Q164.87 63.87 165.33 61.28Q165.78 58.76 164.37 56.96Q162.97 55.16 160.26 54.68Q157.55 54.2 155.57 55.45Q153.61 56.69 153.16 59.2Q152.73 61.66 154.11 63.51Q155.52 65.34 158.35 65.84Z" stroke="#202027" stroke-opacity="1.000000" stroke-width="1.000000"/>
		<rect id="Frame 2043683125" rx="29.500000" width="159.000000" height="158.999985" transform="translate(95.263672 -41.202637) rotate(10.000000)" stroke="#202027" stroke-opacity="1.000000" stroke-width="1.000000"/>
		<rect id="Frame 2043683126" rx="29.500000" width="159.000000" height="158.999985" transform="translate(264.772461 -11.313721) rotate(10.000000)" fill="#D9B6FF" fill-opacity="1.000000"/>
		<path id="11" d="M320.61 102.71L328.43 58.59L307.76 54.95L306.05 64.58L314.24 66.03L308.13 100.51L320.61 102.71ZM346.14 107.21L353.95 63.1L333.29 59.45L331.58 69.08L339.77 70.53L333.66 105.01L346.14 107.21Z" fill="#FFFFFF" fill-opacity="1.000000" fill-rule="evenodd"/>
		<path id="11" d="M328.43 58.59L320.61 102.71L308.13 100.51L314.24 66.03L306.05 64.58L307.76 54.95L328.43 58.59ZM353.95 63.1L346.14 107.21L333.66 105.01L339.77 70.53L331.58 69.08L333.29 59.45L353.95 63.1Z" stroke="#202027" stroke-opacity="1.000000" stroke-width="1.000000"/>
		<rect id="Frame 2043683126" rx="29.500000" width="159.000000" height="158.999985" transform="translate(264.772461 -11.313721) rotate(10.000000)" stroke="#202027" stroke-opacity="1.000000" stroke-width="1.000000"/>
		<rect id="Frame 2043683127" rx="29.500000" width="159.000000" height="158.999985" transform="translate(434.281250 18.575439) rotate(10.000000)" fill="#D9B6FF" fill-opacity="1.000000"/>
		<path id="48" d="M537.8 121.5Q536.63 118.63 533.92 116.34Q536.03 115.36 537.51 113.79Q537.81 113.47 538.09 113.11Q538.46 112.65 538.77 112.15Q539.84 110.43 540.22 108.28Q540.64 105.91 540.16 103.75Q539.86 102.4 539.2 101.12Q539.18 101.08 539.16 101.04Q537.48 97.77 533.8 95.52Q530.08 93.23 524.91 92.32Q519.74 91.41 515.46 92.29Q511.24 93.14 508.52 95.63Q508.48 95.66 508.44 95.7Q507.42 96.65 506.69 97.79Q505.47 99.68 505.04 102.08Q504.66 104.23 505.08 106.21Q505.2 106.79 505.38 107.35Q505.52 107.77 505.7 108.19Q506.55 110.17 508.19 111.81Q504.87 113.03 502.76 115.32Q502.3 115.83 501.91 116.39Q500.54 118.36 500.08 120.96Q499.62 123.59 500.17 125.98Q500.49 127.38 501.17 128.7Q503.01 132.27 507.05 134.74Q511.11 137.2 516.78 138.2Q522.46 139.2 527.1 138.27Q531.76 137.33 534.7 134.62Q535.81 133.59 536.61 132.36Q537.94 130.32 538.4 127.72Q538.85 125.15 538.26 122.86Q538.08 122.17 537.8 121.5ZM489.83 123.83L496.38 124.99L498.13 115.1L491.58 113.94L492.91 106.45L481.12 104.37L479.79 111.86L470.84 110.28L493.36 87.68L480.45 85.4L455.78 109.45L454.34 117.58L477.66 121.69L476.16 130.13L488.33 132.28L489.83 123.83ZM519.74 101.45Q521.3 100.73 523.36 101.09Q525.62 101.49 526.84 102.84Q526.92 102.92 526.99 103Q527.35 103.44 527.57 103.94Q528.1 105.14 527.82 106.69Q527.57 108.11 526.75 109.02Q526.34 109.47 525.78 109.8Q525.69 109.85 525.59 109.91Q523.98 110.75 521.72 110.35Q519.43 109.95 518.24 108.59Q518.18 108.52 518.12 108.45Q517.74 107.99 517.52 107.46Q517.04 106.3 517.3 104.83Q517.57 103.28 518.48 102.34Q518.86 101.94 519.35 101.65Q519.54 101.54 519.74 101.45ZM523.41 128.82Q521.37 129.98 518.33 129.45Q515.3 128.91 513.76 127.12Q513.16 126.4 512.87 125.58Q512.42 124.32 512.69 122.8Q512.96 121.25 513.85 120.21Q514.4 119.56 515.18 119.12Q515.19 119.11 515.19 119.11Q517.26 117.94 520.28 118.48Q523.31 119.01 524.83 120.82L524.83 120.82Q525.43 121.52 525.73 122.33Q526.19 123.6 525.92 125.14Q525.66 126.63 524.82 127.65Q524.25 128.34 523.41 128.82Z" fill="#FFFFFF" fill-opacity="1.000000" fill-rule="evenodd"/>
		<path id="48" d="M496.38 124.99L489.83 123.83L488.33 132.28L476.16 130.13L477.66 121.69L454.34 117.58L455.78 109.45L480.45 85.4L493.36 87.68L470.84 110.28L479.79 111.86L481.12 104.37L492.91 106.45L491.58 113.94L498.13 115.1L496.38 124.99ZM533.92 116.34Q536.63 118.63 537.8 121.5Q538.99 124.38 538.4 127.72Q537.66 131.89 534.7 134.62Q531.76 137.33 527.1 138.27Q522.46 139.2 516.78 138.2Q511.11 137.2 507.05 134.74Q503.01 132.27 501.17 128.7Q499.34 125.13 500.08 120.96Q500.67 117.62 502.76 115.32Q504.87 113.03 508.19 111.81Q506.21 109.82 505.38 107.35Q504.55 104.85 505.04 102.08Q505.73 98.24 508.44 95.7Q511.18 93.15 515.46 92.29Q519.74 91.41 524.91 92.32Q530.08 93.23 533.8 95.52Q537.52 97.8 539.2 101.12Q540.9 104.44 540.22 108.28Q539.73 111.05 538.09 113.11Q536.46 115.16 533.92 116.34ZM523.36 101.09Q521.03 100.68 519.35 101.65Q517.69 102.63 517.3 104.83Q516.92 106.97 518.12 108.45Q519.32 109.93 521.72 110.35Q524.12 110.78 525.78 109.8Q527.45 108.82 527.82 106.69Q528.21 104.49 526.99 103Q525.76 101.51 523.36 101.09ZM518.33 129.45Q521.37 129.98 523.41 128.82Q525.48 127.64 525.92 125.14Q526.37 122.61 524.83 120.82Q523.31 119.01 520.28 118.48Q517.25 117.94 515.18 119.12Q513.14 120.28 512.69 122.8Q512.24 125.31 513.76 127.12Q515.3 128.91 518.33 129.45Z" stroke="#202027" stroke-opacity="1.000000" stroke-width="1.000000"/>
		<rect id="Frame 2043683127" rx="29.500000" width="159.000000" height="158.999985" transform="translate(434.281250 18.575439) rotate(10.000000)" stroke="#202027" stroke-opacity="1.000000" stroke-width="1.000000"/>
		<rect id="Frame 2043683128" rx="29.500000" width="159.000000" height="158.999985" transform="translate(603.790039 48.464355) rotate(10.000000)" fill="#D9B6FF" fill-opacity="1.000000"/>
		<path id="48" d="M707.31 151.39Q706.14 148.52 703.43 146.23Q705.53 145.25 707.01 143.68Q707.32 143.36 707.6 143Q707.97 142.54 708.28 142.04Q709.35 140.32 709.73 138.17Q710.15 135.8 709.67 133.63Q709.36 132.28 708.71 131.01Q708.69 130.97 708.67 130.93Q706.99 127.66 703.31 125.41Q699.59 123.12 694.42 122.21Q689.25 121.3 684.97 122.18Q680.75 123.03 678.03 125.52Q677.99 125.55 677.95 125.59Q676.93 126.54 676.2 127.68Q674.98 129.57 674.55 131.97Q674.17 134.12 674.59 136.1Q674.7 136.67 674.89 137.23Q675.03 137.66 675.21 138.07Q676.06 140.06 677.7 141.7Q674.38 142.92 672.27 145.21Q671.81 145.72 671.42 146.28Q670.05 148.25 669.59 150.85Q669.13 153.48 669.68 155.87Q670 157.27 670.68 158.59Q672.52 162.16 676.56 164.63Q680.61 167.09 686.29 168.09Q691.97 169.09 696.61 168.16Q701.27 167.22 704.21 164.51Q705.32 163.48 706.12 162.24Q707.45 160.2 707.91 157.61Q708.36 155.04 707.76 152.75Q707.58 152.06 707.31 151.39ZM659.34 153.72L665.89 154.88L667.64 144.98L661.09 143.83L662.42 136.34L650.63 134.26L649.3 141.75L640.35 140.17L662.87 117.57L649.96 115.29L625.29 139.34L623.85 147.46L647.16 151.58L645.67 160.02L657.84 162.17L659.34 153.72ZM689.25 131.34Q690.81 130.62 692.87 130.98Q695.13 131.38 696.35 132.73Q696.43 132.81 696.49 132.89Q696.86 133.33 697.08 133.83Q697.61 135.03 697.33 136.57Q697.08 138 696.26 138.91Q695.85 139.36 695.29 139.69Q695.2 139.74 695.1 139.79Q693.49 140.64 691.23 140.24Q688.94 139.84 687.75 138.48Q687.69 138.41 687.63 138.34Q687.25 137.87 687.03 137.35Q686.55 136.19 686.81 134.72Q687.08 133.17 687.99 132.23Q688.37 131.83 688.86 131.54Q689.05 131.43 689.25 131.34ZM692.92 158.71Q690.87 159.87 687.84 159.34Q684.81 158.8 683.27 157.01Q682.67 156.29 682.38 155.47Q681.93 154.21 682.2 152.69Q682.47 151.13 683.36 150.1Q683.91 149.45 684.69 149Q684.7 149 684.7 149Q686.76 147.83 689.79 148.37Q692.82 148.9 694.34 150.7L694.34 150.71Q694.94 151.41 695.24 152.22Q695.7 153.49 695.43 155.02Q695.17 156.52 694.32 157.54Q693.76 158.23 692.92 158.71Z" fill="#FFFFFF" fill-opacity="1.000000" fill-rule="evenodd"/>
		<path id="48" d="M665.89 154.88L659.34 153.72L657.84 162.17L645.67 160.02L647.16 151.58L623.85 147.46L625.29 139.34L649.96 115.29L662.87 117.57L640.35 140.17L649.3 141.75L650.63 134.26L662.42 136.34L661.09 143.83L667.64 144.98L665.89 154.88ZM703.43 146.23Q706.14 148.52 707.31 151.39Q708.5 154.27 707.91 157.61Q707.17 161.77 704.21 164.51Q701.27 167.22 696.61 168.16Q691.97 169.09 686.29 168.09Q680.61 167.09 676.56 164.63Q672.52 162.16 670.68 158.59Q668.85 155.02 669.59 150.85Q670.18 147.51 672.27 145.21Q674.38 142.92 677.7 141.7Q675.72 139.71 674.89 137.23Q674.06 134.74 674.55 131.97Q675.23 128.12 677.95 125.59Q680.69 123.04 684.97 122.18Q689.25 121.3 694.42 122.21Q699.59 123.12 703.31 125.41Q707.03 127.69 708.71 131.01Q710.41 134.33 709.73 138.17Q709.24 140.94 707.6 143Q705.97 145.05 703.43 146.23ZM692.87 130.98Q690.54 130.57 688.86 131.54Q687.2 132.52 686.81 134.72Q686.43 136.86 687.63 138.34Q688.83 139.82 691.23 140.24Q693.63 140.67 695.29 139.69Q696.95 138.71 697.33 136.57Q697.72 134.37 696.49 132.89Q695.27 131.4 692.87 130.98ZM687.84 159.34Q690.87 159.87 692.92 158.71Q694.99 157.53 695.43 155.02Q695.88 152.5 694.34 150.71Q692.82 148.9 689.79 148.37Q686.76 147.83 684.69 149Q682.64 150.17 682.2 152.69Q681.75 155.2 683.27 157.01Q684.81 158.8 687.84 159.34Z" stroke="#202027" stroke-opacity="1.000000" stroke-width="1.000000"/>
		<rect id="Frame 2043683128" rx="29.500000" width="159.000000" height="158.999985" transform="translate(603.790039 48.464355) rotate(10.000000)" stroke="#202027" stroke-opacity="1.000000" stroke-width="1.000000"/>
		<rect id="Frame 2043683073" rx="29.500000" width="159.000000" height="158.999985" transform="translate(-104.113281 98.295166) rotate(10.000000)" fill="#D9B6FF" fill-opacity="1.000000"/>
		<path id="66" d="M-48.86 184.43Q-51.6 182.74 -55.01 182.14Q-60.58 181.16 -64.67 183.17Q-65.13 183.4 -65.56 183.66Q-64.38 179.29 -61.53 177.13Q-61.18 176.87 -60.81 176.64Q-60.28 176.31 -59.7 176.05Q-56.63 174.65 -52.59 175.36Q-47.67 176.23 -44.85 179.06L-38.72 170.91Q-40.85 168.91 -44.1 167.5Q-47.36 166.07 -51.14 165.4Q-58.14 164.17 -63.94 166.08Q-66.27 166.84 -68.3 168.1Q-71.31 169.96 -73.64 172.92Q-77.53 177.85 -78.87 185.41Q-80.65 195.45 -76.64 201.91Q-76.45 202.21 -76.25 202.51Q-75.33 203.86 -74.19 205Q-69.81 209.42 -62.3 210.75Q-57.44 211.6 -53.17 210.45Q-50.23 209.65 -47.94 207.96Q-46.9 207.2 -46 206.26Q-45.19 205.41 -44.55 204.46Q-42.86 201.98 -42.29 198.74Q-41.75 195.71 -42.43 192.97Q-42.66 192.02 -43.05 191.1Q-43.66 189.64 -44.56 188.38Q-45.84 186.59 -47.7 185.22Q-48.27 184.8 -48.86 184.43ZM-7.96 191.65Q-10.69 189.95 -14.11 189.35Q-19.67 188.37 -23.76 190.38Q-24.22 190.61 -24.66 190.87Q-23.47 186.51 -20.62 184.35Q-20.28 184.08 -19.91 183.85Q-19.37 183.52 -18.8 183.26Q-15.72 181.86 -11.68 182.58Q-6.76 183.44 -3.95 186.27L2.18 178.12Q0.06 176.13 -3.2 174.71Q-6.45 173.28 -10.24 172.61Q-17.24 171.38 -23.04 173.29Q-25.37 174.05 -27.39 175.31Q-30.4 177.18 -32.74 180.13Q-36.63 185.06 -37.96 192.62Q-39.74 202.67 -35.74 209.12Q-35.55 209.43 -35.34 209.72Q-34.42 211.07 -33.29 212.21Q-28.9 216.63 -21.39 217.96Q-16.53 218.82 -12.27 217.66Q-9.33 216.86 -7.04 215.17Q-6 214.41 -5.1 213.47Q-4.29 212.63 -3.64 211.67Q-1.96 209.19 -1.39 205.95Q-0.85 202.92 -1.52 200.19Q-1.76 199.23 -2.14 198.32Q-2.75 196.85 -3.65 195.59Q-4.93 193.81 -6.8 192.43Q-7.36 192.01 -7.96 191.65ZM-57.69 201.4Q-59.35 202.11 -61.48 201.74Q-63.98 201.29 -65.37 199.81Q-65.55 199.62 -65.72 199.4Q-66.24 198.71 -66.5 197.92Q-66.94 196.63 -66.67 195.09Q-66.38 193.49 -65.48 192.41Q-64.97 191.79 -64.26 191.35Q-63.85 191.09 -63.41 190.9Q-61.72 190.19 -59.57 190.57Q-57.29 190.97 -55.94 192.31Q-55.69 192.56 -55.46 192.85Q-54.99 193.45 -54.73 194.13Q-54.2 195.49 -54.5 197.18Q-54.82 198.98 -55.86 200.12Q-56.32 200.61 -56.91 200.99Q-57.28 201.23 -57.69 201.4ZM-16.79 208.61Q-18.45 209.32 -20.58 208.95Q-23.08 208.51 -24.47 207.02Q-24.65 206.83 -24.81 206.61Q-25.33 205.92 -25.6 205.14Q-26.03 203.84 -25.76 202.31Q-25.48 200.7 -24.57 199.62Q-24.06 199.01 -23.35 198.56Q-22.94 198.3 -22.5 198.11Q-20.81 197.4 -18.66 197.78Q-16.38 198.18 -15.04 199.52Q-14.78 199.78 -14.56 200.06Q-14.09 200.66 -13.83 201.34Q-13.3 202.71 -13.6 204.39Q-13.91 206.19 -14.96 207.33Q-15.41 207.83 -16 208.2Q-16.38 208.44 -16.79 208.61Z" fill="#FFFFFF" fill-opacity="1.000000" fill-rule="evenodd"/>
		<path id="66" d="M-55.01 182.14Q-50.86 182.87 -47.7 185.22Q-44.53 187.56 -43.05 191.1Q-41.57 194.65 -42.29 198.74Q-43.08 203.22 -46 206.26Q-48.9 209.28 -53.17 210.45Q-57.44 211.6 -62.3 210.75Q-71.75 209.08 -76.25 202.51Q-80.73 195.93 -78.87 185.41Q-77.53 177.85 -73.64 172.92Q-69.74 167.98 -63.94 166.08Q-58.14 164.17 -51.14 165.4Q-47.36 166.07 -44.1 167.5Q-40.85 168.91 -38.72 170.91L-44.85 179.06Q-47.67 176.23 -52.59 175.36Q-57.37 174.52 -60.81 176.64Q-64.24 178.77 -65.56 183.66Q-61.2 181.05 -55.01 182.14ZM-61.48 201.74Q-58.83 202.2 -56.91 200.99Q-54.96 199.76 -54.5 197.18Q-54.05 194.65 -55.46 192.85Q-56.86 191.05 -59.57 190.57Q-62.28 190.09 -64.26 191.35Q-66.22 192.59 -66.67 195.09Q-67.1 197.55 -65.72 199.4Q-64.31 201.24 -61.48 201.74ZM-14.11 189.35Q-9.95 190.08 -6.8 192.43Q-3.63 194.77 -2.14 198.32Q-0.66 201.86 -1.39 205.95Q-2.18 210.43 -5.1 213.47Q-8 216.5 -12.27 217.66Q-16.53 218.82 -21.39 217.96Q-30.84 216.29 -35.34 209.72Q-39.83 203.14 -37.96 192.62Q-36.63 185.06 -32.74 180.13Q-28.83 175.19 -23.04 173.29Q-17.24 171.38 -10.24 172.61Q-6.45 173.28 -3.2 174.71Q0.06 176.13 2.18 178.12L-3.95 186.27Q-6.76 183.44 -11.68 182.58Q-16.47 181.73 -19.91 183.85Q-23.33 185.98 -24.66 190.87Q-20.29 188.26 -14.11 189.35ZM-20.58 208.95Q-17.93 209.41 -16 208.2Q-14.05 206.97 -13.6 204.39Q-13.15 201.86 -14.56 200.06Q-15.95 198.26 -18.66 197.78Q-21.37 197.31 -23.35 198.56Q-25.32 199.8 -25.76 202.31Q-26.2 204.77 -24.81 206.61Q-23.41 208.45 -20.58 208.95Z" stroke="#202027" stroke-opacity="1.000000" stroke-width="1.000000"/>
		<rect id="Frame 2043683073" rx="29.500000" width="159.000000" height="158.999985" transform="translate(-104.113281 98.295166) rotate(10.000000)" stroke="#202027" stroke-opacity="1.000000" stroke-width="1.000000"/>
		<rect id="Frame 2043683064" rx="29.500000" width="159.000000" height="158.999985" transform="translate(65.395508 128.184326) rotate(10.000000)" fill="#D9B6FF" fill-opacity="1.000000"/>
		<path id="2" d="M143.07 246.05L144.82 236.16L127.81 233.16L137.49 226.94Q142.62 223.68 144.73 220.77Q145.64 219.51 146.27 218.12Q147.1 216.31 147.46 214.27Q147.96 211.48 147.33 208.97Q147.05 207.86 146.55 206.8Q146.33 206.33 146.07 205.88Q144.43 203.04 141.33 201.04Q137.75 198.71 132.7 197.82Q126.35 196.7 121.23 198.33Q117.74 199.46 115.07 201.6Q113.84 202.59 112.79 203.79L121.15 210.6Q122.39 209.26 123.91 208.5Q124.48 208.22 125.09 208.02Q125.69 207.82 126.31 207.71Q127.99 207.39 129.79 207.71Q132.56 208.2 133.79 209.66Q134.18 210.1 134.41 210.62Q134.91 211.77 134.65 213.25Q134.64 213.31 134.63 213.37Q134.32 214.94 133.26 216.35Q132.16 217.81 129.36 219.66L110.11 232.18L108.73 240L143.07 246.05Z" fill="#FFFFFF" fill-opacity="1.000000" fill-rule="evenodd"/>
		<path id="2" d="M144.82 236.16L143.07 246.05L108.73 240L110.11 232.18L129.36 219.66Q132.16 217.81 133.26 216.35Q134.36 214.88 134.65 213.25Q135.03 211.1 133.79 209.66Q132.56 208.2 129.79 207.71Q127.33 207.28 125.09 208.02Q122.85 208.76 121.15 210.6L112.79 203.79Q116.13 199.97 121.23 198.33Q126.35 196.7 132.7 197.82Q137.75 198.71 141.33 201.04Q144.92 203.35 146.55 206.8Q148.18 210.24 147.46 214.27Q146.83 217.86 144.73 220.77Q142.62 223.68 137.49 226.94L127.81 233.16L144.82 236.16Z" stroke="#202027" stroke-opacity="1.000000" stroke-width="1.000000"/>
		<rect id="Frame 2043683064" rx="29.500000" width="159.000000" height="158.999985" transform="translate(65.395508 128.184326) rotate(10.000000)" stroke="#202027" stroke-opacity="1.000000" stroke-width="1.000000"/>
		<rect id="Frame 2043683075" rx="29.500000" width="159.000000" height="158.999985" transform="translate(234.904297 158.073242) rotate(10.000000)" fill="#D9B6FF" fill-opacity="1.000000"/>
		<path id="11" d="M290.75 272.09L298.56 227.98L277.89 224.34L276.19 233.97L284.37 235.41L278.26 269.89L290.75 272.09ZM316.27 276.59L324.08 232.48L303.42 228.84L301.71 238.47L309.9 239.91L303.79 274.39L316.27 276.59Z" fill="#FFFFFF" fill-opacity="1.000000" fill-rule="evenodd"/>
		<path id="11" d="M298.56 227.98L290.75 272.09L278.26 269.89L284.37 235.41L276.19 233.97L277.89 224.34L298.56 227.98ZM324.08 232.48L316.27 276.59L303.79 274.39L309.9 239.91L301.71 238.47L303.42 228.84L324.08 232.48Z" stroke="#202027" stroke-opacity="1.000000" stroke-width="1.000000"/>
		<rect id="Frame 2043683075" rx="29.500000" width="159.000000" height="158.999985" transform="translate(234.904297 158.073242) rotate(10.000000)" stroke="#202027" stroke-opacity="1.000000" stroke-width="1.000000"/>
		<rect id="Frame 2043683066" rx="29.500000" width="159.000000" height="158.999985" transform="translate(404.414062 187.962158) rotate(10.000000)" fill="#D9B6FF" fill-opacity="1.000000"/>
		<path id="8" d="M485.56 286.94Q484.38 284.07 481.68 281.79Q483.78 280.8 485.26 279.24Q485.57 278.91 485.85 278.56Q486.22 278.09 486.53 277.6Q487.6 275.87 487.98 273.73Q488.4 271.35 487.91 269.19Q487.61 267.84 486.96 266.57Q486.94 266.52 486.92 266.48Q485.24 263.21 481.56 260.96Q477.84 258.67 472.67 257.76Q467.5 256.85 463.22 257.73Q459 258.58 456.28 261.07Q456.24 261.11 456.2 261.14Q455.18 262.1 454.44 263.24Q453.23 265.12 452.8 267.52Q452.42 269.67 452.83 271.66Q452.95 272.23 453.14 272.79Q453.28 273.21 453.46 273.63Q454.31 275.61 455.95 277.25Q452.62 278.47 450.52 280.76Q450.06 281.27 449.67 281.83Q448.3 283.8 447.84 286.4Q447.37 289.03 447.93 291.42Q448.25 292.82 448.93 294.15Q450.77 297.71 454.81 300.18Q458.86 302.64 464.54 303.64Q470.22 304.64 474.86 303.72Q479.52 302.78 482.46 300.06Q483.57 299.03 484.37 297.8Q485.69 295.76 486.15 293.16Q486.61 290.59 486.01 288.3Q485.83 287.61 485.56 286.94ZM467.5 266.89Q469.05 266.17 471.12 266.53Q473.38 266.93 474.6 268.28Q474.68 268.36 474.74 268.44Q475.11 268.88 475.33 269.39Q475.86 270.58 475.58 272.13Q475.33 273.55 474.51 274.46Q474.1 274.92 473.54 275.24Q473.45 275.3 473.35 275.35Q471.74 276.19 469.47 275.79Q467.19 275.39 466 274.03Q465.93 273.96 465.88 273.89Q465.5 273.43 465.28 272.9Q464.8 271.74 465.06 270.27Q465.33 268.72 466.24 267.78Q466.62 267.38 467.11 267.1Q467.3 266.99 467.5 266.89ZM471.17 294.26Q469.12 295.42 466.09 294.89Q463.06 294.35 461.52 292.56Q460.92 291.84 460.63 291.02Q460.18 289.76 460.45 288.24Q460.72 286.69 461.61 285.65Q462.16 285 462.94 284.56Q462.95 284.55 462.95 284.55Q465.01 283.39 468.04 283.92Q471.06 284.45 472.59 286.26L472.59 286.26Q473.19 286.96 473.49 287.77Q473.95 289.04 473.68 290.58Q473.41 292.07 472.57 293.09Q472 293.79 471.17 294.26Z" fill="#FFFFFF" fill-opacity="1.000000" fill-rule="evenodd"/>
		<path id="8" d="M481.68 281.79Q484.38 284.07 485.56 286.94Q486.75 289.82 486.15 293.16Q485.42 297.33 482.46 300.06Q479.52 302.78 474.86 303.72Q470.22 304.64 464.54 303.64Q458.86 302.64 454.81 300.18Q450.77 297.71 448.93 294.15Q447.1 290.57 447.84 286.4Q448.43 283.06 450.52 280.76Q452.62 278.47 455.95 277.25Q453.97 275.26 453.14 272.79Q452.31 270.29 452.8 267.52Q453.48 263.68 456.2 261.14Q458.94 258.59 463.22 257.73Q467.5 256.85 472.67 257.76Q477.84 258.67 481.56 260.96Q485.28 263.24 486.96 266.57Q488.66 269.88 487.98 273.73Q487.49 276.5 485.85 278.56Q484.22 280.6 481.68 281.79ZM471.12 266.53Q468.79 266.12 467.11 267.1Q465.45 268.07 465.06 270.27Q464.68 272.41 465.88 273.89Q467.07 275.37 469.47 275.79Q471.87 276.22 473.54 275.24Q475.2 274.27 475.58 272.13Q475.97 269.93 474.74 268.44Q473.52 266.96 471.12 266.53ZM466.09 294.89Q469.12 295.42 471.17 294.26Q473.24 293.09 473.68 290.58Q474.13 288.05 472.59 286.26Q471.07 284.45 468.04 283.92Q465 283.38 462.94 284.56Q460.89 285.72 460.45 288.24Q460 290.75 461.52 292.56Q463.06 294.35 466.09 294.89Z" stroke="#202027" stroke-opacity="1.000000" stroke-width="1.000000"/>
		<rect id="Frame 2043683066" rx="29.500000" width="159.000000" height="158.999985" transform="translate(404.414062 187.962158) rotate(10.000000)" stroke="#202027" stroke-opacity="1.000000" stroke-width="1.000000"/>
		<rect id="Frame 2043683067" rx="29.500000" width="159.000000" height="158.999985" transform="translate(573.922852 217.851318) rotate(10.000000)" fill="#D9B6FF" fill-opacity="1.000000"/>
		<path id="36" d="M668.63 310.95Q665.89 309.25 662.48 308.65Q656.92 307.67 652.82 309.68Q652.37 309.91 651.93 310.17Q653.11 305.81 655.96 303.65Q656.31 303.38 656.68 303.16Q657.22 302.82 657.79 302.56Q660.87 301.16 664.9 301.88Q669.83 302.74 672.64 305.57L678.77 297.42Q676.65 295.43 673.39 294.01Q670.14 292.58 666.35 291.91Q659.35 290.68 653.55 292.59Q651.22 293.35 649.2 294.61Q646.19 296.48 643.85 299.43Q639.96 304.36 638.62 311.92Q636.84 321.97 640.85 328.42Q641.04 328.73 641.24 329.02Q642.17 330.37 643.3 331.51Q647.68 335.93 655.19 337.26Q660.05 338.12 664.32 336.96Q667.26 336.16 669.55 334.47Q670.59 333.71 671.49 332.77Q672.3 331.93 672.95 330.97Q674.63 328.49 675.2 325.25Q675.74 322.22 675.06 319.49Q674.83 318.53 674.44 317.62Q673.83 316.15 672.93 314.89Q671.65 313.1 669.79 311.73Q669.23 311.31 668.63 310.95ZM631.77 309.47Q629.44 305.66 624.25 303.61L635.13 295.39L636.51 287.57L604.61 281.95L602.91 291.58L620.31 294.65L610.92 301.77L609.53 309.64L614.76 310.57Q619.56 311.41 620.55 313.83Q620.96 314.81 620.74 316.05Q620.55 317.1 619.97 317.85Q619.34 318.66 618.25 319.11Q616.14 319.98 612.92 319.41Q609.77 318.86 606.69 317.35Q603.61 315.82 601.36 313.6L595.15 322.2Q598.12 324.86 602.49 326.81Q605.38 328.08 608.4 328.87Q609.94 329.28 611.52 329.56Q617.88 330.68 622.57 329.4Q627.25 328.11 629.95 325.14Q631.39 323.56 632.26 321.71Q633.02 320.09 633.34 318.27Q633.88 315.22 633.13 312.54Q632.7 311.01 631.85 309.6Q631.81 309.53 631.77 309.47ZM659.8 327.91Q658.14 328.62 656.01 328.25Q653.51 327.81 652.12 326.32Q651.94 326.13 651.77 325.91Q651.25 325.22 650.99 324.44Q650.55 323.14 650.82 321.61Q651.11 320 652.01 318.92Q652.52 318.31 653.23 317.86Q653.64 317.6 654.09 317.41Q655.78 316.7 657.92 317.08Q660.2 317.48 661.55 318.82Q661.81 319.07 662.03 319.36Q662.5 319.96 662.76 320.64Q663.29 322.01 662.99 323.69Q662.67 325.49 661.63 326.63Q661.18 327.13 660.59 327.5Q660.21 327.74 659.8 327.91Z" fill="#FFFFFF" fill-opacity="1.000000" fill-rule="evenodd"/>
		<path id="36" d="M624.25 303.61Q629.52 305.7 631.85 309.6Q634.19 313.49 633.34 318.27Q632.65 322.18 629.95 325.14Q627.25 328.11 622.57 329.4Q617.88 330.68 611.52 329.56Q606.86 328.74 602.49 326.81Q598.12 324.86 595.15 322.2L601.36 313.6Q603.61 315.82 606.69 317.35Q609.77 318.86 612.92 319.41Q616.14 319.98 618.25 319.11Q620.35 318.25 620.74 316.05Q621.5 311.76 614.76 310.57L609.53 309.64L610.92 301.77L620.31 294.65L602.91 291.58L604.61 281.95L636.51 287.57L635.13 295.39L624.25 303.61ZM662.48 308.65Q666.64 309.38 669.79 311.73Q672.96 314.07 674.44 317.62Q675.93 321.16 675.2 325.25Q674.41 329.73 671.49 332.77Q668.59 335.8 664.32 336.96Q660.05 338.12 655.19 337.26Q645.74 335.59 641.24 329.02Q636.76 322.44 638.62 311.92Q639.96 304.36 643.85 299.43Q647.76 294.49 653.55 292.59Q659.35 290.68 666.35 291.91Q670.14 292.58 673.39 294.01Q676.65 295.43 678.77 297.42L672.64 305.57Q669.83 302.74 664.9 301.88Q660.12 301.03 656.68 303.16Q653.26 305.28 651.93 310.17Q656.29 307.56 662.48 308.65ZM656.01 328.25Q658.66 328.72 660.59 327.5Q662.53 326.27 662.99 323.69Q663.44 321.16 662.03 319.36Q660.63 317.56 657.92 317.08Q655.22 316.6 653.23 317.86Q651.27 319.1 650.82 321.61Q650.39 324.07 651.77 325.91Q653.18 327.75 656.01 328.25Z" stroke="#202027" stroke-opacity="1.000000" stroke-width="1.000000"/>
		<rect id="Frame 2043683067" rx="29.500000" width="159.000000" height="158.999985" transform="translate(573.922852 217.851318) rotate(10.000000)" stroke="#202027" stroke-opacity="1.000000" stroke-width="1.000000"/>
		<rect id="Frame 2043683074" rx="29.500000" width="159.000000" height="158.999985" transform="translate(-133.980469 267.682129) rotate(10.000000)" fill="#D9B6FF" fill-opacity="1.000000"/>
		<path id="9" d="M-55.84 342.95Q-60.24 338.45 -67.87 337.11Q-72.5 336.29 -76.65 337.36Q-76.79 337.39 -76.92 337.43Q-79.79 338.21 -82.05 339.84Q-83.15 340.64 -84.11 341.63Q-84.9 342.46 -85.53 343.39Q-87.22 345.88 -87.8 349.12Q-88.35 352.21 -87.64 354.99Q-87.41 355.9 -87.04 356.78Q-86.44 358.21 -85.57 359.44Q-84.28 361.26 -82.4 362.66Q-81.89 363.04 -81.35 363.38Q-78.57 365.12 -75.08 365.74Q-69.57 366.71 -65.49 364.74Q-65.04 364.52 -64.62 364.27Q-65.89 368.73 -68.84 370.86Q-69.11 371.07 -69.41 371.25Q-69.94 371.58 -70.5 371.83Q-73.53 373.22 -77.52 372.51Q-82.44 371.65 -85.26 368.82L-91.36 376.96Q-89.25 378.9 -86 380.35Q-82.73 381.8 -79.02 382.45Q-72.02 383.68 -66.2 381.79Q-63.71 380.99 -61.58 379.63Q-58.71 377.8 -56.48 374.97Q-52.58 370.03 -51.24 362.47Q-49.46 352.45 -53.46 346.01Q-53.66 345.68 -53.87 345.36Q-54.76 344.06 -55.84 342.95ZM-66.64 356.96Q-68.35 357.69 -70.54 357.31Q-72.81 356.91 -74.16 355.58Q-74.43 355.32 -74.66 355.03Q-75.13 354.41 -75.39 353.72Q-75.9 352.36 -75.61 350.7Q-75.28 348.87 -74.21 347.72Q-73.78 347.26 -73.22 346.9Q-72.8 346.64 -72.36 346.46Q-70.71 345.77 -68.63 346.14Q-66.15 346.58 -64.78 348.05Q-64.58 348.26 -64.41 348.49Q-63.86 349.2 -63.59 350.01Q-63.17 351.27 -63.44 352.77Q-63.72 354.37 -64.62 355.46Q-65.14 356.09 -65.87 356.54Q-66.24 356.78 -66.64 356.96Z" fill="#FFFFFF" fill-opacity="1.000000" fill-rule="evenodd"/>
		<path id="9" d="M-67.87 337.11Q-58.36 338.78 -53.87 345.36Q-49.37 351.95 -51.24 362.47Q-52.58 370.03 -56.48 374.97Q-60.37 379.9 -66.2 381.79Q-72.02 383.68 -79.02 382.45Q-82.73 381.8 -86 380.35Q-89.25 378.9 -91.36 376.96L-85.26 368.82Q-82.44 371.65 -77.52 372.51Q-72.79 373.35 -69.41 371.25Q-66 369.15 -64.62 364.27Q-68.97 366.82 -75.08 365.74Q-79.25 365.01 -82.4 362.66Q-85.56 360.31 -87.04 356.78Q-88.53 353.23 -87.8 349.12Q-87.01 344.66 -84.11 341.63Q-81.19 338.6 -76.92 337.43Q-72.65 336.26 -67.87 337.11ZM-70.54 357.31Q-67.83 357.78 -65.87 356.54Q-63.88 355.29 -63.44 352.77Q-63 350.32 -64.41 348.49Q-65.79 346.64 -68.63 346.14Q-71.27 345.68 -73.22 346.9Q-75.15 348.12 -75.61 350.7Q-76.05 353.21 -74.66 355.03Q-73.25 356.83 -70.54 357.31Z" stroke="#202027" stroke-opacity="1.000000" stroke-width="1.000000"/>
		<rect id="Frame 2043683074" rx="29.500000" width="159.000000" height="158.999985" transform="translate(-133.980469 267.682129) rotate(10.000000)" stroke="#202027" stroke-opacity="1.000000" stroke-width="1.000000"/>
		<rect id="Frame 2043683068" rx="29.500000" width="159.000000" height="158.999985" transform="translate(35.528320 297.571045) rotate(10.000000)" fill="#D9B6FF" fill-opacity="1.000000"/>
		<path id="4" d="M112.47 406.6L119.03 407.76L120.78 397.86L114.23 396.71L115.55 389.22L103.77 387.14L102.44 394.63L93.48 393.05L116 370.45L103.09 368.17L78.43 392.22L76.99 400.34L100.3 404.46L98.8 412.9L110.98 415.05L112.47 406.6Z" fill="#FFFFFF" fill-opacity="1.000000" fill-rule="evenodd"/>
		<path id="4" d="M119.03 407.76L112.47 406.6L110.98 415.05L98.8 412.9L100.3 404.46L76.99 400.34L78.43 392.22L103.09 368.17L116 370.45L93.48 393.05L102.44 394.63L103.77 387.14L115.55 389.22L114.23 396.71L120.78 397.86L119.03 407.76Z" stroke="#202027" stroke-opacity="1.000000" stroke-width="1.000000"/>
		<rect id="Frame 2043683068" rx="29.500000" width="159.000000" height="158.999985" transform="translate(35.528320 297.571045) rotate(10.000000)" stroke="#202027" stroke-opacity="1.000000" stroke-width="1.000000"/>
		<rect id="Frame 2043683069" rx="29.500000" width="159.000000" height="158.999985" transform="translate(205.037109 327.460205) rotate(10.000000)" fill="#D9B6FF" fill-opacity="1.000000"/>
		<path id="92" d="M264.55 399.44Q260.15 394.94 252.53 393.6Q247.89 392.78 243.74 393.85Q243.61 393.89 243.47 393.92Q240.61 394.71 238.35 396.33Q237.24 397.13 236.29 398.13Q235.5 398.95 234.86 399.88Q233.17 402.37 232.59 405.62Q232.05 408.71 232.75 411.48Q232.98 412.39 233.35 413.27Q233.95 414.7 234.82 415.93Q236.11 417.75 237.99 419.15Q238.5 419.53 239.04 419.87Q241.82 421.62 245.31 422.23Q250.82 423.21 254.9 421.23Q255.35 421.01 255.78 420.76Q254.51 425.22 251.56 427.36Q251.28 427.56 250.99 427.74Q250.46 428.07 249.89 428.33Q246.86 429.71 242.88 429.01Q237.95 428.14 235.14 425.31L229.03 433.45Q231.14 435.4 234.4 436.84Q237.66 438.29 241.37 438.94Q248.37 440.18 254.2 438.29Q256.68 437.48 258.81 436.12Q261.68 434.29 263.91 431.46Q267.82 426.52 269.16 418.97Q270.93 408.95 266.94 402.5Q266.74 402.17 266.52 401.86Q265.63 400.55 264.55 399.44ZM302.91 448.89L304.67 439L287.65 436L297.34 429.77Q302.47 426.52 304.57 423.61Q305.48 422.35 306.11 420.96Q306.95 419.14 307.31 417.11Q307.8 414.32 307.17 411.81Q306.89 410.69 306.39 409.63Q306.17 409.16 305.91 408.72Q304.28 405.87 301.18 403.87Q297.59 401.54 292.54 400.66Q286.19 399.53 281.07 401.17Q277.58 402.29 274.91 404.44Q273.69 405.43 272.63 406.63L281 413.44Q282.23 412.09 283.76 411.34Q284.32 411.06 284.93 410.86Q285.53 410.66 286.15 410.55Q287.83 410.23 289.63 410.55Q292.4 411.04 293.64 412.49Q294.02 412.94 294.25 413.46Q294.75 414.6 294.49 416.09Q294.48 416.15 294.47 416.21Q294.16 417.77 293.1 419.19Q292 420.65 289.2 422.5L269.95 435.02L268.57 442.84L302.91 448.89ZM253.75 413.45Q252.04 414.19 249.85 413.8Q247.59 413.4 246.23 412.07Q245.97 411.81 245.74 411.52Q245.26 410.91 245 410.21Q244.49 408.86 244.79 407.2Q245.11 405.36 246.18 404.22Q246.61 403.75 247.17 403.4Q247.59 403.13 248.04 402.95Q249.69 402.27 251.77 402.64Q254.25 403.07 255.62 404.54Q255.81 404.75 255.99 404.98Q256.53 405.7 256.8 406.5Q257.22 407.77 256.96 409.26Q256.67 410.86 255.77 411.95Q255.25 412.58 254.53 413.04Q254.15 413.28 253.75 413.45Z" fill="#FFFFFF" fill-opacity="1.000000" fill-rule="evenodd"/>
		<path id="92" d="M252.53 393.6Q262.04 395.28 266.52 401.86Q271.02 408.44 269.16 418.97Q267.82 426.52 263.91 431.46Q260.02 436.39 254.2 438.29Q248.37 440.18 241.37 438.94Q237.66 438.29 234.4 436.84Q231.14 435.4 229.03 433.45L235.14 425.31Q237.95 428.14 242.88 429.01Q247.6 429.84 250.99 427.74Q254.39 425.64 255.78 420.76Q251.42 423.31 245.31 422.23Q241.14 421.5 237.99 419.15Q234.83 416.8 233.35 413.27Q231.87 409.73 232.59 405.62Q233.38 401.16 236.29 398.13Q239.2 395.09 243.47 393.92Q247.74 392.76 252.53 393.6ZM249.85 413.8Q252.56 414.28 254.53 413.04Q256.51 411.79 256.96 409.26Q257.39 406.82 255.99 404.98Q254.6 403.13 251.77 402.64Q249.12 402.17 247.17 403.4Q245.25 404.61 244.79 407.2Q244.34 409.7 245.74 411.52Q247.15 413.32 249.85 413.8ZM304.67 439L302.91 448.89L268.57 442.84L269.95 435.02L289.2 422.5Q292 420.65 293.1 419.19Q294.2 417.72 294.49 416.09Q294.87 413.93 293.64 412.49Q292.4 411.04 289.63 410.55Q287.17 410.12 284.93 410.86Q282.69 411.59 281 413.44L272.63 406.63Q275.98 402.81 281.07 401.17Q286.19 399.53 292.54 400.66Q297.59 401.54 301.18 403.87Q304.76 406.19 306.39 409.63Q308.02 413.08 307.31 417.11Q306.67 420.69 304.57 423.61Q302.47 426.52 297.34 429.77L287.65 436L304.67 439Z" stroke="#202027" stroke-opacity="1.000000" stroke-width="1.000000"/>
		<rect id="Frame 2043683069" rx="29.500000" width="159.000000" height="158.999985" transform="translate(205.037109 327.460205) rotate(10.000000)" stroke="#202027" stroke-opacity="1.000000" stroke-width="1.000000"/>
		<rect id="Frame 2043683070" rx="29.500000" width="159.000000" height="158.999985" transform="translate(374.545898 357.349121) rotate(10.000000)" fill="#D9B6FF" fill-opacity="1.000000"/>
		<path id="10" d="M439.51 472.08Q442.94 474.49 447.5 475.29Q451.76 476.04 455.6 475.11Q456.82 474.81 458 474.35Q458.89 474 459.73 473.56Q463.51 471.56 466.29 467.66Q469.71 462.9 470.97 455.77Q472.23 448.66 470.66 443.02Q469.38 438.41 466.51 435.24Q465.88 434.53 465.16 433.9Q464.19 433.03 463.11 432.32Q459.84 430.15 455.63 429.41Q451.11 428.62 447.09 429.68Q446.06 429.96 445.05 430.35Q444.24 430.68 443.46 431.08Q439.6 433.08 436.76 437.05Q433.34 441.81 432.08 448.92Q430.82 456.04 432.39 461.68Q433.7 466.38 436.64 469.58Q437.23 470.22 437.89 470.8Q438.66 471.49 439.51 472.08ZM421.56 469.81L429.37 425.7L408.71 422.06L407 431.69L415.19 433.13L409.08 467.61L421.56 469.81ZM451.55 465.05Q450.48 465.3 449.31 465.09Q448.06 464.87 447.1 464.22Q445.58 463.21 444.77 461.13Q443.45 457.74 444.63 451.13Q445.8 444.51 448.2 441.79Q449.67 440.12 451.44 439.68Q452.57 439.41 453.82 439.63Q454.99 439.83 455.91 440.43Q457.46 441.44 458.28 443.57Q459.6 446.95 458.43 453.56Q457.26 460.18 454.85 462.91Q453.35 464.63 451.55 465.05Z" fill="#FFFFFF" fill-opacity="1.000000" fill-rule="evenodd"/>
		<path id="10" d="M429.37 425.7L421.56 469.81L409.08 467.61L415.19 433.13L407 431.69L408.71 422.06L429.37 425.7ZM447.5 475.29Q441.82 474.29 437.89 470.8Q433.97 467.32 432.39 461.68Q430.82 456.04 432.08 448.92Q433.34 441.81 436.76 437.05Q440.17 432.29 445.05 430.35Q449.95 428.41 455.63 429.41Q461.23 430.4 465.16 433.9Q469.1 437.39 470.66 443.02Q472.23 448.66 470.97 455.77Q469.71 462.9 466.29 467.66Q462.89 472.42 458 474.35Q453.1 476.28 447.5 475.29ZM449.31 465.09Q452.46 465.65 454.85 462.91Q457.26 460.18 458.43 453.56Q459.6 446.95 458.28 443.57Q456.97 440.18 453.82 439.63Q450.6 439.06 448.2 441.79Q445.8 444.51 444.63 451.13Q443.45 457.74 444.77 461.13Q446.09 464.52 449.31 465.09Z" stroke="#202027" stroke-opacity="1.000000" stroke-width="1.000000"/>
		<rect id="Frame 2043683070" rx="29.500000" width="159.000000" height="158.999985" transform="translate(374.545898 357.349121) rotate(10.000000)" stroke="#202027" stroke-opacity="1.000000" stroke-width="1.000000"/>
		<rect id="Frame 2043683071" rx="29.500000" width="159.000000" height="158.999985" transform="translate(544.054688 387.238281) rotate(10.000000)" fill="#D9B6FF" fill-opacity="1.000000"/>
		<path id="7" d="M628.89 468.94L630.27 461.13L593.71 454.68L590.76 471.37L601.4 473.25L602.61 466.45L614.21 468.5L593.27 500.09L606.89 502.49L628.89 468.94Z" fill="#FFFFFF" fill-opacity="1.000000" fill-rule="evenodd"/>
		<path id="7" d="M630.27 461.13L628.89 468.94L606.89 502.49L593.27 500.09L614.21 468.5L602.61 466.45L601.4 473.25L590.76 471.37L593.71 454.68L630.27 461.13Z" stroke="#202027" stroke-opacity="1.000000" stroke-width="1.000000"/>
		<rect id="Frame 2043683071" rx="29.500000" width="159.000000" height="158.999985" transform="translate(544.054688 387.238281) rotate(10.000000)" stroke="#202027" stroke-opacity="1.000000" stroke-width="1.000000"/>
		<rect id="Frame 2043683129" rx="29.500000" width="159.000000" height="158.999985" transform="translate(-163.847656 437.068848) rotate(10.000000)" fill="#D9B6FF" fill-opacity="1.000000"/>
		<path id="9" d="M-85.71 512.34Q-90.11 507.84 -97.73 506.49Q-102.37 505.68 -106.52 506.74Q-106.65 506.78 -106.79 506.82Q-109.65 507.6 -111.91 509.23Q-113.02 510.02 -113.98 511.02Q-114.76 511.84 -115.4 512.77Q-117.09 515.26 -117.67 518.51Q-118.21 521.6 -117.51 524.37Q-117.28 525.29 -116.91 526.16Q-116.31 527.59 -115.44 528.83Q-114.15 530.64 -112.27 532.04Q-111.76 532.42 -111.22 532.76Q-108.44 534.51 -104.95 535.13Q-99.44 536.1 -95.36 534.12Q-94.91 533.91 -94.48 533.66Q-95.75 538.12 -98.7 540.25Q-98.98 540.45 -99.27 540.63Q-99.8 540.96 -100.37 541.22Q-103.4 542.6 -107.38 541.9Q-112.31 541.03 -115.12 538.2L-121.23 546.34Q-119.12 548.29 -115.87 549.73Q-112.6 551.18 -108.89 551.84Q-101.89 553.07 -96.06 551.18Q-93.58 550.37 -91.45 549.01Q-88.58 547.19 -86.35 544.36Q-82.44 539.41 -81.11 531.86Q-79.33 521.84 -83.32 515.39Q-83.52 515.07 -83.74 514.75Q-84.63 513.45 -85.71 512.34ZM-96.51 526.34Q-98.22 527.08 -100.41 526.69Q-102.67 526.29 -104.03 524.97Q-104.29 524.71 -104.53 524.41Q-105 523.8 -105.26 523.11Q-105.77 521.75 -105.47 520.09Q-105.15 518.25 -104.08 517.11Q-103.65 516.64 -103.09 516.29Q-102.67 516.03 -102.22 515.84Q-100.58 515.16 -98.49 515.53Q-96.01 515.96 -94.64 517.44Q-94.45 517.64 -94.28 517.87Q-93.73 518.59 -93.46 519.4Q-93.04 520.66 -93.3 522.15Q-93.59 523.76 -94.49 524.84Q-95.01 525.47 -95.73 525.93Q-96.11 526.17 -96.51 526.34Z" fill="#FFFFFF" fill-opacity="1.000000" fill-rule="evenodd"/>
		<path id="9" d="M-97.73 506.49Q-88.22 508.17 -83.74 514.75Q-79.24 521.33 -81.11 531.86Q-82.44 539.41 -86.35 544.36Q-90.24 549.29 -96.06 551.18Q-101.89 553.07 -108.89 551.84Q-112.6 551.18 -115.87 549.73Q-119.12 548.29 -121.23 546.34L-115.12 538.2Q-112.31 541.03 -107.38 541.9Q-102.66 542.73 -99.27 540.63Q-95.87 538.54 -94.48 533.66Q-98.84 536.2 -104.95 535.13Q-109.12 534.39 -112.27 532.04Q-115.43 529.69 -116.91 526.16Q-118.39 522.62 -117.67 518.51Q-116.88 514.05 -113.98 511.02Q-111.06 507.98 -106.79 506.82Q-102.52 505.65 -97.73 506.49ZM-100.41 526.69Q-97.7 527.17 -95.73 525.93Q-93.75 524.68 -93.3 522.15Q-92.87 519.71 -94.28 517.87Q-95.66 516.03 -98.49 515.53Q-101.14 515.06 -103.09 516.29Q-105.02 517.5 -105.47 520.09Q-105.92 522.6 -104.53 524.41Q-103.12 526.22 -100.41 526.69Z" stroke="#202027" stroke-opacity="1.000000" stroke-width="1.000000"/>
		<rect id="Frame 2043683129" rx="29.500000" width="159.000000" height="158.999985" transform="translate(-163.847656 437.068848) rotate(10.000000)" stroke="#202027" stroke-opacity="1.000000" stroke-width="1.000000"/>
		<rect id="Frame 2043683130" rx="29.500000" width="159.000000" height="158.999985" transform="translate(5.661133 466.958008) rotate(10.000000)" fill="#D9B6FF" fill-opacity="1.000000"/>
		<path id="4" d="M82.6 575.99L89.16 577.14L90.91 567.25L84.36 566.09L85.68 558.6L73.9 556.52L72.57 564.02L63.61 562.44L86.14 539.83L73.23 537.56L48.56 561.61L47.12 569.73L70.43 573.84L68.94 582.29L81.11 584.43L82.6 575.99Z" fill="#FFFFFF" fill-opacity="1.000000" fill-rule="evenodd"/>
		<path id="4" d="M89.16 577.14L82.6 575.99L81.11 584.43L68.94 582.29L70.43 573.84L47.12 569.73L48.56 561.61L73.23 537.56L86.14 539.83L63.61 562.44L72.57 564.02L73.9 556.52L85.68 558.6L84.36 566.09L90.91 567.25L89.16 577.14Z" stroke="#202027" stroke-opacity="1.000000" stroke-width="1.000000"/>
		<rect id="Frame 2043683130" rx="29.500000" width="159.000000" height="158.999985" transform="translate(5.661133 466.958008) rotate(10.000000)" stroke="#202027" stroke-opacity="1.000000" stroke-width="1.000000"/>
		<rect id="Frame 2043683131" rx="29.500000" width="159.000000" height="158.999985" transform="translate(175.169922 496.847168) rotate(10.000000)" fill="#D9B6FF" fill-opacity="1.000000"/>
		<path id="92" d="M234.68 568.83Q230.29 564.33 222.66 562.99Q218.03 562.17 213.88 563.24Q213.74 563.27 213.61 563.31Q210.74 564.09 208.48 565.72Q207.38 566.52 206.42 567.52Q205.63 568.34 205 569.27Q203.3 571.76 202.73 575Q202.18 578.09 202.88 580.87Q203.12 581.78 203.48 582.66Q204.08 584.09 204.96 585.32Q206.24 587.14 208.12 588.54Q208.63 588.92 209.17 589.26Q211.95 591.01 215.45 591.62Q220.95 592.59 225.04 590.62Q225.48 590.4 225.91 590.15Q224.64 594.61 221.69 596.75Q221.41 596.95 221.12 597.13Q220.59 597.46 220.03 597.71Q216.99 599.1 213.01 598.39Q208.08 597.53 205.27 594.7L199.16 602.84Q201.28 604.78 204.53 606.23Q207.79 607.68 211.5 608.33Q218.5 609.57 224.33 607.67Q226.81 606.87 228.94 605.51Q231.81 603.68 234.04 600.85Q237.95 595.91 239.29 588.35Q241.06 578.33 237.07 571.89Q236.87 571.56 236.65 571.24Q235.77 569.94 234.68 568.83ZM273.05 618.28L274.8 608.39L257.78 605.39L267.47 599.16Q272.6 595.91 274.7 592.99Q275.61 591.73 276.25 590.35Q277.08 588.53 277.44 586.5Q277.93 583.71 277.31 581.2Q277.03 580.08 276.53 579.02Q276.3 578.55 276.05 578.1Q274.41 575.26 271.31 573.26Q267.72 570.93 262.68 570.04Q256.32 568.92 251.21 570.56Q247.71 571.68 245.05 573.83Q243.82 574.82 242.77 576.02L251.13 582.82Q252.36 581.48 253.89 580.73Q254.45 580.45 255.06 580.25Q255.66 580.05 256.28 579.93Q257.97 579.62 259.76 579.94Q262.54 580.43 263.77 581.88Q264.15 582.33 264.38 582.84Q264.89 583.99 264.62 585.47Q264.61 585.53 264.6 585.6Q264.29 587.16 263.23 588.58Q262.13 590.03 259.33 591.89L240.09 604.41L238.7 612.22L273.05 618.28ZM223.88 582.84Q222.18 583.57 219.99 583.19Q217.72 582.79 216.36 581.46Q216.1 581.2 215.87 580.91Q215.4 580.29 215.14 579.6Q214.63 578.24 214.92 576.58Q215.25 574.75 216.31 573.6Q216.75 573.14 217.31 572.78Q217.72 572.52 218.17 572.34Q219.82 571.65 221.9 572.02Q224.38 572.46 225.75 573.93Q225.95 574.14 226.12 574.37Q226.67 575.08 226.93 575.89Q227.35 577.15 227.09 578.65Q226.81 580.25 225.91 581.34Q225.39 581.97 224.66 582.43Q224.28 582.66 223.88 582.84Z" fill="#FFFFFF" fill-opacity="1.000000" fill-rule="evenodd"/>
		<path id="92" d="M222.66 562.99Q232.17 564.66 236.65 571.24Q241.15 577.83 239.29 588.35Q237.95 595.91 234.04 600.85Q230.15 605.78 224.33 607.67Q218.5 609.57 211.5 608.33Q207.79 607.68 204.53 606.23Q201.28 604.78 199.16 602.84L205.27 594.7Q208.08 597.53 213.01 598.39Q217.73 599.23 221.12 597.13Q224.52 595.03 225.91 590.15Q221.55 592.7 215.45 591.62Q211.28 590.89 208.12 588.54Q204.97 586.19 203.48 582.66Q202 579.11 202.73 575Q203.52 570.54 206.42 567.52Q209.34 564.48 213.61 563.31Q217.87 562.14 222.66 562.99ZM219.99 583.19Q222.69 583.67 224.66 582.43Q226.64 581.17 227.09 578.65Q227.52 576.2 226.12 574.37Q224.73 572.52 221.9 572.02Q219.25 571.56 217.31 572.78Q215.38 574 214.92 576.58Q214.48 579.09 215.87 580.91Q217.28 582.71 219.99 583.19ZM274.8 608.39L273.05 618.28L238.7 612.22L240.09 604.41L259.33 591.89Q262.13 590.03 263.23 588.58Q264.34 587.1 264.62 585.47Q265.01 583.32 263.77 581.88Q262.54 580.43 259.76 579.94Q257.3 579.5 255.06 580.25Q252.82 580.98 251.13 582.82L242.77 576.02Q246.11 572.2 251.21 570.56Q256.32 568.92 262.68 570.04Q267.72 570.93 271.31 573.26Q274.9 575.58 276.53 579.02Q278.15 582.46 277.44 586.5Q276.8 590.08 274.7 592.99Q272.6 595.91 267.47 599.16L257.78 605.39L274.8 608.39Z" stroke="#202027" stroke-opacity="1.000000" stroke-width="1.000000"/>
		<rect id="Frame 2043683131" rx="29.500000" width="159.000000" height="158.999985" transform="translate(175.169922 496.847168) rotate(10.000000)" stroke="#202027" stroke-opacity="1.000000" stroke-width="1.000000"/>
		<rect id="Frame 2043683132" rx="29.500000" width="159.000000" height="158.999985" transform="translate(344.678711 526.736084) rotate(10.000000)" fill="#D9B6FF" fill-opacity="1.000000"/>
		<path id="10" d="M409.64 641.47Q413.08 643.87 417.63 644.68Q421.89 645.43 425.74 644.5Q426.95 644.2 428.13 643.74Q429.02 643.39 429.86 642.94Q433.64 640.94 436.43 637.04Q439.84 632.28 441.1 625.16Q442.36 618.05 440.79 612.41Q439.52 607.8 436.65 604.63Q436.01 603.92 435.3 603.29Q434.32 602.42 433.24 601.71Q429.97 599.54 425.76 598.8Q421.25 598 417.22 599.07Q416.19 599.34 415.18 599.74Q414.37 600.06 413.6 600.46Q409.73 602.47 406.89 606.43Q403.48 611.19 402.22 618.3Q400.96 625.43 402.53 631.07Q403.84 635.76 406.78 638.97Q407.37 639.61 408.02 640.19Q408.8 640.88 409.64 641.47ZM391.69 639.2L399.51 595.09L378.84 591.45L377.14 601.08L385.32 602.52L379.22 637L391.69 639.2ZM421.68 634.44Q420.62 634.68 419.44 634.48Q418.19 634.26 417.23 633.61Q415.71 632.59 414.91 630.52Q413.59 627.13 414.76 620.51Q415.93 613.9 418.33 611.18Q419.8 609.51 421.58 609.07Q422.7 608.79 423.95 609.01Q425.13 609.22 426.04 609.82Q427.59 610.83 428.41 612.96Q429.73 616.33 428.56 622.95Q427.39 629.56 424.98 632.3Q423.49 634.02 421.68 634.44Z" fill="#FFFFFF" fill-opacity="1.000000" fill-rule="evenodd"/>
		<path id="10" d="M399.51 595.09L391.69 639.2L379.22 637L385.32 602.52L377.14 601.08L378.84 591.45L399.51 595.09ZM417.63 644.68Q411.96 643.68 408.02 640.19Q404.1 636.71 402.53 631.07Q400.96 625.43 402.22 618.3Q403.48 611.19 406.89 606.43Q410.3 601.67 415.18 599.74Q420.08 597.8 425.76 598.8Q431.36 599.78 435.3 603.29Q439.23 606.77 440.79 612.41Q442.36 618.05 441.1 625.16Q439.84 632.28 436.43 637.04Q433.03 641.81 428.13 643.74Q423.24 645.67 417.63 644.68ZM419.44 634.48Q422.6 635.03 424.98 632.3Q427.39 629.56 428.56 622.95Q429.73 616.33 428.41 612.96Q427.11 609.57 423.95 609.01Q420.74 608.45 418.33 611.18Q415.93 613.9 414.76 620.51Q413.59 627.13 414.91 630.52Q416.23 633.91 419.44 634.48Z" stroke="#202027" stroke-opacity="1.000000" stroke-width="1.000000"/>
		<rect id="Frame 2043683132" rx="29.500000" width="159.000000" height="158.999985" transform="translate(344.678711 526.736084) rotate(10.000000)" stroke="#202027" stroke-opacity="1.000000" stroke-width="1.000000"/>
		<rect id="Frame 2043683133" rx="29.500000" width="159.000000" height="158.999985" transform="translate(514.187500 556.625000) rotate(10.000000)" fill="#D9B6FF" fill-opacity="1.000000"/>
		<path id="7" d="M599.02 638.33L600.41 630.51L563.85 624.07L560.89 640.76L571.54 642.64L572.74 635.84L584.34 637.88L563.4 669.48L577.02 671.88L599.02 638.33Z" fill="#FFFFFF" fill-opacity="1.000000" fill-rule="evenodd"/>
		<path id="7" d="M600.41 630.51L599.02 638.33L577.02 671.88L563.4 669.48L584.34 637.88L572.74 635.84L571.54 642.64L560.89 640.76L563.85 624.07L600.41 630.51Z" stroke="#202027" stroke-opacity="1.000000" stroke-width="1.000000"/>
		<rect id="Frame 2043683133" rx="29.500000" width="159.000000" height="158.999985" transform="translate(514.187500 556.625000) rotate(10.000000)" stroke="#202027" stroke-opacity="1.000000" stroke-width="1.000000"/>
		<g filter="url(#filter_13_1812_dd)">
			<rect id="Frame 2043683065" rx="29.500000" width="238.308655" height="237.943085" transform="translate(202.903320 112.829102) rotate(10.000001)" fill="#E9D4FF" fill-opacity="1.000000"/>
			<path id="?" d="M290.85 251.58Q287.35 255.19 286.24 261.5L308.67 265.45Q309.03 263.44 310.04 261.84Q310.74 260.72 311.77 259.81Q314.26 257.58 319.18 254.68Q323.69 251.98 326.6 249.7Q329.55 247.4 332.01 243.74Q334.49 240.08 335.4 234.94Q336.43 229.14 334.78 224.24Q333.24 219.65 329.36 215.85Q321.32 207.99 306.34 205.35Q292.98 203 282.63 206.25Q276.12 208.3 271.04 212.21Q268.06 214.5 265.58 217.43L282.6 230.8Q284.83 228.2 287.63 226.59Q288.95 225.83 290.4 225.29Q291.65 224.83 292.95 224.56Q296.32 223.86 299.96 224.5Q304.85 225.37 307.54 228.13Q309.03 229.64 309.51 231.43Q309.9 232.9 309.61 234.55Q309.49 235.21 309.27 235.83Q308.59 237.7 306.94 239.22Q304.78 241.22 300.54 243.99Q294.38 247.95 290.85 251.58ZM284.43 293.62Q287.34 295.99 291.58 296.74Q296.11 297.54 299.82 296.14Q301.28 295.6 302.6 294.72Q305 293.12 306.43 290.9Q307.81 288.76 308.29 286.04Q308.87 282.78 308.01 279.97Q307.36 277.86 305.91 276.01Q305.14 275.01 304.22 274.19Q301.1 271.38 296.22 270.52Q291.29 269.65 287.39 271.27Q286.3 271.73 285.29 272.37Q283.39 273.58 282.1 275.27Q280.26 277.66 279.67 281Q279.19 283.71 279.75 286.19Q280.34 288.77 282.04 291.09Q283.1 292.53 284.43 293.62Z" fill="#FFFFFF" fill-opacity="1.000000" fill-rule="evenodd"/>
			<path id="?" d="M286.24 261.5Q287.35 255.19 290.85 251.58Q294.38 247.95 300.54 243.99Q304.78 241.22 306.94 239.22Q309.14 237.2 309.61 234.55Q310.26 230.89 307.54 228.13Q304.85 225.37 299.96 224.5Q294.92 223.61 290.4 225.29Q285.88 226.97 282.6 230.8L265.58 217.43Q272.31 209.51 282.63 206.25Q292.98 203 306.34 205.35Q321.32 207.99 329.36 215.85Q337.39 223.71 335.4 234.94Q334.49 240.08 332.01 243.74Q329.55 247.4 326.6 249.7Q323.69 251.98 319.18 254.68Q314.26 257.58 311.77 259.81Q309.28 262.04 308.67 265.45L286.24 261.5ZM291.58 296.74Q285.39 295.65 282.04 291.09Q278.69 286.53 279.67 281Q280.68 275.3 285.29 272.37Q289.91 269.41 296.22 270.52Q302.53 271.64 305.91 276.01Q309.3 280.35 308.29 286.04Q307.31 291.58 302.6 294.72Q297.89 297.85 291.58 296.74Z" stroke="#202027" stroke-opacity="1.000000" stroke-width="1.000000"/>
			<rect id="Frame 2043683065" rx="29.500000" width="238.308655" height="237.943085" transform="translate(202.903320 112.829102) rotate(10.000001)" stroke="#202027" stroke-opacity="1.000000" stroke-width="1.000000"/>
		</g>
	</g>
</svg>
