<svg width="600.000000" height="500.000000" viewBox="0 0 600 500" fill="none" xmlns="http://www.w3.org/2000/svg" xmlns:xlink="http://www.w3.org/1999/xlink">
	<desc>
			Created with Pixso.
	</desc>
	<defs>
		<clipPath id="clip13_1821">
			<rect id="Обложка карточки" rx="29.500000" width="599.000000" height="499.000000" transform="translate(0.500000 0.500000)" fill="white" fill-opacity="0"/>
		</clipPath>
	</defs>
	<rect id="Обложка карточки" rx="29.500000" width="599.000000" height="499.000000" transform="translate(0.500000 0.500000)" fill="#FDAD00" fill-opacity="1.000000"/>
	<g clip-path="url(#clip13_1821)">
		<rect id="Frame 2043683076" rx="29.500000" width="384.000000" height="125.000000" transform="translate(15.329102 -151.482910) rotate(10.000001)" fill="#FFC700" fill-opacity="1.000000"/>
		<path id="36 − 6 = ?" d="M110.16 -79.69Q107.42 -81.38 104.01 -81.98Q98.44 -82.97 94.35 -80.95Q93.89 -80.73 93.46 -80.47Q94.64 -84.83 97.49 -86.99Q97.84 -87.25 98.21 -87.48Q98.74 -87.81 99.32 -88.07Q102.39 -89.47 106.43 -88.76Q111.35 -87.89 114.17 -85.06L120.3 -93.22Q118.17 -95.21 114.92 -96.63Q111.66 -98.06 107.88 -98.72Q100.88 -99.96 95.08 -98.05Q92.75 -97.28 90.72 -96.03Q87.71 -94.16 85.38 -91.2Q81.49 -86.27 80.15 -78.72Q78.37 -68.67 82.38 -62.21Q82.57 -61.91 82.77 -61.61Q83.69 -60.27 84.83 -59.12Q89.21 -54.7 96.72 -53.38Q101.58 -52.52 105.85 -53.67Q108.79 -54.48 111.08 -56.16Q112.12 -56.92 113.02 -57.87Q113.83 -58.71 114.47 -59.66Q116.16 -62.15 116.73 -65.38Q117.27 -68.42 116.59 -71.15Q116.36 -72.1 115.97 -73.02Q115.36 -74.49 114.46 -75.74Q113.18 -77.53 111.32 -78.9Q110.75 -79.32 110.16 -79.69ZM226.13 -59.24Q223.39 -60.93 219.98 -61.54Q214.41 -62.52 210.32 -60.5Q209.87 -60.28 209.43 -60.02Q210.61 -64.38 213.46 -66.54Q213.81 -66.8 214.18 -67.03Q214.72 -67.37 215.29 -67.63Q218.36 -69.02 222.4 -68.31Q227.33 -67.44 230.14 -64.62L236.27 -72.77Q234.14 -74.76 230.89 -76.18Q227.63 -77.61 223.85 -78.27Q216.85 -79.51 211.05 -77.6Q208.72 -76.83 206.7 -75.58Q203.68 -73.71 201.35 -70.76Q197.46 -65.82 196.12 -58.27Q194.34 -48.22 198.35 -41.77Q198.54 -41.46 198.74 -41.16Q199.67 -39.82 200.8 -38.67Q205.18 -34.25 212.69 -32.93Q217.55 -32.07 221.82 -33.22Q224.76 -34.03 227.05 -35.71Q228.09 -36.48 228.99 -37.42Q229.8 -38.26 230.45 -39.22Q232.13 -41.7 232.7 -44.93Q233.24 -47.97 232.56 -50.7Q232.33 -51.66 231.94 -52.57Q231.33 -54.04 230.43 -55.29Q229.15 -57.08 227.29 -58.45Q226.72 -58.87 226.13 -59.24ZM324.77 -36Q323.02 -34.2 322.46 -31.04L333.68 -29.06Q333.86 -30.07 334.36 -30.87Q334.71 -31.43 335.22 -31.89Q336.47 -33 338.93 -34.45Q341.19 -35.8 342.64 -36.94Q344.12 -38.09 345.34 -39.92Q346.59 -41.75 347.04 -44.32Q347.56 -47.22 346.73 -49.67Q345.96 -51.97 344.02 -53.86Q340 -57.79 332.51 -59.11Q325.83 -60.29 320.66 -58.67Q317.4 -57.64 314.86 -55.69Q313.37 -54.54 312.13 -53.08L320.64 -46.39Q321.76 -47.69 323.16 -48.5Q323.82 -48.88 324.54 -49.14Q325.17 -49.38 325.82 -49.51Q327.5 -49.86 329.32 -49.54Q331.77 -49.11 333.11 -47.73Q333.86 -46.97 334.1 -46.07Q334.29 -45.34 334.15 -44.52Q334.09 -44.19 333.98 -43.88Q333.64 -42.94 332.81 -42.18Q331.73 -41.18 329.61 -39.79Q326.53 -37.81 324.77 -36ZM73.3 -81.17Q70.97 -84.97 65.77 -87.03L76.65 -95.25L78.04 -103.06L46.14 -108.69L44.43 -99.06L61.84 -95.99L52.45 -88.87L51.06 -80.99L56.29 -80.07Q61.08 -79.23 62.08 -76.81Q62.49 -75.83 62.27 -74.59Q62.08 -73.53 61.5 -72.78Q60.87 -71.97 59.77 -71.52Q57.67 -70.66 54.45 -71.22Q51.3 -71.78 48.22 -73.29Q45.14 -74.82 42.88 -77.04L36.68 -68.44Q39.65 -65.77 44.02 -63.83Q46.91 -62.55 49.92 -61.76Q51.47 -61.36 53.05 -61.08Q59.41 -59.96 64.09 -61.24Q68.78 -62.53 71.48 -65.49Q72.92 -67.07 73.79 -68.92Q74.55 -70.54 74.87 -72.37Q75.41 -75.41 74.66 -78.1Q74.23 -79.63 73.38 -81.04Q73.34 -81.1 73.3 -81.17ZM290.39 -55.82L259.32 -61.29L257.71 -52.15L288.77 -46.68L290.39 -55.82ZM173.02 -68.33L141.95 -73.8L140.32 -64.6L171.39 -59.13L173.02 -68.33ZM101.33 -62.72Q99.66 -62.01 97.54 -62.39Q95.04 -62.83 93.65 -64.31Q93.47 -64.51 93.3 -64.72Q92.78 -65.42 92.52 -66.2Q92.08 -67.5 92.35 -69.03Q92.63 -70.63 93.54 -71.72Q94.05 -72.33 94.76 -72.78Q95.17 -73.04 95.61 -73.22Q97.3 -73.93 99.45 -73.55Q101.73 -73.15 103.08 -71.81Q103.33 -71.56 103.56 -71.28Q104.03 -70.67 104.29 -69.99Q104.82 -68.63 104.52 -66.95Q104.2 -65.15 103.16 -64.01Q102.7 -63.51 102.11 -63.14Q101.73 -62.9 101.33 -62.72ZM217.3 -42.28Q215.64 -41.57 213.51 -41.94Q211.01 -42.38 209.62 -43.86Q209.44 -44.06 209.27 -44.27Q208.75 -44.97 208.49 -45.75Q208.05 -47.05 208.32 -48.58Q208.61 -50.18 209.51 -51.27Q210.02 -51.88 210.73 -52.33Q211.14 -52.59 211.58 -52.77Q213.28 -53.48 215.42 -53.11Q217.7 -52.7 219.05 -51.37Q219.3 -51.11 219.53 -50.83Q220 -50.23 220.26 -49.54Q220.79 -48.18 220.49 -46.5Q220.17 -44.7 219.13 -43.56Q218.68 -43.06 218.08 -42.69Q217.71 -42.45 217.3 -42.28ZM287.57 -39.86L256.5 -45.34L254.88 -36.2L285.95 -30.72L287.57 -39.86ZM321.56 -14.98Q323.01 -13.79 325.13 -13.42Q327.4 -13.02 329.25 -13.72Q329.98 -13.99 330.64 -14.43Q331.84 -15.23 332.56 -16.34Q333.25 -17.41 333.49 -18.77Q333.78 -20.4 333.35 -21.81Q333.02 -22.86 332.3 -23.79Q331.91 -24.28 331.45 -24.7Q329.89 -26.1 327.45 -26.53Q324.99 -26.96 323.04 -26.15Q322.49 -25.93 321.99 -25.6Q321.04 -25 320.39 -24.16Q319.47 -22.96 319.18 -21.29Q318.94 -19.93 319.22 -18.69Q319.51 -17.41 320.36 -16.24Q320.89 -15.53 321.56 -14.98Z" fill="#FFFFFF" fill-opacity="1.000000" fill-rule="evenodd"/>
		<path id="36 − 6 = ?" d="M65.77 -87.03Q71.05 -84.94 73.38 -81.04Q75.72 -77.15 74.87 -72.37Q74.18 -68.46 71.48 -65.49Q68.78 -62.53 64.09 -61.24Q59.41 -59.96 53.05 -61.08Q48.39 -61.9 44.02 -63.83Q39.65 -65.77 36.68 -68.44L42.88 -77.04Q45.14 -74.82 48.22 -73.29Q51.3 -71.78 54.45 -71.22Q57.67 -70.66 59.77 -71.52Q61.88 -72.39 62.27 -74.59Q63.03 -78.88 56.29 -80.07L51.06 -80.99L52.45 -88.87L61.84 -95.99L44.43 -99.06L46.14 -108.69L78.04 -103.06L76.65 -95.25L65.77 -87.03ZM104.01 -81.98Q108.16 -81.25 111.32 -78.9Q114.49 -76.57 115.97 -73.02Q117.45 -69.48 116.73 -65.38Q115.94 -60.91 113.02 -57.87Q110.12 -54.84 105.85 -53.67Q101.58 -52.52 96.72 -53.38Q87.27 -55.04 82.77 -61.61Q78.29 -68.19 80.15 -78.72Q81.49 -86.27 85.38 -91.2Q89.28 -96.15 95.08 -98.05Q100.88 -99.96 107.88 -98.72Q111.66 -98.06 114.92 -96.63Q118.17 -95.21 120.3 -93.22L114.17 -85.06Q111.35 -87.89 106.43 -88.76Q101.64 -89.6 98.21 -87.48Q94.78 -85.36 93.46 -80.47Q97.82 -83.08 104.01 -81.98ZM97.54 -62.39Q100.18 -61.92 102.11 -63.14Q104.06 -64.36 104.52 -66.95Q104.97 -69.47 103.56 -71.28Q102.16 -73.08 99.45 -73.55Q96.74 -74.03 94.76 -72.78Q92.8 -71.54 92.35 -69.03Q91.92 -66.57 93.3 -64.72Q94.71 -62.89 97.54 -62.39ZM141.95 -73.8L173.02 -68.33L171.39 -59.13L140.32 -64.6L141.95 -73.8ZM219.98 -61.54Q224.13 -60.8 227.29 -58.45Q230.46 -56.12 231.94 -52.57Q233.43 -49.03 232.7 -44.93Q231.91 -40.46 228.99 -37.42Q226.09 -34.39 221.82 -33.22Q217.55 -32.07 212.69 -32.93Q203.24 -34.6 198.74 -41.16Q194.26 -47.75 196.12 -58.27Q197.46 -65.82 201.35 -70.76Q205.25 -75.7 211.05 -77.6Q216.85 -79.51 223.85 -78.27Q227.63 -77.61 230.89 -76.18Q234.14 -74.76 236.27 -72.77L230.14 -64.62Q227.33 -67.44 222.4 -68.31Q217.62 -69.16 214.18 -67.03Q210.75 -64.91 209.43 -60.02Q213.79 -62.63 219.98 -61.54ZM213.51 -41.94Q216.16 -41.47 218.08 -42.69Q220.03 -43.92 220.49 -46.5Q220.94 -49.02 219.53 -50.83Q218.13 -52.63 215.42 -53.11Q212.72 -53.58 210.73 -52.33Q208.77 -51.09 208.32 -48.58Q207.89 -46.12 209.27 -44.27Q210.68 -42.44 213.51 -41.94ZM259.32 -61.29L290.39 -55.82L288.77 -46.68L257.71 -52.15L259.32 -61.29ZM256.5 -45.34L287.57 -39.86L285.95 -30.72L254.88 -36.2L256.5 -45.34ZM322.46 -31.04Q323.02 -34.2 324.77 -36Q326.53 -37.81 329.61 -39.79Q331.73 -41.18 332.81 -42.18Q333.91 -43.19 334.15 -44.52Q334.47 -46.35 333.11 -47.73Q331.77 -49.11 329.32 -49.54Q326.8 -49.98 324.54 -49.14Q322.28 -48.3 320.64 -46.39L312.13 -53.08Q315.5 -57.04 320.66 -58.67Q325.83 -60.29 332.51 -59.11Q340 -57.79 344.02 -53.86Q348.04 -49.94 347.04 -44.32Q346.59 -41.75 345.34 -39.92Q344.12 -38.09 342.64 -36.94Q341.19 -35.8 338.93 -34.45Q336.47 -33 335.22 -31.89Q333.98 -30.77 333.68 -29.06L322.46 -31.04ZM325.13 -13.42Q322.04 -13.97 320.36 -16.24Q318.69 -18.52 319.18 -21.29Q319.68 -24.14 321.99 -25.6Q324.3 -27.09 327.45 -26.53Q330.61 -25.97 332.3 -23.79Q333.99 -21.62 333.49 -18.77Q333 -16 330.64 -14.43Q328.29 -12.86 325.13 -13.42Z" stroke="#202027" stroke-opacity="1.000000" stroke-width="1.000000"/>
		<rect id="Frame 2043683076" rx="29.500000" width="384.000000" height="125.000000" transform="translate(15.329102 -151.482910) rotate(10.000001)" stroke="#202027" stroke-opacity="1.000000" stroke-width="1.000000"/>
		<rect id="Frame 2043683094" rx="29.500000" width="345.000000" height="125.000000" transform="translate(406.394531 -82.527832) rotate(10.000001)" fill="#FFC700" fill-opacity="1.000000"/>
		<path id="4 ÷ 2 = ?" d="M582.57 31.39L584.32 21.49L567.3 18.49L576.99 12.27Q582.12 9.01 584.22 6.1Q585.13 4.84 585.76 3.45Q586.6 1.64 586.96 -0.4Q587.45 -3.19 586.83 -5.7Q586.55 -6.81 586.04 -7.87Q585.82 -8.34 585.57 -8.79Q583.93 -11.63 580.83 -13.63Q577.24 -15.96 572.2 -16.85Q565.84 -17.97 560.73 -16.34Q557.23 -15.21 554.56 -13.06Q553.34 -12.08 552.28 -10.87L560.65 -4.07Q561.88 -5.41 563.41 -6.17Q563.97 -6.45 564.58 -6.64Q565.18 -6.85 565.8 -6.96Q567.49 -7.27 569.28 -6.96Q572.05 -6.47 573.29 -5.01Q573.67 -4.57 573.9 -4.05Q574.41 -2.9 574.14 -1.42Q574.13 -1.36 574.12 -1.3Q573.81 0.27 572.75 1.68Q571.65 3.14 568.85 4.99L549.61 17.51L548.22 25.33L582.57 31.39ZM677.66 26.23Q675.91 28.03 675.35 31.18L686.57 33.16Q686.75 32.15 687.25 31.35Q687.6 30.8 688.11 30.34Q689.36 29.22 691.82 27.77Q694.08 26.42 695.53 25.28Q697 24.13 698.23 22.3Q699.48 20.47 699.93 17.9Q700.45 15 699.62 12.55Q698.85 10.26 696.91 8.36Q692.89 4.43 685.4 3.11Q678.72 1.93 673.55 3.56Q670.29 4.58 667.75 6.54Q666.26 7.68 665.02 9.15L673.53 15.84Q674.64 14.53 676.05 13.73Q676.71 13.35 677.43 13.08Q678.06 12.85 678.71 12.71Q680.39 12.36 682.21 12.69Q684.66 13.12 686 14.5Q686.75 15.26 686.99 16.15Q687.18 16.88 687.03 17.71Q686.98 18.04 686.87 18.35Q686.53 19.28 685.7 20.04Q684.62 21.04 682.5 22.43Q679.42 24.41 677.66 26.23ZM465.83 2.09L472.39 3.25L474.14 -6.65L467.58 -7.8L468.91 -15.29L457.12 -17.37L455.8 -9.88L446.84 -11.46L469.36 -34.06L456.45 -36.34L431.79 -12.29L430.35 -4.17L453.66 -0.06L452.16 8.39L464.34 10.54L465.83 2.09ZM511.12 -12.43Q512.33 -11.48 514.06 -11.17Q515.6 -10.9 516.96 -11.28Q517.88 -11.54 518.71 -12.1Q519.5 -12.63 520.06 -13.34Q520.96 -14.5 521.25 -16.14Q521.55 -17.82 521.06 -19.23Q520.78 -20.04 520.25 -20.76Q519.67 -21.54 518.91 -22.09Q517.76 -22.93 516.19 -23.2Q514.44 -23.51 512.96 -23.02Q512.2 -22.77 511.51 -22.3Q510.82 -21.84 510.32 -21.23Q509.33 -20.05 509.02 -18.3Q508.72 -16.59 509.2 -15.15Q509.47 -14.35 509.97 -13.64Q510.47 -12.94 511.12 -12.43ZM643.28 6.41L612.21 0.93L610.59 10.07L641.66 15.55L643.28 6.41ZM529.06 -5.55L497.99 -11.02L496.36 -1.82L527.43 3.65L529.06 -5.55ZM640.46 22.36L609.39 16.88L607.77 26.02L638.84 31.5L640.46 22.36ZM506.4 14.64Q507.59 15.56 509.27 15.86Q510.77 16.12 512.1 15.76Q513.06 15.5 513.93 14.9Q514.75 14.34 515.31 13.6Q516.19 12.44 516.48 10.83Q516.75 9.28 516.33 7.95Q516.05 7.06 515.46 6.27Q514.88 5.49 514.13 4.94Q512.97 4.1 511.4 3.83Q509.6 3.51 508.09 4.03Q507.37 4.27 506.72 4.7Q506.06 5.14 505.57 5.71Q504.56 6.9 504.24 8.67Q503.95 10.35 504.4 11.78Q504.67 12.61 505.19 13.36Q505.72 14.11 506.4 14.64ZM674.45 47.24Q675.9 48.43 678.02 48.8Q680.29 49.2 682.14 48.51Q682.87 48.23 683.53 47.79Q684.73 46.99 685.45 45.88Q686.14 44.81 686.38 43.45Q686.67 41.83 686.23 40.42Q685.91 39.37 685.19 38.44Q684.8 37.94 684.34 37.53Q682.78 36.12 680.34 35.69Q677.88 35.26 675.93 36.07Q675.38 36.3 674.88 36.62Q673.92 37.23 673.28 38.07Q672.36 39.26 672.07 40.93Q671.83 42.29 672.11 43.53Q672.4 44.82 673.25 45.98Q673.78 46.7 674.45 47.24Z" fill="#FFFFFF" fill-opacity="1.000000" fill-rule="evenodd"/>
		<path id="4 ÷ 2 = ?" d="M472.39 3.25L465.83 2.09L464.34 10.54L452.16 8.39L453.66 -0.06L430.35 -4.17L431.79 -12.29L456.45 -36.34L469.36 -34.06L446.84 -11.46L455.8 -9.88L457.12 -17.37L468.91 -15.29L467.58 -7.8L474.14 -6.65L472.39 3.25ZM514.06 -11.17Q511.41 -11.64 509.97 -13.64Q508.55 -15.65 509.02 -18.3Q509.49 -20.94 511.51 -22.3Q513.54 -23.67 516.19 -23.2Q518.77 -22.75 520.25 -20.76Q521.72 -18.79 521.25 -16.14Q520.78 -13.49 518.71 -12.1Q516.64 -10.72 514.06 -11.17ZM497.99 -11.02L529.06 -5.55L527.43 3.65L496.36 -1.82L497.99 -11.02ZM509.27 15.86Q506.62 15.39 505.19 13.36Q503.77 11.32 504.24 8.67Q504.71 6.03 506.72 4.7Q508.75 3.36 511.4 3.83Q513.99 4.28 515.46 6.27Q516.93 8.25 516.48 10.83Q516.01 13.48 513.93 14.9Q511.85 16.31 509.27 15.86ZM584.32 21.49L582.57 31.39L548.22 25.33L549.61 17.51L568.85 4.99Q571.65 3.14 572.75 1.68Q573.85 0.21 574.14 -1.42Q574.52 -3.57 573.29 -5.01Q572.05 -6.47 569.28 -6.96Q566.82 -7.39 564.58 -6.64Q562.34 -5.91 560.65 -4.07L552.28 -10.87Q555.63 -14.7 560.73 -16.34Q565.84 -17.97 572.2 -16.85Q577.24 -15.96 580.83 -13.63Q584.42 -11.32 586.04 -7.87Q587.67 -4.43 586.96 -0.4Q586.32 3.19 584.22 6.1Q582.12 9.01 576.99 12.27L567.3 18.49L584.32 21.49ZM612.21 0.93L643.28 6.41L641.66 15.55L610.59 10.07L612.21 0.93ZM609.39 16.88L640.46 22.36L638.84 31.5L607.77 26.02L609.39 16.88ZM675.35 31.18Q675.91 28.03 677.66 26.23Q679.42 24.41 682.5 22.43Q684.62 21.04 685.7 20.04Q686.8 19.03 687.03 17.71Q687.36 15.88 686 14.5Q684.66 13.12 682.21 12.69Q679.69 12.24 677.43 13.08Q675.17 13.92 673.53 15.84L665.02 9.15Q668.39 5.19 673.55 3.56Q678.72 1.93 685.4 3.11Q692.89 4.43 696.91 8.36Q700.93 12.29 699.93 17.9Q699.48 20.47 698.23 22.3Q697 24.13 695.53 25.28Q694.08 26.42 691.82 27.77Q689.36 29.22 688.11 30.34Q686.87 31.45 686.57 33.16L675.35 31.18ZM678.02 48.8Q674.93 48.26 673.25 45.98Q671.58 43.7 672.07 40.93Q672.57 38.08 674.88 36.62Q677.19 35.14 680.34 35.69Q683.5 36.25 685.19 38.44Q686.88 40.61 686.38 43.45Q685.89 46.22 683.53 47.79Q681.17 49.36 678.02 48.8Z" stroke="#202027" stroke-opacity="1.000000" stroke-width="1.000000"/>
		<rect id="Frame 2043683094" rx="29.500000" width="345.000000" height="125.000000" transform="translate(406.394531 -82.527832) rotate(10.000001)" stroke="#202027" stroke-opacity="1.000000" stroke-width="1.000000"/>
		<rect id="Frame 2043683071" rx="29.500000" width="421.000000" height="125.000000" transform="translate(-8.633789 -15.579590) rotate(10.000001)" fill="#FFC700" fill-opacity="1.000000"/>
		<path id="100 ÷ 4 = ?" d="M51.17 76.92Q54.6 79.32 59.16 80.13Q63.41 80.88 67.26 79.95Q68.48 79.65 69.66 79.19Q70.55 78.84 71.39 78.39Q75.17 76.39 77.95 72.49Q81.37 67.73 82.63 60.61Q83.89 53.5 82.31 47.86Q81.04 43.25 78.17 40.08Q77.54 39.37 76.82 38.74Q75.85 37.87 74.77 37.16Q71.5 34.99 67.29 34.25Q62.77 33.45 58.75 34.52Q57.71 34.79 56.71 35.19Q55.89 35.51 55.12 35.92Q51.26 37.92 48.42 41.88Q45 46.64 43.74 53.75Q42.48 60.88 44.05 66.52Q45.36 71.21 48.3 74.42Q48.89 75.06 49.55 75.64Q50.32 76.33 51.17 76.92ZM94.34 84.53Q97.78 86.94 102.33 87.74Q106.59 88.49 110.44 87.56Q111.65 87.26 112.83 86.8Q113.72 86.45 114.56 86Q118.34 84 121.13 80.11Q124.54 75.35 125.8 68.22Q127.06 61.11 125.49 55.47Q124.22 50.86 121.35 47.69Q120.71 46.98 120 46.35Q119.02 45.48 117.94 44.77Q114.67 42.6 110.46 41.86Q105.95 41.06 101.92 42.13Q100.89 42.41 99.88 42.8Q99.07 43.13 98.29 43.53Q94.43 45.53 91.59 49.5Q88.18 54.26 86.92 61.37Q85.65 68.49 87.23 74.13Q88.54 78.83 91.47 82.03Q92.06 82.67 92.72 83.25Q93.5 83.94 94.34 84.53ZM336.8 106.25Q335.06 108.05 334.5 111.21L345.71 113.19Q345.89 112.18 346.4 111.38Q346.75 110.82 347.26 110.37Q348.51 109.25 350.97 107.8Q353.22 106.45 354.68 105.31Q356.15 104.16 357.38 102.33Q358.62 100.5 359.08 97.93Q359.59 95.03 358.77 92.58Q358 90.29 356.06 88.39Q352.04 84.46 344.55 83.14Q337.87 81.96 332.69 83.58Q329.44 84.61 326.9 86.57Q325.41 87.71 324.17 89.17L332.68 95.86Q333.79 94.56 335.19 93.76Q335.85 93.38 336.58 93.11Q337.21 92.87 337.85 92.74Q339.54 92.39 341.36 92.71Q343.81 93.14 345.15 94.52Q345.89 95.28 346.13 96.18Q346.33 96.91 346.18 97.74Q346.12 98.06 346.01 98.37Q345.67 99.31 344.85 100.07Q343.77 101.07 341.65 102.46Q338.57 104.44 336.8 106.25ZM33.22 74.65L41.03 30.54L20.37 26.9L18.66 36.53L26.85 37.97L20.74 72.45L33.22 74.65ZM237.8 102.01L244.35 103.17L246.11 93.27L239.55 92.12L240.88 84.63L229.09 82.55L227.76 90.04L218.81 88.46L241.33 65.86L228.42 63.58L203.75 87.63L202.31 95.75L225.63 99.87L224.13 108.31L236.3 110.46L237.8 102.01ZM163.9 66.47Q165.12 67.43 166.84 67.73Q168.38 68 169.74 67.62Q170.66 67.36 171.49 66.81Q172.28 66.28 172.84 65.56Q173.74 64.4 174.03 62.76Q174.33 61.08 173.85 59.67Q173.57 58.86 173.03 58.14Q172.45 57.36 171.7 56.82Q170.54 55.98 168.97 55.7Q167.22 55.39 165.74 55.88Q164.98 56.14 164.29 56.6Q163.61 57.06 163.1 57.67Q162.11 58.86 161.8 60.61Q161.5 62.31 161.98 63.76Q162.25 64.55 162.75 65.27Q163.25 65.96 163.9 66.47ZM63.21 69.89Q62.14 70.13 60.97 69.93Q59.72 69.71 58.75 69.06Q57.24 68.04 56.43 65.97Q55.11 62.58 56.28 55.96Q57.46 49.35 59.86 46.63Q61.33 44.96 63.1 44.52Q64.23 44.24 65.48 44.46Q66.65 44.67 67.57 45.27Q69.12 46.28 69.94 48.41Q71.26 51.78 70.09 58.4Q68.91 65.01 66.51 67.75Q65.01 69.47 63.21 69.89ZM106.38 77.5Q105.32 77.75 104.14 77.54Q102.89 77.32 101.93 76.67Q100.41 75.66 99.61 73.58Q98.29 70.19 99.46 63.58Q100.63 56.96 103.03 54.24Q104.5 52.57 106.28 52.13Q107.4 51.86 108.65 52.08Q109.83 52.28 110.74 52.88Q112.29 53.89 113.11 56.02Q114.43 59.39 113.26 66.01Q112.09 72.63 109.68 75.36Q108.18 77.08 106.38 77.5ZM302.43 86.44L271.36 80.96L269.74 90.1L300.81 95.57L302.43 86.44ZM181.84 73.36L150.77 67.88L149.14 77.08L180.21 82.56L181.84 73.36ZM299.6 102.39L268.54 96.91L266.92 106.05L297.98 111.53L299.6 102.39ZM159.19 93.55Q160.38 94.47 162.05 94.76Q163.55 95.03 164.88 94.66Q165.84 94.4 166.71 93.81Q167.53 93.25 168.09 92.5Q168.97 91.34 169.26 89.74Q169.53 88.19 169.11 86.86Q168.83 85.97 168.24 85.18Q167.66 84.39 166.91 83.85Q165.75 83.01 164.18 82.73Q162.38 82.41 160.87 82.93Q160.16 83.18 159.5 83.61Q158.84 84.04 158.35 84.62Q157.34 85.8 157.02 87.58Q156.73 89.25 157.19 90.69Q157.45 91.52 157.97 92.27Q158.5 93.01 159.19 93.55ZM333.59 127.27Q335.05 128.46 337.17 128.83Q339.44 129.23 341.29 128.53Q342.02 128.26 342.68 127.82Q343.88 127.02 344.6 125.91Q345.28 124.84 345.53 123.48Q345.81 121.85 345.38 120.44Q345.06 119.39 344.34 118.46Q343.95 117.97 343.49 117.55Q341.93 116.15 339.49 115.72Q337.02 115.29 335.08 116.1Q334.53 116.32 334.03 116.65Q333.07 117.25 332.43 118.09Q331.51 119.29 331.22 120.96Q330.97 122.32 331.25 123.56Q331.55 124.85 332.4 126.01Q332.93 126.72 333.59 127.27Z" fill="#FFFFFF" fill-opacity="1.000000" fill-rule="evenodd"/>
		<path id="100 ÷ 4 = ?" d="M41.03 30.54L33.22 74.65L20.74 72.45L26.85 37.97L18.66 36.53L20.37 26.9L41.03 30.54ZM59.16 80.13Q53.48 79.13 49.55 75.64Q45.62 72.16 44.05 66.52Q42.48 60.88 43.74 53.75Q45 46.64 48.42 41.88Q51.83 37.12 56.71 35.19Q61.61 33.25 67.29 34.25Q72.89 35.24 76.82 38.74Q80.76 42.22 82.31 47.86Q83.89 53.5 82.63 60.61Q81.37 67.73 77.95 72.49Q74.55 77.26 69.66 79.19Q64.76 81.12 59.16 80.13ZM60.97 69.93Q64.12 70.48 66.51 67.75Q68.91 65.01 70.09 58.4Q71.26 51.78 69.94 48.41Q68.63 45.02 65.48 44.46Q62.26 43.9 59.86 46.63Q57.46 49.35 56.28 55.96Q55.11 62.58 56.43 65.97Q57.75 69.36 60.97 69.93ZM102.33 87.74Q96.66 86.74 92.72 83.25Q88.8 79.77 87.23 74.13Q85.65 68.49 86.92 61.37Q88.18 54.26 91.59 49.5Q95 44.74 99.88 42.8Q104.78 40.86 110.46 41.86Q116.06 42.85 120 46.35Q123.93 49.84 125.49 55.47Q127.06 61.11 125.8 68.22Q124.54 75.35 121.13 80.11Q117.73 84.87 112.83 86.8Q107.94 88.73 102.33 87.74ZM104.14 77.54Q107.3 78.1 109.68 75.36Q112.09 72.63 113.26 66.01Q114.43 59.39 113.11 56.02Q111.81 52.63 108.65 52.08Q105.44 51.51 103.03 54.24Q100.63 56.96 99.46 63.58Q98.29 70.19 99.61 73.58Q100.93 76.97 104.14 77.54ZM166.84 67.73Q164.19 67.26 162.75 65.27Q161.33 63.25 161.8 60.61Q162.27 57.96 164.29 56.6Q166.32 55.23 168.97 55.7Q171.56 56.16 173.03 58.14Q174.5 60.12 174.03 62.76Q173.57 65.41 171.49 66.81Q169.42 68.19 166.84 67.73ZM150.77 67.88L181.84 73.36L180.21 82.56L149.14 77.08L150.77 67.88ZM162.05 94.76Q159.4 94.3 157.97 92.27Q156.56 90.22 157.02 87.58Q157.49 84.93 159.5 83.61Q161.53 82.27 164.18 82.73Q166.77 83.19 168.24 85.18Q169.72 87.15 169.26 89.74Q168.79 92.38 166.71 93.81Q164.64 95.22 162.05 94.76ZM244.35 103.17L237.8 102.01L236.3 110.46L224.13 108.31L225.63 99.87L202.31 95.75L203.75 87.63L228.42 63.58L241.33 65.86L218.81 88.46L227.76 90.04L229.09 82.55L240.88 84.63L239.55 92.12L246.11 93.27L244.35 103.17ZM271.36 80.96L302.43 86.44L300.81 95.57L269.74 90.1L271.36 80.96ZM268.54 96.91L299.6 102.39L297.98 111.53L266.92 106.05L268.54 96.91ZM334.5 111.21Q335.06 108.05 336.8 106.25Q338.57 104.44 341.65 102.46Q343.77 101.07 344.85 100.07Q345.95 99.06 346.18 97.74Q346.51 95.91 345.15 94.52Q343.81 93.14 341.36 92.71Q338.84 92.27 336.58 93.11Q334.32 93.95 332.68 95.86L324.17 89.17Q327.53 85.21 332.69 83.58Q337.87 81.96 344.55 83.14Q352.04 84.46 356.06 88.39Q360.07 92.32 359.08 97.93Q358.62 100.5 357.38 102.33Q356.15 104.16 354.68 105.31Q353.22 106.45 350.97 107.8Q348.51 109.25 347.26 110.37Q346.02 111.48 345.71 113.19L334.5 111.21ZM337.17 128.83Q334.07 128.28 332.4 126.01Q330.72 123.73 331.22 120.96Q331.72 118.11 334.03 116.65Q336.34 115.17 339.49 115.72Q342.64 116.28 344.34 118.46Q346.03 120.64 345.53 123.48Q345.03 126.25 342.68 127.82Q340.32 129.39 337.17 128.83Z" stroke="#202027" stroke-opacity="1.000000" stroke-width="1.000000"/>
		<rect id="Frame 2043683071" rx="29.500000" width="421.000000" height="125.000000" transform="translate(-8.633789 -15.579590) rotate(10.000001)" stroke="#202027" stroke-opacity="1.000000" stroke-width="1.000000"/>
		<rect id="Frame 2043683075" rx="29.500000" width="327.000000" height="125.000000" transform="translate(418.869141 59.800781) rotate(10.000001)" fill="#FFEC8F" fill-opacity="1.000000"/>
		<path id="1 + 3 = ?" d="M672.1 165.37Q670.35 167.18 669.79 170.33L681.01 172.31Q681.19 171.3 681.69 170.5Q682.04 169.94 682.56 169.49Q683.8 168.37 686.26 166.92Q688.52 165.57 689.97 164.43Q691.45 163.28 692.67 161.45Q693.92 159.62 694.37 157.05Q694.89 154.15 694.06 151.7Q693.29 149.41 691.35 147.51Q687.33 143.58 679.84 142.26Q673.16 141.08 667.99 142.71Q664.73 143.73 662.19 145.69Q660.7 146.83 659.46 148.3L667.97 154.98Q669.09 153.68 670.49 152.88Q671.15 152.5 671.87 152.23Q672.5 152 673.15 151.86Q674.83 151.51 676.65 151.83Q679.1 152.27 680.44 153.64Q681.19 154.4 681.43 155.3Q681.62 156.03 681.48 156.86Q681.42 157.19 681.31 157.5Q680.97 158.43 680.14 159.19Q679.06 160.19 676.94 161.58Q673.86 163.56 672.1 165.37ZM460.98 150.07L468.79 105.96L448.12 102.32L446.42 111.95L454.6 113.4L448.5 147.87L460.98 150.07ZM577.51 147.87Q575.17 144.06 569.98 142L580.86 133.78L582.24 125.97L550.35 120.35L548.64 129.98L566.04 133.05L556.66 140.16L555.26 148.04L560.49 148.96Q565.29 149.81 566.29 152.23Q566.69 153.21 566.47 154.45Q566.29 155.5 565.7 156.25Q565.07 157.06 563.98 157.51Q561.87 158.38 558.66 157.81Q555.5 157.25 552.42 155.74Q549.34 154.22 547.09 151.99L540.88 160.59Q543.86 163.26 548.22 165.21Q551.11 166.48 554.13 167.27Q555.68 167.68 557.26 167.96Q563.61 169.08 568.3 167.79Q572.99 166.51 575.68 163.54Q577.12 161.96 577.99 160.11Q578.75 158.49 579.08 156.67Q579.62 153.62 578.86 150.94Q578.43 149.41 577.58 147.99Q577.54 147.93 577.51 147.87ZM510.97 140.88L521.62 142.76L523.24 133.56L512.6 131.68L514.44 121.3L504.73 119.58L502.89 129.97L492.18 128.08L490.55 137.28L501.26 139.17L499.42 149.57L509.12 151.28L510.97 140.88ZM637.72 145.56L606.65 140.08L605.04 149.22L636.1 154.7L637.72 145.56ZM634.9 161.51L603.83 156.03L602.21 165.17L633.28 170.65L634.9 161.51ZM668.89 186.39Q670.34 187.58 672.46 187.95Q674.73 188.35 676.58 187.65Q677.31 187.38 677.97 186.94Q679.17 186.14 679.89 185.03Q680.58 183.96 680.82 182.6Q681.11 180.97 680.68 179.57Q680.35 178.51 679.63 177.59Q679.24 177.09 678.78 176.68Q677.22 175.27 674.78 174.84Q672.32 174.41 670.37 175.22Q669.82 175.44 669.32 175.77Q668.37 176.37 667.72 177.22Q666.8 178.41 666.51 180.08Q666.27 181.44 666.55 182.68Q666.84 183.97 667.69 185.13Q668.22 185.84 668.89 186.39Z" fill="#FFFFFF" fill-opacity="1.000000" fill-rule="evenodd"/>
		<path id="1 + 3 = ?" d="M468.79 105.96L460.98 150.07L448.5 147.87L454.6 113.4L446.42 111.95L448.12 102.32L468.79 105.96ZM521.62 142.76L510.97 140.88L509.12 151.28L499.42 149.57L501.26 139.17L490.55 137.28L492.18 128.08L502.89 129.97L504.73 119.58L514.44 121.3L512.6 131.68L523.24 133.56L521.62 142.76ZM569.98 142Q575.26 144.09 577.58 147.99Q579.92 151.88 579.08 156.67Q578.38 160.58 575.68 163.54Q572.99 166.51 568.3 167.79Q563.61 169.08 557.26 167.96Q552.59 167.13 548.22 165.21Q543.86 163.26 540.88 160.59L547.09 151.99Q549.34 154.22 552.42 155.74Q555.5 157.25 558.66 157.81Q561.87 158.38 563.98 157.51Q566.08 156.64 566.47 154.45Q567.23 150.15 560.49 148.96L555.26 148.04L556.66 140.16L566.04 133.05L548.64 129.98L550.35 120.35L582.24 125.97L580.86 133.78L569.98 142ZM606.65 140.08L637.72 145.56L636.1 154.7L605.04 149.22L606.65 140.08ZM603.83 156.03L634.9 161.51L633.28 170.65L602.21 165.17L603.83 156.03ZM669.79 170.33Q670.35 167.18 672.1 165.37Q673.86 163.56 676.94 161.58Q679.06 160.19 680.14 159.19Q681.24 158.18 681.48 156.86Q681.8 155.03 680.44 153.64Q679.1 152.27 676.65 151.83Q674.13 151.39 671.87 152.23Q669.61 153.07 667.97 154.98L659.46 148.3Q662.83 144.34 667.99 142.71Q673.16 141.08 679.84 142.26Q687.33 143.58 691.35 147.51Q695.37 151.44 694.37 157.05Q693.92 159.62 692.67 161.45Q691.45 163.28 689.97 164.43Q688.52 165.57 686.26 166.92Q683.8 168.37 682.56 169.49Q681.31 170.6 681.01 172.31L669.79 170.33ZM672.46 187.95Q669.37 187.41 667.69 185.13Q666.02 182.85 666.51 180.08Q667.01 177.23 669.32 175.77Q671.63 174.29 674.78 174.84Q677.94 175.4 679.63 177.59Q681.32 179.76 680.82 182.6Q680.33 185.37 677.97 186.94Q675.62 188.51 672.46 187.95Z" stroke="#202027" stroke-opacity="1.000000" stroke-width="1.000000"/>
		<rect id="Frame 2043683075" rx="29.500000" width="327.000000" height="125.000000" transform="translate(418.869141 59.800781) rotate(10.000001)" stroke="#202027" stroke-opacity="1.000000" stroke-width="1.000000"/>
		<rect id="Frame 2043683074" rx="29.500000" width="330.000000" height="125.000000" transform="translate(-32.597656 120.323730) rotate(10.000001)" fill="#FFEC8F" fill-opacity="1.000000"/>
		<path id="9 + 1 = ?" d="M26.76 170.96Q22.37 166.46 14.74 165.11Q10.1 164.29 5.96 165.36Q5.82 165.4 5.68 165.43Q2.82 166.22 0.56 167.85Q-0.55 168.64 -1.5 169.64Q-2.29 170.46 -2.93 171.39Q-4.62 173.88 -5.19 177.13Q-5.74 180.22 -5.04 182.99Q-4.81 183.91 -4.44 184.78Q-3.84 186.21 -2.97 187.45Q-1.68 189.26 0.2 190.66Q0.71 191.04 1.25 191.38Q4.03 193.13 7.52 193.75Q13.03 194.72 17.11 192.74Q17.56 192.53 17.99 192.28Q16.72 196.74 13.77 198.87Q13.49 199.07 13.2 199.25Q12.67 199.58 12.1 199.84Q9.07 201.22 5.09 200.52Q0.16 199.65 -2.65 196.82L-8.76 204.96Q-6.65 206.91 -3.39 208.35Q-0.13 209.8 3.58 210.46Q10.58 211.69 16.41 209.8Q18.89 208.99 21.02 207.63Q23.89 205.8 26.12 202.98Q30.03 198.03 31.37 190.48Q33.14 180.46 29.15 174.01Q28.95 173.69 28.73 173.37Q27.84 172.07 26.76 170.96ZM223.56 226.41Q221.81 228.22 221.25 231.37L232.47 233.35Q232.65 232.34 233.15 231.54Q233.51 230.98 234.02 230.53Q235.26 229.41 237.72 227.96Q239.98 226.61 241.43 225.47Q242.91 224.32 244.14 222.49Q245.38 220.66 245.83 218.09Q246.35 215.19 245.52 212.74Q244.75 210.45 242.81 208.55Q238.8 204.62 231.3 203.3Q224.62 202.12 219.45 203.75Q216.19 204.77 213.65 206.73Q212.16 207.87 210.92 209.33L219.43 216.02Q220.55 214.72 221.95 213.92Q222.61 213.54 223.33 213.27Q223.96 213.03 224.61 212.9Q226.29 212.55 228.11 212.87Q230.56 213.31 231.9 214.68Q232.65 215.44 232.89 216.34Q233.08 217.07 232.94 217.9Q232.88 218.23 232.77 218.53Q232.43 219.47 231.6 220.23Q230.52 221.23 228.4 222.62Q225.32 224.6 223.56 226.41ZM125.51 231.05L133.32 186.94L112.66 183.3L110.95 192.93L119.14 194.37L113.03 228.85L125.51 231.05ZM74.91 204.12L85.56 206L87.18 196.8L76.54 194.92L78.38 184.54L68.67 182.82L66.83 193.21L56.12 191.32L54.49 200.52L65.2 202.41L63.36 212.81L73.06 214.52L74.91 204.12ZM15.96 184.96Q14.26 185.7 12.06 185.31Q9.8 184.91 8.44 183.59Q8.18 183.33 7.95 183.03Q7.48 182.42 7.21 181.73Q6.7 180.37 7 178.71Q7.32 176.87 8.39 175.73Q8.83 175.26 9.38 174.91Q9.8 174.65 10.25 174.46Q11.9 173.78 13.98 174.15Q16.46 174.59 17.83 176.05Q18.02 176.26 18.2 176.49Q18.74 177.21 19.01 178.02Q19.43 179.28 19.17 180.78Q18.88 182.38 17.98 183.46Q17.46 184.09 16.74 184.55Q16.36 184.79 15.96 184.96ZM189.18 206.6L158.12 201.12L156.5 210.26L187.57 215.74L189.18 206.6ZM186.36 222.55L155.29 217.07L153.67 226.21L184.74 231.69L186.36 222.55ZM220.35 247.43Q221.8 248.62 223.92 248.99Q226.19 249.39 228.05 248.69Q228.77 248.42 229.43 247.98Q230.63 247.18 231.35 246.07Q232.04 245 232.28 243.64Q232.57 242.01 232.14 240.61Q231.81 239.55 231.09 238.63Q230.71 238.13 230.24 237.72Q228.68 236.31 226.24 235.88Q223.78 235.45 221.83 236.26Q221.28 236.48 220.78 236.81Q219.83 237.41 219.18 238.26Q218.27 239.45 217.97 241.12Q217.73 242.48 218.01 243.72Q218.3 245.01 219.15 246.17Q219.68 246.88 220.35 247.43Z" fill="#FFFFFF" fill-opacity="1.000000" fill-rule="evenodd"/>
		<path id="9 + 1 = ?" d="M14.74 165.11Q24.25 166.79 28.73 173.37Q33.23 179.95 31.37 190.48Q30.03 198.03 26.12 202.98Q22.23 207.91 16.41 209.8Q10.58 211.69 3.58 210.46Q-0.13 209.8 -3.39 208.35Q-6.65 206.91 -8.76 204.96L-2.65 196.82Q0.16 199.65 5.09 200.52Q9.81 201.35 13.2 199.25Q16.6 197.16 17.99 192.28Q13.63 194.82 7.52 193.75Q3.35 193.01 0.2 190.66Q-2.95 188.31 -4.44 184.78Q-5.92 181.24 -5.19 177.13Q-4.4 172.67 -1.5 169.64Q1.41 166.6 5.68 165.43Q9.95 164.27 14.74 165.11ZM12.06 185.31Q14.77 185.79 16.74 184.55Q18.72 183.3 19.17 180.78Q19.6 178.33 18.2 176.49Q16.81 174.65 13.98 174.15Q11.33 173.68 9.38 174.91Q7.46 176.12 7 178.71Q6.55 181.22 7.95 183.03Q9.36 184.84 12.06 185.31ZM85.56 206L74.91 204.12L73.06 214.52L63.36 212.81L65.2 202.41L54.49 200.52L56.12 191.32L66.83 193.21L68.67 182.82L78.38 184.54L76.54 194.92L87.18 196.8L85.56 206ZM133.32 186.94L125.51 231.05L113.03 228.85L119.14 194.37L110.95 192.93L112.66 183.3L133.32 186.94ZM158.12 201.12L189.18 206.6L187.57 215.74L156.5 210.26L158.12 201.12ZM155.29 217.07L186.36 222.55L184.74 231.69L153.67 226.21L155.29 217.07ZM221.25 231.37Q221.81 228.22 223.56 226.41Q225.32 224.6 228.4 222.62Q230.52 221.23 231.6 220.23Q232.7 219.22 232.94 217.9Q233.26 216.07 231.9 214.68Q230.56 213.31 228.11 212.87Q225.59 212.43 223.33 213.27Q221.07 214.11 219.43 216.02L210.92 209.33Q214.29 205.37 219.45 203.75Q224.62 202.12 231.3 203.3Q238.8 204.62 242.81 208.55Q246.83 212.48 245.83 218.09Q245.38 220.66 244.14 222.49Q242.91 224.32 241.43 225.47Q239.98 226.61 237.72 227.96Q235.26 229.41 234.02 230.53Q232.77 231.64 232.47 233.35L221.25 231.37ZM223.92 248.99Q220.83 248.45 219.15 246.17Q217.48 243.89 217.97 241.12Q218.47 238.27 220.78 236.81Q223.09 235.33 226.24 235.88Q229.4 236.44 231.09 238.63Q232.78 240.8 232.28 243.64Q231.79 246.41 229.43 247.98Q227.08 249.55 223.92 248.99Z" stroke="#202027" stroke-opacity="1.000000" stroke-width="1.000000"/>
		<rect id="Frame 2043683074" rx="29.500000" width="330.000000" height="125.000000" transform="translate(-32.597656 120.323730) rotate(10.000001)" stroke="#202027" stroke-opacity="1.000000" stroke-width="1.000000"/>
		<rect id="Frame 2043683073" rx="29.500000" width="339.000000" height="125.000000" transform="translate(305.288086 179.902100) rotate(10.000001)" fill="#FFC700" fill-opacity="1.000000"/>
		<path id="3 × 2 = ?" d="M475.45 292.76L477.2 282.86L460.18 279.86L469.87 273.64Q475 270.38 477.1 267.47Q478.01 266.21 478.65 264.82Q479.48 263.01 479.84 260.97Q480.33 258.18 479.71 255.67Q479.43 254.56 478.93 253.5Q478.71 253.03 478.45 252.58Q476.81 249.74 473.71 247.74Q470.12 245.41 465.08 244.52Q458.72 243.4 453.61 245.04Q450.12 246.16 447.45 248.31Q446.22 249.29 445.17 250.5L453.53 257.3Q454.76 255.96 456.29 255.2Q456.86 254.92 457.46 254.73Q458.07 254.53 458.69 254.41Q460.37 254.1 462.17 254.41Q464.94 254.9 466.17 256.36Q466.56 256.81 466.78 257.32Q467.29 258.47 467.03 259.95Q467.01 260.01 467 260.07Q466.7 261.64 465.63 263.05Q464.54 264.51 461.73 266.36L442.49 278.88L441.1 286.7L475.45 292.76ZM570.54 287.6Q568.79 289.4 568.23 292.55L579.45 294.53Q579.63 293.52 580.13 292.72Q580.49 292.17 581 291.71Q582.24 290.6 584.7 289.14Q586.96 287.79 588.41 286.65Q589.89 285.5 591.12 283.67Q592.36 281.84 592.81 279.27Q593.33 276.37 592.51 273.92Q591.73 271.63 589.79 269.73Q585.78 265.8 578.28 264.48Q571.6 263.3 566.43 264.93Q563.17 265.96 560.63 267.91Q559.15 269.05 557.9 270.52L566.41 277.21Q567.53 275.9 568.93 275.1Q569.59 274.72 570.31 274.45Q570.94 274.22 571.59 274.08Q573.27 273.73 575.09 274.06Q577.54 274.49 578.88 275.87Q579.63 276.63 579.87 277.52Q580.06 278.25 579.92 279.08Q579.86 279.41 579.75 279.72Q579.41 280.65 578.58 281.41Q577.5 282.41 575.38 283.8Q572.3 285.78 570.54 287.6ZM363.13 250.2Q360.79 246.39 355.6 244.33L366.48 236.11L367.87 228.3L335.97 222.67L334.26 232.3L351.67 235.37L342.28 242.49L340.88 250.37L346.12 251.29Q350.91 252.14 351.91 254.55Q352.32 255.53 352.1 256.77Q351.91 257.83 351.33 258.58Q350.7 259.39 349.6 259.84Q347.5 260.71 344.28 260.14Q341.13 259.58 338.04 258.07Q334.97 256.54 332.71 254.32L326.51 262.92Q329.48 265.59 333.85 267.53Q336.74 268.81 339.75 269.6Q341.3 270.01 342.88 270.28Q349.23 271.4 353.92 270.12Q358.61 268.84 361.31 265.87Q362.75 264.29 363.62 262.44Q364.38 260.82 364.7 259Q365.24 255.95 364.48 253.27Q364.05 251.74 363.2 250.32Q363.17 250.26 363.13 250.2ZM418.43 267.95L412.04 258.82L421.17 252.45L415.89 244.83L406.76 251.21L400.38 242.09L392.81 247.45L399.18 256.56L390.07 262.95L395.33 270.57L404.46 264.18L410.84 273.3L418.43 267.95ZM536.16 267.78L505.1 262.3L503.48 271.44L534.55 276.92L536.16 267.78ZM533.34 283.73L502.27 278.26L500.65 287.39L531.72 292.87L533.34 283.73ZM567.33 308.61Q568.78 309.8 570.9 310.17Q573.17 310.57 575.03 309.88Q575.75 309.6 576.41 309.16Q577.61 308.36 578.33 307.25Q579.02 306.18 579.26 304.82Q579.55 303.2 579.12 301.79Q578.79 300.74 578.07 299.81Q577.69 299.31 577.23 298.9Q575.66 297.49 573.22 297.07Q570.76 296.63 568.81 297.44Q568.27 297.67 567.76 297.99Q566.81 298.6 566.16 299.44Q565.25 300.63 564.95 302.3Q564.71 303.66 564.99 304.9Q565.28 306.19 566.13 307.35Q566.66 308.07 567.33 308.61Z" fill="#FFFFFF" fill-opacity="1.000000" fill-rule="evenodd"/>
		<path id="3 × 2 = ?" d="M355.6 244.33Q360.88 246.42 363.2 250.32Q365.55 254.21 364.7 259Q364.01 262.9 361.31 265.87Q358.61 268.84 353.92 270.12Q349.23 271.4 342.88 270.28Q338.22 269.46 333.85 267.53Q329.48 265.59 326.51 262.92L332.71 254.32Q334.97 256.54 338.04 258.07Q341.13 259.58 344.28 260.14Q347.5 260.71 349.6 259.84Q351.71 258.97 352.1 256.77Q352.86 252.48 346.12 251.29L340.88 250.37L342.28 242.49L351.67 235.37L334.26 232.3L335.97 222.67L367.87 228.3L366.48 236.11L355.6 244.33ZM412.04 258.82L418.43 267.95L410.84 273.3L404.46 264.18L395.33 270.57L390.07 262.95L399.18 256.56L392.81 247.45L400.38 242.09L406.76 251.21L415.89 244.83L421.17 252.45L412.04 258.82ZM477.2 282.86L475.45 292.76L441.1 286.7L442.49 278.88L461.73 266.36Q464.54 264.51 465.63 263.05Q466.74 261.58 467.03 259.95Q467.41 257.8 466.17 256.36Q464.94 254.9 462.17 254.41Q459.7 253.98 457.46 254.73Q455.22 255.46 453.53 257.3L445.17 250.5Q448.51 246.67 453.61 245.04Q458.72 243.4 465.08 244.52Q470.12 245.41 473.71 247.74Q477.3 250.05 478.93 253.5Q480.55 256.94 479.84 260.97Q479.21 264.56 477.1 267.47Q475 270.38 469.87 273.64L460.18 279.86L477.2 282.86ZM505.1 262.3L536.16 267.78L534.55 276.92L503.48 271.44L505.1 262.3ZM502.27 278.26L533.34 283.73L531.72 292.87L500.65 287.39L502.27 278.26ZM568.23 292.55Q568.79 289.4 570.54 287.6Q572.3 285.78 575.38 283.8Q577.5 282.41 578.58 281.41Q579.68 280.4 579.92 279.08Q580.24 277.25 578.88 275.87Q577.54 274.49 575.09 274.06Q572.57 273.61 570.31 274.45Q568.05 275.29 566.41 277.21L557.9 270.52Q561.27 266.56 566.43 264.93Q571.6 263.3 578.28 264.48Q585.78 265.8 589.79 269.73Q593.81 273.66 592.81 279.27Q592.36 281.84 591.12 283.67Q589.89 285.5 588.41 286.65Q586.96 287.79 584.7 289.14Q582.24 290.6 581 291.71Q579.75 292.82 579.45 294.53L568.23 292.55ZM570.9 310.17Q567.81 309.63 566.13 307.35Q564.46 305.07 564.95 302.3Q565.45 299.46 567.76 297.99Q570.07 296.51 573.22 297.07Q576.38 297.62 578.07 299.81Q579.76 301.98 579.26 304.82Q578.77 307.59 576.41 309.16Q574.06 310.73 570.9 310.17Z" stroke="#202027" stroke-opacity="1.000000" stroke-width="1.000000"/>
		<rect id="Frame 2043683073" rx="29.500000" width="339.000000" height="125.000000" transform="translate(305.288086 179.902100) rotate(10.000001)" stroke="#202027" stroke-opacity="1.000000" stroke-width="1.000000"/>
		<rect id="Frame 2043683072" rx="29.500000" width="384.000000" height="125.000000" transform="translate(-56.560547 256.227295) rotate(10.000001)" fill="#FFC700" fill-opacity="1.000000"/>
		<path id="36 − 6 = ?" d="M38.27 328.02Q35.53 326.33 32.12 325.73Q26.55 324.74 22.46 326.76Q22 326.98 21.57 327.24Q22.75 322.88 25.6 320.72Q25.95 320.46 26.32 320.23Q26.85 319.9 27.42 319.64Q30.5 318.24 34.54 318.95Q39.46 319.82 42.28 322.65L48.4 314.49Q46.28 312.5 43.03 311.09Q39.77 309.65 35.99 308.99Q28.99 307.75 23.19 309.67Q20.86 310.43 18.83 311.68Q15.82 313.55 13.49 316.51Q9.6 321.44 8.26 328.99Q6.48 339.04 10.49 345.5Q10.68 345.8 10.88 346.1Q11.8 347.45 12.94 348.59Q17.32 353.01 24.83 354.33Q29.69 355.19 33.96 354.04Q36.9 353.23 39.19 351.55Q40.22 350.79 41.13 349.84Q41.94 349 42.58 348.05Q44.27 345.56 44.84 342.33Q45.38 339.29 44.7 336.56Q44.46 335.61 44.08 334.69Q43.47 333.23 42.57 331.97Q41.29 330.18 39.43 328.81Q38.86 328.39 38.27 328.02ZM154.24 348.47Q151.5 346.78 148.09 346.17Q142.52 345.19 138.43 347.21Q137.97 347.43 137.54 347.69Q138.72 343.33 141.57 341.17Q141.92 340.91 142.29 340.68Q142.82 340.35 143.4 340.09Q146.47 338.69 150.51 339.4Q155.43 340.27 158.25 343.1L164.38 334.94Q162.25 332.95 159 331.53Q155.74 330.1 151.96 329.44Q144.96 328.2 139.16 330.11Q136.83 330.88 134.8 332.13Q131.79 334 129.46 336.96Q125.57 341.89 124.23 349.44Q122.45 359.49 126.46 365.94Q126.65 366.25 126.85 366.55Q127.77 367.89 128.91 369.04Q133.29 373.46 140.8 374.78Q145.66 375.64 149.93 374.49Q152.87 373.68 155.16 372Q156.2 371.24 157.1 370.29Q157.91 369.45 158.55 368.5Q160.24 366.01 160.81 362.78Q161.35 359.74 160.67 357.01Q160.44 356.06 160.05 355.14Q159.44 353.67 158.54 352.42Q157.26 350.63 155.4 349.26Q154.83 348.84 154.24 348.47ZM252.88 371.71Q251.13 373.51 250.57 376.67L261.79 378.65Q261.97 377.64 262.47 376.84Q262.82 376.28 263.33 375.82Q264.58 374.71 267.04 373.26Q269.29 371.91 270.75 370.77Q272.22 369.62 273.45 367.79Q274.7 365.96 275.15 363.39Q275.67 360.49 274.84 358.04Q274.07 355.75 272.13 353.85Q268.11 349.92 260.62 348.6Q253.94 347.42 248.77 349.04Q245.51 350.07 242.97 352.03Q241.48 353.17 240.24 354.63L248.75 361.32Q249.86 360.02 251.27 359.21Q251.93 358.84 252.65 358.57Q253.28 358.33 253.93 358.2Q255.61 357.85 257.43 358.17Q259.88 358.6 261.22 359.98Q261.97 360.74 262.21 361.64Q262.4 362.37 262.25 363.2Q262.2 363.52 262.09 363.83Q261.75 364.77 260.92 365.53Q259.84 366.53 257.72 367.92Q254.64 369.9 252.88 371.71ZM1.41 326.54Q-0.93 322.74 -6.12 320.68L4.76 312.46L6.15 304.65L-25.75 299.02L-27.46 308.65L-10.05 311.72L-19.44 318.84L-20.83 326.72L-15.6 327.64Q-10.81 328.49 -9.81 330.9Q-9.4 331.88 -9.62 333.12Q-9.81 334.18 -10.39 334.93Q-11.02 335.74 -12.12 336.19Q-14.22 337.05 -17.44 336.49Q-20.59 335.93 -23.67 334.42Q-26.75 332.89 -29.01 330.67L-35.21 339.27Q-32.24 341.94 -27.87 343.88Q-24.98 345.16 -21.97 345.95Q-20.42 346.35 -18.84 346.63Q-12.48 347.75 -7.8 346.47Q-3.11 345.19 -0.41 342.22Q1.03 340.64 1.9 338.79Q2.66 337.17 2.98 335.34Q3.52 332.3 2.77 329.62Q2.34 328.08 1.48 326.67Q1.45 326.61 1.41 326.54ZM218.5 351.9L187.43 346.42L185.82 355.56L216.88 361.03L218.5 351.9ZM101.12 339.39L70.06 333.91L68.43 343.11L99.49 348.59L101.12 339.39ZM29.44 344.99Q27.77 345.7 25.65 345.32Q23.15 344.88 21.76 343.4Q21.58 343.2 21.41 342.99Q20.89 342.29 20.63 341.51Q20.19 340.21 20.46 338.68Q20.74 337.08 21.65 335.99Q22.16 335.38 22.87 334.93Q23.28 334.67 23.72 334.49Q25.41 333.78 27.56 334.16Q29.84 334.56 31.19 335.9Q31.44 336.15 31.66 336.44Q32.13 337.04 32.4 337.72Q32.93 339.08 32.63 340.76Q32.31 342.56 31.27 343.7Q30.81 344.2 30.22 344.57Q29.84 344.81 29.44 344.99ZM145.41 365.44Q143.75 366.15 141.62 365.77Q139.12 365.33 137.73 363.85Q137.55 363.65 137.38 363.44Q136.86 362.74 136.6 361.96Q136.16 360.66 136.43 359.13Q136.72 357.53 137.62 356.44Q138.13 355.83 138.84 355.38Q139.25 355.12 139.69 354.94Q141.39 354.23 143.53 354.61Q145.81 355.01 147.16 356.35Q147.41 356.6 147.64 356.88Q148.11 357.49 148.37 358.17Q148.9 359.53 148.6 361.21Q148.28 363.01 147.24 364.15Q146.78 364.65 146.19 365.02Q145.82 365.26 145.41 365.44ZM215.68 367.85L184.61 362.37L182.99 371.51L214.06 376.99L215.68 367.85ZM249.67 392.73Q251.12 393.92 253.24 394.29Q255.51 394.69 257.36 393.99Q258.09 393.72 258.75 393.28Q259.95 392.48 260.67 391.37Q261.36 390.3 261.6 388.94Q261.89 387.31 261.45 385.9Q261.13 384.85 260.41 383.92Q260.02 383.43 259.56 383.01Q258 381.61 255.56 381.18Q253.1 380.75 251.15 381.56Q250.6 381.78 250.1 382.11Q249.14 382.71 248.5 383.55Q247.58 384.75 247.29 386.42Q247.05 387.78 247.33 389.02Q247.62 390.31 248.47 391.47Q249 392.18 249.67 392.73Z" fill="#FFFFFF" fill-opacity="1.000000" fill-rule="evenodd"/>
		<path id="36 − 6 = ?" d="M-6.12 320.68Q-0.84 322.77 1.48 326.67Q3.83 330.56 2.98 335.34Q2.29 339.25 -0.41 342.22Q-3.11 345.19 -7.8 346.47Q-12.48 347.75 -18.84 346.63Q-23.5 345.81 -27.87 343.88Q-32.24 341.94 -35.21 339.27L-29.01 330.67Q-26.75 332.89 -23.67 334.42Q-20.59 335.93 -17.44 336.49Q-14.22 337.05 -12.12 336.19Q-10.01 335.32 -9.62 333.12Q-8.86 328.83 -15.6 327.64L-20.83 326.72L-19.44 318.84L-10.05 311.72L-27.46 308.65L-25.75 299.02L6.15 304.65L4.76 312.46L-6.12 320.68ZM32.12 325.73Q36.27 326.46 39.43 328.81Q42.6 331.14 44.08 334.69Q45.56 338.24 44.84 342.33Q44.05 346.81 41.13 349.84Q38.23 352.87 33.96 354.04Q29.69 355.19 24.83 354.33Q15.38 352.67 10.88 346.1Q6.4 339.52 8.26 328.99Q9.6 321.44 13.49 316.51Q17.39 311.56 23.19 309.67Q28.99 307.75 35.99 308.99Q39.77 309.65 43.03 311.09Q46.28 312.5 48.4 314.49L42.28 322.65Q39.46 319.82 34.54 318.95Q29.75 318.11 26.32 320.23Q22.89 322.35 21.57 327.24Q25.93 324.64 32.12 325.73ZM25.65 345.32Q28.29 345.79 30.22 344.57Q32.17 343.35 32.63 340.76Q33.07 338.24 31.66 336.44Q30.27 334.63 27.56 334.16Q24.85 333.68 22.87 334.93Q20.9 336.17 20.46 338.68Q20.02 341.14 21.41 342.99Q22.82 344.82 25.65 345.32ZM70.06 333.91L101.12 339.39L99.49 348.59L68.43 343.11L70.06 333.91ZM148.09 346.17Q152.24 346.91 155.4 349.26Q158.57 351.59 160.05 355.14Q161.53 358.68 160.81 362.78Q160.02 367.25 157.1 370.29Q154.2 373.32 149.93 374.49Q145.66 375.64 140.8 374.78Q131.35 373.12 126.85 366.55Q122.37 359.96 124.23 349.44Q125.57 341.89 129.46 336.96Q133.36 332.01 139.16 330.11Q144.96 328.2 151.96 329.44Q155.74 330.1 159 331.53Q162.25 332.95 164.38 334.94L158.25 343.1Q155.43 340.27 150.51 339.4Q145.73 338.55 142.29 340.68Q138.86 342.8 137.54 347.69Q141.9 345.08 148.09 346.17ZM141.62 365.77Q144.27 366.24 146.19 365.02Q148.14 363.8 148.6 361.21Q149.05 358.69 147.64 356.88Q146.24 355.08 143.53 354.61Q140.82 354.13 138.84 355.38Q136.88 356.62 136.43 359.13Q136 361.59 137.38 363.44Q138.79 365.27 141.62 365.77ZM187.43 346.42L218.5 351.9L216.88 361.03L185.82 355.56L187.43 346.42ZM184.61 362.37L215.68 367.85L214.06 376.99L182.99 371.51L184.61 362.37ZM250.57 376.67Q251.13 373.51 252.88 371.71Q254.64 369.9 257.72 367.92Q259.84 366.53 260.92 365.53Q262.02 364.52 262.25 363.2Q262.58 361.36 261.22 359.98Q259.88 358.6 257.43 358.17Q254.91 357.73 252.65 358.57Q250.39 359.41 248.75 361.32L240.24 354.63Q243.61 350.67 248.77 349.04Q253.94 347.42 260.62 348.6Q268.11 349.92 272.13 353.85Q276.15 357.78 275.15 363.39Q274.7 365.96 273.45 367.79Q272.22 369.62 270.75 370.77Q269.29 371.91 267.04 373.26Q264.58 374.71 263.33 375.82Q262.09 376.94 261.79 378.65L250.57 376.67ZM253.24 394.29Q250.15 393.74 248.47 391.47Q246.8 389.19 247.29 386.42Q247.79 383.57 250.1 382.11Q252.41 380.63 255.56 381.18Q258.72 381.74 260.41 383.92Q262.1 386.1 261.6 388.94Q261.11 391.71 258.75 393.28Q256.39 394.85 253.24 394.29Z" stroke="#202027" stroke-opacity="1.000000" stroke-width="1.000000"/>
		<rect id="Frame 2043683072" rx="29.500000" width="384.000000" height="125.000000" transform="translate(-56.560547 256.227295) rotate(10.000001)" stroke="#202027" stroke-opacity="1.000000" stroke-width="1.000000"/>
		<rect id="Frame 2043683094" rx="29.500000" width="345.000000" height="125.000000" transform="translate(334.503906 325.182617) rotate(10.000001)" fill="#FFEC8F" fill-opacity="1.000000"/>
		<path id="4 ÷ 2 = ?" d="M510.68 439.1L512.43 429.2L495.41 426.2L505.1 419.98Q510.23 416.72 512.33 413.81Q513.24 412.55 513.88 411.17Q514.71 409.35 515.07 407.31Q515.56 404.52 514.94 402.01Q514.66 400.9 514.15 399.84Q513.93 399.37 513.68 398.92Q512.04 396.08 508.94 394.08Q505.35 391.75 500.31 390.86Q493.95 389.74 488.84 391.38Q485.34 392.5 482.68 394.65Q481.45 395.63 480.4 396.84L488.76 403.64Q489.99 402.3 491.52 401.54Q492.08 401.26 492.69 401.07Q493.29 400.87 493.91 400.75Q495.6 400.44 497.39 400.75Q500.16 401.24 501.4 402.7Q501.78 403.15 502.01 403.66Q502.52 404.81 502.25 406.29Q502.24 406.35 502.23 406.41Q501.92 407.98 500.86 409.39Q499.76 410.85 496.96 412.7L477.72 425.22L476.33 433.04L510.68 439.1ZM605.77 433.94Q604.02 435.74 603.46 438.89L614.68 440.87Q614.86 439.86 615.36 439.06Q615.71 438.51 616.22 438.05Q617.47 436.94 619.93 435.48Q622.19 434.13 623.64 432.99Q625.12 431.84 626.34 430.01Q627.59 428.18 628.04 425.62Q628.56 422.71 627.73 420.26Q626.96 417.97 625.02 416.07Q621 412.14 613.51 410.82Q606.83 409.64 601.66 411.27Q598.4 412.3 595.86 414.25Q594.37 415.39 593.13 416.86L601.64 423.55Q602.76 422.24 604.15 421.44Q604.82 421.06 605.54 420.79Q606.17 420.56 606.82 420.42Q608.5 420.08 610.32 420.4Q612.77 420.83 614.11 422.21Q614.86 422.97 615.09 423.86Q615.29 424.59 615.15 425.42Q615.09 425.75 614.98 426.06Q614.64 426.99 613.81 427.75Q612.73 428.75 610.61 430.14Q607.53 432.12 605.77 433.94ZM393.94 409.8L400.5 410.96L402.25 401.06L395.69 399.91L397.02 392.42L385.23 390.34L383.91 397.83L374.95 396.25L397.47 373.65L384.56 371.37L359.9 395.42L358.46 403.55L381.77 407.66L380.27 416.1L392.45 418.25L393.94 409.8ZM439.23 395.28Q440.44 396.23 442.17 396.54Q443.71 396.81 445.07 396.43Q445.99 396.17 446.82 395.61Q447.61 395.08 448.17 394.37Q449.07 393.21 449.36 391.57Q449.66 389.89 449.17 388.48Q448.89 387.67 448.36 386.95Q447.78 386.17 447.02 385.62Q445.87 384.78 444.3 384.51Q442.55 384.2 441.07 384.69Q440.31 384.94 439.62 385.41Q438.93 385.87 438.43 386.48Q437.44 387.66 437.13 389.41Q436.83 391.12 437.31 392.56Q437.58 393.36 438.08 394.07Q438.58 394.77 439.23 395.28ZM571.39 414.12L540.32 408.64L538.71 417.78L569.77 423.26L571.39 414.12ZM457.17 402.16L426.1 396.69L424.47 405.89L455.54 411.37L457.17 402.16ZM568.57 430.07L537.5 424.6L535.88 433.73L566.95 439.21L568.57 430.07ZM434.51 422.35Q435.7 423.27 437.38 423.57Q438.88 423.83 440.21 423.47Q441.17 423.21 442.04 422.61Q442.86 422.05 443.42 421.31Q444.3 420.15 444.59 418.54Q444.86 416.99 444.44 415.66Q444.16 414.77 443.57 413.98Q442.99 413.2 442.24 412.65Q441.08 411.81 439.51 411.54Q437.71 411.22 436.2 411.74Q435.48 411.98 434.83 412.41Q434.17 412.85 433.68 413.42Q432.67 414.61 432.35 416.38Q432.06 418.06 432.52 419.49Q432.78 420.32 433.3 421.07Q433.83 421.82 434.51 422.35ZM602.56 454.95Q604.01 456.14 606.13 456.51Q608.4 456.91 610.25 456.22Q610.98 455.94 611.64 455.5Q612.84 454.7 613.56 453.59Q614.25 452.52 614.49 451.17Q614.78 449.54 614.34 448.13Q614.02 447.08 613.3 446.15Q612.91 445.65 612.45 445.24Q610.89 443.84 608.45 443.41Q605.99 442.97 604.04 443.78Q603.49 444.01 602.99 444.33Q602.03 444.94 601.39 445.78Q600.47 446.97 600.18 448.64Q599.94 450 600.22 451.24Q600.51 452.53 601.36 453.69Q601.89 454.41 602.56 454.95Z" fill="#FFFFFF" fill-opacity="1.000000" fill-rule="evenodd"/>
		<path id="4 ÷ 2 = ?" d="M400.5 410.96L393.94 409.8L392.45 418.25L380.27 416.1L381.77 407.66L358.46 403.55L359.9 395.42L384.56 371.37L397.47 373.65L374.95 396.25L383.91 397.83L385.23 390.34L397.02 392.42L395.69 399.91L402.25 401.06L400.5 410.96ZM442.17 396.54Q439.52 396.07 438.08 394.07Q436.66 392.06 437.13 389.41Q437.6 386.77 439.62 385.41Q441.65 384.04 444.3 384.51Q446.88 384.96 448.36 386.95Q449.83 388.92 449.36 391.57Q448.89 394.22 446.82 395.61Q444.75 396.99 442.17 396.54ZM426.1 396.69L457.17 402.16L455.54 411.37L424.47 405.89L426.1 396.69ZM437.38 423.57Q434.73 423.1 433.3 421.07Q431.88 419.03 432.35 416.38Q432.82 413.74 434.83 412.41Q436.86 411.07 439.51 411.54Q442.1 411.99 443.57 413.98Q445.04 415.96 444.59 418.54Q444.12 421.19 442.04 422.61Q439.97 424.03 437.38 423.57ZM512.43 429.2L510.68 439.1L476.33 433.04L477.72 425.22L496.96 412.7Q499.76 410.85 500.86 409.39Q501.96 407.92 502.25 406.29Q502.64 404.14 501.4 402.7Q500.16 401.24 497.39 400.75Q494.93 400.32 492.69 401.07Q490.45 401.8 488.76 403.64L480.4 396.84Q483.74 393.01 488.84 391.38Q493.95 389.74 500.31 390.86Q505.35 391.75 508.94 394.08Q512.53 396.39 514.15 399.84Q515.78 403.28 515.07 407.31Q514.43 410.9 512.33 413.81Q510.23 416.72 505.1 419.98L495.41 426.2L512.43 429.2ZM540.32 408.64L571.39 414.12L569.77 423.26L538.71 417.78L540.32 408.64ZM537.5 424.6L568.57 430.07L566.95 439.21L535.88 433.73L537.5 424.6ZM603.46 438.89Q604.02 435.74 605.77 433.94Q607.53 432.12 610.61 430.14Q612.73 428.75 613.81 427.75Q614.91 426.74 615.15 425.42Q615.47 423.59 614.11 422.21Q612.77 420.83 610.32 420.4Q607.8 419.95 605.54 420.79Q603.28 421.63 601.64 423.55L593.13 416.86Q596.5 412.9 601.66 411.27Q606.83 409.64 613.51 410.82Q621 412.14 625.02 416.07Q629.04 420 628.04 425.62Q627.59 428.18 626.34 430.01Q625.12 431.84 623.64 432.99Q622.19 434.13 619.93 435.48Q617.47 436.94 616.22 438.05Q614.98 439.16 614.68 440.87L603.46 438.89ZM606.13 456.51Q603.04 455.97 601.36 453.69Q599.69 451.41 600.18 448.64Q600.68 445.8 602.99 444.33Q605.3 442.85 608.45 443.41Q611.61 443.96 613.3 446.15Q614.99 448.32 614.49 451.17Q614 453.93 611.64 455.5Q609.28 457.07 606.13 456.51Z" stroke="#202027" stroke-opacity="1.000000" stroke-width="1.000000"/>
		<rect id="Frame 2043683094" rx="29.500000" width="345.000000" height="125.000000" transform="translate(334.503906 325.182617) rotate(10.000001)" stroke="#202027" stroke-opacity="1.000000" stroke-width="1.000000"/>
		<rect id="Frame 2043683093" rx="29.500000" width="423.000000" height="125.000000" transform="translate(-80.524414 392.130615) rotate(10.000001)" fill="#FFEC8F" fill-opacity="1.000000"/>
		<path id="78 + 57 = ?" d="M21.11 473.4Q19.94 470.53 17.23 468.24Q19.34 467.26 20.82 465.69Q21.12 465.37 21.41 465.01Q21.77 464.55 22.08 464.05Q23.15 462.33 23.53 460.18Q23.95 457.81 23.47 455.64Q23.17 454.29 22.51 453.02Q22.49 452.98 22.47 452.94Q20.79 449.67 17.11 447.42Q13.39 445.13 8.22 444.22Q3.05 443.31 -1.23 444.19Q-5.45 445.04 -8.17 447.53Q-8.21 447.56 -8.25 447.6Q-9.27 448.55 -10 449.69Q-11.22 451.58 -11.65 453.98Q-12.03 456.13 -11.61 458.11Q-11.49 458.69 -11.31 459.24Q-11.17 459.67 -10.99 460.08Q-10.14 462.07 -8.5 463.71Q-11.82 464.93 -13.93 467.22Q-14.39 467.73 -14.78 468.29Q-16.15 470.26 -16.61 472.86Q-17.07 475.49 -16.52 477.88Q-16.2 479.28 -15.52 480.6Q-13.68 484.17 -9.64 486.64Q-5.58 489.1 0.09 490.1Q5.77 491.1 10.41 490.17Q15.07 489.23 18.01 486.52Q19.12 485.49 19.92 484.25Q21.25 482.21 21.71 479.62Q22.16 477.05 21.57 474.76Q21.39 474.07 21.11 473.4ZM267.4 514.4Q265.66 516.2 265.1 519.36L276.31 521.34Q276.49 520.33 277 519.53Q277.35 518.97 277.86 518.52Q279.11 517.4 281.57 515.95Q283.82 514.6 285.28 513.46Q286.75 512.31 287.98 510.48Q289.22 508.65 289.68 506.08Q290.19 503.18 289.37 500.73Q288.6 498.44 286.66 496.54Q282.64 492.61 275.15 491.29Q268.47 490.11 263.29 491.73Q260.04 492.76 257.5 494.72Q256.01 495.86 254.77 497.32L263.28 504.01Q264.39 502.71 265.79 501.9Q266.45 501.53 267.18 501.26Q267.81 501.02 268.45 500.89Q270.14 500.54 271.96 500.86Q274.41 501.29 275.75 502.67Q276.49 503.43 276.73 504.33Q276.93 505.06 276.78 505.89Q276.72 506.21 276.61 506.52Q276.27 507.46 275.45 508.22Q274.37 509.22 272.25 510.61Q269.17 512.59 267.4 514.4ZM-15.19 449.07L-13.81 441.26L-50.37 434.81L-53.32 451.5L-42.67 453.38L-41.47 446.58L-29.87 448.63L-50.81 480.22L-37.19 482.62L-15.19 449.07ZM133.09 487.63Q129.33 483.06 120.05 481.42L117.09 480.9L118.8 474.57L136.58 477.7L138.28 468.07L110.17 463.12L103.4 488.5L115.38 490.61Q120.16 491.45 121.85 492.93Q122.7 493.67 123.03 494.59Q123.35 495.51 123.15 496.6Q122.97 497.61 122.42 498.35Q121.78 499.21 120.62 499.69Q118.48 500.58 115.26 500.02Q114.9 499.95 114.55 499.88Q111.71 499.28 109.03 497.95Q106.22 496.53 103.99 494.47Q103.84 494.34 103.7 494.2L97.55 502.81Q100.46 505.46 104.83 507.41Q107.72 508.68 110.74 509.48Q112.28 509.88 113.86 510.16Q120.22 511.28 124.91 510Q129.54 508.73 132.24 505.73Q132.28 505.69 132.31 505.65Q133.48 504.33 134.28 502.81Q135.34 500.82 135.75 498.49Q136.43 494.68 135.31 491.5Q134.58 489.43 133.09 487.63ZM178.43 483.21L179.82 475.4L143.25 468.95L140.3 485.64L150.95 487.52L152.15 480.72L163.75 482.77L142.81 514.36L156.43 516.76L178.43 483.21ZM66.88 482.96L77.53 484.84L79.16 475.64L68.51 473.76L70.35 463.38L60.64 461.67L58.8 472.05L48.09 470.16L46.46 479.36L57.17 481.25L55.33 491.65L65.04 493.36L66.88 482.96ZM3.05 453.35Q4.61 452.63 6.67 452.99Q8.93 453.39 10.16 454.74Q10.23 454.82 10.3 454.9Q10.66 455.34 10.88 455.84Q11.41 457.04 11.14 458.59Q10.88 460.01 10.06 460.92Q9.65 461.37 9.09 461.7Q9 461.75 8.9 461.8Q7.29 462.65 5.03 462.25Q2.74 461.85 1.55 460.49Q1.49 460.42 1.43 460.35Q1.05 459.88 0.83 459.36Q0.35 458.2 0.61 456.73Q0.88 455.18 1.79 454.24Q2.17 453.84 2.66 453.55Q2.85 453.44 3.05 453.35ZM233.03 494.59L201.96 489.11L200.34 498.25L231.41 503.72L233.03 494.59ZM6.72 480.72Q4.68 481.88 1.65 481.35Q-1.39 480.81 -2.93 479.02Q-3.53 478.3 -3.82 477.48Q-4.27 476.22 -4 474.7Q-3.73 473.15 -2.84 472.11Q-2.29 471.46 -1.51 471.02Q-1.5 471.01 -1.5 471.01Q0.57 469.84 3.59 470.38Q6.62 470.91 8.14 472.71L8.14 472.72Q8.74 473.42 9.04 474.23Q9.5 475.5 9.23 477.03Q8.97 478.53 8.13 479.55Q7.56 480.24 6.72 480.72ZM230.2 510.54L199.14 505.06L197.52 514.2L228.58 519.68L230.2 510.54ZM264.19 535.42Q265.65 536.61 267.77 536.98Q270.04 537.38 271.89 536.68Q272.62 536.41 273.28 535.97Q274.48 535.17 275.2 534.06Q275.88 532.99 276.13 531.63Q276.41 530 275.98 528.59Q275.66 527.54 274.94 526.61Q274.55 526.12 274.09 525.7Q272.53 524.3 270.09 523.87Q267.62 523.44 265.68 524.25Q265.13 524.47 264.63 524.8Q263.67 525.4 263.03 526.24Q262.11 527.44 261.81 529.11Q261.57 530.47 261.85 531.71Q262.15 533 263 534.16Q263.53 534.87 264.19 535.42Z" fill="#FFFFFF" fill-opacity="1.000000" fill-rule="evenodd"/>
		<path id="78 + 57 = ?" d="M-13.81 441.26L-15.19 449.07L-37.19 482.62L-50.81 480.22L-29.87 448.63L-41.47 446.58L-42.67 453.38L-53.32 451.5L-50.37 434.81L-13.81 441.26ZM17.23 468.24Q19.94 470.53 21.11 473.4Q22.3 476.28 21.71 479.62Q20.97 483.78 18.01 486.52Q15.07 489.23 10.41 490.17Q5.77 491.1 0.09 490.1Q-5.58 489.1 -9.64 486.64Q-13.68 484.17 -15.52 480.6Q-17.35 477.03 -16.61 472.86Q-16.02 469.52 -13.93 467.22Q-11.82 464.93 -8.5 463.71Q-10.48 461.72 -11.31 459.24Q-12.14 456.75 -11.65 453.98Q-10.96 450.13 -8.25 447.6Q-5.51 445.05 -1.23 444.19Q3.05 443.31 8.22 444.22Q13.39 445.13 17.11 447.42Q20.83 449.7 22.51 453.02Q24.21 456.34 23.53 460.18Q23.04 462.95 21.41 465.01Q19.77 467.06 17.23 468.24ZM6.67 452.99Q4.34 452.58 2.66 453.55Q1 454.53 0.61 456.73Q0.23 458.87 1.43 460.35Q2.63 461.83 5.03 462.25Q7.43 462.68 9.09 461.7Q10.76 460.72 11.14 458.59Q11.52 456.38 10.3 454.9Q9.07 453.41 6.67 452.99ZM1.65 481.35Q4.68 481.88 6.72 480.72Q8.79 479.54 9.23 477.03Q9.68 474.51 8.14 472.72Q6.62 470.91 3.59 470.38Q0.56 469.84 -1.51 471.02Q-3.55 472.18 -4 474.7Q-4.45 477.21 -2.93 479.02Q-1.39 480.81 1.65 481.35ZM77.53 484.84L66.88 482.96L65.04 493.36L55.33 491.65L57.17 481.25L46.46 479.36L48.09 470.16L58.8 472.05L60.64 461.67L70.35 463.38L68.51 473.76L79.16 475.64L77.53 484.84ZM120.05 481.42Q129.33 483.06 133.09 487.63Q136.87 492.19 135.75 498.49Q135.02 502.59 132.31 505.65Q129.59 508.71 124.91 510Q120.22 511.28 113.86 510.16Q109.2 509.34 104.83 507.41Q100.46 505.46 97.55 502.81L103.7 494.2Q106.03 496.43 109.03 497.95Q112.05 499.45 115.26 500.02Q118.48 500.58 120.62 499.69Q122.76 498.8 123.15 496.6Q123.54 494.4 121.85 492.93Q120.16 491.45 115.38 490.61L103.4 488.5L110.17 463.12L138.28 468.07L136.58 477.7L118.8 474.57L117.09 480.9L120.05 481.42ZM179.82 475.4L178.43 483.21L156.43 516.76L142.81 514.36L163.75 482.77L152.15 480.72L150.95 487.52L140.3 485.64L143.25 468.95L179.82 475.4ZM201.96 489.11L233.03 494.59L231.41 503.72L200.34 498.25L201.96 489.11ZM199.14 505.06L230.2 510.54L228.58 519.68L197.52 514.2L199.14 505.06ZM265.1 519.36Q265.66 516.2 267.4 514.4Q269.17 512.59 272.25 510.61Q274.37 509.22 275.45 508.22Q276.55 507.21 276.78 505.89Q277.11 504.05 275.75 502.67Q274.41 501.29 271.96 500.86Q269.44 500.42 267.18 501.26Q264.92 502.1 263.28 504.01L254.77 497.32Q258.13 493.36 263.29 491.73Q268.47 490.11 275.15 491.29Q282.64 492.61 286.66 496.54Q290.67 500.47 289.68 506.08Q289.22 508.65 287.98 510.48Q286.75 512.31 285.28 513.46Q283.82 514.6 281.57 515.95Q279.11 517.4 277.86 518.52Q276.62 519.63 276.31 521.34L265.1 519.36ZM267.77 536.98Q264.67 536.44 263 534.16Q261.32 531.88 261.81 529.11Q262.32 526.26 264.63 524.8Q266.94 523.32 270.09 523.87Q273.24 524.43 274.94 526.61Q276.63 528.78 276.13 531.63Q275.63 534.4 273.28 535.97Q270.92 537.54 267.77 536.98Z" stroke="#202027" stroke-opacity="1.000000" stroke-width="1.000000"/>
		<rect id="Frame 2043683093" rx="29.500000" width="423.000000" height="125.000000" transform="translate(-80.524414 392.130615) rotate(10.000001)" stroke="#202027" stroke-opacity="1.000000" stroke-width="1.000000"/>
		<rect id="Frame 2043683095" rx="29.500000" width="377.000000" height="125.000000" transform="translate(348.948242 467.858154) rotate(10.000001)" fill="#FFEC8F" fill-opacity="1.000000"/>
		<path id="10 − 4 = ?" d="M408.98 560.4Q412.41 562.8 416.97 563.61Q421.22 564.36 425.07 563.42Q426.29 563.13 427.47 562.66Q428.36 562.31 429.2 561.87Q432.98 559.87 435.76 555.97Q439.18 551.21 440.44 544.09Q441.7 536.98 440.13 531.34Q438.85 526.73 435.98 523.55Q435.35 522.85 434.63 522.22Q433.66 521.35 432.58 520.64Q429.31 518.47 425.1 517.73Q420.58 516.93 416.56 518Q415.52 518.27 414.52 518.67Q413.71 518.99 412.93 519.39Q409.07 521.4 406.23 525.36Q402.81 530.12 401.55 537.23Q400.29 544.36 401.86 549.99Q403.17 554.69 406.11 557.89Q406.7 558.54 407.36 559.12Q408.13 559.81 408.98 560.4ZM651.44 582.12Q649.69 583.92 649.13 587.07L660.35 589.05Q660.53 588.05 661.04 587.25Q661.39 586.69 661.9 586.23Q663.14 585.12 665.61 583.66Q667.86 582.32 669.32 581.18Q670.79 580.02 672.02 578.19Q673.26 576.37 673.72 573.8Q674.23 570.9 673.41 568.45Q672.64 566.15 670.69 564.25Q666.68 560.32 659.18 559Q652.51 557.82 647.33 559.45Q644.08 560.48 641.53 562.43Q640.05 563.58 638.8 565.04L647.31 571.73Q648.43 570.43 649.83 569.62Q650.49 569.24 651.21 568.97Q651.84 568.74 652.49 568.61Q654.17 568.26 656 568.58Q658.44 569.01 659.79 570.39Q660.53 571.15 660.77 572.04Q660.96 572.78 660.82 573.6Q660.76 573.93 660.65 574.24Q660.31 575.18 659.48 575.94Q658.4 576.94 656.29 578.32Q653.21 580.3 651.44 582.12ZM391.03 558.13L398.84 514.02L378.18 510.37L376.47 520.01L384.66 521.45L378.55 555.93L391.03 558.13ZM552.43 577.88L558.99 579.03L560.74 569.14L554.19 567.98L555.51 560.49L543.73 558.41L542.4 565.91L533.44 564.33L555.97 541.72L543.06 539.45L518.39 563.5L516.95 571.62L540.26 575.73L538.77 584.18L550.94 586.32L552.43 577.88ZM421.02 553.36Q419.95 553.61 418.78 553.4Q417.53 553.19 416.57 552.54Q415.05 551.52 414.24 549.45Q412.92 546.06 414.09 539.44Q415.27 532.83 417.67 530.11Q419.14 528.44 420.91 528Q422.04 527.72 423.29 527.94Q424.46 528.15 425.38 528.75Q426.93 529.76 427.75 531.89Q429.07 535.26 427.9 541.88Q426.73 548.49 424.32 551.23Q422.82 552.94 421.02 553.36ZM617.07 562.3L586 556.82L584.38 565.96L615.45 571.44L617.07 562.3ZM496.47 549.22L465.41 543.75L463.78 552.95L494.84 558.43L496.47 549.22ZM614.24 578.26L583.17 572.78L581.55 581.92L612.62 587.4L614.24 578.26ZM648.23 603.13Q649.68 604.32 651.8 604.7Q654.07 605.1 655.93 604.4Q656.65 604.13 657.32 603.68Q658.52 602.89 659.23 601.78Q659.92 600.71 660.16 599.35Q660.45 597.72 660.02 596.31Q659.7 595.26 658.97 594.33Q658.59 593.83 658.13 593.42Q656.56 592.02 654.13 591.59Q651.66 591.15 649.71 591.96Q649.17 592.19 648.66 592.51Q647.71 593.12 647.06 593.96Q646.15 595.15 645.85 596.82Q645.61 598.18 645.89 599.42Q646.18 600.71 647.04 601.87Q647.56 602.59 648.23 603.13Z" fill="#FFFFFF" fill-opacity="1.000000" fill-rule="evenodd"/>
		<path id="10 − 4 = ?" d="M398.84 514.02L391.03 558.13L378.55 555.93L384.66 521.45L376.47 520.01L378.18 510.37L398.84 514.02ZM416.97 563.61Q411.29 562.61 407.36 559.12Q403.44 555.63 401.86 549.99Q400.29 544.36 401.55 537.23Q402.81 530.12 406.23 525.36Q409.64 520.6 414.52 518.67Q419.42 516.73 425.1 517.73Q430.7 518.71 434.63 522.22Q438.57 525.7 440.13 531.34Q441.7 536.98 440.44 544.09Q439.18 551.21 435.76 555.97Q432.36 560.74 427.47 562.66Q422.57 564.59 416.97 563.61ZM418.78 553.4Q421.93 553.96 424.32 551.23Q426.73 548.49 427.9 541.88Q429.07 535.26 427.75 531.89Q426.44 528.5 423.29 527.94Q420.07 527.38 417.67 530.11Q415.27 532.83 414.09 539.44Q412.92 546.06 414.24 549.45Q415.56 552.84 418.78 553.4ZM465.41 543.75L496.47 549.22L494.84 558.43L463.78 552.95L465.41 543.75ZM558.99 579.03L552.43 577.88L550.94 586.32L538.77 584.18L540.26 575.73L516.95 571.62L518.39 563.5L543.06 539.45L555.97 541.72L533.44 564.33L542.4 565.91L543.73 558.41L555.51 560.49L554.19 567.98L560.74 569.14L558.99 579.03ZM586 556.82L617.07 562.3L615.45 571.44L584.38 565.96L586 556.82ZM583.17 572.78L614.24 578.26L612.62 587.4L581.55 581.92L583.17 572.78ZM649.13 587.07Q649.69 583.92 651.44 582.12Q653.21 580.3 656.29 578.32Q658.4 576.94 659.48 575.94Q660.58 574.93 660.82 573.6Q661.14 571.77 659.79 570.39Q658.44 569.01 656 568.58Q653.47 568.13 651.21 568.97Q648.95 569.81 647.31 571.73L638.8 565.04Q642.17 561.08 647.33 559.45Q652.51 557.82 659.18 559Q666.68 560.32 670.69 564.25Q674.71 568.18 673.72 573.8Q673.26 576.37 672.02 578.19Q670.79 580.02 669.32 581.18Q667.86 582.32 665.61 583.66Q663.14 585.12 661.9 586.23Q660.65 587.34 660.35 589.05L649.13 587.07ZM651.8 604.7Q648.71 604.15 647.04 601.87Q645.36 599.59 645.85 596.82Q646.36 593.98 648.66 592.51Q650.97 591.03 654.13 591.59Q657.28 592.14 658.97 594.33Q660.67 596.5 660.16 599.35Q659.67 602.12 657.32 603.68Q654.96 605.25 651.8 604.7Z" stroke="#202027" stroke-opacity="1.000000" stroke-width="1.000000"/>
		<rect id="Frame 2043683095" rx="29.500000" width="377.000000" height="125.000000" transform="translate(348.948242 467.858154) rotate(10.000001)" stroke="#202027" stroke-opacity="1.000000" stroke-width="1.000000"/>
	</g>
</svg>
