<svg width="600.000000" height="500.000000" viewBox="0 0 600 500" fill="none" xmlns="http://www.w3.org/2000/svg" xmlns:xlink="http://www.w3.org/1999/xlink">
	<desc>
			Created with Pixso.
	</desc>
	<defs>
		<clipPath id="clip13_1937">
			<rect id="Обложка карточки" rx="29.500000" width="599.000000" height="499.000000" transform="translate(0.500000 0.500000)" fill="white" fill-opacity="0"/>
		</clipPath>
	</defs>
	<rect id="Обложка карточки" rx="29.500000" width="599.000000" height="499.000000" transform="translate(0.500000 0.500000)" fill="#565EEF" fill-opacity="1.000000"/>
	<g clip-path="url(#clip13_1937)">
		<rect id="Frame 2043683076" rx="29.500000" width="212.000000" height="125.000000" transform="translate(-207.492188 -109.482910) rotate(10.000001)" fill="#B0AEFF" fill-opacity="1.000000"/>
		<path id="рыс" d="M-148.69 -50.88Q-151.42 -52.56 -154.82 -53.16Q-160.5 -54.16 -164.26 -51.92Q-164.97 -51.5 -165.61 -50.97L-165.01 -54.37L-176.41 -56.38L-184.63 -9.99L-172.66 -7.88L-169.95 -23.14Q-169.31 -22.2 -168.52 -21.42Q-165.74 -18.68 -161.07 -17.86Q-157.63 -17.26 -154.45 -17.91Q-153.32 -18.14 -152.22 -18.54Q-150.72 -19.08 -149.37 -19.89Q-146.96 -21.34 -145.08 -23.66Q-142.12 -27.26 -141.18 -32.55Q-140.25 -37.85 -141.78 -42.24Q-142.77 -45.08 -144.55 -47.27Q-145.52 -48.47 -146.74 -49.48Q-147.67 -50.25 -148.69 -50.88ZM-75.14 -5.04Q-71.06 -1.99 -65.4 -0.99Q-59.6 0.03 -54.94 -1.72Q-52.21 -2.74 -50.21 -4.55Q-48.78 -5.85 -47.72 -7.55L-56.14 -13.92Q-58.12 -11.29 -60.62 -10.63Q-62.11 -10.23 -63.77 -10.53Q-65.7 -10.87 -67.1 -11.92Q-68.02 -12.62 -68.71 -13.63Q-68.9 -13.92 -69.06 -14.21Q-70.36 -16.6 -69.75 -20.02Q-69.17 -23.32 -67.21 -25.08Q-66.92 -25.35 -66.6 -25.57Q-65.64 -26.26 -64.57 -26.59Q-62.87 -27.12 -60.89 -26.77Q-59.23 -26.48 -57.97 -25.6Q-55.85 -24.12 -54.89 -20.97L-44.79 -24.08Q-45.2 -26.04 -46.1 -27.75Q-47.36 -30.14 -49.57 -32.03Q-53.34 -35.26 -59.15 -36.29Q-64.81 -37.28 -69.68 -35.83Q-73.09 -34.82 -75.68 -32.78Q-76.79 -31.9 -77.76 -30.83Q-78.5 -30 -79.11 -29.09Q-81.15 -26.08 -81.85 -22.15Q-82.53 -18.3 -81.7 -14.82Q-81.42 -13.68 -80.99 -12.58Q-80.45 -11.23 -79.7 -10Q-77.98 -7.18 -75.14 -5.04ZM-105.15 -29.77Q-108.02 -33.34 -114.75 -34.59L-122.38 -35.93L-120.51 -46.52L-132.42 -48.62L-138.47 -14.46L-120.44 -11.28Q-113.26 -9.96 -108.75 -12.48Q-107.21 -13.34 -106.08 -14.57Q-103.9 -16.95 -103.23 -20.72Q-102.48 -24.95 -104.02 -28.03Q-104.48 -28.95 -105.15 -29.77ZM-84.52 -40.17L-96.43 -42.27L-102.48 -8.12L-90.57 -6.02L-84.52 -40.17ZM-158.4 -28.01Q-160.02 -27.5 -161.9 -27.83Q-163.79 -28.16 -165.13 -29.2Q-166.03 -29.9 -166.69 -30.91Q-166.83 -31.12 -166.95 -31.34Q-168.27 -33.75 -167.65 -37.22Q-167.04 -40.69 -164.97 -42.5Q-164.78 -42.67 -164.58 -42.82Q-163.62 -43.55 -162.53 -43.89Q-160.91 -44.41 -159.03 -44.08Q-157.14 -43.74 -155.8 -42.71Q-154.9 -42.01 -154.24 -41Q-154.1 -40.78 -153.98 -40.57Q-152.66 -38.15 -153.28 -34.69Q-153.89 -31.22 -155.96 -29.4Q-156.15 -29.24 -156.35 -29.09Q-157.31 -28.36 -158.4 -28.01ZM-116.35 -20.28Q-117.69 -19.24 -120.19 -19.68L-125.1 -20.63L-123.68 -28.63L-118.75 -27.76Q-116.5 -27.3 -115.53 -26.14Q-115.42 -26.01 -115.33 -25.87Q-114.6 -24.77 -114.92 -22.99Q-115.25 -21.14 -116.35 -20.28Z" fill="#FFFFFF" fill-opacity="1.000000" fill-rule="evenodd"/>
		<path id="рыс" d="M-154.82 -53.16Q-150.15 -52.33 -146.74 -49.48Q-143.31 -46.64 -141.78 -42.24Q-140.25 -37.85 -141.18 -32.55Q-142.12 -27.26 -145.08 -23.66Q-148.02 -20.05 -152.22 -18.54Q-156.4 -17.04 -161.07 -17.86Q-167.07 -18.92 -169.95 -23.14L-172.66 -7.88L-184.63 -9.99L-176.41 -56.38L-165.01 -54.37L-165.61 -50.97Q-161.57 -54.35 -154.82 -53.16ZM-161.9 -27.83Q-158.75 -27.27 -156.35 -29.09Q-153.95 -30.9 -153.28 -34.69Q-152.61 -38.47 -154.24 -41Q-155.87 -43.52 -159.03 -44.08Q-162.18 -44.63 -164.58 -42.82Q-166.98 -41.01 -167.65 -37.22Q-168.32 -33.44 -166.69 -30.91Q-165.06 -28.39 -161.9 -27.83ZM-114.75 -34.59Q-108.02 -33.34 -105.15 -29.77Q-102.26 -26.21 -103.23 -20.72Q-104.24 -15 -108.75 -12.48Q-113.26 -9.96 -120.44 -11.28L-138.47 -14.46L-132.42 -48.62L-120.51 -46.52L-122.38 -35.93L-114.75 -34.59ZM-96.43 -42.27L-84.52 -40.17L-90.57 -6.02L-102.48 -8.12L-96.43 -42.27ZM-120.19 -19.68Q-115.65 -18.88 -114.92 -22.99Q-114.56 -25 -115.53 -26.14Q-116.5 -27.3 -118.75 -27.76L-123.68 -28.63L-125.1 -20.63L-120.19 -19.68ZM-65.4 -0.99Q-71.06 -1.99 -75.14 -5.04Q-79.21 -8.11 -80.99 -12.58Q-82.75 -17.05 -81.85 -22.15Q-80.94 -27.26 -77.76 -30.83Q-74.56 -34.39 -69.68 -35.83Q-64.81 -37.28 -59.15 -36.29Q-53.34 -35.26 -49.57 -32.03Q-45.78 -28.79 -44.79 -24.08L-54.89 -20.97Q-56.42 -25.98 -60.89 -26.77Q-64.11 -27.34 -66.6 -25.57Q-69.08 -23.81 -69.75 -20.02Q-70.44 -16.18 -68.71 -13.63Q-66.99 -11.09 -63.77 -10.53Q-59.29 -9.74 -56.14 -13.92L-47.72 -7.55Q-50.27 -3.46 -54.94 -1.72Q-59.6 0.03 -65.4 -0.99Z" stroke="#202027" stroke-opacity="1.000000" stroke-width="1.000000"/>
		<rect id="Frame 2043683076" rx="29.500000" width="212.000000" height="125.000000" transform="translate(-207.492188 -109.482910) rotate(10.000001)" stroke="#202027" stroke-opacity="1.000000" stroke-width="1.000000"/>
		<rect id="Frame 2043683071" rx="29.500000" width="302.000000" height="125.000000" transform="translate(14.185547 -70.395264) rotate(10.000001)" fill="#B0AEFF" fill-opacity="1.000000"/>
		<path id="акшок" d="M71.69 -9.22Q67.9 -13.88 59.39 -15.38Q59.16 -15.43 58.92 -15.46Q55.06 -16.09 51.04 -15.78Q46.79 -15.46 43.63 -14.07L46.22 -5.22Q48.23 -6.31 50.9 -6.65Q53.56 -6.99 56.01 -6.56Q60.36 -5.79 61.73 -3.35Q62.54 -1.9 62.29 0.14L55.49 -1.06Q47.74 -2.43 43.54 -0.41Q41.75 0.45 40.58 1.83Q38.99 3.69 38.49 6.47Q38.09 8.74 38.59 10.78Q38.75 11.46 39.02 12.12Q39.1 12.33 39.2 12.54Q40.29 14.9 42.72 16.64Q45.39 18.54 49.36 19.24Q55.01 20.24 58.37 17.92Q59.48 17.16 60.33 16.04L59.55 20.45L70.71 22.42L74.07 3.45Q75.33 -3.67 72.46 -8.15Q72.11 -8.71 71.69 -9.22ZM189.93 42.01Q193.77 44.71 198.87 45.61Q204.28 46.56 208.99 45.17Q209.11 45.14 209.23 45.1Q212.49 44.09 214.99 42.11Q216.18 41.17 217.21 40Q217.96 39.15 218.59 38.2Q220.6 35.19 221.29 31.3Q221.99 27.33 221.09 23.77Q220.83 22.75 220.44 21.75Q219.88 20.33 219.08 19.04Q217.41 16.35 214.68 14.31Q214.63 14.27 214.57 14.23Q210.59 11.27 205.12 10.31Q199.58 9.33 194.8 10.81Q191.8 11.72 189.42 13.48Q188.01 14.52 186.81 15.86Q185.9 16.88 185.18 18.02Q183.37 20.89 182.73 24.5Q182.05 28.35 182.88 31.84Q183.15 32.97 183.59 34.07Q184.18 35.58 185.03 36.92Q186.71 39.57 189.38 41.6Q189.65 41.81 189.93 42.01ZM92.02 13.63L96.06 14.34L101.85 27.91L115.96 30.4L106.89 10.47L121.26 -3.89L108.59 -6.12L97.97 5L93.68 4.24L95.91 -8.36L83.94 -10.47L77.89 23.69L89.86 25.8L92.02 13.63ZM174.08 40.65L180.13 6.49L168.28 4.4L163.93 28.97L154.73 27.35L159.08 2.78L147.15 0.68L142.8 25.25L133.54 23.61L137.89 -0.96L125.98 -3.06L119.93 31.1L174.08 40.65ZM237.99 39.37L242.04 40.08L247.82 53.65L261.93 56.14L252.86 36.21L267.23 21.85L254.56 19.62L243.95 30.74L239.65 29.98L241.88 17.38L229.91 15.27L223.86 49.43L235.83 51.54L237.99 39.37ZM204.06 35.9Q202.45 36.41 200.56 36.08Q198.67 35.75 197.33 34.71Q196.43 34.02 195.77 33Q195.67 32.85 195.58 32.68Q194.18 30.24 194.82 26.63Q195.44 23.15 197.52 21.36Q197.7 21.2 197.89 21.06Q198.82 20.37 199.86 20.03Q201.51 19.49 203.44 19.84Q205.37 20.18 206.73 21.24Q207.59 21.92 208.23 22.89Q208.36 23.08 208.47 23.29Q209.81 25.68 209.19 29.16Q208.55 32.77 206.4 34.59Q206.26 34.71 206.11 34.82Q205.15 35.55 204.06 35.9ZM57.38 12.09Q55.83 12.58 54.04 12.26Q51.96 11.9 50.93 10.75Q50.46 10.21 50.27 9.59Q50.04 8.86 50.19 8.01Q50.37 6.96 50.99 6.31Q52.39 4.83 56.03 5.47L61.19 6.38L60.66 9.34Q59.89 10.7 58.73 11.46Q58.32 11.72 57.88 11.91Q57.63 12.01 57.38 12.09Z" fill="#FFFFFF" fill-opacity="1.000000" fill-rule="evenodd"/>
		<path id="акшок" d="M59.39 -15.38Q67.9 -13.88 71.69 -9.22Q75.48 -4.55 74.07 3.45L70.71 22.42L59.55 20.45L60.33 16.04Q56.87 20.57 49.36 19.24Q45.39 18.54 42.72 16.64Q40.08 14.75 39.02 12.12Q37.96 9.49 38.49 6.47Q39.36 1.61 43.54 -0.41Q47.74 -2.43 55.49 -1.06L62.29 0.14Q62.94 -5.33 56.01 -6.56Q53.56 -6.99 50.9 -6.65Q48.23 -6.31 46.22 -5.22L43.63 -14.07Q46.79 -15.46 51.04 -15.78Q55.3 -16.11 59.39 -15.38ZM54.04 12.26Q56.13 12.63 57.88 11.91Q59.63 11.17 60.66 9.34L61.19 6.38L56.03 5.47Q50.8 4.55 50.19 8.01Q49.91 9.58 50.93 10.75Q51.96 11.9 54.04 12.26ZM96.06 14.34L92.02 13.63L89.86 25.8L77.89 23.69L83.94 -10.47L95.91 -8.36L93.68 4.24L97.97 5L108.59 -6.12L121.26 -3.89L106.89 10.47L115.96 30.4L101.85 27.91L96.06 14.34ZM180.13 6.49L174.08 40.65L119.93 31.1L125.98 -3.06L137.89 -0.96L133.54 23.61L142.8 25.25L147.15 0.68L159.08 2.78L154.73 27.35L163.93 28.97L168.28 4.4L180.13 6.49ZM198.87 45.61Q193.39 44.64 189.38 41.6Q185.36 38.54 183.59 34.07Q181.82 29.61 182.73 24.5Q183.62 19.45 186.81 15.86Q190.02 12.27 194.8 10.81Q199.58 9.33 205.12 10.31Q210.66 11.29 214.68 14.31Q218.7 17.32 220.44 21.75Q222.19 26.19 221.29 31.3Q220.38 36.4 217.21 40Q214.05 43.6 209.23 45.1Q204.41 46.58 198.87 45.61ZM200.56 36.08Q203.71 36.64 206.11 34.82Q208.51 33.01 209.19 29.16Q209.86 25.38 208.23 22.89Q206.59 20.39 203.44 19.84Q200.28 19.28 197.89 21.06Q195.49 22.85 194.82 26.63Q194.14 30.48 195.77 33Q197.4 35.53 200.56 36.08ZM242.04 40.08L237.99 39.37L235.83 51.54L223.86 49.43L229.91 15.27L241.88 17.38L239.65 29.98L243.95 30.74L254.56 19.62L267.23 21.85L252.86 36.21L261.93 56.14L247.82 53.65L242.04 40.08Z" stroke="#202027" stroke-opacity="1.000000" stroke-width="1.000000"/>
		<rect id="Frame 2043683071" rx="29.500000" width="302.000000" height="125.000000" transform="translate(14.185547 -70.395264) rotate(10.000001)" stroke="#202027" stroke-opacity="1.000000" stroke-width="1.000000"/>
		<rect id="Frame 2043683075" rx="29.500000" width="313.000000" height="125.000000" transform="translate(324.496094 -15.679199) rotate(10.000001)" fill="#B0AEFF" fill-opacity="1.000000"/>
		<path id="агудар" d="M381.75 45.45Q377.96 40.79 369.45 39.29Q369.21 39.24 368.98 39.21Q365.11 38.58 361.09 38.89Q356.85 39.21 353.68 40.6L356.27 49.45Q358.29 48.36 360.95 48.02Q363.61 47.68 366.06 48.11Q370.42 48.88 371.78 51.32Q372.59 52.77 372.35 54.81L365.55 53.61Q357.79 52.24 353.59 54.26Q351.81 55.12 350.63 56.5Q349.04 58.36 348.55 61.15Q348.15 63.41 348.64 65.45Q348.81 66.13 349.07 66.79Q349.16 67.01 349.26 67.22Q350.35 69.58 352.78 71.32Q355.44 73.21 359.41 73.91Q365.07 74.91 368.43 72.59Q369.53 71.83 370.39 70.71L369.61 75.12L380.76 77.09L384.12 58.12Q385.38 51 382.52 46.52Q382.16 45.96 381.75 45.45ZM537.11 72.85Q533.32 68.18 524.81 66.68Q524.58 66.64 524.34 66.6Q520.47 65.98 516.46 66.29Q512.21 66.6 509.04 67.99L511.63 76.84Q513.65 75.76 516.31 75.42Q518.98 75.08 521.42 75.51Q525.78 76.28 527.14 78.72Q527.95 80.17 527.71 82.2L520.91 81Q513.15 79.64 508.96 81.66Q507.17 82.52 505.99 83.9Q504.41 85.75 503.91 88.54Q503.51 90.8 504.01 92.85Q504.17 93.53 504.44 94.19Q504.52 94.4 504.62 94.61Q505.71 96.97 508.14 98.71Q510.8 100.61 514.77 101.31Q520.43 102.31 523.79 99.98Q524.9 99.22 525.75 98.1L524.97 102.52L536.13 104.49L539.49 85.52Q540.75 78.39 537.88 73.91Q537.53 73.36 537.11 72.85ZM577.08 77.09Q574.35 75.42 570.96 74.82Q565.27 73.82 561.51 76.05Q560.8 76.47 560.16 77.01L560.76 73.61L549.36 71.6L541.14 117.98L553.11 120.1L555.82 104.83Q556.46 105.77 557.25 106.55Q560.03 109.29 564.7 110.11Q568.14 110.72 571.32 110.06Q572.45 109.83 573.55 109.44Q575.06 108.89 576.4 108.08Q578.81 106.63 580.69 104.32Q583.65 100.71 584.59 95.42Q585.52 90.13 583.99 85.73Q583 82.89 581.22 80.7Q580.25 79.5 579.03 78.49Q578.1 77.72 577.08 77.09ZM404.22 55.81L420.93 58.76L422.62 49.25L393.99 44.2L387.94 78.36L399.85 80.46L404.22 55.81ZM443.04 89.5L464.09 56.56L452.67 54.55L440.53 73.92L435.85 51.58L423.56 49.41L432.05 86.59Q431.03 87.97 429.8 88.47Q428.58 88.97 426.87 88.66Q426.65 88.63 426.43 88.57Q425.22 88.29 424.11 87.62Q422.79 86.83 421.94 85.72L416.3 93.37Q417.74 95.05 420.33 96.38Q422.94 97.71 425.65 98.19Q430.76 99.09 434.78 97.4Q434.97 97.32 435.16 97.23Q439.34 95.35 443.04 89.5ZM498.32 105.1L501.27 88.46L496.53 87.62L500.88 63.05L469.31 57.48L466.77 69.31Q465.45 75.25 463.66 78.35Q462.6 80.2 461.07 80.77Q460.03 81.16 458.79 80.96L457.52 80.74L454.58 97.39L465.73 99.36L466.98 92.29L488.48 96.08L487.23 103.15L498.32 105.1ZM567.37 99.96Q565.75 100.48 563.87 100.14Q561.98 99.81 560.64 98.77Q559.74 98.08 559.08 97.06Q558.94 96.85 558.82 96.63Q557.51 94.22 558.12 90.75Q558.73 87.28 560.8 85.47Q560.99 85.31 561.19 85.15Q562.15 84.43 563.24 84.08Q564.86 83.56 566.74 83.9Q568.63 84.23 569.97 85.27Q570.88 85.96 571.53 86.98Q571.67 87.19 571.79 87.41Q573.11 89.82 572.49 93.29Q571.88 96.76 569.81 98.57Q569.62 98.73 569.42 98.89Q568.46 99.61 567.37 99.96ZM475.38 79.35Q476.39 76.66 477.38 72.09L478.09 68.83L487.23 70.45L484.56 85.51L472.71 83.42Q474.39 82.03 475.38 79.35ZM367.43 66.76Q365.89 67.25 364.09 66.93Q362.01 66.57 360.98 65.42Q360.51 64.88 360.32 64.27Q360.09 63.53 360.24 62.68Q360.43 61.63 361.04 60.98Q362.45 59.5 366.09 60.14L371.24 61.05L370.72 64.01Q369.95 65.37 368.78 66.13Q368.38 66.39 367.93 66.58Q367.69 66.68 367.43 66.76ZM522.8 94.15Q521.25 94.64 519.45 94.33Q517.38 93.96 516.34 92.81Q515.88 92.28 515.68 91.66Q515.45 90.93 515.61 90.08Q515.79 89.02 516.41 88.38Q517.81 86.9 521.45 87.54L526.61 88.45L526.08 91.4Q525.31 92.76 524.14 93.52Q523.74 93.78 523.29 93.97Q523.05 94.07 522.8 94.15Z" fill="#FFFFFF" fill-opacity="1.000000" fill-rule="evenodd"/>
		<path id="агудар" d="M369.45 39.29Q377.96 40.79 381.75 45.45Q385.54 50.12 384.12 58.12L380.76 77.09L369.61 75.12L370.39 70.71Q366.92 75.24 359.41 73.91Q355.44 73.21 352.78 71.32Q350.13 69.42 349.07 66.79Q348.02 64.16 348.55 61.15Q349.41 56.28 353.59 54.26Q357.79 52.24 365.55 53.61L372.35 54.81Q373 49.34 366.06 48.11Q363.61 47.68 360.95 48.02Q358.29 48.36 356.27 49.45L353.68 40.6Q356.85 39.21 361.09 38.89Q365.36 38.56 369.45 39.29ZM364.09 66.93Q366.18 67.3 367.93 66.58Q369.68 65.84 370.72 64.01L371.24 61.05L366.09 60.14Q360.86 59.22 360.24 62.68Q359.96 64.25 360.98 65.42Q362.01 66.57 364.09 66.93ZM420.93 58.76L404.22 55.81L399.85 80.46L387.94 78.36L393.99 44.2L422.62 49.25L420.93 58.76ZM464.09 56.56L443.04 89.5Q439.34 95.35 435.16 97.23Q431 99.13 425.65 98.19Q422.94 97.71 420.33 96.38Q417.74 95.05 416.3 93.37L421.94 85.72Q422.79 86.83 424.11 87.62Q425.43 88.41 426.87 88.66Q428.58 88.97 429.8 88.47Q431.03 87.97 432.05 86.59L423.56 49.41L435.85 51.58L440.53 73.92L452.67 54.55L464.09 56.56ZM501.27 88.46L498.32 105.1L487.23 103.15L488.48 96.08L466.98 92.29L465.73 99.36L454.58 97.39L457.52 80.74L458.79 80.96Q461.89 81.45 463.66 78.35Q465.45 75.25 466.77 69.31L469.31 57.48L500.88 63.05L496.53 87.62L501.27 88.46ZM477.38 72.09Q476.39 76.66 475.38 79.35Q474.39 82.03 472.71 83.42L484.56 85.51L487.23 70.45L478.09 68.83L477.38 72.09ZM524.81 66.68Q533.32 68.18 537.11 72.85Q540.9 77.51 539.49 85.52L536.13 104.49L524.97 102.52L525.75 98.1Q522.28 102.63 514.77 101.31Q510.8 100.61 508.14 98.71Q505.49 96.82 504.44 94.19Q503.38 91.56 503.91 88.54Q504.77 83.68 508.96 81.66Q513.15 79.64 520.91 81L527.71 82.2Q528.36 76.73 521.42 75.51Q518.98 75.08 516.31 75.42Q513.65 75.76 511.63 76.84L509.04 67.99Q512.21 66.6 516.46 66.29Q520.72 65.96 524.81 66.68ZM519.45 94.33Q521.55 94.7 523.29 93.97Q525.04 93.23 526.08 91.4L526.61 88.45L521.45 87.54Q516.22 86.62 515.61 90.08Q515.33 91.65 516.34 92.81Q517.38 93.96 519.45 94.33ZM570.96 74.82Q575.62 75.64 579.03 78.49Q582.46 81.34 583.99 85.73Q585.52 90.13 584.59 95.42Q583.65 100.71 580.69 104.32Q577.75 107.92 573.55 109.44Q569.37 110.93 564.7 110.11Q558.7 109.05 555.82 104.83L553.11 120.1L541.14 117.98L549.36 71.6L560.76 73.61L560.16 77.01Q564.2 73.63 570.96 74.82ZM563.87 100.14Q567.02 100.7 569.42 98.89Q571.82 97.07 572.49 93.29Q573.16 89.5 571.53 86.98Q569.9 84.45 566.74 83.9Q563.59 83.34 561.19 85.15Q558.79 86.97 558.12 90.75Q557.45 94.54 559.08 97.06Q560.71 99.59 563.87 100.14Z" stroke="#202027" stroke-opacity="1.000000" stroke-width="1.000000"/>
		<rect id="Frame 2043683075" rx="29.500000" width="313.000000" height="125.000000" transform="translate(324.496094 -15.679199) rotate(10.000001)" stroke="#202027" stroke-opacity="1.000000" stroke-width="1.000000"/>
		<rect id="Frame 2043683073" rx="29.500000" width="212.000000" height="125.000000" transform="translate(645.639648 40.947266) rotate(10.000001)" fill="#B0AEFF" fill-opacity="1.000000"/>
		<path id="рыс" d="M704.44 99.55Q701.71 97.87 698.32 97.27Q692.63 96.27 688.87 98.51Q688.16 98.93 687.52 99.46L688.12 96.06L676.72 94.05L668.5 140.44L680.47 142.55L683.18 127.29Q683.82 128.23 684.61 129.01Q687.39 131.75 692.06 132.57Q695.5 133.17 698.68 132.52Q699.81 132.29 700.91 131.89Q702.42 131.35 703.76 130.54Q706.17 129.09 708.06 126.77Q711.01 123.17 711.95 117.88Q712.89 112.58 711.35 108.19Q710.36 105.35 708.58 103.16Q707.61 101.96 706.39 100.95Q705.46 100.18 704.44 99.55ZM778 145.39Q782.07 148.44 787.74 149.44Q793.54 150.46 798.19 148.71Q800.92 147.69 802.92 145.88Q804.35 144.58 805.42 142.88L796.99 136.5Q795.01 139.14 792.51 139.8Q791.03 140.2 789.36 139.9Q787.43 139.56 786.04 138.51Q785.11 137.81 784.42 136.8Q784.23 136.51 784.07 136.22Q782.77 133.83 783.38 130.41Q783.96 127.11 785.92 125.35Q786.21 125.08 786.54 124.86Q787.49 124.18 788.56 123.84Q790.26 123.31 792.24 123.66Q793.9 123.95 795.16 124.83Q797.28 126.31 798.24 129.46L808.34 126.35Q807.93 124.39 807.03 122.68Q805.77 120.29 803.56 118.4Q799.79 115.17 793.99 114.14Q788.32 113.15 783.45 114.6Q780.04 115.61 777.46 117.65Q776.34 118.53 775.37 119.6Q774.64 120.43 774.02 121.34Q771.98 124.35 771.28 128.28Q770.6 132.13 771.44 135.62Q771.71 136.75 772.14 137.85Q772.68 139.2 773.43 140.43Q775.15 143.25 778 145.39ZM747.98 120.66Q745.11 117.09 738.38 115.84L730.75 114.5L732.62 103.91L720.71 101.81L714.66 135.97L732.7 139.15Q739.87 140.48 744.38 137.95Q745.92 137.09 747.05 135.86Q749.24 133.48 749.9 129.71Q750.65 125.48 749.11 122.4Q748.65 121.48 747.98 120.66ZM768.61 110.26L756.7 108.16L750.65 142.31L762.56 144.41L768.61 110.26ZM694.73 122.42Q693.12 122.93 691.23 122.6Q689.34 122.27 688 121.23Q687.1 120.53 686.44 119.52Q686.31 119.31 686.19 119.09Q684.87 116.68 685.48 113.21Q686.1 109.74 688.16 107.93Q688.35 107.76 688.55 107.61Q689.52 106.88 690.6 106.54Q692.22 106.02 694.11 106.35Q695.99 106.69 697.34 107.72Q698.24 108.42 698.89 109.43Q699.03 109.65 699.15 109.87Q700.47 112.28 699.85 115.74Q699.24 119.21 697.17 121.03Q696.98 121.19 696.78 121.34Q695.82 122.07 694.73 122.42ZM736.78 130.15Q735.44 131.19 732.95 130.75L728.04 129.81L729.45 121.8L734.38 122.67Q736.63 123.13 737.6 124.29Q737.71 124.42 737.81 124.56Q738.53 125.66 738.21 127.44Q737.89 129.29 736.78 130.15Z" fill="#FFFFFF" fill-opacity="1.000000" fill-rule="evenodd"/>
		<path id="рыс" d="M698.32 97.27Q702.98 98.1 706.39 100.95Q709.82 103.79 711.35 108.19Q712.89 112.58 711.95 117.88Q711.01 123.17 708.06 126.77Q705.12 130.38 700.91 131.89Q696.73 133.39 692.06 132.57Q686.06 131.51 683.18 127.29L680.47 142.55L668.5 140.44L676.72 94.05L688.12 96.06L687.52 99.46Q691.56 96.08 698.32 97.27ZM691.23 122.6Q694.38 123.16 696.78 121.34Q699.18 119.53 699.85 115.74Q700.52 111.96 698.89 109.43Q697.26 106.91 694.11 106.35Q690.95 105.8 688.55 107.61Q686.15 109.43 685.48 113.21Q684.81 117 686.44 119.52Q688.07 122.04 691.23 122.6ZM738.38 115.84Q745.11 117.09 747.98 120.66Q750.88 124.22 749.9 129.71Q748.89 135.43 744.38 137.95Q739.87 140.48 732.7 139.15L714.66 135.97L720.71 101.81L732.62 103.91L730.75 114.5L738.38 115.84ZM756.7 108.16L768.61 110.26L762.56 144.41L750.65 142.31L756.7 108.16ZM732.95 130.75Q737.49 131.55 738.21 127.44Q738.57 125.43 737.6 124.29Q736.63 123.13 734.38 122.67L729.45 121.8L728.04 129.81L732.95 130.75ZM787.74 149.44Q782.07 148.44 778 145.39Q773.92 142.32 772.14 137.85Q770.38 133.38 771.28 128.28Q772.19 123.17 775.37 119.6Q778.58 116.04 783.45 114.6Q788.32 113.15 793.99 114.14Q799.79 115.17 803.56 118.4Q807.35 121.64 808.34 126.35L798.24 129.46Q796.72 124.45 792.24 123.66Q789.02 123.09 786.54 124.86Q784.05 126.62 783.38 130.41Q782.7 134.25 784.42 136.8Q786.14 139.34 789.36 139.9Q793.84 140.69 796.99 136.5L805.42 142.88Q802.87 146.97 798.19 148.71Q793.54 150.46 787.74 149.44Z" stroke="#202027" stroke-opacity="1.000000" stroke-width="1.000000"/>
		<rect id="Frame 2043683073" rx="29.500000" width="212.000000" height="125.000000" transform="translate(645.639648 40.947266) rotate(10.000001)" stroke="#202027" stroke-opacity="1.000000" stroke-width="1.000000"/>
		<rect id="Frame 2043683076" rx="29.500000" width="196.000000" height="125.000000" transform="translate(-202.633789 31.320801) rotate(10.000001)" fill="#B0AEFF" fill-opacity="1.000000"/>
		<path id="тик" d="M-153.76 97.37L-142.79 99.3L-141.11 89.8L-175.02 83.82L-176.7 93.32L-165.67 95.27L-170.04 119.92L-158.13 122.02L-153.76 97.37ZM-124.54 92.72L-136.45 90.62L-142.5 124.77L-131.4 126.73L-114.04 111.28L-117.22 129.23L-105.25 131.34L-99.2 97.19L-110.23 95.24L-127.71 110.61L-124.54 92.72ZM-83.06 122.71L-79.01 123.42L-73.22 136.99L-59.11 139.48L-68.18 119.55L-53.82 105.19L-66.48 102.95L-77.1 114.08L-81.39 113.32L-79.16 100.72L-91.13 98.61L-97.18 132.76L-85.21 134.88L-83.06 122.71Z" fill="#FFFFFF" fill-opacity="1.000000" fill-rule="evenodd"/>
		<path id="тик" d="M-142.79 99.3L-153.76 97.37L-158.13 122.02L-170.04 119.92L-165.67 95.27L-176.7 93.32L-175.02 83.82L-141.11 89.8L-142.79 99.3ZM-136.45 90.62L-124.54 92.72L-127.71 110.61L-110.23 95.24L-99.2 97.19L-105.25 131.34L-117.22 129.23L-114.04 111.28L-131.4 126.73L-142.5 124.77L-136.45 90.62ZM-79.01 123.42L-83.06 122.71L-85.21 134.88L-97.18 132.76L-91.13 98.61L-79.16 100.72L-81.39 113.32L-77.1 114.08L-66.48 102.95L-53.82 105.19L-68.18 119.55L-59.11 139.48L-73.22 136.99L-79.01 123.42Z" stroke="#202027" stroke-opacity="1.000000" stroke-width="1.000000"/>
		<rect id="Frame 2043683076" rx="29.500000" width="196.000000" height="125.000000" transform="translate(-202.633789 31.320801) rotate(10.000001)" stroke="#202027" stroke-opacity="1.000000" stroke-width="1.000000"/>
		<rect id="Frame 2043683074" rx="29.500000" width="389.000000" height="125.000000" transform="translate(3.287109 67.630127) rotate(10.000001)" fill="#B0AEFF" fill-opacity="1.000000"/>
		<path id="родимоп" d="M61.76 126.18Q59.03 124.5 55.64 123.9Q49.95 122.9 46.19 125.13Q45.48 125.55 44.84 126.09L45.44 122.69L34.04 120.68L25.82 167.07L37.79 169.18L40.5 153.92Q41.14 154.85 41.93 155.63Q44.71 158.37 49.38 159.19Q52.82 159.8 56 159.14Q57.13 158.91 58.23 158.52Q59.74 157.98 61.08 157.17Q63.49 155.71 65.37 153.4Q68.33 149.8 69.27 144.5Q70.21 139.21 68.67 134.81Q67.68 131.97 65.9 129.78Q64.93 128.58 63.71 127.58Q62.78 126.8 61.76 126.18ZM79.78 162.53Q83.61 165.23 88.72 166.13Q94.12 167.08 98.84 165.69Q98.95 165.66 99.07 165.62Q102.33 164.61 104.83 162.64Q106.03 161.69 107.05 160.53Q107.81 159.67 108.44 158.73Q110.44 155.71 111.13 151.82Q111.84 147.85 110.94 144.29Q110.68 143.27 110.28 142.28Q109.72 140.85 108.93 139.57Q107.25 136.88 104.53 134.84Q104.47 134.8 104.42 134.75Q100.43 131.8 94.97 130.84Q89.43 129.86 84.64 131.33Q81.64 132.25 79.26 134Q77.85 135.04 76.66 136.38Q75.75 137.41 75.02 138.55Q73.21 141.41 72.57 145.02Q71.89 148.87 72.72 152.36Q73 153.5 73.43 154.6Q74.03 156.1 74.88 157.44Q76.56 160.09 79.22 162.12Q79.5 162.33 79.78 162.53ZM263.76 194.97Q267.59 197.67 272.69 198.57Q278.1 199.52 282.81 198.14Q282.93 198.1 283.05 198.06Q286.31 197.05 288.81 195.08Q290.01 194.13 291.03 192.97Q291.79 192.11 292.41 191.17Q294.42 188.15 295.11 184.26Q295.81 180.29 294.91 176.73Q294.65 175.71 294.26 174.72Q293.7 173.29 292.9 172.01Q291.23 169.32 288.5 167.28Q288.45 167.24 288.39 167.2Q284.41 164.24 278.95 163.28Q273.41 162.3 268.62 163.77Q265.62 164.69 263.24 166.44Q261.83 167.48 260.64 168.82Q259.73 169.85 259 170.99Q257.19 173.85 256.55 177.46Q255.87 181.31 256.7 184.8Q256.97 185.94 257.41 187.04Q258.01 188.54 258.86 189.88Q260.54 192.54 263.2 194.56Q263.48 194.77 263.76 194.97ZM152.23 184.03L155.18 167.38L150.44 166.54L154.8 141.97L123.22 136.4L120.68 148.24Q119.36 154.17 117.57 157.27Q116.51 159.12 114.98 159.7Q113.95 160.08 112.7 159.89L111.44 159.66L108.49 176.31L119.64 178.28L120.89 171.22L142.39 175.01L141.14 182.07L152.23 184.03ZM176.61 145.82L164.7 143.72L158.64 177.87L169.74 179.83L187.11 164.38L183.93 182.33L195.9 184.44L201.95 150.29L190.92 148.34L173.44 163.71L176.61 145.82ZM240.3 173.76L237.12 191.71L247.89 193.61L253.88 159.44L242.6 157.45L228.98 173.44L222.62 153.93L210.01 151.71L203.96 185.86L214.75 187.77L217.98 169.55L223.8 186.24L228.89 187.13L240.3 173.76ZM332.98 208.61L339.03 174.46L303.73 168.23L297.69 202.39L309.6 204.49L313.96 179.84L325.44 181.87L321.07 206.51L332.98 208.61ZM52.05 149.04Q50.44 149.56 48.55 149.23Q46.66 148.89 45.32 147.86Q44.42 147.16 43.76 146.14Q43.63 145.93 43.51 145.71Q42.19 143.3 42.8 139.84Q43.42 136.37 45.48 134.55Q45.67 134.39 45.87 134.24Q46.84 133.51 47.92 133.16Q49.54 132.65 51.43 132.98Q53.31 133.31 54.66 134.35Q55.56 135.05 56.21 136.06Q56.35 136.27 56.47 136.49Q57.79 138.9 57.17 142.37Q56.56 145.84 54.49 147.65Q54.3 147.82 54.1 147.97Q53.14 148.7 52.05 149.04ZM93.91 156.42Q92.29 156.94 90.4 156.61Q88.52 156.27 87.17 155.24Q86.27 154.54 85.62 153.53Q85.52 153.37 85.42 153.21Q84.03 150.76 84.67 147.15Q85.28 143.67 87.36 141.88Q87.54 141.73 87.73 141.59Q88.66 140.89 89.71 140.55Q91.35 140.02 93.28 140.36Q95.21 140.7 96.57 141.77Q97.44 142.44 98.07 143.41Q98.2 143.61 98.32 143.82Q99.66 146.21 99.04 149.69Q98.4 153.3 96.25 155.12Q96.11 155.24 95.96 155.35Q94.99 156.08 93.91 156.42ZM277.89 188.86Q276.27 189.38 274.38 189.05Q272.49 188.71 271.15 187.68Q270.25 186.98 269.59 185.97Q269.49 185.81 269.4 185.65Q268.01 183.2 268.64 179.59Q269.26 176.11 271.34 174.32Q271.52 174.17 271.71 174.03Q272.64 173.33 273.68 172.99Q275.33 172.46 277.26 172.8Q279.19 173.14 280.55 174.21Q281.41 174.88 282.05 175.85Q282.18 176.05 282.3 176.26Q283.63 178.65 283.02 182.13Q282.38 185.74 280.22 187.56Q280.08 187.68 279.94 187.79Q278.97 188.52 277.89 188.86ZM129.3 158.28Q130.3 155.58 131.3 151.01L132 147.76L141.14 149.37L138.47 164.43L126.62 162.34Q128.3 160.96 129.3 158.28Z" fill="#FFFFFF" fill-opacity="1.000000" fill-rule="evenodd"/>
		<path id="родимоп" d="M55.64 123.9Q60.3 124.72 63.71 127.58Q67.14 130.42 68.67 134.81Q70.21 139.21 69.27 144.5Q68.33 149.8 65.37 153.4Q62.44 157 58.23 158.52Q54.05 160.02 49.38 159.19Q43.38 158.14 40.5 153.92L37.79 169.18L25.82 167.07L34.04 120.68L45.44 122.69L44.84 126.09Q48.88 122.71 55.64 123.9ZM48.55 149.23Q51.7 149.78 54.1 147.97Q56.5 146.15 57.17 142.37Q57.84 138.59 56.21 136.06Q54.58 133.53 51.43 132.98Q48.27 132.42 45.87 134.24Q43.47 136.05 42.8 139.84Q42.13 143.62 43.76 146.14Q45.39 148.67 48.55 149.23ZM88.72 166.13Q83.24 165.16 79.22 162.12Q75.21 159.07 73.43 154.6Q71.67 150.13 72.57 145.02Q73.47 139.98 76.66 136.38Q79.86 132.79 84.64 131.33Q89.43 129.86 94.97 130.84Q100.51 131.81 104.53 134.84Q108.55 137.85 110.28 142.28Q112.04 146.71 111.13 151.82Q110.23 156.93 107.05 160.53Q103.89 164.13 99.07 165.62Q94.26 167.11 88.72 166.13ZM90.4 156.61Q93.56 157.16 95.96 155.35Q98.36 153.53 99.04 149.69Q99.71 145.9 98.07 143.41Q96.43 140.92 93.28 140.36Q90.13 139.8 87.73 141.59Q85.34 143.37 84.67 147.15Q83.99 151 85.62 153.53Q87.25 156.05 90.4 156.61ZM155.18 167.38L152.23 184.03L141.14 182.07L142.39 175.01L120.89 171.22L119.64 178.28L108.49 176.31L111.44 159.66L112.7 159.89Q115.8 160.37 117.57 157.27Q119.36 154.17 120.68 148.24L123.22 136.4L154.8 141.97L150.44 166.54L155.18 167.38ZM131.3 151.01Q130.3 155.58 129.3 158.28Q128.3 160.96 126.62 162.34L138.47 164.43L141.14 149.37L132 147.76L131.3 151.01ZM164.7 143.72L176.61 145.82L173.44 163.71L190.92 148.34L201.95 150.29L195.9 184.44L183.93 182.33L187.11 164.38L169.74 179.83L158.64 177.87L164.7 143.72ZM237.12 191.71L240.3 173.76L228.89 187.13L223.8 186.24L217.98 169.55L214.75 187.77L203.96 185.86L210.01 151.71L222.62 153.93L228.98 173.44L242.6 157.45L253.88 159.44L247.89 193.61L237.12 191.71ZM272.69 198.57Q267.22 197.6 263.2 194.56Q259.19 191.51 257.41 187.04Q255.65 182.57 256.55 177.46Q257.44 172.42 260.64 168.82Q263.84 165.23 268.62 163.77Q273.41 162.3 278.95 163.28Q284.49 164.25 288.5 167.28Q292.52 170.29 294.26 174.72Q296.02 179.15 295.11 184.26Q294.21 189.37 291.03 192.97Q287.87 196.57 283.05 198.06Q278.23 199.55 272.69 198.57ZM274.38 189.05Q277.54 189.6 279.94 187.79Q282.34 185.98 283.02 182.13Q283.69 178.34 282.05 175.85Q280.41 173.36 277.26 172.8Q274.1 172.24 271.71 174.03Q269.31 175.81 268.64 179.59Q267.96 183.44 269.59 185.97Q271.23 188.49 274.38 189.05ZM339.03 174.46L332.98 208.61L321.07 206.51L325.44 181.87L313.96 179.84L309.6 204.49L297.69 202.39L303.73 168.23L339.03 174.46Z" stroke="#202027" stroke-opacity="1.000000" stroke-width="1.000000"/>
		<rect id="Frame 2043683074" rx="29.500000" width="389.000000" height="125.000000" transform="translate(3.287109 67.630127) rotate(10.000001)" stroke="#202027" stroke-opacity="1.000000" stroke-width="1.000000"/>
		<rect id="Frame 2043683073" rx="29.500000" width="212.000000" height="125.000000" transform="translate(399.275391 137.453613) rotate(10.000001)" fill="#B0AEFF" fill-opacity="1.000000"/>
		<path id="рыс" d="M458.08 196.06Q455.35 194.38 451.95 193.78Q446.27 192.78 442.51 195.01Q441.8 195.43 441.15 195.97L441.76 192.57L430.35 190.56L422.14 236.95L434.11 239.06L436.81 223.8Q437.45 224.73 438.25 225.51Q441.03 228.25 445.7 229.08Q449.14 229.68 452.32 229.03Q453.45 228.79 454.55 228.4Q456.05 227.86 457.4 227.05Q459.8 225.6 461.69 223.28Q464.65 219.68 465.58 214.38Q466.52 209.09 464.98 204.69Q464 201.86 462.22 199.66Q461.24 198.46 460.03 197.46Q459.1 196.68 458.08 196.06ZM531.63 241.9Q535.71 244.95 541.37 245.95Q547.17 246.97 551.83 245.22Q554.56 244.2 556.56 242.38Q557.99 241.09 559.05 239.38L550.63 233.01Q548.65 235.64 546.14 236.31Q544.66 236.7 543 236.41Q541.07 236.07 539.67 235.02Q538.75 234.32 538.06 233.3Q537.86 233.02 537.7 232.72Q536.41 230.33 537.01 226.92Q537.6 223.62 539.56 221.85Q539.85 221.59 540.17 221.36Q541.13 220.68 542.2 220.35Q543.9 219.82 545.87 220.16Q547.54 220.46 548.8 221.34Q550.92 222.82 551.88 225.97L561.98 222.86Q561.57 220.9 560.67 219.19Q559.41 216.8 557.2 214.91Q553.42 211.67 547.62 210.65Q541.96 209.65 537.08 211.11Q533.68 212.12 531.09 214.16Q529.97 215.04 529.01 216.11Q528.27 216.94 527.66 217.84Q525.61 220.86 524.92 224.78Q524.24 228.63 525.07 232.12Q525.34 233.26 525.78 234.36Q526.32 235.71 527.06 236.94Q528.79 239.76 531.63 241.9ZM501.62 217.17Q498.74 213.6 492.02 212.35L484.38 211L486.26 200.42L474.35 198.32L468.3 232.47L486.33 235.65Q493.51 236.98 498.02 234.46Q499.56 233.6 500.69 232.36Q502.87 229.98 503.54 226.22Q504.29 221.99 502.75 218.91Q502.28 217.99 501.62 217.17ZM522.25 206.76L510.34 204.66L504.29 238.82L516.2 240.92L522.25 206.76ZM448.37 218.92Q446.75 219.44 444.86 219.11Q442.98 218.77 441.63 217.74Q440.73 217.04 440.08 216.03Q439.94 215.82 439.82 215.6Q438.5 213.19 439.12 209.72Q439.73 206.25 441.8 204.44Q441.99 204.27 442.19 204.12Q443.15 203.39 444.24 203.04Q445.85 202.53 447.74 202.86Q449.63 203.19 450.97 204.23Q451.87 204.93 452.53 205.94Q452.66 206.15 452.78 206.37Q454.1 208.78 453.49 212.25Q452.87 215.72 450.81 217.53Q450.62 217.7 450.42 217.85Q449.45 218.58 448.37 218.92ZM490.42 226.65Q489.08 227.7 486.58 227.26L481.67 226.31L483.09 218.31L488.01 219.18Q490.26 219.64 491.23 220.79Q491.35 220.93 491.44 221.07Q492.16 222.17 491.85 223.95Q491.52 225.8 490.42 226.65Z" fill="#FFFFFF" fill-opacity="1.000000" fill-rule="evenodd"/>
		<path id="рыс" d="M451.95 193.78Q456.61 194.6 460.03 197.46Q463.46 200.3 464.98 204.69Q466.52 209.09 465.58 214.38Q464.65 219.68 461.69 223.28Q458.75 226.89 454.55 228.4Q450.36 229.9 445.7 229.08Q439.7 228.02 436.81 223.8L434.11 239.06L422.14 236.95L430.35 190.56L441.76 192.57L441.15 195.97Q445.2 192.59 451.95 193.78ZM444.86 219.11Q448.02 219.66 450.42 217.85Q452.82 216.04 453.49 212.25Q454.16 208.47 452.53 205.94Q450.9 203.42 447.74 202.86Q444.59 202.3 442.19 204.12Q439.79 205.93 439.12 209.72Q438.45 213.5 440.08 216.03Q441.71 218.55 444.86 219.11ZM492.02 212.35Q498.74 213.6 501.62 217.17Q504.51 220.72 503.54 226.22Q502.53 231.94 498.02 234.46Q493.51 236.98 486.33 235.65L468.3 232.47L474.35 198.32L486.26 200.42L484.38 211L492.02 212.35ZM510.34 204.66L522.25 206.76L516.2 240.92L504.29 238.82L510.34 204.66ZM486.58 227.26Q491.12 228.06 491.85 223.95Q492.21 221.93 491.23 220.79Q490.26 219.64 488.01 219.18L483.09 218.31L481.67 226.31L486.58 227.26ZM541.37 245.95Q535.71 244.95 531.63 241.9Q527.56 238.83 525.78 234.36Q524.01 229.89 524.92 224.78Q525.82 219.67 529.01 216.11Q532.21 212.55 537.08 211.11Q541.96 209.65 547.62 210.65Q553.42 211.67 557.2 214.91Q560.99 218.15 561.98 222.86L551.88 225.97Q550.35 220.95 545.87 220.16Q542.66 219.6 540.17 221.36Q537.68 223.13 537.01 226.92Q536.33 230.76 538.06 233.3Q539.78 235.84 543 236.41Q547.47 237.2 550.63 233.01L559.05 239.38Q556.5 243.47 551.83 245.22Q547.17 246.97 541.37 245.95Z" stroke="#202027" stroke-opacity="1.000000" stroke-width="1.000000"/>
		<rect id="Frame 2043683073" rx="29.500000" width="212.000000" height="125.000000" transform="translate(399.275391 137.453613) rotate(10.000001)" stroke="#202027" stroke-opacity="1.000000" stroke-width="1.000000"/>
		<rect id="Frame 2043683075" rx="29.500000" width="196.000000" height="125.000000" transform="translate(620.953125 176.541504) rotate(10.000001)" fill="#B0AEFF" fill-opacity="1.000000"/>
		<path id="тик" d="M669.83 242.59L680.8 244.53L682.48 235.02L648.57 229.04L646.88 238.55L657.92 240.49L653.55 265.14L665.46 267.24L669.83 242.59ZM699.05 237.94L687.14 235.84L681.09 269.99L692.18 271.95L709.55 256.5L706.37 274.45L718.34 276.56L724.39 242.41L713.36 240.46L695.88 255.83L699.05 237.94ZM740.53 267.93L744.58 268.64L750.36 282.21L764.47 284.7L755.4 264.77L769.77 250.41L757.11 248.18L746.49 259.3L742.2 258.54L744.43 245.94L732.46 243.83L726.41 277.99L738.38 280.1L740.53 267.93Z" fill="#FFFFFF" fill-opacity="1.000000" fill-rule="evenodd"/>
		<path id="тик" d="M680.8 244.53L669.83 242.59L665.46 267.24L653.55 265.14L657.92 240.49L646.88 238.55L648.57 229.04L682.48 235.02L680.8 244.53ZM687.14 235.84L699.05 237.94L695.88 255.83L713.36 240.46L724.39 242.41L718.34 276.56L706.37 274.45L709.55 256.5L692.18 271.95L681.09 269.99L687.14 235.84ZM744.58 268.64L740.53 267.93L738.38 280.1L726.41 277.99L732.46 243.83L744.43 245.94L742.2 258.54L746.49 259.3L757.11 248.18L769.77 250.41L755.4 264.77L764.47 284.7L750.36 282.21L744.58 268.64Z" stroke="#202027" stroke-opacity="1.000000" stroke-width="1.000000"/>
		<rect id="Frame 2043683075" rx="29.500000" width="196.000000" height="125.000000" transform="translate(620.953125 176.541504) rotate(10.000001)" stroke="#202027" stroke-opacity="1.000000" stroke-width="1.000000"/>
		<rect id="Frame 2043683095" rx="29.500000" width="192.000000" height="125.000000" transform="translate(-199.908203 172.265137) rotate(10.000001)" fill="#B0AEFF" fill-opacity="1.000000"/>
		<path id="топ" d="M-133.51 265.39Q-129.67 268.09 -124.57 268.99Q-119.16 269.94 -114.45 268.55Q-114.33 268.51 -114.21 268.48Q-110.95 267.47 -108.45 265.49Q-107.26 264.55 -106.23 263.38Q-105.48 262.53 -104.85 261.58Q-102.84 258.57 -102.15 254.68Q-101.45 250.71 -102.35 247.15Q-102.61 246.13 -103 245.13Q-103.56 243.71 -104.36 242.42Q-106.03 239.73 -108.76 237.69Q-108.81 237.65 -108.87 237.61Q-112.85 234.65 -118.32 233.69Q-123.86 232.71 -128.64 234.19Q-131.64 235.1 -134.02 236.86Q-135.43 237.9 -136.63 239.24Q-137.54 240.26 -138.26 241.4Q-140.07 244.27 -140.71 247.88Q-141.39 251.73 -140.56 255.22Q-140.29 256.35 -139.85 257.45Q-139.26 258.96 -138.41 260.3Q-136.73 262.95 -134.06 264.98Q-133.79 265.19 -133.51 265.39ZM-151.24 238.28L-140.27 240.21L-138.58 230.7L-172.5 224.72L-174.18 234.23L-163.15 236.18L-167.52 260.83L-155.61 262.93L-151.24 238.28ZM-64.28 279.03L-58.23 244.87L-93.53 238.65L-99.58 272.81L-87.67 274.91L-83.3 250.26L-71.82 252.28L-76.19 276.93L-64.28 279.03ZM-119.38 259.28Q-120.99 259.79 -122.88 259.46Q-124.77 259.13 -126.11 258.09Q-127.01 257.4 -127.67 256.38Q-127.77 256.23 -127.86 256.06Q-129.26 253.62 -128.62 250.01Q-128 246.53 -125.92 244.74Q-125.74 244.58 -125.55 244.44Q-124.62 243.75 -123.58 243.41Q-121.93 242.87 -120 243.22Q-118.07 243.56 -116.71 244.62Q-115.85 245.3 -115.21 246.27Q-115.08 246.46 -114.97 246.67Q-113.63 249.06 -114.25 252.54Q-114.89 256.15 -117.04 257.97Q-117.18 258.09 -117.33 258.2Q-118.29 258.93 -119.38 259.28Z" fill="#FFFFFF" fill-opacity="1.000000" fill-rule="evenodd"/>
		<path id="топ" d="M-140.27 240.21L-151.24 238.28L-155.61 262.93L-167.52 260.83L-163.15 236.18L-174.18 234.23L-172.5 224.72L-138.58 230.7L-140.27 240.21ZM-124.57 268.99Q-130.05 268.02 -134.06 264.98Q-138.08 261.92 -139.85 257.45Q-141.62 252.99 -140.71 247.88Q-139.82 242.83 -136.63 239.24Q-133.42 235.65 -128.64 234.19Q-123.86 232.71 -118.32 233.69Q-112.78 234.67 -108.76 237.69Q-104.74 240.7 -103 245.13Q-101.25 249.57 -102.15 254.68Q-103.06 259.78 -106.23 263.38Q-109.39 266.98 -114.21 268.48Q-119.03 269.96 -124.57 268.99ZM-122.88 259.46Q-119.73 260.02 -117.33 258.2Q-114.93 256.39 -114.25 252.54Q-113.58 248.76 -115.21 246.27Q-116.85 243.77 -120 243.22Q-123.16 242.66 -125.55 244.44Q-127.95 246.23 -128.62 250.01Q-129.3 253.86 -127.67 256.38Q-126.04 258.91 -122.88 259.46ZM-58.23 244.87L-64.28 279.03L-76.19 276.93L-71.82 252.28L-83.3 250.26L-87.67 274.91L-99.58 272.81L-93.53 238.65L-58.23 244.87Z" stroke="#202027" stroke-opacity="1.000000" stroke-width="1.000000"/>
		<rect id="Frame 2043683095" rx="29.500000" width="192.000000" height="125.000000" transform="translate(-199.908203 172.265137) rotate(10.000001)" stroke="#202027" stroke-opacity="1.000000" stroke-width="1.000000"/>
		<rect id="Frame 2043683072" rx="29.500000" width="601.000000" height="125.000000" transform="translate(2.073242 207.879883) rotate(10.000001)" fill="#B0AEFF" fill-opacity="1.000000"/>
		<path id="ытсиммаргорп" d="M124.41 310.56Q128.49 313.61 134.15 314.6Q139.95 315.63 144.61 313.88Q147.34 312.86 149.34 311.04Q150.77 309.75 151.83 308.04L143.41 301.67Q141.43 304.3 138.92 304.97Q137.44 305.36 135.78 305.07Q133.84 304.73 132.45 303.68Q131.52 302.98 130.84 301.96Q130.64 301.68 130.48 301.38Q129.19 298.99 129.79 295.57Q130.38 292.28 132.34 290.51Q132.63 290.25 132.95 290.02Q133.91 289.34 134.98 289.01Q136.68 288.48 138.65 288.82Q140.32 289.12 141.58 290Q143.7 291.48 144.66 294.63L154.76 291.52Q154.35 289.56 153.45 287.85Q152.19 285.46 149.98 283.57Q146.2 280.33 140.4 279.31Q134.74 278.31 129.86 279.77Q126.46 280.78 123.87 282.82Q122.75 283.7 121.79 284.77Q121.05 285.6 120.44 286.5Q118.39 289.52 117.7 293.44Q117.02 297.29 117.85 300.78Q118.12 301.92 118.56 303.02Q119.1 304.37 119.84 305.6Q121.57 308.42 124.41 310.56ZM336.93 317.96Q333.14 313.29 324.63 311.79Q324.39 311.75 324.16 311.72Q320.29 311.09 316.27 311.4Q312.03 311.72 308.86 313.11L311.45 321.96Q313.47 320.87 316.13 320.53Q318.79 320.19 321.24 320.62Q325.6 321.39 326.96 323.83Q327.77 325.28 327.53 327.32L320.73 326.12Q312.97 324.75 308.78 326.77Q306.99 327.63 305.81 329.01Q304.23 330.87 303.73 333.65Q303.33 335.92 303.82 337.96Q303.99 338.64 304.25 339.3Q304.34 339.51 304.44 339.72Q305.53 342.08 307.96 343.82Q310.62 345.72 314.59 346.42Q320.25 347.42 323.61 345.1Q324.71 344.34 325.57 343.22L324.79 347.63L335.94 349.6L339.3 330.63Q340.57 323.51 337.7 319.02Q337.35 318.47 336.93 317.96ZM376.9 322.21Q374.17 320.53 370.77 319.93Q365.09 318.93 361.33 321.16Q360.62 321.58 359.98 322.12L360.58 318.72L349.18 316.71L340.96 363.1L352.93 365.21L355.63 349.95Q356.27 350.88 357.07 351.66Q359.85 354.4 364.52 355.23Q367.96 355.83 371.14 355.18Q372.27 354.94 373.37 354.55Q374.88 354.01 376.22 353.2Q378.63 351.75 380.51 349.43Q383.47 345.83 384.41 340.53Q385.34 335.24 383.8 330.84Q382.82 328.01 381.04 325.81Q380.06 324.61 378.85 323.61Q377.92 322.83 376.9 322.21ZM426.87 364.2Q430.71 366.9 435.81 367.8Q441.21 368.75 445.93 367.36Q446.05 367.33 446.16 367.29Q449.42 366.28 451.92 364.3Q453.12 363.36 454.14 362.19Q454.9 361.34 455.53 360.39Q457.54 357.38 458.23 353.49Q458.93 349.52 458.03 345.96Q457.77 344.94 457.38 343.94Q456.82 342.52 456.02 341.23Q454.34 338.54 451.62 336.5Q451.56 336.46 451.51 336.42Q447.52 333.46 442.06 332.5Q436.52 331.52 431.74 333Q428.74 333.91 426.35 335.67Q424.94 336.71 423.75 338.05Q422.84 339.07 422.12 340.21Q420.3 343.08 419.66 346.69Q418.98 350.54 419.82 354.03Q420.09 355.16 420.52 356.26Q421.12 357.77 421.97 359.11Q423.65 361.76 426.31 363.79Q426.59 364 426.87 364.2ZM494.57 342.96Q491.84 341.28 488.45 340.68Q482.76 339.68 479 341.91Q478.29 342.33 477.65 342.87L478.25 339.47L466.85 337.46L458.63 383.85L470.6 385.96L473.31 370.7Q473.95 371.63 474.74 372.41Q477.52 375.15 482.19 375.97Q485.63 376.58 488.81 375.93Q489.94 375.69 491.04 375.3Q492.55 374.76 493.89 373.95Q496.3 372.49 498.19 370.18Q501.14 366.58 502.08 361.28Q503.02 355.99 501.48 351.59Q500.49 348.75 498.71 346.56Q497.74 345.36 496.52 344.36Q495.59 343.58 494.57 342.96ZM60.55 279.86Q57.68 276.29 50.95 275.04L43.32 273.7L45.19 263.11L33.28 261.01L27.23 295.17L45.27 298.35Q52.44 299.67 56.95 297.15Q58.49 296.29 59.62 295.06Q61.8 292.68 62.47 288.91Q63.22 284.68 61.68 281.6Q61.22 280.68 60.55 279.86ZM81.18 269.46L69.27 267.36L63.22 301.51L75.13 303.61L81.18 269.46ZM107.17 283.84L118.14 285.78L119.83 276.27L85.91 270.29L84.23 279.8L95.26 281.74L90.9 306.39L102.81 308.49L107.17 283.84ZM173.2 285.68L161.29 283.58L155.24 317.74L166.34 319.69L183.7 304.24L180.52 322.19L192.49 324.31L198.54 290.15L187.51 288.2L170.03 303.57L173.2 285.68ZM236.9 313.62L233.72 331.57L244.49 333.47L250.48 299.31L239.2 297.32L225.58 313.31L219.21 293.79L206.61 291.57L200.56 325.73L211.34 327.63L214.57 309.41L220.39 326.1L225.48 327L236.9 313.62ZM288.9 322.79L285.72 340.74L296.49 342.64L302.48 308.48L291.2 306.49L277.57 322.47L271.21 302.96L258.6 300.74L252.56 334.9L263.34 336.8L266.57 318.58L272.39 335.27L277.48 336.17L288.9 322.79ZM403.4 336.08L420.11 339.02L421.79 329.51L393.17 324.47L387.12 358.62L399.03 360.72L403.4 336.08ZM540.09 385.6L546.14 351.44L510.84 345.22L504.79 379.37L516.7 381.47L521.07 356.82L532.55 358.85L528.18 383.5L540.09 385.6ZM367.19 345.07Q365.57 345.59 363.69 345.26Q361.8 344.92 360.46 343.89Q359.55 343.19 358.9 342.18Q358.76 341.97 358.64 341.75Q357.32 339.34 357.94 335.87Q358.55 332.4 360.62 330.59Q360.81 330.42 361.01 330.27Q361.97 329.54 363.06 329.19Q364.68 328.68 366.56 329.01Q368.45 329.34 369.79 330.38Q370.69 331.08 371.35 332.09Q371.49 332.3 371.61 332.52Q372.92 334.93 372.31 338.4Q371.7 341.87 369.63 343.68Q369.44 343.85 369.24 344Q368.28 344.73 367.19 345.07ZM441 358.09Q439.38 358.6 437.49 358.27Q435.61 357.94 434.27 356.9Q433.36 356.21 432.71 355.19Q432.61 355.04 432.52 354.87Q431.12 352.43 431.76 348.82Q432.38 345.34 434.45 343.55Q434.63 343.39 434.82 343.25Q435.75 342.56 436.8 342.22Q438.44 341.68 440.37 342.02Q442.3 342.37 443.66 343.43Q444.53 344.11 445.16 345.08Q445.3 345.27 445.41 345.48Q446.75 347.87 446.13 351.35Q445.49 354.96 443.34 356.78Q443.2 356.9 443.05 357.01Q442.09 357.74 441 358.09ZM484.86 365.82Q483.25 366.34 481.36 366.01Q479.47 365.67 478.13 364.64Q477.23 363.94 476.57 362.93Q476.44 362.71 476.32 362.49Q475 360.08 475.61 356.62Q476.23 353.15 478.29 351.33Q478.48 351.17 478.68 351.02Q479.65 350.29 480.73 349.94Q482.35 349.43 484.24 349.76Q486.12 350.09 487.47 351.13Q488.37 351.83 489.02 352.84Q489.16 353.05 489.28 353.27Q490.6 355.68 489.98 359.15Q489.37 362.62 487.3 364.43Q487.11 364.6 486.91 364.75Q485.95 365.48 484.86 365.82ZM49.35 289.35Q48.01 290.39 45.52 289.95L40.6 289L42.02 281L46.95 281.87Q49.2 282.33 50.17 283.49Q50.28 283.62 50.37 283.76Q51.1 284.86 50.78 286.64Q50.45 288.49 49.35 289.35ZM322.61 339.27Q321.07 339.76 319.27 339.44Q317.2 339.08 316.16 337.92Q315.7 337.39 315.5 336.77Q315.27 336.04 315.42 335.19Q315.61 334.14 316.23 333.49Q317.63 332.01 321.27 332.65L326.42 333.56L325.9 336.52Q325.13 337.88 323.96 338.64Q323.56 338.9 323.11 339.09Q322.87 339.19 322.61 339.27Z" fill="#FFFFFF" fill-opacity="1.000000" fill-rule="evenodd"/>
		<path id="ытсиммаргорп" d="M50.95 275.04Q57.68 276.29 60.55 279.86Q63.44 283.42 62.47 288.91Q61.46 294.63 56.95 297.15Q52.44 299.67 45.27 298.35L27.23 295.17L33.28 261.01L45.19 263.11L43.32 273.7L50.95 275.04ZM69.27 267.36L81.18 269.46L75.13 303.61L63.22 301.51L69.27 267.36ZM45.52 289.95Q50.05 290.75 50.78 286.64Q51.14 284.63 50.17 283.49Q49.2 282.33 46.95 281.87L42.02 281L40.6 289L45.52 289.95ZM118.14 285.78L107.17 283.84L102.81 308.49L90.9 306.39L95.26 281.74L84.23 279.8L85.91 270.29L119.83 276.27L118.14 285.78ZM134.15 314.6Q128.49 313.61 124.41 310.56Q120.34 307.49 118.56 303.02Q116.79 298.55 117.7 293.44Q118.6 288.33 121.79 284.77Q124.99 281.21 129.86 279.77Q134.74 278.31 140.4 279.31Q146.2 280.33 149.98 283.57Q153.77 286.81 154.76 291.52L144.66 294.63Q143.13 289.61 138.65 288.82Q135.44 288.26 132.95 290.02Q130.46 291.79 129.79 295.57Q129.11 299.42 130.84 301.96Q132.56 304.5 135.78 305.07Q140.25 305.86 143.41 301.67L151.83 308.04Q149.28 312.13 144.61 313.88Q139.95 315.63 134.15 314.6ZM161.29 283.58L173.2 285.68L170.03 303.57L187.51 288.2L198.54 290.15L192.49 324.31L180.52 322.19L183.7 304.24L166.34 319.69L155.24 317.74L161.29 283.58ZM233.72 331.57L236.9 313.62L225.48 327L220.39 326.1L214.57 309.41L211.34 327.63L200.56 325.73L206.61 291.57L219.21 293.79L225.58 313.31L239.2 297.32L250.48 299.31L244.49 333.47L233.72 331.57ZM285.72 340.74L288.9 322.79L277.48 336.17L272.39 335.27L266.57 318.58L263.34 336.8L252.56 334.9L258.6 300.74L271.21 302.96L277.57 322.47L291.2 306.49L302.48 308.48L296.49 342.64L285.72 340.74ZM324.63 311.79Q333.14 313.29 336.93 317.96Q340.72 322.63 339.3 330.63L335.94 349.6L324.79 347.63L325.57 343.22Q322.1 347.75 314.59 346.42Q310.62 345.72 307.96 343.82Q305.31 341.93 304.25 339.3Q303.2 336.67 303.73 333.65Q304.59 328.79 308.78 326.77Q312.97 324.75 320.73 326.12L327.53 327.32Q328.18 321.85 321.24 320.62Q318.79 320.19 316.13 320.53Q313.47 320.87 311.45 321.96L308.86 313.11Q312.03 311.72 316.27 311.4Q320.54 311.07 324.63 311.79ZM319.27 339.44Q321.37 339.81 323.11 339.09Q324.86 338.35 325.9 336.52L326.42 333.56L321.27 332.65Q316.04 331.73 315.42 335.19Q315.15 336.76 316.16 337.92Q317.2 339.08 319.27 339.44ZM370.77 319.93Q375.44 320.75 378.85 323.61Q382.28 326.45 383.8 330.84Q385.34 335.24 384.41 340.53Q383.47 345.83 380.51 349.43Q377.57 353.04 373.37 354.55Q369.18 356.05 364.52 355.23Q358.52 354.17 355.63 349.95L352.93 365.21L340.96 363.1L349.18 316.71L360.58 318.72L359.98 322.12Q364.02 318.74 370.77 319.93ZM363.69 345.26Q366.84 345.81 369.24 344Q371.64 342.19 372.31 338.4Q372.98 334.62 371.35 332.09Q369.72 329.57 366.56 329.01Q363.41 328.45 361.01 330.27Q358.61 332.08 357.94 335.87Q357.27 339.65 358.9 342.18Q360.53 344.7 363.69 345.26ZM420.11 339.02L403.4 336.08L399.03 360.72L387.12 358.62L393.17 324.47L421.79 329.51L420.11 339.02ZM435.81 367.8Q430.33 366.83 426.31 363.79Q422.3 360.73 420.52 356.26Q418.76 351.8 419.66 346.69Q420.56 341.64 423.75 338.05Q426.96 334.46 431.74 333Q436.52 331.52 442.06 332.5Q447.6 333.48 451.62 336.5Q455.64 339.51 457.38 343.94Q459.13 348.38 458.23 353.49Q457.32 358.59 454.14 362.19Q450.98 365.79 446.16 367.29Q441.35 368.77 435.81 367.8ZM437.49 358.27Q440.65 358.83 443.05 357.01Q445.45 355.2 446.13 351.35Q446.8 347.57 445.16 345.08Q443.53 342.58 440.37 342.02Q437.22 341.47 434.82 343.25Q432.43 345.04 431.76 348.82Q431.08 352.67 432.71 355.19Q434.34 357.72 437.49 358.27ZM488.45 340.68Q493.11 341.5 496.52 344.36Q499.95 347.2 501.48 351.59Q503.02 355.99 502.08 361.28Q501.14 366.58 498.19 370.18Q495.25 373.79 491.04 375.3Q486.86 376.8 482.19 375.97Q476.19 374.92 473.31 370.7L470.6 385.96L458.63 383.85L466.85 337.46L478.25 339.47L477.65 342.87Q481.69 339.49 488.45 340.68ZM481.36 366.01Q484.51 366.56 486.91 364.75Q489.31 362.93 489.98 359.15Q490.65 355.37 489.02 352.84Q487.39 350.32 484.24 349.76Q481.08 349.2 478.68 351.02Q476.28 352.83 475.61 356.62Q474.94 360.4 476.57 362.93Q478.2 365.45 481.36 366.01ZM546.14 351.44L540.09 385.6L528.18 383.5L532.55 358.85L521.07 356.82L516.7 381.47L504.79 379.37L510.84 345.22L546.14 351.44Z" stroke="#202027" stroke-opacity="1.000000" stroke-width="1.000000"/>
		<rect id="Frame 2043683072" rx="29.500000" width="601.000000" height="125.000000" transform="translate(2.073242 207.879883) rotate(10.000001)" stroke="#202027" stroke-opacity="1.000000" stroke-width="1.000000"/>
		<rect id="Frame 2043683094" rx="29.500000" width="192.000000" height="125.000000" transform="translate(606.840820 314.516846) rotate(10.000001)" fill="#B0AEFF" fill-opacity="1.000000"/>
		<path id="топ" d="M673.24 407.64Q677.08 410.34 682.18 411.24Q687.59 412.19 692.3 410.8Q692.42 410.77 692.54 410.73Q695.8 409.72 698.3 407.75Q699.49 406.8 700.52 405.63Q701.27 404.78 701.9 403.84Q703.91 400.82 704.6 396.93Q705.3 392.96 704.4 389.4Q704.14 388.38 703.75 387.39Q703.19 385.96 702.39 384.68Q700.72 381.98 697.99 379.95Q697.94 379.9 697.88 379.86Q693.9 376.91 688.43 375.94Q682.89 374.97 678.11 376.44Q675.11 377.35 672.73 379.11Q671.32 380.15 670.12 381.49Q669.21 382.51 668.49 383.66Q666.68 386.52 666.04 390.13Q665.36 393.98 666.19 397.47Q666.46 398.61 666.9 399.71Q667.49 401.21 668.34 402.55Q670.02 405.2 672.69 407.23Q672.96 407.44 673.24 407.64ZM655.51 380.53L666.48 382.47L668.17 372.96L634.25 366.98L632.57 376.49L643.6 378.43L639.23 403.08L651.14 405.18L655.51 380.53ZM742.47 421.28L748.52 387.13L713.22 380.9L707.17 415.06L719.08 417.16L723.45 392.51L734.93 394.53L730.56 419.18L742.47 421.28ZM687.37 401.53Q685.76 402.05 683.87 401.71Q681.98 401.38 680.64 400.34Q679.74 399.65 679.08 398.63Q678.98 398.48 678.89 398.32Q677.49 395.87 678.13 392.26Q678.75 388.78 680.83 386.99Q681.01 386.84 681.2 386.69Q682.13 386 683.17 385.66Q684.82 385.13 686.75 385.47Q688.68 385.81 690.04 386.87Q690.9 387.55 691.54 388.52Q691.67 388.72 691.78 388.92Q693.12 391.31 692.5 394.8Q691.86 398.41 689.71 400.22Q689.57 400.34 689.42 400.46Q688.46 401.19 687.37 401.53Z" fill="#FFFFFF" fill-opacity="1.000000" fill-rule="evenodd"/>
		<path id="топ" d="M666.48 382.47L655.51 380.53L651.14 405.18L639.23 403.08L643.6 378.43L632.57 376.49L634.25 366.98L668.17 372.96L666.48 382.47ZM682.18 411.24Q676.7 410.27 672.69 407.23Q668.67 404.18 666.9 399.71Q665.13 395.24 666.04 390.13Q666.93 385.08 670.12 381.49Q673.33 377.9 678.11 376.44Q682.89 374.97 688.43 375.94Q693.97 376.92 697.99 379.95Q702.01 382.95 703.75 387.39Q705.5 391.82 704.6 396.93Q703.69 402.04 700.52 405.63Q697.36 409.23 692.54 410.73Q687.72 412.21 682.18 411.24ZM683.87 401.71Q687.02 402.27 689.42 400.46Q691.82 398.64 692.5 394.8Q693.17 391.01 691.54 388.52Q689.9 386.02 686.75 385.47Q683.59 384.91 681.2 386.69Q678.8 388.48 678.13 392.26Q677.45 396.11 679.08 398.63Q680.71 401.16 683.87 401.71ZM748.52 387.13L742.47 421.28L730.56 419.18L734.93 394.53L723.45 392.51L719.08 417.16L707.17 415.06L713.22 380.9L748.52 387.13Z" stroke="#202027" stroke-opacity="1.000000" stroke-width="1.000000"/>
		<rect id="Frame 2043683094" rx="29.500000" width="192.000000" height="125.000000" transform="translate(606.840820 314.516846) rotate(10.000001)" stroke="#202027" stroke-opacity="1.000000" stroke-width="1.000000"/>
		<rect id="Frame 2043683096" rx="29.500000" width="204.000000" height="125.000000" transform="translate(-147.903320 322.242432) rotate(10.000001)" fill="#B0AEFF" fill-opacity="1.000000"/>
		<path id="гим" d="M-106.76 386.93L-90.05 389.88L-88.36 380.37L-116.98 375.32L-123.03 409.48L-111.12 411.58L-106.76 386.93ZM-71.79 383.29L-83.7 381.19L-89.75 415.35L-78.66 417.3L-61.29 401.85L-64.47 419.8L-52.5 421.91L-46.45 387.76L-57.48 385.81L-74.96 401.18L-71.79 383.29ZM-8.1 411.23L-11.28 429.18L-0.51 431.08L5.48 396.92L-5.8 394.93L-19.42 410.91L-25.79 391.4L-38.39 389.18L-44.44 423.34L-33.65 425.24L-30.42 407.02L-24.6 423.71L-19.51 424.61L-8.1 411.23Z" fill="#FFFFFF" fill-opacity="1.000000" fill-rule="evenodd"/>
		<path id="гим" d="M-90.05 389.88L-106.76 386.93L-111.12 411.58L-123.03 409.48L-116.98 375.32L-88.36 380.37L-90.05 389.88ZM-83.7 381.19L-71.79 383.29L-74.96 401.18L-57.48 385.81L-46.45 387.76L-52.5 421.91L-64.47 419.8L-61.29 401.85L-78.66 417.3L-89.75 415.35L-83.7 381.19ZM-11.28 429.18L-8.1 411.23L-19.51 424.61L-24.6 423.71L-30.42 407.02L-33.65 425.24L-44.44 423.34L-38.39 389.18L-25.79 391.4L-19.42 410.91L-5.8 394.93L5.48 396.92L-0.51 431.08L-11.28 429.18Z" stroke="#202027" stroke-opacity="1.000000" stroke-width="1.000000"/>
		<rect id="Frame 2043683096" rx="29.500000" width="204.000000" height="125.000000" transform="translate(-147.903320 322.242432) rotate(10.000001)" stroke="#202027" stroke-opacity="1.000000" stroke-width="1.000000"/>
		<rect id="Frame 2043683093" rx="29.500000" width="335.000000" height="125.000000" transform="translate(65.895508 359.940918) rotate(10.000001)" fill="#B0AEFF" fill-opacity="1.000000"/>
		<path id="анидор" d="M123.23 421.09Q119.44 416.42 110.93 414.92Q110.7 414.88 110.46 414.84Q106.6 414.22 102.58 414.53Q98.33 414.84 95.17 416.24L97.76 425.09Q99.77 424 102.44 423.66Q105.1 423.32 107.55 423.75Q111.9 424.52 113.27 426.96Q114.08 428.41 113.83 430.44L107.03 429.24Q99.28 427.88 95.08 429.9Q93.3 430.76 92.12 432.14Q90.53 433.99 90.04 436.78Q89.64 439.04 90.13 441.09Q90.29 441.77 90.56 442.43Q90.65 442.64 90.74 442.85Q91.83 445.21 94.26 446.95Q96.93 448.85 100.9 449.55Q106.55 450.55 109.92 448.22Q111.02 447.46 111.87 446.34L111.09 450.76L122.25 452.73L125.61 433.76Q126.87 426.63 124 422.15Q123.65 421.6 123.23 421.09ZM272.36 477.76Q276.19 480.46 281.29 481.36Q286.7 482.31 291.42 480.92Q291.53 480.89 291.65 480.85Q294.91 479.84 297.41 477.87Q298.61 476.92 299.63 475.75Q300.39 474.9 301.01 473.96Q303.02 470.94 303.71 467.05Q304.42 463.08 303.51 459.52Q303.26 458.5 302.86 457.51Q302.3 456.08 301.51 454.8Q299.83 452.1 297.1 450.07Q297.05 450.02 296.99 449.98Q293.01 447.03 287.55 446.06Q282.01 445.09 277.22 446.56Q274.22 447.48 271.84 449.23Q270.43 450.27 269.24 451.61Q268.33 452.63 267.6 453.78Q265.79 456.64 265.15 460.25Q264.47 464.1 265.3 467.59Q265.58 468.73 266.01 469.83Q266.61 471.33 267.46 472.67Q269.14 475.32 271.8 477.35Q272.08 477.56 272.36 477.76ZM340.06 456.52Q337.33 454.84 333.93 454.24Q328.25 453.24 324.49 455.47Q323.78 455.9 323.14 456.43L323.74 453.03L312.34 451.02L304.12 497.41L316.09 499.52L318.79 484.26Q319.43 485.19 320.23 485.97Q323.01 488.71 327.68 489.54Q331.12 490.14 334.3 489.49Q335.43 489.25 336.53 488.86Q338.04 488.32 339.38 487.51Q341.79 486.06 343.67 483.74Q346.63 480.14 347.57 474.84Q348.5 469.55 346.96 465.16Q345.98 462.32 344.2 460.13Q343.22 458.93 342.01 457.92Q341.08 457.14 340.06 456.52ZM147.39 421.94L135.48 419.84L129.43 453.99L141.34 456.09L143.46 444.12L155.75 446.29L153.64 458.26L165.61 460.37L171.66 426.22L159.69 424.11L157.44 436.77L145.15 434.6L147.39 421.94ZM191.64 429.74L179.73 427.64L173.68 461.79L184.77 463.75L202.14 448.3L198.96 466.25L210.93 468.36L216.98 434.21L205.95 432.26L188.47 447.63L191.64 429.74ZM258.15 483.97L261.1 467.33L256.36 466.49L260.71 441.92L229.14 436.35L226.6 448.18Q225.27 454.12 223.49 457.22Q222.43 459.07 220.89 459.64Q219.86 460.03 218.61 459.83L217.35 459.61L214.4 476.26L225.56 478.23L226.81 471.16L248.31 474.95L247.06 482.02L258.15 483.97ZM286.49 471.65Q284.87 472.17 282.98 471.83Q281.1 471.5 279.75 470.46Q278.85 469.77 278.2 468.75Q278.1 468.6 278 468.44Q276.61 465.99 277.25 462.38Q277.86 458.9 279.94 457.11Q280.12 456.96 280.31 456.81Q281.24 456.12 282.28 455.78Q283.93 455.25 285.86 455.59Q287.79 455.93 289.15 456.99Q290.02 457.67 290.65 458.64Q290.78 458.84 290.9 459.04Q292.23 461.43 291.62 464.92Q290.98 468.53 288.83 470.35Q288.68 470.46 288.54 470.58Q287.57 471.31 286.49 471.65ZM330.35 479.39Q328.73 479.9 326.85 479.57Q324.96 479.24 323.62 478.2Q322.72 477.5 322.06 476.49Q321.92 476.28 321.8 476.06Q320.48 473.65 321.1 470.18Q321.71 466.71 323.78 464.9Q323.97 464.73 324.17 464.58Q325.13 463.85 326.22 463.5Q327.84 462.99 329.72 463.32Q331.61 463.65 332.95 464.69Q333.85 465.39 334.51 466.4Q334.65 466.61 334.77 466.83Q336.08 469.24 335.47 472.71Q334.86 476.18 332.79 477.99Q332.6 478.16 332.4 478.31Q331.44 479.04 330.35 479.39ZM235.21 458.22Q236.21 455.53 237.21 450.96L237.92 447.7L247.06 449.32L244.39 464.38L232.54 462.29Q234.21 460.9 235.21 458.22ZM108.92 442.4Q107.38 442.89 105.58 442.57Q103.5 442.2 102.47 441.05Q102 440.52 101.81 439.9Q101.58 439.17 101.73 438.32Q101.91 437.27 102.53 436.62Q103.93 435.14 107.57 435.78L112.73 436.69L112.2 439.64Q111.43 441.01 110.27 441.76Q109.87 442.02 109.42 442.21Q109.17 442.32 108.92 442.4Z" fill="#FFFFFF" fill-opacity="1.000000" fill-rule="evenodd"/>
		<path id="анидор" d="M110.93 414.92Q119.44 416.42 123.23 421.09Q127.03 425.76 125.61 433.76L122.25 452.73L111.09 450.76L111.87 446.34Q108.41 450.87 100.9 449.55Q96.93 448.85 94.26 446.95Q91.62 445.06 90.56 442.43Q89.5 439.8 90.04 436.78Q90.9 431.92 95.08 429.9Q99.28 427.88 107.03 429.24L113.83 430.44Q114.49 424.97 107.55 423.75Q105.1 423.32 102.44 423.66Q99.77 424 97.76 425.09L95.17 416.24Q98.33 414.84 102.58 414.53Q106.84 414.2 110.93 414.92ZM105.58 442.57Q107.67 442.94 109.42 442.21Q111.17 441.48 112.2 439.64L112.73 436.69L107.57 435.78Q102.34 434.86 101.73 438.32Q101.45 439.89 102.47 441.05Q103.5 442.2 105.58 442.57ZM135.48 419.84L147.39 421.94L145.15 434.6L157.44 436.77L159.69 424.11L171.66 426.22L165.61 460.37L153.64 458.26L155.75 446.29L143.46 444.12L141.34 456.09L129.43 453.99L135.48 419.84ZM179.73 427.64L191.64 429.74L188.47 447.63L205.95 432.26L216.98 434.21L210.93 468.36L198.96 466.25L202.14 448.3L184.77 463.75L173.68 461.79L179.73 427.64ZM261.1 467.33L258.15 483.97L247.06 482.02L248.31 474.95L226.81 471.16L225.56 478.23L214.4 476.26L217.35 459.61L218.61 459.83Q221.72 460.32 223.49 457.22Q225.27 454.12 226.6 448.18L229.14 436.35L260.71 441.92L256.36 466.49L261.1 467.33ZM237.21 450.96Q236.21 455.53 235.21 458.22Q234.21 460.9 232.54 462.29L244.39 464.38L247.06 449.32L237.92 447.7L237.21 450.96ZM281.29 481.36Q275.82 480.39 271.8 477.35Q267.79 474.3 266.01 469.83Q264.25 465.36 265.15 460.25Q266.04 455.2 269.24 451.61Q272.44 448.02 277.22 446.56Q282.01 445.09 287.55 446.06Q293.09 447.04 297.1 450.07Q301.13 453.08 302.86 457.51Q304.62 461.94 303.71 467.05Q302.81 472.16 299.63 475.75Q296.47 479.35 291.65 480.85Q286.84 482.33 281.29 481.36ZM282.98 471.83Q286.14 472.39 288.54 470.58Q290.94 468.76 291.62 464.92Q292.29 461.13 290.65 458.64Q289.01 456.14 285.86 455.59Q282.71 455.03 280.31 456.81Q277.92 458.6 277.25 462.38Q276.56 466.23 278.2 468.75Q279.83 471.28 282.98 471.83ZM333.93 454.24Q338.6 455.07 342.01 457.92Q345.44 460.76 346.96 465.16Q348.5 469.55 347.57 474.84Q346.63 480.14 343.67 483.74Q340.73 487.35 336.53 488.86Q332.34 490.36 327.68 489.54Q321.68 488.48 318.79 484.26L316.09 499.52L304.12 497.41L312.34 451.02L323.74 453.03L323.14 456.43Q327.18 453.05 333.93 454.24ZM326.85 479.57Q330 480.13 332.4 478.31Q334.8 476.5 335.47 472.71Q336.14 468.93 334.51 466.4Q332.88 463.88 329.72 463.32Q326.57 462.77 324.17 464.58Q321.77 466.39 321.1 470.18Q320.43 473.96 322.06 476.49Q323.69 479.01 326.85 479.57Z" stroke="#202027" stroke-opacity="1.000000" stroke-width="1.000000"/>
		<rect id="Frame 2043683093" rx="29.500000" width="335.000000" height="125.000000" transform="translate(65.895508 359.940918) rotate(10.000001)" stroke="#202027" stroke-opacity="1.000000" stroke-width="1.000000"/>
		<rect id="Frame 2043683095" rx="29.500000" width="204.000000" height="125.000000" transform="translate(408.705078 420.387451) rotate(10.000001)" fill="#B0AEFF" fill-opacity="1.000000"/>
		<path id="гим" d="M449.85 485.07L466.56 488.02L468.25 478.51L439.63 473.47L433.58 507.62L445.49 509.72L449.85 485.07ZM484.82 481.43L472.91 479.33L466.86 513.49L477.95 515.45L495.32 499.99L492.14 517.95L504.11 520.06L510.16 485.9L499.13 483.96L481.65 499.33L484.82 481.43ZM548.51 509.37L545.33 527.33L556.1 529.23L562.09 495.06L550.81 493.07L537.19 509.06L530.82 489.55L518.22 487.33L512.17 521.48L522.96 523.38L526.19 505.17L532.01 521.85L537.1 522.75L548.51 509.37Z" fill="#FFFFFF" fill-opacity="1.000000" fill-rule="evenodd"/>
		<path id="гим" d="M466.56 488.02L449.85 485.07L445.49 509.72L433.58 507.62L439.63 473.47L468.25 478.51L466.56 488.02ZM472.91 479.33L484.82 481.43L481.65 499.33L499.13 483.96L510.16 485.9L504.11 520.06L492.14 517.95L495.32 499.99L477.95 515.45L466.86 513.49L472.91 479.33ZM545.33 527.33L548.51 509.37L537.1 522.75L532.01 521.85L526.19 505.17L522.96 523.38L512.17 521.48L518.22 487.33L530.82 489.55L537.19 509.06L550.81 493.07L562.09 495.06L556.1 529.23L545.33 527.33Z" stroke="#202027" stroke-opacity="1.000000" stroke-width="1.000000"/>
		<rect id="Frame 2043683095" rx="29.500000" width="204.000000" height="125.000000" transform="translate(408.705078 420.387451) rotate(10.000001)" stroke="#202027" stroke-opacity="1.000000" stroke-width="1.000000"/>
	</g>
</svg>
