<svg width="600.000000" height="500.000000" viewBox="0 0 600 500" fill="none" xmlns="http://www.w3.org/2000/svg" xmlns:xlink="http://www.w3.org/1999/xlink">
	<desc>
			Created with Pixso.
	</desc>
	<defs>
		<filter id="filter_13_2177_dd" x="104.910156" y="50.093384" width="390.026367" height="448.697388" filterUnits="userSpaceOnUse" color-interpolation-filters="sRGB">
			<feFlood flood-opacity="0" result="BackgroundImageFix"/>
			<feColorMatrix in="SourceAlpha" type="matrix" values="0 0 0 0 0 0 0 0 0 0 0 0 0 0 0 0 0 0 127 0" result="hardAlpha"/>
			<feMorphology radius="-14.4434" in="" result="BackgroundImageFix"/>
			<feOffset dx="0" dy="24.0724"/>
			<feGaussianBlur stdDeviation="26.8808"/>
			<feComposite in2="hardAlpha" operator="out" k2="-1" k3="1"/>
			<feColorMatrix type="matrix" values="0 0 0 0 0 0 0 0 0 0 0 0 0 0 0 0 0 0 0.3 0"/>
			<feBlend mode="normal" in2="BackgroundImageFix" result="effect_dropShadow_1"/>
			<feBlend mode="normal" in="SourceGraphic" in2="effect_dropShadow_1" result="shape"/>
		</filter>
		<clipPath id="clip13_2070">
			<rect id="Обложка карточки" rx="29.500000" width="599.000000" height="499.000000" transform="translate(0.500000 0.500000)" fill="white" fill-opacity="0"/>
		</clipPath>
	</defs>
	<rect id="Обложка карточки" rx="29.500000" width="599.000000" height="499.000000" transform="translate(0.500000 0.500000)" fill="#99D100" fill-opacity="1.000000"/>
	<g clip-path="url(#clip13_2070)">
		<rect id="Frame 2043683103" rx="29.500000" width="166.875168" height="222.833557" transform="translate(-72.329102 -165.469727) rotate(10.000001)" fill="#BCEC30" fill-opacity="1.000000"/>
		<path id="?" d="M-14.86 -40.72Q-16.97 -38.54 -17.65 -34.72L-4.07 -32.33Q-3.86 -33.55 -3.25 -34.51Q-2.82 -35.19 -2.2 -35.74Q-0.7 -37.09 2.28 -38.85Q5.01 -40.48 6.77 -41.86Q8.56 -43.25 10.04 -45.47Q11.55 -47.68 12.1 -50.79Q12.72 -54.3 11.72 -57.26Q10.79 -60.04 8.44 -62.34Q3.58 -67.09 -5.49 -68.69Q-13.57 -70.12 -19.83 -68.15Q-23.77 -66.91 -26.84 -64.54Q-28.65 -63.16 -30.15 -61.39L-19.85 -53.29Q-18.5 -54.87 -16.81 -55.84Q-16.01 -56.3 -15.13 -56.63Q-14.37 -56.91 -13.59 -57.07Q-11.55 -57.49 -9.34 -57.1Q-6.38 -56.58 -4.76 -54.91Q-3.86 -53.99 -3.57 -52.91Q-3.33 -52.02 -3.51 -51.02Q-3.58 -50.63 -3.71 -50.25Q-4.12 -49.12 -5.12 -48.2Q-6.43 -46.99 -8.99 -45.31Q-12.72 -42.91 -14.86 -40.72ZM-18.74 -15.29Q-16.98 -13.85 -14.42 -13.4Q-11.67 -12.91 -9.43 -13.76Q-8.55 -14.09 -7.75 -14.62Q-6.3 -15.59 -5.43 -16.93Q-4.59 -18.23 -4.3 -19.87Q-3.95 -21.84 -4.48 -23.54Q-4.87 -24.82 -5.74 -25.94Q-6.21 -26.54 -6.77 -27.04Q-8.66 -28.74 -11.61 -29.26Q-14.59 -29.79 -16.95 -28.81Q-17.61 -28.53 -18.22 -28.14Q-19.37 -27.41 -20.15 -26.39Q-21.26 -24.94 -21.62 -22.92Q-21.91 -21.28 -21.57 -19.78Q-21.22 -18.22 -20.19 -16.81Q-19.55 -15.95 -18.74 -15.29Z" fill="#FFFFFF" fill-opacity="1.000000" fill-rule="evenodd"/>
		<path id="?" d="M-17.65 -34.72Q-16.97 -38.54 -14.86 -40.72Q-12.72 -42.91 -8.99 -45.31Q-6.43 -46.99 -5.12 -48.2Q-3.79 -49.42 -3.51 -51.02Q-3.12 -53.24 -4.76 -54.91Q-6.38 -56.58 -9.34 -57.1Q-12.4 -57.64 -15.13 -56.63Q-17.87 -55.61 -19.85 -53.29L-30.15 -61.39Q-26.08 -66.18 -19.83 -68.15Q-13.57 -70.12 -5.49 -68.69Q3.58 -67.09 8.44 -62.34Q13.3 -57.58 12.1 -50.79Q11.55 -47.68 10.04 -45.47Q8.56 -43.25 6.77 -41.86Q5.01 -40.48 2.28 -38.85Q-0.7 -37.09 -2.2 -35.74Q-3.71 -34.39 -4.07 -32.33L-17.65 -34.72ZM-14.42 -13.4Q-18.16 -14.06 -20.19 -16.81Q-22.21 -19.57 -21.62 -22.92Q-21.01 -26.37 -18.22 -28.14Q-15.42 -29.93 -11.61 -29.26Q-7.79 -28.59 -5.74 -25.94Q-3.69 -23.31 -4.3 -19.87Q-4.9 -16.52 -7.75 -14.62Q-10.6 -12.72 -14.42 -13.4Z" stroke="#202027" stroke-opacity="1.000000" stroke-width="0.806750"/>
		<rect id="Frame 2043683103" rx="29.500000" width="166.875168" height="222.833557" transform="translate(-72.329102 -165.469727) rotate(10.000001)" stroke="#202027" stroke-opacity="1.000000" stroke-width="1.000000"/>
		<rect id="Frame 2043683100" rx="29.500000" width="166.875168" height="222.833557" transform="translate(102.700195 -134.607422) rotate(10.000001)" fill="#BCEC30" fill-opacity="1.000000"/>
		<path id="?" d="M160.17 -9.86Q158.06 -7.68 157.38 -3.86L170.96 -1.47Q171.17 -2.68 171.78 -3.65Q172.21 -4.33 172.83 -4.88Q174.33 -6.23 177.31 -7.99Q180.04 -9.62 181.8 -11Q183.59 -12.39 185.07 -14.6Q186.58 -16.82 187.13 -19.93Q187.75 -23.44 186.75 -26.4Q185.82 -29.18 183.47 -31.48Q178.61 -36.23 169.54 -37.83Q161.46 -39.25 155.2 -37.29Q151.26 -36.04 148.19 -33.68Q146.38 -32.29 144.88 -30.52L155.18 -22.43Q156.53 -24.01 158.22 -24.98Q159.02 -25.44 159.9 -25.76Q160.66 -26.05 161.44 -26.21Q163.48 -26.63 165.69 -26.24Q168.65 -25.72 170.27 -24.05Q171.17 -23.13 171.46 -22.05Q171.7 -21.16 171.52 -20.16Q171.45 -19.76 171.32 -19.39Q170.91 -18.26 169.91 -17.34Q168.6 -16.13 166.04 -14.45Q162.31 -12.05 160.17 -9.86ZM156.29 15.58Q158.05 17.01 160.61 17.47Q163.36 17.95 165.6 17.11Q166.48 16.78 167.28 16.24Q168.73 15.28 169.6 13.93Q170.44 12.64 170.73 10.99Q171.08 9.02 170.55 7.32Q170.16 6.04 169.29 4.92Q168.82 4.32 168.26 3.82Q166.37 2.12 163.42 1.6Q160.44 1.08 158.08 2.06Q157.42 2.33 156.81 2.72Q155.66 3.46 154.88 4.47Q153.77 5.92 153.41 7.94Q153.12 9.58 153.46 11.08Q153.81 12.64 154.84 14.05Q155.48 14.92 156.29 15.58Z" fill="#FFFFFF" fill-opacity="1.000000" fill-rule="evenodd"/>
		<path id="?" d="M157.38 -3.86Q158.06 -7.68 160.17 -9.86Q162.31 -12.05 166.04 -14.45Q168.6 -16.13 169.91 -17.34Q171.24 -18.56 171.52 -20.16Q171.91 -22.38 170.27 -24.05Q168.65 -25.72 165.69 -26.24Q162.63 -26.78 159.9 -25.76Q157.16 -24.75 155.18 -22.43L144.88 -30.52Q148.95 -35.32 155.2 -37.29Q161.46 -39.25 169.54 -37.83Q178.61 -36.23 183.47 -31.48Q188.33 -26.72 187.13 -19.93Q186.58 -16.82 185.07 -14.6Q183.59 -12.39 181.8 -11Q180.04 -9.62 177.31 -7.99Q174.33 -6.23 172.83 -4.88Q171.32 -3.53 170.96 -1.47L157.38 -3.86ZM160.61 17.47Q156.87 16.81 154.84 14.05Q152.82 11.29 153.41 7.94Q154.02 4.5 156.81 2.72Q159.61 0.93 163.42 1.6Q167.24 2.28 169.29 4.92Q171.34 7.55 170.73 10.99Q170.13 14.34 167.28 16.24Q164.43 18.14 160.61 17.47Z" stroke="#202027" stroke-opacity="1.000000" stroke-width="0.806750"/>
		<rect id="Frame 2043683100" rx="29.500000" width="166.875168" height="222.833557" transform="translate(102.700195 -134.607422) rotate(10.000001)" stroke="#202027" stroke-opacity="1.000000" stroke-width="1.000000"/>
		<rect id="Frame 2043683094" rx="29.500000" width="166.875168" height="222.833557" transform="translate(277.729492 -103.745117) rotate(10.000001)" fill="#BCEC30" fill-opacity="1.000000"/>
		<path id="?" d="M333.98 21.03Q331.36 23.74 330.52 28.47L347.35 31.44Q347.61 29.93 348.37 28.73Q348.9 27.89 349.67 27.2Q351.53 25.53 355.23 23.35Q358.61 21.33 360.79 19.62Q363 17.89 364.85 15.15Q366.71 12.41 367.39 8.55Q368.16 4.2 366.93 0.53Q365.77 -2.91 362.86 -5.76Q356.84 -11.66 345.59 -13.64Q335.58 -15.41 327.81 -12.97Q322.93 -11.43 319.12 -8.5Q316.89 -6.78 315.02 -4.58L327.79 5.45Q329.46 3.5 331.56 2.29Q332.55 1.72 333.64 1.32Q334.58 0.97 335.56 0.77Q338.08 0.24 340.81 0.73Q344.48 1.37 346.5 3.44Q347.62 4.58 347.97 5.92Q348.27 7.02 348.05 8.26Q347.96 8.75 347.79 9.22Q347.29 10.62 346.05 11.76Q344.42 13.26 341.25 15.34Q336.63 18.31 333.98 21.03ZM329.16 52.56Q331.35 54.34 334.53 54.9Q337.93 55.5 340.71 54.45Q341.8 54.05 342.79 53.38Q344.59 52.19 345.67 50.52Q346.7 48.92 347.06 46.88Q347.5 44.43 346.85 42.32Q346.36 40.75 345.28 39.35Q344.7 38.61 344.01 37.99Q341.66 35.88 338.01 35.24Q334.31 34.59 331.39 35.8Q330.57 36.14 329.81 36.63Q328.38 37.53 327.41 38.8Q326.04 40.59 325.6 43.09Q325.24 45.13 325.66 46.99Q326.09 48.92 327.37 50.67Q328.16 51.74 329.16 52.56Z" fill="#FFFFFF" fill-opacity="1.000000" fill-rule="evenodd"/>
		<path id="?" d="M330.52 28.47Q331.36 23.74 333.98 21.03Q336.63 18.31 341.25 15.34Q344.42 13.26 346.05 11.76Q347.7 10.24 348.05 8.26Q348.53 5.51 346.5 3.44Q344.48 1.37 340.81 0.73Q337.03 0.06 333.64 1.32Q330.25 2.58 327.79 5.45L315.02 -4.58Q320.07 -10.52 327.81 -12.97Q335.58 -15.41 345.59 -13.64Q356.84 -11.66 362.86 -5.76Q368.89 0.13 367.39 8.55Q366.71 12.41 364.85 15.15Q363 17.89 360.79 19.62Q358.61 21.33 355.23 23.35Q351.53 25.53 349.67 27.2Q347.8 28.87 347.35 31.44L330.52 28.47ZM334.53 54.9Q329.89 54.08 327.37 50.67Q324.86 47.25 325.6 43.09Q326.35 38.82 329.81 36.63Q333.28 34.4 338.01 35.24Q342.74 36.07 345.28 39.35Q347.82 42.61 347.06 46.88Q346.33 51.03 342.79 53.38Q339.26 55.74 334.53 54.9Z" stroke="#202027" stroke-opacity="1.000000" stroke-width="0.806750"/>
		<rect id="Frame 2043683094" rx="29.500000" width="166.875168" height="222.833557" transform="translate(277.729492 -103.745117) rotate(10.000001)" stroke="#202027" stroke-opacity="1.000000" stroke-width="1.000000"/>
		<rect id="Frame 2043683095" rx="29.500000" width="166.875168" height="222.833557" transform="translate(452.758789 -72.882812) rotate(10.000001)" fill="#BCEC30" fill-opacity="1.000000"/>
		<path id="?" d="M509.01 51.9Q506.39 54.6 505.55 59.33L522.38 62.3Q522.64 60.79 523.4 59.59Q523.93 58.75 524.7 58.07Q526.56 56.4 530.26 54.22Q533.64 52.19 535.82 50.48Q538.03 48.76 539.87 46.01Q541.74 43.27 542.42 39.42Q543.19 35.06 541.96 31.39Q540.8 27.95 537.89 25.1Q531.86 19.21 520.62 17.22Q510.61 15.46 502.84 17.9Q497.96 19.44 494.15 22.37Q491.92 24.08 490.05 26.28L502.82 36.31Q504.49 34.36 506.59 33.15Q507.58 32.58 508.67 32.18Q509.61 31.83 510.59 31.63Q513.11 31.11 515.84 31.59Q519.51 32.23 521.53 34.3Q522.64 35.44 523 36.78Q523.3 37.88 523.08 39.12Q522.99 39.62 522.82 40.08Q522.32 41.48 521.08 42.63Q519.45 44.12 516.28 46.21Q511.66 49.17 509.01 51.9ZM504.19 83.42Q506.37 85.2 509.55 85.76Q512.96 86.36 515.74 85.32Q516.83 84.91 517.82 84.25Q519.62 83.05 520.7 81.38Q521.73 79.78 522.09 77.74Q522.52 75.3 521.88 73.18Q521.39 71.61 520.31 70.22Q519.73 69.47 519.04 68.85Q516.69 66.75 513.04 66.1Q509.34 65.45 506.42 66.66Q505.6 67 504.84 67.49Q503.41 68.4 502.44 69.66Q501.07 71.45 500.63 73.96Q500.26 75.99 500.69 77.85Q501.12 79.79 502.4 81.53Q503.19 82.6 504.19 83.42Z" fill="#FFFFFF" fill-opacity="1.000000" fill-rule="evenodd"/>
		<path id="?" d="M505.55 59.33Q506.39 54.6 509.01 51.9Q511.66 49.17 516.28 46.21Q519.45 44.12 521.08 42.63Q522.72 41.11 523.08 39.12Q523.56 36.38 521.53 34.3Q519.51 32.23 515.84 31.59Q512.06 30.92 508.67 32.18Q505.28 33.44 502.82 36.31L490.05 26.28Q495.1 20.34 502.84 17.9Q510.61 15.46 520.62 17.22Q531.86 19.21 537.89 25.1Q543.92 30.99 542.42 39.42Q541.74 43.27 539.87 46.01Q538.03 48.76 535.82 50.48Q533.64 52.19 530.26 54.22Q526.56 56.4 524.7 58.07Q522.83 59.74 522.38 62.3L505.55 59.33ZM509.55 85.76Q504.92 84.95 502.4 81.53Q499.89 78.11 500.63 73.96Q501.38 69.69 504.84 67.49Q508.31 65.27 513.04 66.1Q517.77 66.94 520.31 70.22Q522.85 73.47 522.09 77.74Q521.36 81.9 517.82 84.25Q514.29 86.6 509.55 85.76Z" stroke="#202027" stroke-opacity="1.000000" stroke-width="0.806750"/>
		<rect id="Frame 2043683095" rx="29.500000" width="166.875168" height="222.833557" transform="translate(452.758789 -72.882812) rotate(10.000001)" stroke="#202027" stroke-opacity="1.000000" stroke-width="1.000000"/>
		<rect id="Frame 2043683101" rx="29.500000" width="166.875168" height="222.833557" transform="translate(627.788086 -42.020264) rotate(10.000001)" fill="#BCEC30" fill-opacity="1.000000"/>
		<path id="?" d="M685.26 82.73Q683.15 84.91 682.47 88.73L696.04 91.12Q696.26 89.9 696.87 88.94Q697.3 88.26 697.92 87.71Q699.42 86.36 702.4 84.6Q705.13 82.97 706.89 81.59Q708.68 80.2 710.16 77.98Q711.67 75.77 712.22 72.66Q712.84 69.15 711.84 66.18Q710.91 63.41 708.56 61.11Q703.7 56.36 694.63 54.76Q686.55 53.33 680.29 55.3Q676.35 56.54 673.28 58.91Q671.47 60.29 669.97 62.06L680.27 70.16Q681.62 68.58 683.31 67.61Q684.11 67.15 684.99 66.82Q685.75 66.54 686.53 66.38Q688.57 65.96 690.77 66.35Q693.73 66.87 695.36 68.54Q696.26 69.46 696.55 70.54Q696.79 71.43 696.61 72.42Q696.54 72.82 696.4 73.2Q696 74.33 695 75.25Q693.69 76.46 691.12 78.14Q687.4 80.53 685.26 82.73ZM681.38 108.16Q683.14 109.6 685.7 110.05Q688.45 110.54 690.69 109.69Q691.57 109.36 692.37 108.83Q693.82 107.86 694.69 106.52Q695.52 105.22 695.82 103.58Q696.16 101.61 695.64 99.9Q695.25 98.63 694.38 97.51Q693.91 96.91 693.35 96.41Q691.46 94.71 688.51 94.19Q685.53 93.66 683.17 94.64Q682.51 94.92 681.9 95.31Q680.75 96.04 679.96 97.06Q678.86 98.51 678.5 100.53Q678.21 102.17 678.55 103.67Q678.9 105.23 679.93 106.64Q680.57 107.5 681.38 108.16Z" fill="#FFFFFF" fill-opacity="1.000000" fill-rule="evenodd"/>
		<path id="?" d="M682.47 88.73Q683.15 84.91 685.26 82.73Q687.4 80.53 691.12 78.14Q693.69 76.46 695 75.25Q696.33 74.03 696.61 72.42Q697 70.21 695.36 68.54Q693.73 66.87 690.77 66.35Q687.72 65.81 684.99 66.82Q682.25 67.84 680.27 70.16L669.97 62.06Q674.04 57.27 680.29 55.3Q686.55 53.33 694.63 54.76Q703.7 56.36 708.56 61.11Q713.42 65.87 712.22 72.66Q711.67 75.77 710.16 77.98Q708.68 80.2 706.89 81.59Q705.13 82.97 702.4 84.6Q699.42 86.36 697.92 87.71Q696.41 89.05 696.04 91.12L682.47 88.73ZM685.7 110.05Q681.96 109.39 679.93 106.64Q677.9 103.88 678.5 100.53Q679.11 97.08 681.9 95.31Q684.69 93.52 688.51 94.19Q692.33 94.86 694.38 97.51Q696.43 100.14 695.82 103.58Q695.22 106.93 692.37 108.83Q689.52 110.73 685.7 110.05Z" stroke="#202027" stroke-opacity="1.000000" stroke-width="0.806750"/>
		<rect id="Frame 2043683101" rx="29.500000" width="166.875168" height="222.833557" transform="translate(627.788086 -42.020264) rotate(10.000001)" stroke="#202027" stroke-opacity="1.000000" stroke-width="1.000000"/>
		<rect id="Frame 2043683104" rx="29.500000" width="166.875168" height="222.833557" transform="translate(-112.878906 64.497070) rotate(10.000001)" fill="#BCEC30" fill-opacity="1.000000"/>
		<path id="?" d="M-55.41 189.25Q-57.52 191.43 -58.2 195.25L-44.62 197.64Q-44.41 196.42 -43.8 195.45Q-43.37 194.78 -42.75 194.23Q-41.25 192.88 -38.27 191.12Q-35.54 189.49 -33.78 188.11Q-31.99 186.71 -30.51 184.5Q-29 182.29 -28.45 179.18Q-27.83 175.67 -28.83 172.7Q-29.76 169.93 -32.11 167.63Q-36.97 162.87 -46.04 161.28Q-54.12 159.85 -60.38 161.82Q-64.32 163.06 -67.39 165.43Q-69.19 166.81 -70.7 168.58L-60.4 176.68Q-59.05 175.1 -57.36 174.13Q-56.56 173.67 -55.68 173.34Q-54.92 173.06 -54.14 172.9Q-52.1 172.48 -49.89 172.86Q-46.93 173.39 -45.31 175.05Q-44.41 175.97 -44.12 177.06Q-43.88 177.94 -44.06 178.94Q-44.13 179.34 -44.26 179.71Q-44.67 180.85 -45.67 181.77Q-46.98 182.98 -49.54 184.66Q-53.27 187.05 -55.41 189.25ZM-59.29 214.68Q-57.53 216.12 -54.97 216.57Q-52.22 217.05 -49.98 216.21Q-49.1 215.88 -48.3 215.35Q-46.85 214.38 -45.98 213.04Q-45.14 211.74 -44.85 210.1Q-44.5 208.13 -45.03 206.42Q-45.42 205.15 -46.29 204.03Q-46.76 203.43 -47.32 202.93Q-49.21 201.23 -52.16 200.71Q-55.14 200.18 -57.5 201.16Q-58.16 201.44 -58.77 201.83Q-59.92 202.56 -60.7 203.58Q-61.81 205.02 -62.17 207.04Q-62.46 208.69 -62.12 210.19Q-61.77 211.75 -60.74 213.15Q-60.1 214.02 -59.29 214.68Z" fill="#FFFFFF" fill-opacity="1.000000" fill-rule="evenodd"/>
		<path id="?" d="M-58.2 195.25Q-57.52 191.43 -55.41 189.25Q-53.27 187.05 -49.54 184.66Q-46.98 182.98 -45.67 181.77Q-44.34 180.54 -44.06 178.94Q-43.67 176.73 -45.31 175.05Q-46.93 173.39 -49.89 172.86Q-52.95 172.33 -55.68 173.34Q-58.42 174.36 -60.4 176.68L-70.7 168.58Q-66.63 163.79 -60.38 161.82Q-54.12 159.85 -46.04 161.28Q-36.97 162.87 -32.11 167.63Q-27.25 172.38 -28.45 179.18Q-29 182.29 -30.51 184.5Q-31.99 186.71 -33.78 188.11Q-35.54 189.49 -38.27 191.12Q-41.25 192.88 -42.75 194.23Q-44.26 195.57 -44.62 197.64L-58.2 195.25ZM-54.97 216.57Q-58.71 215.91 -60.74 213.15Q-62.76 210.4 -62.17 207.04Q-61.56 203.6 -58.77 201.83Q-55.97 200.03 -52.16 200.71Q-48.34 201.38 -46.29 204.03Q-44.24 206.65 -44.85 210.1Q-45.45 213.45 -48.3 215.35Q-51.15 217.24 -54.97 216.57Z" stroke="#202027" stroke-opacity="1.000000" stroke-width="0.806750"/>
		<rect id="Frame 2043683104" rx="29.500000" width="166.875168" height="222.833557" transform="translate(-112.878906 64.497070) rotate(10.000001)" stroke="#202027" stroke-opacity="1.000000" stroke-width="1.000000"/>
		<rect id="Frame 2043683096" rx="29.500000" width="166.875168" height="222.833557" transform="translate(62.150391 95.359375) rotate(10.000001)" fill="#BCEC30" fill-opacity="1.000000"/>
		<path id="?" d="M118.4 220.14Q115.78 222.84 114.94 227.57L131.77 230.54Q132.03 229.03 132.79 227.83Q133.32 226.99 134.09 226.31Q135.95 224.64 139.65 222.46Q143.03 220.44 145.21 218.73Q147.42 217 149.27 214.25Q151.13 211.51 151.81 207.66Q152.59 203.31 151.35 199.63Q150.19 196.19 147.28 193.34Q141.26 187.45 130.02 185.47Q120 183.7 112.24 186.14Q107.35 187.68 103.54 190.61Q101.31 192.33 99.44 194.52L112.21 204.55Q113.88 202.6 115.98 201.39Q116.97 200.82 118.06 200.42Q119 200.07 119.98 199.87Q122.5 199.35 125.23 199.83Q128.9 200.48 130.92 202.55Q132.04 203.68 132.39 205.03Q132.69 206.13 132.47 207.37Q132.38 207.86 132.21 208.32Q131.71 209.73 130.47 210.87Q128.84 212.37 125.67 214.45Q121.05 217.42 118.4 220.14ZM113.58 251.66Q115.77 253.45 118.95 254.01Q122.35 254.61 125.13 253.56Q126.22 253.15 127.21 252.49Q129.01 251.29 130.09 249.63Q131.12 248.02 131.48 245.98Q131.92 243.54 131.27 241.43Q130.78 239.85 129.7 238.46Q129.12 237.71 128.43 237.09Q126.08 234.99 122.43 234.34Q118.73 233.69 115.81 234.91Q114.99 235.25 114.23 235.73Q112.8 236.64 111.83 237.9Q110.46 239.69 110.02 242.2Q109.66 244.24 110.08 246.1Q110.51 248.03 111.79 249.77Q112.58 250.85 113.58 251.66Z" fill="#FFFFFF" fill-opacity="1.000000" fill-rule="evenodd"/>
		<path id="?" d="M114.94 227.57Q115.78 222.84 118.4 220.14Q121.05 217.42 125.67 214.45Q128.84 212.37 130.47 210.87Q132.12 209.35 132.47 207.37Q132.95 204.62 130.92 202.55Q128.9 200.48 125.23 199.83Q121.45 199.16 118.06 200.42Q114.67 201.68 112.21 204.55L99.44 194.52Q104.49 188.58 112.24 186.14Q120 183.7 130.02 185.47Q141.26 187.45 147.28 193.34Q153.31 199.24 151.81 207.66Q151.13 211.51 149.27 214.25Q147.42 217 145.21 218.73Q143.03 220.44 139.65 222.46Q135.95 224.64 134.09 226.31Q132.22 227.98 131.77 230.54L114.94 227.57ZM118.95 254.01Q114.31 253.19 111.79 249.77Q109.28 246.35 110.02 242.2Q110.77 237.93 114.23 235.73Q117.7 233.51 122.43 234.34Q127.16 235.18 129.7 238.46Q132.24 241.71 131.48 245.98Q130.75 250.14 127.21 252.49Q123.68 254.84 118.95 254.01Z" stroke="#202027" stroke-opacity="1.000000" stroke-width="0.806750"/>
		<rect id="Frame 2043683096" rx="29.500000" width="166.875168" height="222.833557" transform="translate(62.150391 95.359375) rotate(10.000001)" stroke="#202027" stroke-opacity="1.000000" stroke-width="1.000000"/>
		<rect id="Frame 2043683112" rx="29.500000" width="166.875168" height="222.833557" transform="translate(237.179688 126.221680) rotate(10.000001)" fill="#BCEC30" fill-opacity="1.000000"/>
		<path id="?" d="M294.65 250.97Q292.54 253.15 291.86 256.97L305.44 259.36Q305.65 258.15 306.26 257.18Q306.69 256.5 307.31 255.95Q308.81 254.6 311.79 252.84Q314.52 251.21 316.28 249.83Q318.07 248.44 319.55 246.22Q321.06 244.01 321.61 240.9Q322.23 237.39 321.23 234.43Q320.3 231.65 317.95 229.35Q313.09 224.6 304.02 223Q295.94 221.58 289.68 223.54Q285.74 224.79 282.67 227.15Q280.86 228.54 279.36 230.31L289.66 238.4Q291.01 236.82 292.7 235.85Q293.5 235.39 294.38 235.07Q295.14 234.78 295.92 234.62Q297.96 234.2 300.16 234.59Q303.13 235.11 304.75 236.78Q305.65 237.7 305.94 238.78Q306.18 239.67 306 240.67Q305.93 241.06 305.79 241.44Q305.39 242.57 304.39 243.49Q303.08 244.7 300.51 246.38Q296.79 248.78 294.65 250.97ZM290.77 276.41Q292.53 277.84 295.09 278.29Q297.84 278.78 300.08 277.93Q300.96 277.6 301.76 277.07Q303.21 276.1 304.08 274.76Q304.92 273.47 305.21 271.82Q305.56 269.85 305.03 268.15Q304.64 266.87 303.77 265.75Q303.3 265.15 302.74 264.65Q300.85 262.95 297.9 262.43Q294.92 261.91 292.56 262.89Q291.9 263.16 291.29 263.55Q290.14 264.28 289.35 265.3Q288.25 266.75 287.89 268.77Q287.6 270.41 287.94 271.91Q288.29 273.47 289.32 274.88Q289.96 275.75 290.77 276.41Z" fill="#FFFFFF" fill-opacity="1.000000" fill-rule="evenodd"/>
		<path id="?" d="M291.86 256.97Q292.54 253.15 294.65 250.97Q296.79 248.78 300.51 246.38Q303.08 244.7 304.39 243.49Q305.72 242.27 306 240.67Q306.39 238.45 304.75 236.78Q303.13 235.11 300.16 234.59Q297.11 234.05 294.38 235.07Q291.64 236.08 289.66 238.4L279.36 230.31Q283.43 225.51 289.68 223.54Q295.94 221.58 304.02 223Q313.09 224.6 317.95 229.35Q322.81 234.11 321.61 240.9Q321.06 244.01 319.55 246.22Q318.07 248.44 316.28 249.83Q314.52 251.21 311.79 252.84Q308.81 254.6 307.31 255.95Q305.8 257.3 305.44 259.36L291.86 256.97ZM295.09 278.29Q291.35 277.64 289.32 274.88Q287.29 272.12 287.89 268.77Q288.5 265.32 291.29 263.55Q294.08 261.76 297.9 262.43Q301.72 263.1 303.77 265.75Q305.82 268.38 305.21 271.82Q304.61 275.17 301.76 277.07Q298.91 278.97 295.09 278.29Z" stroke="#202027" stroke-opacity="1.000000" stroke-width="0.806750"/>
		<rect id="Frame 2043683112" rx="29.500000" width="166.875168" height="222.833557" transform="translate(237.179688 126.221680) rotate(10.000001)" stroke="#202027" stroke-opacity="1.000000" stroke-width="1.000000"/>
		<rect id="Frame 2043683098" rx="29.500000" width="166.875168" height="222.833557" transform="translate(412.208984 157.083984) rotate(10.000001)" fill="#BCEC30" fill-opacity="1.000000"/>
		<path id="?" d="M468.46 281.86Q465.84 284.57 465 289.3L481.83 292.26Q482.09 290.76 482.85 289.56Q483.38 288.72 484.15 288.03Q486.01 286.36 489.71 284.18Q493.09 282.16 495.27 280.45Q497.48 278.72 499.33 275.98Q501.19 273.24 501.87 269.38Q502.65 265.03 501.41 261.35Q500.25 257.92 497.34 255.07Q491.32 249.17 480.08 247.19Q470.06 245.42 462.29 247.86Q457.41 249.4 453.6 252.33Q451.37 254.05 449.5 256.25L462.27 266.28Q463.94 264.32 466.04 263.12Q467.03 262.55 468.12 262.15Q469.06 261.79 470.04 261.59Q472.56 261.07 475.29 261.56Q478.96 262.2 480.98 264.27Q482.1 265.41 482.45 266.75Q482.75 267.85 482.53 269.09Q482.44 269.58 482.27 270.05Q481.77 271.45 480.53 272.59Q478.9 274.09 475.73 276.17Q471.11 279.14 468.46 281.86ZM463.64 313.39Q465.83 315.17 469.01 315.73Q472.41 316.33 475.19 315.28Q476.28 314.88 477.27 314.21Q479.07 313.01 480.15 311.35Q481.18 309.75 481.54 307.71Q481.98 305.26 481.33 303.15Q480.84 301.57 479.76 300.18Q479.18 299.44 478.49 298.82Q476.14 296.71 472.49 296.07Q468.79 295.42 465.87 296.63Q465.05 296.97 464.29 297.46Q462.86 298.36 461.89 299.63Q460.52 301.42 460.08 303.92Q459.72 305.96 460.14 307.82Q460.57 309.75 461.85 311.5Q462.64 312.57 463.64 313.39Z" fill="#FFFFFF" fill-opacity="1.000000" fill-rule="evenodd"/>
		<path id="?" d="M465 289.3Q465.84 284.57 468.46 281.86Q471.11 279.14 475.73 276.17Q478.9 274.09 480.53 272.59Q482.18 271.07 482.53 269.09Q483.01 266.34 480.98 264.27Q478.96 262.2 475.29 261.56Q471.51 260.89 468.12 262.15Q464.73 263.41 462.27 266.28L449.5 256.25Q454.55 250.31 462.29 247.86Q470.06 245.42 480.08 247.19Q491.32 249.17 497.34 255.07Q503.37 260.96 501.87 269.38Q501.19 273.24 499.33 275.98Q497.48 278.72 495.27 280.45Q493.09 282.16 489.71 284.18Q486.01 286.36 484.15 288.03Q482.28 289.7 481.83 292.26L465 289.3ZM469.01 315.73Q464.37 314.91 461.85 311.5Q459.34 308.08 460.08 303.92Q460.83 299.65 464.29 297.46Q467.76 295.23 472.49 296.07Q477.22 296.9 479.76 300.18Q482.3 303.44 481.54 307.71Q480.81 311.86 477.27 314.21Q473.74 316.57 469.01 315.73Z" stroke="#202027" stroke-opacity="1.000000" stroke-width="0.806750"/>
		<rect id="Frame 2043683098" rx="29.500000" width="166.875168" height="222.833557" transform="translate(412.208984 157.083984) rotate(10.000001)" stroke="#202027" stroke-opacity="1.000000" stroke-width="1.000000"/>
		<rect id="Frame 2043683102" rx="29.500000" width="166.875168" height="222.833557" transform="translate(587.238281 187.946289) rotate(10.000001)" fill="#BCEC30" fill-opacity="1.000000"/>
		<path id="?" d="M644.71 312.7Q642.6 314.88 641.92 318.7L655.49 321.09Q655.71 319.87 656.32 318.9Q656.75 318.23 657.37 317.68Q658.87 316.33 661.85 314.57Q664.58 312.94 666.34 311.56Q668.13 310.16 669.61 307.95Q671.12 305.74 671.67 302.63Q672.29 299.12 671.29 296.15Q670.36 293.38 668.01 291.08Q663.15 286.32 654.08 284.73Q646 283.3 639.74 285.27Q635.8 286.51 632.73 288.88Q630.92 290.26 629.42 292.03L639.72 300.13Q641.07 298.55 642.76 297.57Q643.56 297.12 644.44 296.79Q645.2 296.51 645.98 296.35Q648.02 295.93 650.22 296.31Q653.18 296.84 654.81 298.5Q655.71 299.42 656 300.51Q656.24 301.39 656.06 302.39Q655.99 302.79 655.85 303.16Q655.45 304.3 654.45 305.22Q653.14 306.43 650.57 308.11Q646.85 310.5 644.71 312.7ZM640.83 338.13Q642.59 339.57 645.15 340.02Q647.9 340.5 650.14 339.66Q651.02 339.33 651.82 338.8Q653.27 337.83 654.14 336.49Q654.97 335.19 655.27 333.55Q655.62 331.58 655.09 329.87Q654.7 328.6 653.83 327.48Q653.36 326.87 652.8 326.37Q650.91 324.68 647.96 324.16Q644.98 323.63 642.62 324.61Q641.96 324.89 641.35 325.28Q640.2 326.01 639.41 327.03Q638.31 328.47 637.95 330.49Q637.66 332.14 638 333.64Q638.35 335.2 639.38 336.6Q640.02 337.47 640.83 338.13Z" fill="#FFFFFF" fill-opacity="1.000000" fill-rule="evenodd"/>
		<path id="?" d="M641.92 318.7Q642.6 314.88 644.71 312.7Q646.85 310.5 650.57 308.11Q653.14 306.43 654.45 305.22Q655.78 303.99 656.06 302.39Q656.45 300.18 654.81 298.5Q653.18 296.84 650.22 296.31Q647.17 295.78 644.44 296.79Q641.7 297.81 639.72 300.13L629.42 292.03Q633.49 287.24 639.74 285.27Q646 283.3 654.08 284.73Q663.15 286.32 668.01 291.08Q672.87 295.83 671.67 302.63Q671.12 305.74 669.61 307.95Q668.13 310.16 666.34 311.56Q664.58 312.94 661.85 314.57Q658.87 316.33 657.37 317.68Q655.86 319.02 655.49 321.09L641.92 318.7ZM645.15 340.02Q641.41 339.36 639.38 336.6Q637.35 333.85 637.95 330.49Q638.56 327.05 641.35 325.28Q644.14 323.48 647.96 324.16Q651.78 324.83 653.83 327.48Q655.88 330.1 655.27 333.55Q654.67 336.9 651.82 338.8Q648.97 340.69 645.15 340.02Z" stroke="#202027" stroke-opacity="1.000000" stroke-width="0.806750"/>
		<rect id="Frame 2043683102" rx="29.500000" width="166.875168" height="222.833557" transform="translate(587.238281 187.946289) rotate(10.000001)" stroke="#202027" stroke-opacity="1.000000" stroke-width="1.000000"/>
		<rect id="Frame 2043683109" rx="29.500000" width="166.875168" height="222.833557" transform="translate(-153.427734 294.463867) rotate(10.000001)" fill="#BCEC30" fill-opacity="1.000000"/>
		<path id="?" d="M-95.96 419.22Q-98.07 421.4 -98.75 425.21L-85.17 427.61Q-84.96 426.39 -84.35 425.42Q-83.92 424.75 -83.3 424.19Q-81.79 422.85 -78.81 421.09Q-76.09 419.46 -74.33 418.08Q-72.54 416.68 -71.06 414.47Q-69.55 412.26 -69 409.15Q-68.38 405.64 -69.37 402.67Q-70.31 399.89 -72.66 397.6Q-77.52 392.84 -86.59 391.24Q-94.67 389.82 -100.93 391.78Q-104.87 393.03 -107.94 395.39Q-109.74 396.78 -111.25 398.55L-100.95 406.64Q-99.6 405.07 -97.91 404.09Q-97.11 403.63 -96.23 403.31Q-95.47 403.03 -94.68 402.86Q-92.65 402.44 -90.44 402.83Q-87.48 403.35 -85.86 405.02Q-84.96 405.94 -84.67 407.02Q-84.43 407.91 -84.61 408.91Q-84.68 409.31 -84.81 409.68Q-85.22 410.81 -86.22 411.74Q-87.53 412.94 -90.09 414.62Q-93.82 417.02 -95.96 419.22ZM-99.84 444.65Q-98.08 446.09 -95.52 446.54Q-92.77 447.02 -90.53 446.18Q-89.65 445.85 -88.85 445.31Q-87.39 444.35 -86.53 443Q-85.69 441.71 -85.4 440.07Q-85.05 438.09 -85.58 436.39Q-85.97 435.12 -86.84 433.99Q-87.31 433.39 -87.86 432.89Q-89.76 431.19 -92.71 430.67Q-95.69 430.15 -98.05 431.13Q-98.71 431.4 -99.32 431.79Q-100.47 432.53 -101.25 433.55Q-102.36 434.99 -102.72 437.01Q-103.01 438.66 -102.67 440.16Q-102.32 441.72 -101.29 443.12Q-100.65 443.99 -99.84 444.65Z" fill="#FFFFFF" fill-opacity="1.000000" fill-rule="evenodd"/>
		<path id="?" d="M-98.75 425.21Q-98.07 421.4 -95.96 419.22Q-93.82 417.02 -90.09 414.62Q-87.53 412.94 -86.22 411.74Q-84.89 410.51 -84.61 408.91Q-84.21 406.69 -85.86 405.02Q-87.48 403.35 -90.44 402.83Q-93.5 402.29 -96.23 403.31Q-98.96 404.32 -100.95 406.64L-111.25 398.55Q-107.17 393.76 -100.93 391.78Q-94.67 389.82 -86.59 391.24Q-77.52 392.84 -72.66 397.6Q-67.8 402.35 -69 409.15Q-69.55 412.26 -71.06 414.47Q-72.54 416.68 -74.33 418.08Q-76.09 419.46 -78.81 421.09Q-81.79 422.85 -83.3 424.19Q-84.81 425.54 -85.17 427.61L-98.75 425.21ZM-95.52 446.54Q-99.26 445.88 -101.29 443.12Q-103.31 440.36 -102.72 437.01Q-102.11 433.57 -99.32 431.79Q-96.52 430 -92.71 430.67Q-88.89 431.35 -86.84 433.99Q-84.79 436.62 -85.4 440.07Q-86 443.42 -88.85 445.31Q-91.7 447.21 -95.52 446.54Z" stroke="#202027" stroke-opacity="1.000000" stroke-width="0.806750"/>
		<rect id="Frame 2043683109" rx="29.500000" width="166.875168" height="222.833557" transform="translate(-153.427734 294.463867) rotate(10.000001)" stroke="#202027" stroke-opacity="1.000000" stroke-width="1.000000"/>
		<rect id="Frame 2043683105" rx="29.500000" width="166.875168" height="222.833557" transform="translate(21.601562 325.326172) rotate(10.000001)" fill="#BCEC30" fill-opacity="1.000000"/>
		<path id="?" d="M77.85 450.11Q75.23 452.81 74.39 457.54L91.22 460.51Q91.48 459 92.24 457.8Q92.77 456.96 93.54 456.28Q95.4 454.61 99.1 452.43Q102.48 450.4 104.66 448.69Q106.87 446.97 108.72 444.22Q110.58 441.48 111.27 437.63Q112.04 433.27 110.8 429.6Q109.65 426.16 106.73 423.31Q100.71 417.41 89.47 415.43Q79.45 413.67 71.69 416.11Q66.81 417.65 62.99 420.58Q60.76 422.29 58.89 424.49L71.66 434.52Q73.33 432.57 75.43 431.36Q76.43 430.79 77.51 430.39Q78.45 430.04 79.43 429.84Q81.95 429.32 84.68 429.8Q88.35 430.44 90.37 432.51Q91.49 433.65 91.84 434.99Q92.14 436.09 91.92 437.33Q91.83 437.82 91.66 438.29Q91.16 439.69 89.92 440.83Q88.3 442.33 85.12 444.41Q80.5 447.38 77.85 450.11ZM73.04 481.63Q75.22 483.41 78.4 483.97Q81.8 484.57 84.58 483.53Q85.67 483.12 86.66 482.46Q88.46 481.26 89.54 479.59Q90.57 477.99 90.93 475.95Q91.37 473.51 90.72 471.39Q90.24 469.82 89.15 468.42Q88.57 467.68 87.88 467.06Q85.54 464.96 81.88 464.31Q78.18 463.66 75.26 464.87Q74.44 465.21 73.68 465.7Q72.25 466.61 71.29 467.87Q69.91 469.66 69.47 472.17Q69.11 474.2 69.53 476.06Q69.96 478 71.24 479.74Q72.04 480.81 73.04 481.63Z" fill="#FFFFFF" fill-opacity="1.000000" fill-rule="evenodd"/>
		<path id="?" d="M74.39 457.54Q75.23 452.81 77.85 450.11Q80.5 447.38 85.12 444.41Q88.3 442.33 89.92 440.83Q91.57 439.32 91.92 437.33Q92.41 434.59 90.37 432.51Q88.35 430.44 84.68 429.8Q80.9 429.13 77.51 430.39Q74.12 431.65 71.66 434.52L58.89 424.49Q63.95 418.55 71.69 416.11Q79.45 413.67 89.47 415.43Q100.71 417.41 106.73 423.31Q112.76 429.2 111.27 437.63Q110.58 441.48 108.72 444.22Q106.87 446.97 104.66 448.69Q102.48 450.4 99.1 452.43Q95.4 454.61 93.54 456.28Q91.67 457.95 91.22 460.51L74.39 457.54ZM78.4 483.97Q73.76 483.16 71.24 479.74Q68.73 476.32 69.47 472.17Q70.22 467.9 73.68 465.7Q77.15 463.48 81.88 464.31Q86.61 465.15 89.15 468.42Q91.69 471.68 90.93 475.95Q90.2 480.1 86.66 482.46Q83.13 484.81 78.4 483.97Z" stroke="#202027" stroke-opacity="1.000000" stroke-width="0.806750"/>
		<rect id="Frame 2043683105" rx="29.500000" width="166.875168" height="222.833557" transform="translate(21.601562 325.326172) rotate(10.000001)" stroke="#202027" stroke-opacity="1.000000" stroke-width="1.000000"/>
		<rect id="Frame 2043683106" rx="29.500000" width="166.875168" height="222.833557" transform="translate(196.630859 356.188477) rotate(10.000001)" fill="#BCEC30" fill-opacity="1.000000"/>
		<path id="?" d="M252.88 480.97Q250.26 483.67 249.42 488.4L266.25 491.37Q266.51 489.86 267.27 488.66Q267.8 487.82 268.57 487.14Q270.43 485.47 274.13 483.29Q277.51 481.27 279.69 479.56Q281.9 477.83 283.75 475.08Q285.61 472.34 286.29 468.49Q287.07 464.14 285.83 460.46Q284.67 457.02 281.76 454.17Q275.74 448.28 264.5 446.3Q254.48 444.53 246.72 446.97Q241.84 448.51 238.02 451.44Q235.79 453.16 233.92 455.35L246.69 465.38Q248.36 463.43 250.46 462.22Q251.45 461.65 252.54 461.25Q253.48 460.9 254.46 460.7Q256.98 460.18 259.71 460.66Q263.38 461.31 265.4 463.38Q266.52 464.51 266.87 465.86Q267.17 466.96 266.95 468.19Q266.86 468.69 266.69 469.15Q266.19 470.56 264.95 471.7Q263.32 473.2 260.15 475.28Q255.53 478.25 252.88 480.97ZM248.07 512.49Q250.25 514.28 253.43 514.84Q256.83 515.44 259.61 514.39Q260.7 513.98 261.69 513.32Q263.49 512.12 264.57 510.45Q265.6 508.85 265.96 506.81Q266.4 504.37 265.75 502.26Q265.26 500.68 264.18 499.29Q263.6 498.54 262.91 497.92Q260.56 495.82 256.91 495.17Q253.21 494.52 250.29 495.74Q249.47 496.07 248.71 496.56Q247.28 497.47 246.32 498.73Q244.94 500.52 244.5 503.03Q244.14 505.07 244.56 506.93Q244.99 508.86 246.27 510.6Q247.06 511.67 248.07 512.49Z" fill="#FFFFFF" fill-opacity="1.000000" fill-rule="evenodd"/>
		<path id="?" d="M249.42 488.4Q250.26 483.67 252.88 480.97Q255.53 478.25 260.15 475.28Q263.32 473.2 264.95 471.7Q266.6 470.18 266.95 468.19Q267.43 465.45 265.4 463.38Q263.38 461.31 259.71 460.66Q255.93 459.99 252.54 461.25Q249.15 462.51 246.69 465.38L233.92 455.35Q238.98 449.41 246.72 446.97Q254.48 444.53 264.5 446.3Q275.74 448.28 281.76 454.17Q287.79 460.06 286.29 468.49Q285.61 472.34 283.75 475.08Q281.9 477.83 279.69 479.56Q277.51 481.27 274.13 483.29Q270.43 485.47 268.57 487.14Q266.7 488.81 266.25 491.37L249.42 488.4ZM253.43 514.84Q248.79 514.02 246.27 510.6Q243.76 507.18 244.5 503.03Q245.25 498.76 248.71 496.56Q252.18 494.34 256.91 495.17Q261.64 496.01 264.18 499.29Q266.72 502.54 265.96 506.81Q265.23 510.97 261.69 513.32Q258.16 515.67 253.43 514.84Z" stroke="#202027" stroke-opacity="1.000000" stroke-width="0.806750"/>
		<rect id="Frame 2043683106" rx="29.500000" width="166.875168" height="222.833557" transform="translate(196.630859 356.188477) rotate(10.000001)" stroke="#202027" stroke-opacity="1.000000" stroke-width="1.000000"/>
		<rect id="Frame 2043683107" rx="29.500000" width="166.875168" height="222.833557" transform="translate(371.660156 387.050781) rotate(10.000001)" fill="#BCEC30" fill-opacity="1.000000"/>
		<path id="?" d="M429.13 511.8Q427.02 513.98 426.34 517.8L439.92 520.19Q440.13 518.98 440.74 518.01Q441.17 517.33 441.79 516.78Q443.29 515.43 446.27 513.67Q449 512.04 450.76 510.66Q452.55 509.27 454.03 507.05Q455.54 504.84 456.09 501.73Q456.71 498.22 455.71 495.26Q454.78 492.48 452.43 490.18Q447.57 485.43 438.5 483.83Q430.42 482.4 424.16 484.37Q420.22 485.62 417.15 487.98Q415.34 489.36 413.84 491.14L424.14 499.23Q425.49 497.65 427.18 496.68Q427.98 496.22 428.86 495.9Q429.62 495.61 430.4 495.45Q432.44 495.03 434.65 495.42Q437.61 495.94 439.23 497.61Q440.13 498.53 440.42 499.61Q440.66 500.5 440.48 501.5Q440.41 501.89 440.28 502.27Q439.87 503.4 438.87 504.32Q437.56 505.53 434.99 507.21Q431.27 509.61 429.13 511.8ZM425.25 537.23Q427.01 538.67 429.57 539.13Q432.32 539.61 434.56 538.76Q435.44 538.43 436.24 537.9Q437.69 536.93 438.56 535.59Q439.4 534.3 439.69 532.65Q440.04 530.68 439.51 528.98Q439.12 527.7 438.25 526.58Q437.78 525.98 437.22 525.48Q435.33 523.78 432.38 523.26Q429.4 522.74 427.04 523.71Q426.38 523.99 425.77 524.38Q424.62 525.11 423.84 526.13Q422.73 527.58 422.37 529.6Q422.08 531.24 422.42 532.74Q422.77 534.3 423.8 535.71Q424.44 536.57 425.25 537.23Z" fill="#FFFFFF" fill-opacity="1.000000" fill-rule="evenodd"/>
		<path id="?" d="M426.34 517.8Q427.02 513.98 429.13 511.8Q431.27 509.61 434.99 507.21Q437.56 505.53 438.87 504.32Q440.2 503.1 440.48 501.5Q440.87 499.28 439.23 497.61Q437.61 495.94 434.65 495.42Q431.59 494.88 428.86 495.9Q426.12 496.91 424.14 499.23L413.84 491.14Q417.91 486.34 424.16 484.37Q430.42 482.4 438.5 483.83Q447.57 485.43 452.43 490.18Q457.29 494.94 456.09 501.73Q455.54 504.84 454.03 507.05Q452.55 509.27 450.76 510.66Q449 512.04 446.27 513.67Q443.29 515.43 441.79 516.78Q440.28 518.13 439.92 520.19L426.34 517.8ZM429.57 539.13Q425.83 538.46 423.8 535.71Q421.78 532.95 422.37 529.6Q422.98 526.15 425.77 524.38Q428.57 522.59 432.38 523.26Q436.2 523.94 438.25 526.58Q440.3 529.21 439.69 532.65Q439.09 536 436.24 537.9Q433.39 539.8 429.57 539.13Z" stroke="#202027" stroke-opacity="1.000000" stroke-width="0.806750"/>
		<rect id="Frame 2043683107" rx="29.500000" width="166.875168" height="222.833557" transform="translate(371.660156 387.050781) rotate(10.000001)" stroke="#202027" stroke-opacity="1.000000" stroke-width="1.000000"/>
		<rect id="Frame 2043683108" rx="29.500000" width="166.875168" height="222.833557" transform="translate(546.689453 417.913574) rotate(10.000001)" fill="#BCEC30" fill-opacity="1.000000"/>
		<path id="?" d="M604.16 542.66Q602.05 544.84 601.37 548.66L614.94 551.06Q615.16 549.84 615.77 548.87Q616.2 548.2 616.82 547.64Q618.32 546.29 621.3 544.53Q624.03 542.9 625.79 541.53Q627.58 540.13 629.06 537.92Q630.57 535.71 631.12 532.6Q631.74 529.09 630.74 526.12Q629.81 523.34 627.46 521.05Q622.6 516.29 613.53 514.69Q605.45 513.27 599.19 515.23Q595.25 516.48 592.18 518.84Q590.37 520.23 588.87 522L599.17 530.09Q600.52 528.52 602.21 527.54Q603.01 527.08 603.89 526.76Q604.65 526.47 605.43 526.31Q607.47 525.89 609.67 526.28Q612.64 526.8 614.26 528.47Q615.16 529.39 615.45 530.47Q615.69 531.36 615.51 532.36Q615.44 532.76 615.31 533.13Q614.9 534.26 613.9 535.18Q612.59 536.39 610.02 538.07Q606.3 540.47 604.16 542.66ZM600.28 568.1Q602.04 569.53 604.6 569.99Q607.35 570.47 609.59 569.63Q610.47 569.3 611.27 568.76Q612.72 567.8 613.59 566.45Q614.42 565.16 614.71 563.51Q615.07 561.54 614.54 559.84Q614.15 558.57 613.28 557.44Q612.81 556.84 612.25 556.34Q610.36 554.64 607.41 554.12Q604.43 553.6 602.07 554.58Q601.41 554.85 600.8 555.24Q599.65 555.98 598.86 557Q597.76 558.44 597.4 560.46Q597.11 562.1 597.45 563.61Q597.8 565.16 598.83 566.57Q599.47 567.44 600.28 568.1Z" fill="#FFFFFF" fill-opacity="1.000000" fill-rule="evenodd"/>
		<path id="?" d="M601.37 548.66Q602.05 544.84 604.16 542.66Q606.3 540.47 610.02 538.07Q612.59 536.39 613.9 535.18Q615.23 533.96 615.51 532.36Q615.9 530.14 614.26 528.47Q612.64 526.8 609.67 526.28Q606.62 525.74 603.89 526.76Q601.15 527.77 599.17 530.09L588.87 522Q592.94 517.21 599.19 515.23Q605.45 513.27 613.53 514.69Q622.6 516.29 627.46 521.05Q632.32 525.8 631.12 532.6Q630.57 535.71 629.06 537.92Q627.58 540.13 625.79 541.53Q624.03 542.9 621.3 544.53Q618.32 546.29 616.82 547.64Q615.31 548.99 614.94 551.06L601.37 548.66ZM604.6 569.99Q600.86 569.33 598.83 566.57Q596.8 563.81 597.4 560.46Q598.01 557.02 600.8 555.24Q603.59 553.45 607.41 554.12Q611.23 554.8 613.28 557.44Q615.33 560.07 614.71 563.51Q614.12 566.87 611.27 568.76Q608.42 570.66 604.6 569.99Z" stroke="#202027" stroke-opacity="1.000000" stroke-width="0.806750"/>
		<rect id="Frame 2043683108" rx="29.500000" width="166.875168" height="222.833557" transform="translate(546.689453 417.913574) rotate(10.000001)" stroke="#202027" stroke-opacity="1.000000" stroke-width="1.000000"/>
		<g filter="url(#filter_13_2177_dd)">
			<rect id="Frame 2043683065" rx="30.500000" width="218.818085" height="291.424133" transform="translate(217.495117 87.971680) rotate(10.000000)" fill="#E1FF8F" fill-opacity="1.000000"/>
			<rect id="Frame 2043683065" rx="30.500000" width="218.818085" height="291.424133" transform="translate(217.495117 87.971680) rotate(10.000000)" stroke="#202027" stroke-opacity="1.000000" stroke-width="1.000000"/>
			<rect id="Frame 2043683065" rx="30.500000" width="218.818085" height="291.424133" transform="translate(217.495117 87.971680) rotate(10.000000)" stroke="#000000" stroke-opacity="0.200000" stroke-width="1.000000"/>
		</g>
		<path id="?" d="M291.37 251.21Q287.88 254.81 286.76 261.12L309.19 265.07Q309.55 263.06 310.56 261.46Q311.26 260.35 312.29 259.43Q314.78 257.21 319.7 254.3Q324.21 251.6 327.12 249.32Q330.07 247.02 332.53 243.36Q335.01 239.7 335.92 234.57Q336.95 228.76 335.3 223.86Q333.76 219.27 329.88 215.48Q321.85 207.62 306.86 204.97Q293.5 202.62 283.15 205.87Q276.64 207.93 271.56 211.83Q268.58 214.12 266.1 217.05L283.12 230.43Q285.35 227.82 288.15 226.21Q289.47 225.45 290.92 224.92Q292.18 224.45 293.47 224.18Q296.84 223.49 300.48 224.13Q305.38 224.99 308.06 227.75Q309.55 229.27 310.03 231.06Q310.42 232.52 310.13 234.17Q310.01 234.83 309.79 235.45Q309.11 237.32 307.46 238.84Q305.3 240.84 301.06 243.62Q294.9 247.58 291.37 251.21ZM284.95 293.24Q287.86 295.62 292.1 296.36Q296.63 297.16 300.35 295.77Q301.8 295.22 303.12 294.34Q305.52 292.74 306.96 290.52Q308.33 288.38 308.82 285.67Q309.39 282.41 308.53 279.59Q307.88 277.49 306.43 275.63Q305.67 274.64 304.74 273.81Q301.62 271.01 296.74 270.15Q291.81 269.28 287.91 270.9Q286.82 271.35 285.82 272Q283.91 273.21 282.62 274.89Q280.79 277.28 280.19 280.62Q279.71 283.34 280.27 285.82Q280.86 288.39 282.56 290.71Q283.62 292.15 284.95 293.24Z" fill="#FFFFFF" fill-opacity="1.000000" fill-rule="evenodd"/>
		<path id="?" d="M286.76 261.12Q287.88 254.81 291.37 251.21Q294.9 247.58 301.06 243.62Q305.3 240.84 307.46 238.84Q309.66 236.82 310.13 234.17Q310.78 230.51 308.06 227.75Q305.38 224.99 300.48 224.13Q295.44 223.24 290.92 224.92Q286.4 226.59 283.12 230.43L266.1 217.05Q272.83 209.13 283.15 205.87Q293.5 202.62 306.86 204.97Q321.85 207.62 329.88 215.48Q337.91 223.33 335.92 234.57Q335.01 239.7 332.53 243.36Q330.07 247.02 327.12 249.32Q324.21 251.6 319.7 254.3Q314.78 257.21 312.29 259.43Q309.8 261.66 309.19 265.07L286.76 261.12ZM292.1 296.36Q285.91 295.27 282.56 290.71Q279.21 286.16 280.19 280.62Q281.2 274.93 285.82 272Q290.43 269.03 296.74 270.15Q303.05 271.26 306.43 275.63Q309.82 279.97 308.82 285.67Q307.83 291.2 303.12 294.34Q298.41 297.48 292.1 296.36Z" stroke="#202027" stroke-opacity="1.000000" stroke-width="1.000000"/>
	</g>
</svg>
