<svg width="600.000000" height="500.000000" viewBox="0 0 600 500" fill="none" xmlns="http://www.w3.org/2000/svg" xmlns:xlink="http://www.w3.org/1999/xlink">
	<desc>
			Created with Pixso.
	</desc>
	<defs>
		<clipPath id="clip13_2298">
			<rect id="Обложка карточки" rx="29.500000" width="599.000000" height="499.000000" transform="translate(0.500000 0.500000)" fill="white" fill-opacity="0"/>
		</clipPath>
	</defs>
	<rect id="Обложка карточки" rx="29.500000" width="599.000000" height="499.000000" transform="translate(0.500000 0.500000)" fill="#271A58" fill-opacity="1.000000"/>
	<g clip-path="url(#clip13_2298)">
		<rect id="Frame 2043683080" rx="29.500000" width="159.000000" height="158.999985" transform="translate(31.007812 -147.478516) rotate(10.000000)" fill="#D9B6FF" fill-opacity="1.000000"/>
		<rect id="Frame 2043683080" rx="29.500000" width="159.000000" height="158.999985" transform="translate(31.007812 -147.478516) rotate(10.000000)" stroke="#271A58" stroke-opacity="1.000000" stroke-width="1.000000"/>
		<rect id="Frame 2043683097" rx="29.500000" width="159.000000" height="158.999985" transform="translate(200.517578 -117.589844) rotate(10.000000)" fill="#1FA46C" fill-opacity="1.000000"/>
		<rect id="Frame 2043683097" rx="29.500000" width="159.000000" height="158.999985" transform="translate(200.517578 -117.589844) rotate(10.000000)" stroke="#271A58" stroke-opacity="1.000000" stroke-width="1.000000"/>
		<rect id="Frame 2043683096" rx="29.500000" width="159.000000" height="158.999985" transform="translate(370.026367 -87.700195) rotate(10.000000)" fill="#565EEF" fill-opacity="1.000000"/>
		<rect id="Frame 2043683096" rx="29.500000" width="159.000000" height="158.999985" transform="translate(370.026367 -87.700195) rotate(10.000000)" stroke="#271A58" stroke-opacity="1.000000" stroke-width="1.000000"/>
		<rect id="Frame 2043683099" rx="29.500000" width="159.000000" height="158.999985" transform="translate(539.535156 -57.811523) rotate(10.000000)" fill="#00C1FF" fill-opacity="1.000000"/>
		<rect id="Frame 2043683099" rx="29.500000" width="159.000000" height="158.999985" transform="translate(539.535156 -57.811523) rotate(10.000000)" stroke="#271A58" stroke-opacity="1.000000" stroke-width="1.000000"/>
		<rect id="Frame 2043683103" rx="29.500000" width="159.000000" height="158.999985" transform="translate(1.140625 21.908203) rotate(10.000000)" fill="#F25050" fill-opacity="1.000000"/>
		<rect id="Frame 2043683103" rx="29.500000" width="159.000000" height="158.999985" transform="translate(1.140625 21.908203) rotate(10.000000)" stroke="#271A58" stroke-opacity="1.000000" stroke-width="1.000000"/>
		<rect id="Frame 2043683102" rx="29.500000" width="159.000000" height="158.999985" transform="translate(170.649414 51.797363) rotate(10.000000)" fill="#FFC700" fill-opacity="1.000000"/>
		<rect id="Frame 2043683102" rx="29.500000" width="159.000000" height="158.999985" transform="translate(170.649414 51.797363) rotate(10.000000)" stroke="#271A58" stroke-opacity="1.000000" stroke-width="1.000000"/>
		<rect id="Frame 2043683105" rx="29.500000" width="159.000000" height="158.999985" transform="translate(340.158203 81.686523) rotate(10.000000)" fill="#99D100" fill-opacity="1.000000"/>
		<rect id="Frame 2043683105" rx="29.500000" width="159.000000" height="158.999985" transform="translate(340.158203 81.686523) rotate(10.000000)" stroke="#271A58" stroke-opacity="1.000000" stroke-width="1.000000"/>
		<rect id="Frame 2043683107" rx="29.500000" width="159.000000" height="158.999985" transform="translate(509.667969 111.575195) rotate(10.000000)" fill="#AD61FF" fill-opacity="1.000000"/>
		<rect id="Frame 2043683107" rx="29.500000" width="159.000000" height="158.999985" transform="translate(509.667969 111.575195) rotate(10.000000)" stroke="#271A58" stroke-opacity="1.000000" stroke-width="1.000000"/>
		<rect id="Frame 2043683108" rx="29.500000" width="159.000000" height="158.999985" transform="translate(-28.726562 191.295410) rotate(10.000000)" fill="#565EEF" fill-opacity="1.000000"/>
		<rect id="Frame 2043683108" rx="29.500000" width="159.000000" height="158.999985" transform="translate(-28.726562 191.295410) rotate(10.000000)" stroke="#271A58" stroke-opacity="1.000000" stroke-width="1.000000"/>
		<rect id="Frame 2043683110" rx="29.500000" width="159.000000" height="158.999985" transform="translate(140.782227 221.184570) rotate(10.000000)" fill="#00C1FF" fill-opacity="1.000000"/>
		<rect id="Frame 2043683110" rx="29.500000" width="159.000000" height="158.999985" transform="translate(140.782227 221.184570) rotate(10.000000)" stroke="#271A58" stroke-opacity="1.000000" stroke-width="1.000000"/>
		<rect id="Frame 2043683112" rx="29.500000" width="159.000000" height="158.999985" transform="translate(310.291016 251.073242) rotate(10.000000)" fill="#FF6D00" fill-opacity="1.000000"/>
		<rect id="Frame 2043683112" rx="29.500000" width="159.000000" height="158.999985" transform="translate(310.291016 251.073242) rotate(10.000000)" stroke="#271A58" stroke-opacity="1.000000" stroke-width="1.000000"/>
		<rect id="Frame 2043683111" rx="29.500000" width="159.000000" height="158.999985" transform="translate(479.799805 280.962402) rotate(10.000000)" fill="#1FA46C" fill-opacity="1.000000"/>
		<rect id="Frame 2043683111" rx="29.500000" width="159.000000" height="158.999985" transform="translate(479.799805 280.962402) rotate(10.000000)" stroke="#271A58" stroke-opacity="1.000000" stroke-width="1.000000"/>
		<rect id="Frame 2043683115" rx="29.500000" width="159.000000" height="158.999985" transform="translate(-58.594727 360.682129) rotate(10.000000)" fill="#AD61FF" fill-opacity="1.000000"/>
		<rect id="Frame 2043683115" rx="29.500000" width="159.000000" height="158.999985" transform="translate(-58.594727 360.682129) rotate(10.000000)" stroke="#271A58" stroke-opacity="1.000000" stroke-width="1.000000"/>
		<rect id="Frame 2043683116" rx="29.500000" width="159.000000" height="158.999985" transform="translate(110.915039 390.571289) rotate(10.000000)" fill="#99D100" fill-opacity="1.000000"/>
		<rect id="Frame 2043683116" rx="29.500000" width="159.000000" height="158.999985" transform="translate(110.915039 390.571289) rotate(10.000000)" stroke="#271A58" stroke-opacity="1.000000" stroke-width="1.000000"/>
		<rect id="Frame 2043683117" rx="29.500000" width="159.000000" height="158.999985" transform="translate(280.423828 420.459961) rotate(10.000000)" fill="#FFC700" fill-opacity="1.000000"/>
		<rect id="Frame 2043683117" rx="29.500000" width="159.000000" height="158.999985" transform="translate(280.423828 420.459961) rotate(10.000000)" stroke="#271A58" stroke-opacity="1.000000" stroke-width="1.000000"/>
		<rect id="Frame 2043683118" rx="29.500000" width="159.000000" height="158.999985" transform="translate(449.932617 450.349121) rotate(10.000000)" fill="#D9B6FF" fill-opacity="1.000000"/>
		<rect id="Frame 2043683118" rx="29.500000" width="159.000000" height="158.999985" transform="translate(449.932617 450.349121) rotate(10.000000)" stroke="#271A58" stroke-opacity="1.000000" stroke-width="1.000000"/>
	</g>
</svg>
