<svg width="566.083008" height="566.841614" viewBox="0 0 566.083 566.842" fill="none" xmlns="http://www.w3.org/2000/svg" xmlns:xlink="http://www.w3.org/1999/xlink">
	<desc>
			Created with Pixso.
	</desc>
	<defs/>
	<path id="Star 1" d="M215.39 196.12L26.9 136.25L164.33 278.47L0 388.52L196.88 369.75L180.45 566.84L288.53 401.21L432.38 536.93L370.27 349.16L566.08 321.32L380.55 252.81L480.86 82.36L311.62 184.69L240.91 0L215.39 196.12ZM241.39 4.05L216.23 197.43L30.37 138.4L165.88 278.64L3.84 387.14L197.97 368.64L181.78 562.98L288.35 399.66L430.19 533.49L368.95 348.34L562.02 320.89L379.08 253.33L477.99 85.26L311.12 186.17L241.39 4.05Z" fill="#BCEC30" fill-opacity="1.000000" fill-rule="evenodd"/>
</svg>
