<svg width="807.753906" height="786.936890" viewBox="0 0 807.754 786.937" fill="none" xmlns="http://www.w3.org/2000/svg" xmlns:xlink="http://www.w3.org/1999/xlink">
	<desc>
			Created with Pixso.
	</desc>
	<defs/>
	<path id="Vector" d="M533.96 307.53C543.38 310.16 805.79 421.09 805.79 421.09L527.38 450.97L703.27 676.78L455.31 522.54L430.04 783.98L360.16 508.66L127.21 639.62L287.68 447.39L2.9 434.41L270.57 354.15L71.68 125.08L351.31 256.63L415.3 2.81L444.04 257.17L698.75 81.73L533.96 307.53Z" fill="#BCEC30" fill-opacity="1.000000" fill-rule="nonzero"/>
	<path id="Vector" d="M805.79 421.09L527.38 450.97L703.27 676.78L455.31 522.54L430.04 783.98L360.16 508.66L127.21 639.62L287.68 447.39L2.9 434.41L270.57 354.15L71.68 125.08L351.31 256.63L415.3 2.81L444.04 257.17L698.75 81.73L533.96 307.53C543.38 310.16 805.79 421.09 805.79 421.09Z" stroke="#202027" stroke-opacity="1.000000" stroke-width="1.000000"/>
</svg>
